<?xml version="1.0" encoding="UTF-8" standalone="no"?>
<!-- Created with Inkscape (http://www.inkscape.org/) -->

<svg
   xmlns:dc="http://purl.org/dc/elements/1.1/"
   xmlns:cc="http://creativecommons.org/ns#"
   xmlns:rdf="http://www.w3.org/1999/02/22-rdf-syntax-ns#"
   xmlns:svg="http://www.w3.org/2000/svg"
   xmlns="http://www.w3.org/2000/svg"
   xmlns:sodipodi="http://sodipodi.sourceforge.net/DTD/sodipodi-0.dtd"
   xmlns:inkscape="http://www.inkscape.org/namespaces/inkscape"
   version="1.1"
   id="svg2"
   xml:space="preserve"
   width="320.00012"
   height="320.00012"
   viewBox="0 0 320.00012 320.00012"
   sodipodi:docname="Ana carla ARTEBIJU.svg"
   inkscape:version="0.92.3 (2405546, 2018-03-11)"><metadata
     id="metadata8"><rdf:RDF><cc:Work
         rdf:about=""><dc:format>image/svg+xml</dc:format><dc:type
           rdf:resource="http://purl.org/dc/dcmitype/StillImage" /><dc:title></dc:title></cc:Work></rdf:RDF></metadata><defs
     id="defs6"><clipPath
       clipPathUnits="userSpaceOnUse"
       id="clipPath18"><path
         d="M 0,239.9998 H 239.9998 V 0 H 0 Z"
         id="path16"
         inkscape:connector-curvature="0"
         style="clip-rule:evenodd" /></clipPath><radialGradient
       fx="0"
       fy="0"
       cx="0"
       cy="0"
       r="0.5"
       gradientUnits="userSpaceOnUse"
       gradientTransform="matrix(239.99981,0,0,239.99981,119.9999,119.9999)"
       spreadMethod="pad"
       id="radialGradient26"><stop
         style="stop-opacity:1;stop-color:#333333"
         offset="0"
         id="stop22" /><stop
         style="stop-opacity:1;stop-color:#000000"
         offset="1"
         id="stop24" /></radialGradient></defs><sodipodi:namedview
     pagecolor="#ffffff"
     bordercolor="#666666"
     borderopacity="1"
     objecttolerance="10"
     gridtolerance="10"
     guidetolerance="10"
     inkscape:pageopacity="0"
     inkscape:pageshadow="2"
     inkscape:window-width="1366"
     inkscape:window-height="712"
     id="namedview4"
     showgrid="false"
     inkscape:zoom="0.73749972"
     inkscape:cx="136.27124"
     inkscape:cy="160.00006"
     inkscape:window-x="0"
     inkscape:window-y="0"
     inkscape:window-maximized="1"
     inkscape:current-layer="g30" /><g
     id="g10"
     inkscape:groupmode="layer"
     inkscape:label="Ana carla ARTEBIJU"
     transform="matrix(1.3333333,0,0,-1.3333333,0,320.00013)"><g
       id="g12"><g
         id="g14"
         clip-path="url(#clipPath18)"><g
           id="g20"><path
             d="M 0,239.9998 H 239.9998 V 0 H 0 Z"
             style="fill:url(#radialGradient26);fill-rule:evenodd;stroke:none"
             id="path28"
             inkscape:connector-curvature="0" /></g></g></g><g
       id="g30"><g
         id="g32"><path
           d="m 98.5096,142.8293 c -0.362,0.2236 -0.6551,0.4632 -0.8804,0.7452 -0.3478,0.4351 -0.5222,0.9493 -0.5222,1.6243 0,0.75 0.3047,1.4309 0.7966,1.9227 0.4932,0.4913 1.1729,0.7963 1.9224,0.7963 1.2702,0 2.522,-0.6208 3.7633,-1.5517 1.2107,-0.908 2.4018,-2.0991 3.5921,-3.2893 l 0.2471,-0.2475 -0.2471,-0.2472 c -1.1903,-1.1905 -2.3811,-2.3811 -3.5921,-3.2893 -1.2413,-0.9309 -2.4931,-1.5517 -3.7633,-1.5517 -0.7506,0 -1.4306,0.3047 -1.9224,0.7965 -0.4919,0.4918 -0.7966,1.1719 -0.7966,1.9225 0,1.1438 0.4677,1.798 1.4026,2.3692 z m 4.9227,-0.019 c -0.0567,-0.9607 -0.5157,-1.4409 -1.3766,-1.4409 -0.6735,0 -1.6194,0.3541 -2.834,1.0622 -0.9434,-0.4992 -1.4151,-1.014 -1.4151,-1.9715 0,-0.5576 0.2262,-1.0627 0.5916,-1.4278 0.3651,-0.3654 0.8702,-0.5916 1.4278,-0.5916 1.0984,0 2.217,0.5641 3.3449,1.4097 1.0774,0.8076 2.1722,1.8842 3.2681,2.9789 -1.0962,1.0953 -2.1915,2.1719 -3.2681,2.9792 -1.1279,0.8456 -2.2465,1.4097 -3.3449,1.4097 -0.5578,0 -1.0633,-0.2262 -1.4286,-0.5908 -0.3646,-0.3659 -0.5908,-0.8713 -0.5908,-1.4286 0,-0.5088 0.1222,-0.8844 0.3663,-1.19 0.2318,-0.29 0.5853,-0.5366 1.0542,-0.7832 0.9487,0.5264 1.7274,0.8603 2.334,0.9992 0.4484,0.1026 0.8203,0.104 1.1137,0.003 0.3408,-0.1176 0.5692,-0.3563 0.6835,-0.7157 0.0635,-0.199 0.0878,-0.4332 0.074,-0.7019 z m -1.3766,-0.741 c 0.4227,0 0.6492,0.2605 0.6798,0.781 0.009,0.1842 -0.005,0.3359 -0.0411,0.4512 -0.0425,0.1347 -0.1256,0.2237 -0.2463,0.2651 -0.1684,0.0581 -0.4128,0.0504 -0.7311,-0.0227 -0.4561,-0.1043 -1.0327,-0.3382 -1.7286,-0.7007 l 0.0258,-0.0128 -0.0431,-0.0215 c 0.9054,-0.4927 1.6011,-0.7396 2.0846,-0.7396"
           style="fill:#baa98b;fill-opacity:1;fill-rule:nonzero;stroke:none"
           id="path34"
           inkscape:connector-curvature="0" /><path
           d="m 141.4902,142.8293 c 0.362,0.2236 0.6551,0.4632 0.8804,0.7452 0.3479,0.4351 0.5222,0.9493 0.5222,1.6243 0,0.75 -0.3047,1.4309 -0.7965,1.9227 -0.4933,0.4913 -1.173,0.7963 -1.9225,0.7963 -1.2702,0 -2.522,-0.6208 -3.7633,-1.5517 -1.2107,-0.908 -2.4018,-2.0991 -3.592,-3.2893 l -0.2472,-0.2475 0.2472,-0.2472 c 1.1902,-1.1905 2.3811,-2.3811 3.592,-3.2893 1.2413,-0.9309 2.4931,-1.5517 3.7633,-1.5517 0.7506,0 1.4306,0.3047 1.9225,0.7965 0.4918,0.4918 0.7965,1.1719 0.7965,1.9225 0,1.1438 -0.4677,1.798 -1.4026,2.3692 z m -4.9226,-0.019 c 0.0567,-0.9607 0.5156,-1.4409 1.3765,-1.4409 0.6735,0 1.6194,0.3541 2.834,1.0622 0.9434,-0.4992 1.4151,-1.014 1.4151,-1.9715 0,-0.5576 -0.2262,-1.0627 -0.5916,-1.4278 -0.3651,-0.3654 -0.8702,-0.5916 -1.4278,-0.5916 -1.0984,0 -2.217,0.5641 -3.3449,1.4097 -1.0774,0.8076 -2.1722,1.8842 -3.268,2.9789 1.0961,1.0953 2.1914,2.1719 3.268,2.9792 1.1279,0.8456 2.2465,1.4097 3.3449,1.4097 0.5579,0 1.0633,-0.2262 1.4287,-0.5908 0.3645,-0.3659 0.5907,-0.8713 0.5907,-1.4286 0,-0.5088 -0.1222,-0.8844 -0.3662,-1.19 -0.2319,-0.29 -0.5854,-0.5366 -1.0542,-0.7832 -0.9488,0.5264 -1.7275,0.8603 -2.3341,0.9992 -0.4484,0.1026 -0.8203,0.104 -1.1137,0.003 -0.3407,-0.1176 -0.5692,-0.3563 -0.6835,-0.7157 -0.0635,-0.199 -0.0878,-0.4332 -0.0739,-0.7019 z m 1.3765,-0.741 c -0.4227,0 -0.6492,0.2605 -0.6798,0.781 -0.009,0.1842 0.005,0.3359 0.0411,0.4512 0.0425,0.1347 0.1256,0.2237 0.2463,0.2651 0.1684,0.0581 0.4128,0.0504 0.7311,-0.0227 0.4561,-0.1043 1.0327,-0.3382 1.7286,-0.7007 l -0.0258,-0.0128 0.0431,-0.0215 c -0.9054,-0.4927 -1.601,-0.7396 -2.0846,-0.7396"
           style="fill:#baa98b;fill-opacity:1;fill-rule:nonzero;stroke:none"
           id="path36"
           inkscape:connector-curvature="0" /><path
           d="m 119.9996,165.7395 c 0.2237,0.3619 0.4632,0.6551 0.745,0.8804 0.4354,0.3481 0.9496,0.5221 1.6245,0.5221 0.75,0 1.4306,-0.3047 1.9225,-0.7965 0.4915,-0.4932 0.7965,-1.1727 0.7965,-1.9224 0,-1.2702 -0.6208,-2.522 -1.5517,-3.763 -0.9079,-1.2107 -2.099,-2.4018 -3.2896,-3.5924 l -0.2472,-0.2472 -0.2474,0.2472 c -1.1903,1.1906 -2.3811,2.3811 -3.2891,3.5924 -0.9309,1.241 -1.5517,2.4928 -1.5517,3.763 0,0.7506 0.3048,1.4306 0.7966,1.9224 0.4918,0.4918 1.1718,0.7965 1.9224,0.7965 1.1438,0 1.798,-0.4677 2.3692,-1.4025 z m -0.019,-4.9224 c -0.9609,0.0567 -1.4408,0.5156 -1.4408,1.3765 0,0.6732 0.354,1.6192 1.0621,2.8341 -0.4992,0.9434 -1.0142,1.4148 -1.9715,1.4148 -0.5575,0 -1.0627,-0.2262 -1.4278,-0.5916 -0.3654,-0.3651 -0.5916,-0.8703 -0.5916,-1.4278 0,-1.0985 0.5641,-2.217 1.4097,-3.3449 0.8076,-1.0772 1.8839,-2.1722 2.9789,-3.2681 1.0953,1.0962 2.1719,2.1915 2.9792,3.2681 0.8456,1.1279 1.4097,2.2464 1.4097,3.3449 0,0.5578 -0.2262,1.0635 -0.5907,1.4286 -0.366,0.3646 -0.8714,0.5908 -1.4287,0.5908 -0.5088,0 -0.8847,-0.1219 -1.19,-0.3663 -0.29,-0.2319 -0.5366,-0.5851 -0.7832,-1.0542 0.5264,-0.9487 0.8603,-1.7274 0.9989,-2.334 0.1029,-0.4485 0.1043,-0.8201 0.003,-1.1138 -0.1176,-0.3407 -0.3563,-0.5689 -0.7157,-0.6834 -0.199,-0.0632 -0.4331,-0.0879 -0.7019,-0.0737 z m -0.7412,1.3765 c 0,-0.4226 0.2608,-0.6494 0.7812,-0.6797 0.1843,-0.01 0.3359,0.005 0.4513,0.0408 0.1346,0.0428 0.2233,0.1256 0.265,0.2463 0.0581,0.1687 0.0505,0.4127 -0.0227,0.7311 -0.1043,0.4561 -0.3381,1.0326 -0.7007,1.7288 l -0.0127,-0.0261 -0.0216,0.0431 c -0.4926,-0.9054 -0.7398,-1.601 -0.7398,-2.0843"
           style="fill:#baa98b;fill-opacity:1;fill-rule:nonzero;stroke:none"
           id="path38"
           inkscape:connector-curvature="0" /><g
           id="g40"><g
             id="g42"><path
               d="m 103.6568,159.495 c 0.7985,-2.2283 1.6126,-3.7576 2.4403,-4.585 0.7792,-0.7795 1.5761,-0.8839 2.3893,-0.313 0.2089,0.3405 0.3476,0.6648 0.4164,0.9709 0.1029,0.4575 0.0479,0.8841 -0.1647,1.2784 -0.225,0.417 -0.627,0.8088 -1.2047,1.1741 -0.8918,0.5636 -2.1838,1.0554 -3.8766,1.4746 z m 1.9457,-5.0797 c -0.9754,0.9752 -1.9143,2.7936 -2.8148,5.4533 l -0.1996,0.5888 0.6066,-0.1364 c 2.0755,-0.4671 3.6465,-1.0374 4.7101,-1.7101 0.6823,-0.4314 1.1656,-0.9096 1.4482,-1.4335 0.2948,-0.5468 0.3716,-1.135 0.2304,-1.7628 -0.0904,-0.402 -0.2718,-0.8178 -0.5428,-1.247 l -0.0357,-0.057 -0.053,-0.0388 c -1.1534,-0.8501 -2.2703,-0.7356 -3.3494,0.3435"
               style="fill:#baa98b;fill-opacity:1;fill-rule:nonzero;stroke:none"
               id="path44"
               inkscape:connector-curvature="0" /><path
               d="m 109.7189,162.6024 c 6e-4,0.0538 0.0139,0.1085 0.0408,0.1593 0.0908,0.1703 0.3028,0.2352 0.4732,0.1445 1.1809,-0.6278 2.1424,-1.5585 2.808,-2.6665 0.665,-1.1072 1.0354,-2.3925 1.0354,-3.7301 0,-2.0002 -0.8112,-3.8123 -2.1217,-5.1231 -1.3107,-1.3104 -3.1229,-2.1217 -5.123,-2.1217 -1.2036,0 -2.3692,0.2993 -3.401,0.8478 -1.0316,0.5485 -1.9313,1.3476 -2.6048,2.346 -0.1077,0.1596 -0.0658,0.3773 0.0941,0.485 0.0451,0.0303 0.0944,0.0487 0.1449,0.0561 l 0.008,0.001 0.002,5e-4 c 2.776,0.5151 4.7685,-0.4969 5.9772,-3.0333 1.7195,0.0572 3.2717,0.7772 4.4076,1.9131 1.184,1.1843 1.9168,2.821 1.9168,4.6284 0,0.0774 -0.002,0.1545 -0.004,0.2316 -1.3133,0.4861 -2.2788,1.2041 -2.8945,2.1526 -0.6468,0.9958 -0.8997,2.2323 -0.7591,3.7086 z m 3.5796,-5.0817 c -0.1315,0.843 -0.4252,1.6438 -0.8558,2.361 -0.5082,0.8458 -1.2095,1.5772 -2.0619,2.1271 -0.0275,-1.0817 0.2001,-1.9933 0.682,-2.7352 0.4822,-0.7429 1.2277,-1.3274 2.2357,-1.7529 z m -11.5568,-5.1262 c 0.559,-0.6914 1.2472,-1.2549 2.0168,-1.6642 0.7676,-0.4076 1.6175,-0.663 2.5013,-0.7407 -0.9845,1.819 -2.4911,2.6206 -4.5181,2.4049"
               style="fill:#baa98b;fill-opacity:1;fill-rule:nonzero;stroke:none"
               id="path46"
               inkscape:connector-curvature="0" /></g><g
             id="g48"><path
               d="m 136.3969,160.1399 c -0.7985,-2.2283 -1.6126,-3.7576 -2.44,-4.5853 -0.7796,-0.7795 -1.5764,-0.8836 -2.3897,-0.3127 -0.2089,0.3402 -0.3472,0.6645 -0.4161,0.9706 -0.1029,0.4575 -0.0482,0.8844 0.1647,1.2784 0.2248,0.417 0.6268,0.809 1.2047,1.1741 0.8915,0.5636 2.1838,1.0554 3.8764,1.4749 z m -1.9454,-5.08 c 0.9751,0.9752 1.9139,2.7936 2.8148,5.4533 l 0.1993,0.5888 -0.6066,-0.1364 c -2.0753,-0.4668 -3.6462,-1.0374 -4.7101,-1.7101 -0.682,-0.4314 -1.1656,-0.9096 -1.4482,-1.4335 -0.2948,-0.5468 -0.3713,-1.1347 -0.2305,-1.7626 0.0907,-0.4019 0.2719,-0.818 0.5429,-1.2472 l 0.0357,-0.057 0.0533,-0.0388 c 1.1531,-0.8501 2.2702,-0.7356 3.3494,0.3435"
               style="fill:#baa98b;fill-opacity:1;fill-rule:nonzero;stroke:none"
               id="path50"
               inkscape:connector-curvature="0" /><path
               d="m 130.2809,162.6024 c -6e-4,0.0538 -0.0139,0.1085 -0.0408,0.1593 -0.0907,0.1703 -0.3025,0.2352 -0.4729,0.1445 -1.1809,-0.6278 -2.1427,-1.5585 -2.8082,-2.6665 -0.665,-1.1072 -1.0355,-2.3925 -1.0355,-3.7301 0,-2.0002 0.8112,-3.8123 2.122,-5.1231 1.3107,-1.3104 3.1226,-2.1217 5.1228,-2.1217 1.2035,0 2.3691,0.2993 3.4012,0.8478 1.0316,0.5485 1.9313,1.3476 2.6045,2.346 0.1077,0.1596 0.0658,0.3773 -0.0941,0.485 -0.0451,0.0303 -0.0944,0.0487 -0.1448,0.0561 l -0.008,0.001 -0.002,5e-4 c -2.776,0.5151 -4.7685,-0.4969 -5.9772,-3.0333 -1.7195,0.0572 -3.2714,0.7772 -4.4073,1.9131 -1.184,1.1843 -1.917,2.821 -1.917,4.6284 0,0.0774 0.001,0.1545 0.004,0.2316 1.3136,0.4861 2.2791,1.2041 2.8947,2.1526 0.6466,0.9958 0.8998,2.2323 0.7589,3.7086 z m -3.5793,-5.0817 c 0.1315,0.843 0.4249,1.6438 0.8555,2.361 0.5082,0.8458 1.2095,1.5772 2.0622,2.1271 0.0272,-1.0817 -0.2002,-1.9933 -0.6823,-2.7352 -0.4819,-0.7429 -1.2277,-1.3274 -2.2354,-1.7529 z m 11.5565,-5.1262 c -0.5587,-0.6914 -1.2472,-1.2549 -2.0168,-1.6642 -0.7673,-0.4076 -1.6175,-0.663 -2.501,-0.7407 0.9842,1.819 2.4908,2.6206 4.5178,2.4049"
               style="fill:#baa98b;fill-opacity:1;fill-rule:nonzero;stroke:none"
               id="path52"
               inkscape:connector-curvature="0" /></g></g><path
           d="m 119.9996,120.314 c 0.2237,-0.362 0.4632,-0.6551 0.745,-0.8805 0.4354,-0.3481 0.9496,-0.5221 1.6245,-0.5221 0.75,0 1.4306,0.3044 1.9225,0.7963 0.4915,0.4932 0.7965,1.1729 0.7965,1.9227 0,1.2699 -0.6208,2.522 -1.5517,3.763 -0.9079,1.2107 -2.099,2.4018 -3.2896,3.5923 l -0.2472,0.2472 -0.2474,-0.2472 c -1.1903,-1.1905 -2.3811,-2.3811 -3.2891,-3.5923 -0.9309,-1.241 -1.5517,-2.4931 -1.5517,-3.763 0,-0.7509 0.3048,-1.4307 0.7966,-1.9227 0.4918,-0.4919 1.1718,-0.7963 1.9224,-0.7963 1.1438,0 1.798,0.4674 2.3692,1.4026 z m -0.019,4.9223 c -0.9609,-0.0566 -1.4408,-0.5156 -1.4408,-1.3765 0,-0.6732 0.354,-1.6191 1.0621,-2.834 -0.4992,-0.9434 -1.0142,-1.4148 -1.9715,-1.4148 -0.5575,0 -1.0627,0.2262 -1.4278,0.5913 -0.3654,0.3654 -0.5916,0.8705 -0.5916,1.4281 0,1.0984 0.5641,2.217 1.4097,3.3446 0.8076,1.0774 1.8839,2.1725 2.9789,3.2683 1.0953,-1.0961 2.1719,-2.1914 2.9792,-3.2683 0.8456,-1.1276 1.4097,-2.2462 1.4097,-3.3446 0,-0.5581 -0.2262,-1.0636 -0.5907,-1.4287 -0.366,-0.3645 -0.8714,-0.5907 -1.4287,-0.5907 -0.5088,0 -0.8847,0.1219 -1.19,0.3662 -0.29,0.2319 -0.5366,0.5851 -0.7832,1.0542 0.5264,0.9488 0.8603,1.7275 0.9989,2.3338 0.1029,0.4484 0.1043,0.8203 0.003,1.114 -0.1176,0.3407 -0.3563,0.5689 -0.7157,0.6834 -0.199,0.0633 -0.4331,0.0879 -0.7019,0.0737 z m -0.7412,-1.3765 c 0,0.4227 0.2608,0.6495 0.7812,0.6798 0.1843,0.009 0.3359,-0.004 0.4513,-0.0408 0.1346,-0.0428 0.2233,-0.1256 0.265,-0.2464 0.0581,-0.1686 0.0505,-0.4127 -0.0227,-0.731 -0.1043,-0.4561 -0.3381,-1.0327 -0.7007,-1.7289 l -0.0127,0.0261 -0.0216,-0.0431 c -0.4926,0.9051 -0.7398,1.601 -0.7398,2.0843"
           style="fill:#baa98b;fill-opacity:1;fill-rule:nonzero;stroke:none"
           id="path54"
           inkscape:connector-curvature="0" /><g
           id="g56"><g
             id="g58"><path
               d="m 103.6568,126.5584 c 0.7985,2.2281 1.6126,3.7576 2.4403,4.5851 0.7792,0.7795 1.5761,0.8835 2.3893,0.3129 0.2089,-0.3404 0.3476,-0.6647 0.4164,-0.9709 0.1029,-0.4575 0.0479,-0.8844 -0.1647,-1.2784 -0.225,-0.417 -0.627,-0.8087 -1.2047,-1.1741 -0.8918,-0.5635 -2.1838,-1.0553 -3.8766,-1.4746 z m 1.9457,5.0797 c -0.9754,-0.9751 -1.9143,-2.7935 -2.8148,-5.4533 l -0.1996,-0.5887 0.6066,0.1363 c 2.0755,0.4672 3.6465,1.0375 4.7101,1.7102 0.6823,0.4314 1.1656,0.9096 1.4482,1.4334 0.2948,0.5468 0.3716,1.135 0.2304,1.7629 -0.0904,0.4017 -0.2718,0.8178 -0.5428,1.247 l -0.0357,0.0569 -0.053,0.0389 c -1.1534,0.8501 -2.2703,0.7356 -3.3494,-0.3436"
               style="fill:#baa98b;fill-opacity:1;fill-rule:nonzero;stroke:none"
               id="path60"
               inkscape:connector-curvature="0" /><path
               d="m 109.7189,123.4511 c 6e-4,-0.0539 0.0139,-0.1086 0.0408,-0.1593 0.0908,-0.1704 0.3028,-0.2353 0.4732,-0.1449 1.1809,0.6279 2.1424,1.5588 2.808,2.6666 0.665,1.1075 1.0354,2.3927 1.0354,3.7304 0,2.0001 -0.8112,3.8123 -2.1217,5.1227 -1.3107,1.3108 -3.1229,2.1221 -5.123,2.1221 -1.2036,0 -2.3692,-0.2994 -3.401,-0.8479 -1.0316,-0.5485 -1.9313,-1.3476 -2.6048,-2.3459 -0.1077,-0.1599 -0.0658,-0.3773 0.0941,-0.485 0.0451,-0.0307 0.0944,-0.0488 0.1449,-0.0562 l 0.008,-0.001 0.002,-3e-4 c 2.776,-0.5153 4.7685,0.4967 5.9772,3.0331 1.7195,-0.057 3.2717,-0.7773 4.4076,-1.9131 1.184,-1.184 1.9168,-2.8208 1.9168,-4.6281 0,-0.0774 -0.002,-0.1545 -0.004,-0.2316 -1.3133,-0.4862 -2.2788,-1.2045 -2.8945,-2.1526 -0.6468,-0.9959 -0.8997,-2.2326 -0.7591,-3.7086 z m 3.5796,5.0817 c -0.1315,-0.8434 -0.4252,-1.6439 -0.8558,-2.361 -0.5082,-0.8459 -1.2095,-1.5772 -2.0619,-2.1271 -0.0275,1.0817 0.2001,1.993 0.682,2.7351 0.4822,0.743 1.2277,1.3275 2.2357,1.753 z m -11.5568,5.1261 c 0.559,0.6914 1.2472,1.2549 2.0168,1.664 0.7676,0.4079 1.6175,0.6633 2.5013,0.7409 -0.9845,-1.8189 -2.4911,-2.6206 -4.5181,-2.4049"
               style="fill:#baa98b;fill-opacity:1;fill-rule:nonzero;stroke:none"
               id="path62"
               inkscape:connector-curvature="0" /></g><g
             id="g64"><path
               d="m 136.3969,125.9135 c -0.7985,2.2284 -1.6126,3.7576 -2.44,4.5854 -0.7796,0.7792 -1.5764,0.8835 -2.3897,0.3126 -0.2089,-0.3404 -0.3472,-0.6644 -0.4161,-0.9706 -0.1029,-0.4575 -0.0482,-0.8844 0.1647,-1.2787 0.2248,-0.4169 0.6268,-0.8087 1.2047,-1.1738 0.8915,-0.5635 2.1838,-1.0553 3.8764,-1.4749 z m -1.9454,5.08 c 0.9751,-0.9754 1.9139,-2.7935 2.8148,-5.4536 l 0.1993,-0.5884 -0.6066,0.1363 c -2.0753,0.4669 -3.6462,1.0375 -4.7101,1.7102 -0.682,0.4314 -1.1656,0.9093 -1.4482,1.4334 -0.2948,0.5468 -0.3713,1.1347 -0.2305,1.7626 0.0907,0.402 0.2719,0.8178 0.5429,1.2473 l 0.0357,0.0569 0.0533,0.0389 c 1.1531,0.8498 2.2702,0.7356 3.3494,-0.3436"
               style="fill:#baa98b;fill-opacity:1;fill-rule:nonzero;stroke:none"
               id="path66"
               inkscape:connector-curvature="0" /><path
               d="m 130.2809,123.4511 c -6e-4,-0.0539 -0.0139,-0.1086 -0.0408,-0.1593 -0.0907,-0.1704 -0.3025,-0.2353 -0.4729,-0.1449 -1.1809,0.6279 -2.1427,1.5588 -2.8082,2.6666 -0.665,1.1075 -1.0355,2.3927 -1.0355,3.7304 0,2.0001 0.8112,3.8123 2.122,5.1227 1.3107,1.3108 3.1226,2.1221 5.1228,2.1221 1.2035,0 2.3691,-0.2994 3.4012,-0.8479 1.0316,-0.5485 1.9313,-1.3476 2.6045,-2.3459 0.1077,-0.1599 0.0658,-0.3773 -0.0941,-0.485 -0.0451,-0.0307 -0.0944,-0.0488 -0.1448,-0.0562 l -0.008,-0.001 -0.002,-3e-4 c -2.776,-0.5153 -4.7685,0.4967 -5.9772,3.0331 -1.7195,-0.057 -3.2714,-0.7773 -4.4073,-1.9131 -1.184,-1.184 -1.917,-2.8208 -1.917,-4.6281 0,-0.0774 0.001,-0.1545 0.004,-0.2316 1.3136,-0.4862 2.2791,-1.2045 2.8947,-2.1526 0.6466,-0.9959 0.8998,-2.2326 0.7589,-3.7086 z m -3.5793,5.0817 c 0.1315,-0.8434 0.4249,-1.6439 0.8555,-2.361 0.5082,-0.8459 1.2095,-1.5772 2.0622,-2.1271 0.0272,1.0817 -0.2002,1.993 -0.6823,2.7351 -0.4819,0.743 -1.2277,1.3275 -2.2354,1.753 z m 11.5565,5.1261 c -0.5587,0.6914 -1.2472,1.2549 -2.0168,1.664 -0.7673,0.4079 -1.6175,0.6633 -2.501,0.7409 0.9842,-1.8189 2.4908,-2.6206 4.5178,-2.4049"
               style="fill:#baa98b;fill-opacity:1;fill-rule:nonzero;stroke:none"
               id="path68"
               inkscape:connector-curvature="0" /></g></g><path
           d="m 111.5597,141.9364 c -0.4115,0 -0.799,0.0805 -1.1622,0.2415 -0.1797,0.0796 -0.3492,0.1738 -0.5076,0.2815 -0.1588,0.1083 -0.3059,0.2301 -0.4405,0.3648 -0.1355,0.1361 -0.2571,0.284 -0.3643,0.4436 -0.1069,0.1593 -0.1996,0.3302 -0.2772,0.5125 -0.0777,0.182 -0.1364,0.3714 -0.1755,0.5669 -0.0397,0.1962 -0.0592,0.396 -0.0592,0.5993 0,0.4104 0.0782,0.7996 0.2347,1.1662 0.0776,0.1822 0.1703,0.3532 0.2772,0.5127 0.1072,0.1594 0.2288,0.3073 0.3643,0.4431 0.1343,0.1346 0.2823,0.2565 0.443,0.3643 0.1596,0.1068 0.3308,0.1995 0.5128,0.2772 0.1823,0.0777 0.3713,0.1363 0.5669,0.1757 0.1962,0.0394 0.396,0.0593 0.5993,0.0593 0.1375,0 0.2752,-0.01 0.4127,-0.0284 0.0822,-0.011 0.1636,-0.0255 0.2441,-0.0436 0.0136,0.0808 0.0311,0.1593 0.0532,0.2358 0.0375,0.129 0.0865,0.2512 0.1472,0.366 0.0603,0.1148 0.1295,0.2228 0.2072,0.3234 0.0779,0.1009 0.1641,0.1945 0.2576,0.2798 0.0944,0.0862 0.1962,0.163 0.3042,0.2299 0.1066,0.0663 0.2217,0.1241 0.3444,0.1726 0.1225,0.0488 0.2478,0.085 0.3756,0.1091 0.1293,0.0244 0.2605,0.0366 0.3935,0.0366 0.1496,0 0.2965,-0.0159 0.4405,-0.0479 0.144,-0.0317 0.2823,-0.0797 0.4138,-0.1423 0.2636,-0.1253 0.4901,-0.2934 0.6792,-0.5034 0.0933,-0.1038 0.1769,-0.2163 0.2503,-0.3368 0.0726,-0.119 0.1352,-0.2469 0.1877,-0.3832 0.0527,-0.1372 0.0909,-0.275 0.1148,-0.413 0.0238,-0.1372 0.0334,-0.2773 0.0297,-0.419 l -10e-4,-0.1035 -0.005,-0.1151 c -0.004,-0.0836 -0.0148,-0.1723 -0.0315,-0.265 v -0.003 c -0.0145,-0.072 -0.0366,-0.1344 -0.066,-0.1865 -0.0343,-0.061 -0.0791,-0.1069 -0.133,-0.1375 -0.0462,-0.0258 -0.0935,-0.0428 -0.1409,-0.0502 -0.0507,-0.008 -0.1009,-0.006 -0.1496,0.006 -0.0545,0.0133 -0.1004,0.0372 -0.1372,0.07 -0.0397,0.0366 -0.0672,0.0814 -0.0822,0.1341 -0.009,0.0323 -0.0168,0.0678 -0.0216,0.1055 -0.005,0.0377 -0.008,0.0742 -0.008,0.1094 0,0.0791 0.0147,0.1491 0.0439,0.2095 0.0326,0.0671 0.0816,0.119 0.1468,0.155 0.0335,0.0182 0.0627,0.0371 0.0873,0.0564 l 0.0338,0.0289 c 0.01,0.1035 0.009,0.2038 -6e-4,0.2999 -0.0113,0.1097 -0.036,0.2163 -0.0731,0.3192 -0.0377,0.1043 -0.0851,0.2013 -0.1412,0.2906 -0.0556,0.0879 -0.1213,0.1701 -0.1967,0.2457 -0.1517,0.152 -0.3348,0.2733 -0.5485,0.364 -0.2129,0.0902 -0.44,0.1355 -0.6803,0.1355 -0.1012,0 -0.2002,-0.0102 -0.2963,-0.0306 -0.098,-0.0207 -0.1944,-0.0516 -0.2891,-0.0927 -0.0947,-0.0408 -0.1874,-0.0901 -0.2769,-0.1471 -0.0893,-0.0567 -0.173,-0.1194 -0.2501,-0.1877 -0.0785,-0.0694 -0.1499,-0.1434 -0.2137,-0.2205 -0.0626,-0.076 -0.119,-0.1576 -0.1684,-0.2441 -0.0479,-0.0822 -0.0856,-0.1661 -0.1134,-0.2511 -0.0155,-0.0479 -0.028,-0.0961 -0.0368,-0.1446 0.1814,-0.0711 0.3523,-0.1576 0.5128,-0.2588 0.1922,-0.121 0.3699,-0.2645 0.5323,-0.4289 0.1622,-0.1644 0.3031,-0.3432 0.4213,-0.5369 0.102,-0.1669 0.1879,-0.3452 0.2571,-0.5343 0.0975,-0.007 0.1973,-0.0122 0.2985,-0.0144 0.1326,-0.003 0.2695,-0.001 0.4107,0.005 0.1358,0.006 0.2769,0.0142 0.4229,0.0249 0.142,0.0108 0.2821,0.0241 0.4198,0.0392 0.1392,0.0155 0.2767,0.0331 0.4113,0.0524 0.1319,0.019 0.2645,0.0405 0.3969,0.0641 l 0.6658,0.1207 c 0.4369,0.4513 0.8589,0.872 1.2657,1.2614 0.4159,0.3983 0.8178,0.766 1.205,1.1016 0.3881,0.3367 0.7546,0.642 1.0993,0.9153 0.3453,0.2738 0.6746,0.5207 0.9876,0.7398 0.3104,0.2177 0.6024,0.4068 0.875,0.5675 0.2759,0.1624 0.5313,0.2957 0.7654,0.3986 0.2373,0.1046 0.4541,0.1837 0.6494,0.2364 0.2001,0.0541 0.3793,0.0813 0.536,0.0813 0.2472,0 0.4508,-0.0703 0.6106,-0.2114 l 0.007,-0.007 c 0.0992,-0.0995 0.1018,-0.2061 0.008,-0.3187 l -4.0255,-4.7483 c 0.0808,-0.0598 0.1547,-0.1264 0.2216,-0.1993 0.1029,-0.1128 0.1877,-0.2403 0.2543,-0.3821 0.0652,-0.1386 0.1142,-0.2806 0.1468,-0.4257 0.0329,-0.1466 0.0494,-0.2951 0.0494,-0.4453 0,-0.167 -0.0156,-0.3371 -0.0468,-0.5097 -0.0315,-0.1726 -0.0774,-0.3441 -0.1378,-0.5137 -0.0603,-0.1686 -0.1306,-0.3308 -0.2106,-0.4858 -0.0802,-0.1554 -0.1692,-0.3011 -0.2662,-0.4366 -0.098,-0.1369 -0.2052,-0.2622 -0.3203,-0.3753 -0.1151,-0.1128 -0.2381,-0.2131 -0.3688,-0.3001 -0.1346,-0.0899 -0.2724,-0.1574 -0.413,-0.2024 -0.1431,-0.046 -0.2882,-0.0689 -0.4354,-0.0689 -0.1207,0 -0.2313,0.008 -0.3311,0.0258 -0.1023,0.0175 -0.1938,0.0448 -0.2741,0.0816 -0.1596,0.0729 -0.2823,0.1684 -0.3673,0.2866 -0.0414,0.0573 -0.0757,0.1176 -0.1029,0.1803 -0.0278,0.0638 -0.0488,0.1301 -0.0624,0.1978 -0.0122,0.0607 -0.0215,0.1231 -0.0281,0.1866 -0.006,0.0637 -0.01,0.1247 -0.01,0.1819 0,0.1579 0.023,0.3388 0.0686,0.5423 0.0227,0.1015 0.0542,0.2098 0.0938,0.3243 0.0395,0.1125 0.0876,0.233 0.1443,0.3606 0.0573,0.1289 0.1231,0.2633 0.1962,0.4019 0.0723,0.1366 0.1565,0.286 0.2523,0.447 0.0921,0.1557 0.1981,0.3223 0.3172,0.4995 0.1187,0.1769 0.2489,0.3614 0.3897,0.553 l 0.009,0.0108 -0.007,6e-4 c -0.0409,0.004 -0.0865,0.007 -0.1361,0.009 l -0.1517,0.002 c -0.3971,0 -0.8569,-0.0612 -1.379,-0.1842 l -0.1199,-0.0264 c -0.0862,-0.0215 -0.1678,-0.0411 -0.2549,-0.0601 l -0.4668,-0.1156 c -0.2466,-0.2546 -0.4969,-0.5202 -0.7504,-0.7966 l -0.3979,-0.4359 c -0.1866,-0.2067 -0.3717,-0.413 -0.561,-0.6169 -0.0527,-0.0566 -0.1165,-0.1204 -0.1905,-0.1904 -0.0709,-0.0669 -0.1542,-0.1423 -0.2495,-0.2254 -0.0946,-0.0825 -0.1989,-0.1678 -0.3123,-0.2554 -0.1112,-0.0859 -0.2347,-0.1766 -0.3694,-0.271 -0.1338,-0.0941 -0.2775,-0.1857 -0.4294,-0.2744 -0.1531,-0.089 -0.3124,-0.1743 -0.4774,-0.2548 -0.1667,-0.0814 -0.3427,-0.1571 -0.5267,-0.2268 -0.1828,-0.0694 -0.3719,-0.1318 -0.5666,-0.1876 -0.3969,-0.1134 -0.8175,-0.1701 -1.2614,-0.1701 h -0.0117 z m 11.5524,-8.4161 c -0.0879,-0.004 -0.1772,-0.006 -0.2676,-0.006 -0.0893,0 -0.1939,0.002 -0.3138,0.007 -0.1128,0.004 -0.2257,0.0116 -0.3379,0.0227 -0.112,0.0107 -0.2248,0.0255 -0.3376,0.0436 -0.1123,0.0179 -0.2237,0.0403 -0.3339,0.0669 -0.1129,0.0269 -0.2206,0.0576 -0.3226,0.0907 -0.1925,0.0629 -0.3603,0.148 -0.5032,0.2549 -0.4617,-0.129 -0.9377,-0.2424 -1.4054,-0.3481 l -0.1142,-0.0227 c -0.1026,-0.0196 -0.2101,-0.0374 -0.3212,-0.0527 -0.1137,-0.0156 -0.2251,-0.0284 -0.3342,-0.0377 -0.1077,-0.009 -0.2254,-0.0171 -0.3518,-0.0222 -0.1275,-0.005 -0.2514,-0.008 -0.3716,-0.008 -0.2089,0 -0.4116,0.0196 -0.608,0.0587 -0.1965,0.0391 -0.3864,0.0981 -0.5701,0.1763 -0.182,0.0777 -0.3532,0.1704 -0.5125,0.2772 -0.1607,0.108 -0.3087,0.2294 -0.4433,0.364 -0.1352,0.1361 -0.2568,0.2837 -0.364,0.4436 -0.1069,0.1593 -0.1995,0.3303 -0.2772,0.5122 -0.0783,0.1837 -0.1372,0.3736 -0.176,0.5701 -0.0394,0.1964 -0.059,0.3991 -0.059,0.608 0,0.2033 0.0198,0.4031 0.0592,0.5995 0.0392,0.1954 0.0978,0.3847 0.1758,0.567 0.0777,0.182 0.1703,0.3529 0.2772,0.5122 0.1072,0.1599 0.2288,0.3076 0.364,0.4431 0.1346,0.1352 0.2826,0.2568 0.4433,0.3645 0.1593,0.1069 0.3305,0.1995 0.5125,0.2772 0.1837,0.0783 0.3736,0.1372 0.5701,0.1763 0.1964,0.0391 0.3991,0.0587 0.608,0.0587 0.1477,0 0.2931,-0.011 0.4357,-0.0326 0.1406,-0.0213 0.2801,-0.0541 0.4181,-0.0981 0.1335,-0.0422 0.2639,-0.0918 0.3903,-0.1479 0.1216,-0.0533 0.2415,-0.1148 0.3589,-0.1832 0.0329,-0.0161 0.0692,-0.0365 0.1086,-0.0609 0.0354,-0.0221 0.0728,-0.0471 0.1108,-0.0746 0.0536,-0.0269 0.1896,-0.1394 0.2463,-0.1817 0.0352,-0.0249 0.0661,-0.0521 0.0919,-0.0807 0.0286,-0.0309 0.0507,-0.0644 0.0666,-0.0995 0.0108,-0.0238 0.021,-0.0491 0.03,-0.0766 0.008,-0.0255 0.0153,-0.051 0.0207,-0.0768 l 0.003,-0.0164 v -0.0117 c 0,-0.0462 -0.009,-0.0898 -0.0258,-0.1309 -0.017,-0.04 -0.0419,-0.0765 -0.0745,-0.1094 -0.0338,-0.0335 -0.0729,-0.059 -0.1174,-0.076 -0.0425,-0.0164 -0.0878,-0.0247 -0.1352,-0.0247 -0.076,0 -0.1522,0.019 -0.2276,0.0567 -0.0377,0.0187 -0.072,0.0417 -0.1023,0.0678 -0.0301,0.0252 -0.0565,0.055 -0.0791,0.0884 -0.0272,0.0343 -0.0479,0.0712 -0.0618,0.1106 -0.0153,0.0428 -0.023,0.0881 -0.023,0.1352 0,0.0312 0.003,0.0601 0.0102,0.0876 l 0.005,0.015 c -0.0638,0.053 -0.1296,0.0986 -0.1965,0.1372 -0.07,0.0402 -0.1417,0.0726 -0.2151,0.0972 -0.0666,0.0219 -0.1355,0.0428 -0.207,0.0618 -0.0717,0.0196 -0.1428,0.0366 -0.2128,0.0513 -0.0701,0.0148 -0.1406,0.0258 -0.2112,0.0329 -0.0698,0.007 -0.1426,0.0108 -0.2186,0.0108 -0.1757,0 -0.3458,-0.017 -0.5094,-0.051 -0.1638,-0.0341 -0.3242,-0.0857 -0.4804,-0.1545 -0.1568,-0.0689 -0.3033,-0.1503 -0.4388,-0.243 -0.1358,-0.0927 -0.2611,-0.1978 -0.3759,-0.3143 -0.1148,-0.1168 -0.2183,-0.2444 -0.3093,-0.3819 -0.0915,-0.1383 -0.1709,-0.2865 -0.2375,-0.4444 -0.0663,-0.1562 -0.1165,-0.3195 -0.1503,-0.4887 -0.0331,-0.1675 -0.0498,-0.3416 -0.0498,-0.5207 0,-0.1849 0.017,-0.3615 0.051,-0.5296 0.034,-0.1686 0.0856,-0.3322 0.1542,-0.4901 0.0694,-0.1593 0.1511,-0.3081 0.2446,-0.4461 0.0916,-0.1355 0.1973,-0.2634 0.3164,-0.3827 0.1063,-0.0873 0.2188,-0.165 0.3376,-0.2325 0.1224,-0.0691 0.2525,-0.1292 0.3903,-0.1797 0.1366,-0.0496 0.2786,-0.0873 0.4255,-0.1125 0.146,-0.0247 0.2979,-0.0374 0.4555,-0.0374 0.2446,0 0.4785,0.009 0.7007,0.0261 0.2214,0.017 0.4332,0.0425 0.6339,0.0765 0.2596,0.057 0.4977,0.1114 0.7134,0.1636 0.1395,0.0337 0.2744,0.0688 0.4048,0.1054 -0.0734,0.0791 -0.1392,0.1613 -0.197,0.2458 -0.0822,0.1202 -0.1491,0.2466 -0.2001,0.3787 -0.0502,0.1292 -0.0879,0.2622 -0.1128,0.3985 -0.0253,0.1375 -0.038,0.2764 -0.038,0.4164 0,0.3444 0.0675,0.7053 0.2027,1.082 0.0671,0.1874 0.1437,0.3719 0.2299,0.5525 0.087,0.1834 0.1848,0.3659 0.2928,0.5476 0.1071,0.1809 0.2219,0.3609 0.3441,0.5395 0.1213,0.1777 0.2512,0.3557 0.3889,0.5332 0.1369,0.1769 0.2764,0.3481 0.4173,0.5125 0.1417,0.1655 0.286,0.326 0.4325,0.4802 0.2909,0.3064 0.5817,0.5913 0.8723,0.8538 0.1482,0.1343 0.286,0.2559 0.4127,0.3642 0.1264,0.1086 0.2517,0.2123 0.3756,0.3115 l 0.005,0.004 c 0.1933,0.142 0.3796,0.2744 0.5579,0.3966 0.1743,0.1193 0.3461,0.2321 0.515,0.3379 0.1676,0.1051 0.3303,0.1998 0.4867,0.284 0.161,0.0865 0.3186,0.1638 0.4717,0.2316 0.1522,0.0672 0.307,0.127 0.4641,0.1794 0.1539,0.051 0.3081,0.0944 0.4617,0.1284 0.1534,0.0343 0.3104,0.0621 0.4706,0.0831 0.1613,0.0212 0.3257,0.036 0.4935,0.0439 0.0768,0.004 0.1553,0.005 0.2353,0.003 0.0796,-0.002 0.1595,-0.007 0.2381,-0.0154 0.0785,-0.008 0.1562,-0.0181 0.233,-0.0303 0.0754,-0.0119 0.1505,-0.0266 0.2245,-0.0428 0.0765,-0.017 0.1485,-0.0371 0.2157,-0.0598 0.0689,-0.023 0.1349,-0.0499 0.1973,-0.0799 0.0632,-0.0306 0.1207,-0.0638 0.1723,-0.0987 0.055,-0.038 0.1029,-0.0768 0.1426,-0.1168 0.0748,-0.0751 0.1395,-0.1573 0.1928,-0.2457 0.0535,-0.0893 0.0969,-0.1854 0.1295,-0.2877 0.0323,-0.1007 0.0561,-0.2027 0.0714,-0.3051 0.0159,-0.1043 0.0239,-0.2109 0.0239,-0.3194 0,-0.1327 -0.0119,-0.2685 -0.036,-0.4074 -0.0236,-0.1366 -0.0593,-0.2766 -0.1069,-0.4192 -0.0468,-0.14 -0.1023,-0.2798 -0.1656,-0.4178 -0.0637,-0.1384 -0.136,-0.2764 -0.2171,-0.4139 -0.0816,-0.1389 -0.1709,-0.2744 -0.2679,-0.4062 -0.098,-0.1335 -0.2043,-0.2647 -0.318,-0.3926 -0.1137,-0.1273 -0.2339,-0.2509 -0.3603,-0.3702 -0.1253,-0.1185 -0.2565,-0.2319 -0.3923,-0.3399 l -0.003,-0.002 c -0.0984,-0.0737 -0.2007,-0.1443 -0.3062,-0.2112 -0.1045,-0.0661 -0.2168,-0.131 -0.3353,-0.1945 -0.1196,-0.0638 -0.2378,-0.1224 -0.354,-0.1752 -0.118,-0.0532 -0.239,-0.1034 -0.362,-0.1499 -0.1233,-0.0465 -0.2466,-0.0884 -0.3697,-0.1253 -0.1213,-0.0363 -0.2457,-0.0692 -0.3721,-0.0978 -0.1282,-0.0289 -0.2518,-0.0505 -0.3703,-0.0643 -0.1218,-0.0145 -0.24,-0.0219 -0.3546,-0.0219 -0.1924,0 -0.3716,0.0236 -0.5377,0.0703 -0.0848,0.0238 -0.1658,0.055 -0.2432,0.093 -0.0763,0.0377 -0.1497,0.0831 -0.2197,0.1355 -0.1227,0.0907 -0.2219,0.2078 -0.2968,0.3507 -0.0723,0.1377 -0.1213,0.2993 -0.1468,0.4827 l -0.0111,0.0839 -0.008,0.0986 -0.004,0.1063 -0.002,0.1078 5e-4,0.151 c 0.005,0.0661 0.0153,0.1245 0.0318,0.1747 0.0187,0.0581 0.0462,0.1065 0.0816,0.1451 0.0338,0.0371 0.0715,0.0655 0.1123,0.085 0.0433,0.0213 0.0895,0.0321 0.1383,0.0321 0.0193,0 0.0388,-0.002 0.059,-0.006 0.0153,-0.003 0.0309,-0.008 0.0453,-0.0136 0.0482,-0.0136 0.091,-0.0366 0.1273,-0.0683 0.0391,-0.0337 0.0694,-0.0757 0.0916,-0.1259 0.0175,-0.0408 0.0309,-0.0813 0.0394,-0.121 0.009,-0.0414 0.0136,-0.0828 0.0136,-0.1239 0,-0.0541 -0.006,-0.1006 -0.0187,-0.138 -0.0131,-0.038 -0.0301,-0.0712 -0.0511,-0.0992 -0.0249,-0.0335 -0.0552,-0.059 -0.0901,-0.0766 l -0.0519,-0.0244 -0.0357,-0.0138 3e-4,-0.008 c 0.003,-0.1236 0.0195,-0.2316 0.0482,-0.3235 0.0263,-0.0856 0.0638,-0.1565 0.1114,-0.2117 0.1015,-0.118 0.2392,-0.2007 0.4124,-0.2483 l 0.0493,-0.008 0.0556,-0.007 0.0578,-0.004 0.0536,-9e-4 c 0.1933,0 0.4025,0.0264 0.6265,0.0785 0.1165,0.0273 0.231,0.0584 0.3432,0.0927 0.1111,0.0343 0.2262,0.0743 0.3442,0.1194 0.2293,0.0879 0.4509,0.191 0.6641,0.3092 0.2129,0.1177 0.4068,0.245 0.5808,0.3813 l 10e-4,0.001 c 0.2591,0.1979 0.4974,0.4193 0.7151,0.6636 0.1095,0.123 0.2118,0.2472 0.3059,0.3719 0.0964,0.1276 0.184,0.2543 0.2622,0.379 0.078,0.1242 0.1491,0.252 0.2129,0.383 0.0626,0.1278 0.1165,0.256 0.1616,0.3832 0.0448,0.1273 0.0782,0.2489 0.1003,0.3643 0.0216,0.1134 0.0326,0.2236 0.0326,0.3296 0,0.048 -0.005,0.099 -0.015,0.1526 -0.0102,0.0561 -0.0267,0.1182 -0.0485,0.1862 -0.021,0.0655 -0.0456,0.1244 -0.0726,0.1763 -0.0266,0.0502 -0.0558,0.0947 -0.087,0.1329 -0.0462,0.0516 -0.1071,0.095 -0.1822,0.1296 -0.0814,0.0371 -0.1806,0.0649 -0.2977,0.0825 -0.1253,0.019 -0.2523,0.0295 -0.3807,0.0312 -0.1295,0.002 -0.2644,-0.005 -0.4045,-0.0199 -0.1241,-0.0156 -0.2423,-0.0357 -0.354,-0.0606 -0.1126,-0.0247 -0.2248,-0.0556 -0.3368,-0.0922 -0.1102,-0.0363 -0.2234,-0.0791 -0.3382,-0.1278 -0.1167,-0.0499 -0.2364,-0.1063 -0.358,-0.169 -0.1236,-0.0637 -0.2523,-0.1355 -0.3846,-0.2145 -0.1287,-0.0769 -0.2685,-0.1656 -0.419,-0.2659 -0.1519,-0.1012 -0.3084,-0.2084 -0.4688,-0.3212 -0.1781,-0.1247 -0.3558,-0.2517 -0.5315,-0.3801 -0.114,-0.0839 -0.2353,-0.1789 -0.3637,-0.2849 -0.133,-0.1097 -0.267,-0.2256 -0.4011,-0.347 -0.1418,-0.1284 -0.2826,-0.2608 -0.4221,-0.3974 -0.1412,-0.1383 -0.2843,-0.2837 -0.4286,-0.4359 -0.146,-0.1537 -0.2886,-0.3096 -0.4272,-0.4666 -0.1411,-0.1593 -0.2809,-0.3229 -0.4187,-0.4901 -0.2738,-0.3317 -0.515,-0.6673 -0.7234,-1.0069 -0.1034,-0.1684 -0.1973,-0.337 -0.2806,-0.5049 -0.0836,-0.1692 -0.1567,-0.3359 -0.2191,-0.5003 -0.0618,-0.1621 -0.1083,-0.3211 -0.1392,-0.4762 -0.0306,-0.1502 -0.0456,-0.2985 -0.0456,-0.4442 0,-0.2174 0.0397,-0.4257 0.1187,-0.6236 0.0386,-0.0958 0.0902,-0.1865 0.1548,-0.2713 0.0519,-0.0677 0.1117,-0.1321 0.1803,-0.1927 l 0.5576,0.1916 c 0.0944,0.0334 0.18,0.0657 0.2559,0.0964 0.08,0.032 0.1511,0.0629 0.2135,0.0921 l 0.2157,0.0947 c 0.0595,0.0272 0.1242,0.0581 0.1925,0.0924 l 0.006,0.003 c 0.2322,0.1023 0.4524,0.1913 0.6596,0.2662 0.2058,0.0748 0.3992,0.1352 0.5786,0.1817 0.1817,0.047 0.3489,0.0819 0.5009,0.1049 0.1573,0.0235 0.3021,0.0354 0.4342,0.0354 0.3249,0 0.5817,-0.0604 0.7696,-0.1811 0.101,-0.0652 0.1783,-0.1438 0.2308,-0.2353 0.0541,-0.0938 0.0813,-0.1982 0.0813,-0.3127 0,-0.2435 -0.1165,-0.477 -0.3492,-0.701 -0.2183,-0.2097 -0.5289,-0.3889 -0.9309,-0.5366 -0.0932,-0.0363 -0.1925,-0.0691 -0.2973,-0.0986 -0.1049,-0.0295 -0.2152,-0.0556 -0.3306,-0.0777 -0.1114,-0.0215 -0.2287,-0.0402 -0.3512,-0.0556 -0.1233,-0.0153 -0.2452,-0.0272 -0.3659,-0.0348 l -0.0204,-6e-4 z m -0.4122,1.2243 c -0.1134,-0.0524 -0.2784,-0.1403 -0.39,-0.1775 -0.0647,-0.0283 -0.1353,-0.0581 -0.2112,-0.0884 l -0.2483,-0.0967 c -0.0839,-0.0317 -0.1789,-0.066 -0.2846,-0.1026 l -0.006,-0.002 c 0.1627,-0.0745 0.345,-0.1386 0.5471,-0.1919 0.1633,-0.0433 0.3251,-0.0737 0.4839,-0.0915 0.1578,-0.0179 0.3132,-0.0233 0.4648,-0.0159 0.1214,0.008 0.2376,0.019 0.3484,0.0329 0.116,0.015 0.2271,0.0326 0.3337,0.0533 0.1105,0.0212 0.214,0.0445 0.3098,0.0697 0.0975,0.0255 0.1896,0.0533 0.2755,0.0831 0.1806,0.0643 0.3356,0.1335 0.4646,0.2072 0.1264,0.0723 0.2279,0.1482 0.3036,0.2273 0.0768,0.0811 0.1332,0.1551 0.1681,0.2217 0.0292,0.0547 0.0422,0.1032 0.04,0.1443 l -6e-4,0.008 c 0,0.0241 -0.007,0.0477 -0.0216,0.07 -0.0192,0.0304 -0.0507,0.061 -0.0941,0.0913 -0.0428,0.0301 -0.1043,0.0533 -0.1834,0.07 -0.0873,0.0182 -0.1956,0.0275 -0.324,0.0275 -0.108,0 -0.2296,-0.01 -0.3639,-0.0292 -0.1389,-0.0201 -0.2911,-0.0501 -0.4556,-0.0898 -0.1641,-0.0394 -0.343,-0.0944 -0.5363,-0.1647 -0.1947,-0.0706 -0.4014,-0.1559 -0.6202,-0.2557 z m -1.0871,10.0843 c 0,0.1247 -0.0116,0.2434 -0.0348,0.3548 -0.0233,0.1126 -0.0582,0.22 -0.1046,0.3218 -0.044,0.0966 -0.1052,0.1851 -0.1823,0.265 -0.0542,0.0559 -0.1168,0.1077 -0.1877,0.1556 l -0.0309,-0.0368 c -0.1774,-0.2047 -0.3415,-0.4005 -0.4921,-0.5871 -0.1468,-0.1828 -0.2803,-0.3563 -0.3996,-0.5207 -0.1194,-0.1644 -0.2257,-0.318 -0.3178,-0.4598 -0.0953,-0.146 -0.1766,-0.2803 -0.2435,-0.4014 -0.1364,-0.2466 -0.2307,-0.4552 -0.2826,-0.6256 -0.0255,-0.0844 -0.0451,-0.1624 -0.0578,-0.2335 -0.0117,-0.0683 -0.0176,-0.1296 -0.0176,-0.1843 0,-0.1131 0.0193,-0.1987 0.0581,-0.2568 0.0207,-0.0309 0.0436,-0.0581 0.0689,-0.0814 0.0244,-0.0221 0.0501,-0.0399 0.0768,-0.0535 0.0312,-0.0153 0.0658,-0.0295 0.1026,-0.0414 0.0349,-0.0116 0.072,-0.0207 0.1114,-0.0275 0.0439,-0.008 0.0822,-0.0133 0.1148,-0.0165 0.0306,-0.003 0.061,-0.005 0.0904,-0.005 0.0941,0 0.1891,0.0167 0.2849,0.0496 0.0981,0.0335 0.1984,0.0854 0.3002,0.1548 0.1049,0.0717 0.2047,0.1545 0.2991,0.248 0.0963,0.0956 0.1873,0.2019 0.2721,0.3181 0.0862,0.1176 0.1638,0.2429 0.233,0.3747 0.0697,0.1335 0.131,0.2733 0.1834,0.419 0.0522,0.1457 0.0916,0.2911 0.1174,0.4359 0.0255,0.1423 0.0382,0.2872 0.0382,0.4338 z m 3.1354,6.2659 c -0.1063,-0.006 -0.2282,-0.0272 -0.3654,-0.0652 -0.1655,-0.0456 -0.3546,-0.1156 -0.5672,-0.2094 -0.212,-0.0936 -0.4445,-0.2143 -0.697,-0.3617 -0.2563,-0.1497 -0.5301,-0.3246 -0.8201,-0.5247 -0.2945,-0.2027 -0.6069,-0.4335 -0.9371,-0.6917 -0.3294,-0.2577 -0.6798,-0.5457 -1.0503,-0.8631 -0.3682,-0.3158 -0.7523,-0.6633 -1.1514,-1.0418 -0.292,-0.2769 -0.5921,-0.5709 -0.9,-0.8807 l 0.0921,0.0252 0.0545,0.0128 c 0.2684,0.0635 0.5269,0.1111 0.775,0.1434 0.2494,0.0326 0.4841,0.0488 0.7032,0.0488 0.131,0 0.2594,-0.006 0.3841,-0.0187 0.0933,-0.009 0.1837,-0.0224 0.271,-0.0391 l 0.3348,0.3648 0.3314,0.3577 1.0383,1.1092 0.7245,0.7682 c 0.2656,0.2815 0.565,0.5964 0.8972,0.9448 z m -10.8745,-5.055 c -0.1219,0.2563 -0.2855,0.4856 -0.4901,0.6877 -0.1321,0.1301 -0.275,0.2446 -0.4286,0.3433 -0.0922,0.0592 -0.1883,0.1125 -0.288,0.1604 l 0.0156,-0.0737 c 0.0229,-0.0915 0.0598,-0.1797 0.1094,-0.2639 0.053,-0.0893 0.1119,-0.1726 0.1763,-0.2503 0.0649,-0.0777 0.1358,-0.1491 0.2114,-0.2143 0.0769,-0.0658 0.1568,-0.1253 0.239,-0.178 0.0819,-0.0524 0.1656,-0.0975 0.25,-0.1355 0.0712,-0.0318 0.1398,-0.057 0.205,-0.0757 z m -1.6787,1.3657 -0.0726,0.0185 c -0.0581,0.0139 -0.1176,0.0255 -0.1783,0.0346 -0.0615,0.009 -0.1233,0.0164 -0.1848,0.0209 -0.0604,0.004 -0.1233,0.007 -0.1879,0.007 -0.1633,0 -0.3198,-0.017 -0.4689,-0.0507 -0.1488,-0.0335 -0.2936,-0.0845 -0.4334,-0.1525 -0.1426,-0.0695 -0.2741,-0.1494 -0.3951,-0.2401 -0.1222,-0.0916 -0.235,-0.1947 -0.3385,-0.3093 -0.1026,-0.1136 -0.1956,-0.2378 -0.2781,-0.3722 -0.0822,-0.1335 -0.1531,-0.2755 -0.2123,-0.4257 -0.0601,-0.152 -0.1046,-0.3064 -0.1341,-0.4641 -0.0295,-0.1576 -0.0442,-0.3208 -0.0442,-0.4901 0,-0.1564 0.0147,-0.3115 0.0442,-0.4643 0.0295,-0.1539 0.0743,-0.3075 0.1341,-0.4603 0.0598,-0.1537 0.1312,-0.2999 0.2135,-0.4383 0.0819,-0.138 0.1754,-0.2687 0.28,-0.392 0.1043,-0.123 0.218,-0.2341 0.3399,-0.3333 0.1222,-0.0987 0.254,-0.1866 0.3954,-0.2628 0.1384,-0.0746 0.2826,-0.131 0.432,-0.1681 0.1488,-0.0371 0.3042,-0.0559 0.4655,-0.0559 h 0.0119 c 0.2044,0 0.4011,0.0125 0.5893,0.0366 0.1905,0.0247 0.3759,0.0615 0.5553,0.1108 0.1809,0.0494 0.3563,0.1061 0.5258,0.1698 0.167,0.0624 0.3283,0.1324 0.4836,0.209 0.1573,0.0776 0.3053,0.1576 0.4434,0.2386 0.1394,0.0825 0.2718,0.1678 0.3962,0.256 0.1282,0.0907 0.2441,0.1766 0.3473,0.2571 0.1023,0.0799 0.1981,0.1596 0.2869,0.2384 0.0895,0.0797 0.1669,0.1508 0.2318,0.2129 0.0686,0.0657 0.1256,0.123 0.1701,0.1712 0.4272,0.4615 0.8501,0.9264 1.2784,1.387 l -0.2593,-0.042 c -0.237,-0.036 -0.4901,-0.0691 -0.7594,-0.0989 -0.2662,-0.0295 -0.5284,-0.0479 -0.7861,-0.055 -0.1908,-0.005 -0.3764,-0.004 -0.5581,0.003 l 0.005,-0.0326 c 0.0136,-0.087 0.0235,-0.1865 0.0294,-0.2979 0.006,-0.1055 0.0102,-0.2129 0.0131,-0.322 0.003,-0.1179 0.005,-0.2225 0.005,-0.3141 0,-0.0805 -0.0116,-0.1502 -0.0349,-0.2089 -0.0275,-0.0697 -0.0706,-0.1239 -0.1295,-0.1619 -0.0482,-0.0312 -0.097,-0.0521 -0.146,-0.0623 -0.053,-0.0114 -0.106,-0.0105 -0.1582,0.002 -0.0536,0.0133 -0.0998,0.0374 -0.1392,0.0714 -0.0388,0.0335 -0.0694,0.076 -0.0915,0.1268 -0.0176,0.0402 -0.0309,0.0807 -0.0394,0.1204 -0.009,0.0411 -0.0139,0.0828 -0.0139,0.1239 0,0.0904 0.0201,0.1653 0.0592,0.2245 0.015,0.023 0.0335,0.0459 0.0545,0.068 0.0201,0.0216 0.0416,0.0417 0.0643,0.0593 0.0283,0.0283 0.0754,0.0513 0.1043,0.0799 -6e-4,0.0547 -0.002,0.1058 -0.005,0.1534 -0.004,0.0612 -0.009,0.119 -0.0164,0.1726 -0.007,0.0513 -0.0165,0.1072 -0.0284,0.1675 l -0.015,0.0715 c -0.1587,0.0181 -0.3314,0.0612 -0.5179,0.1289 -0.1159,0.0423 -0.2279,0.0944 -0.335,0.1557 -0.1066,0.0609 -0.2104,0.1326 -0.3113,0.2145 -0.1015,0.0825 -0.1941,0.1749 -0.2775,0.2776 -0.0828,0.1014 -0.157,0.2137 -0.2219,0.3356 -0.0675,0.1261 -0.1168,0.2608 -0.1477,0.4039 -0.0236,0.1092 -0.0369,0.2245 -0.0397,0.3458"
           style="fill:#baa98b;fill-opacity:1;fill-rule:evenodd;stroke:none"
           id="path70"
           inkscape:connector-curvature="0" /></g><path
         d="m 73.6784,99.8362 h 0.1658 v -0.2075 h -4.6695 v 0.2075 h 0.1868 c 0.2906,0 0.5085,0.0936 0.6537,0.2804 0.1454,0.1865 0.218,0.3631 0.218,0.5289 0,0.1661 -0.0275,0.3322 -0.0831,0.4983 l -1.328,3.528 h -5.6035 l -1.3904,-3.5489 c -0.0553,-0.1659 -0.0831,-0.3286 -0.0831,-0.4876 0,-0.159 0.0726,-0.3322 0.218,-0.5187 0.1451,-0.1868 0.3631,-0.2804 0.6537,-0.2804 h 0.1868 v -0.2075 h -4.1715 v 0.2075 h 0.1868 c 0.3458,0 0.6848,0.1109 1.0168,0.3322 0.3322,0.2211 0.6021,0.5463 0.8096,0.9754 l 4.6902,11.1651 c 0.5119,1.1209 0.7679,1.8332 0.7679,2.1377 h 0.1868 l 5.5618,-13.3028 c 0.1936,-0.4291 0.4564,-0.7543 0.7886,-0.9754 0.332,-0.2213 0.6778,-0.3322 1.0378,-0.3322 z m -10.2107,5.4581 h 5.1052 l -2.4902,6.662 z m 26.2738,8.6542 c -0.3461,0 -0.6435,-0.121 -0.8924,-0.3631 -0.2491,-0.2421 -0.3807,-0.5363 -0.3943,-0.8822 v -10.7087 c 0,-0.8025 0.0482,-1.5633 0.1452,-2.2827 l 0.0414,-0.3736 H 88.4548 L 77.144,111.4166 v -10.3351 c 0.0139,-0.4842 0.2285,-0.8439 0.6435,-1.0792 0.1936,-0.1108 0.4011,-0.1661 0.6225,-0.1661 h 0.3943 v -0.2075 h -4.2749 v 0.2075 h 0.3943 c 0.3458,0 0.6431,0.1211 0.8923,0.3631 0.2489,0.2424 0.3736,0.5432 0.3736,0.9029 v 10.7711 c 0,0.8438 -0.0485,1.5978 -0.1454,2.262 l -0.0414,0.3319 h 0.2075 l 11.3105,-12.0784 v 10.2938 c -0.0139,0.3597 -0.1454,0.6607 -0.3943,0.9028 -0.2491,0.2421 -0.5465,0.3631 -0.8923,0.3631 h -0.3943 v 0.2075 h 4.2752 v -0.2075 z m 15.8556,-14.1123 h 0.1658 v -0.2075 h -4.6695 v 0.2075 h 0.1868 c 0.2905,0 0.5085,0.0936 0.6537,0.2804 0.1454,0.1865 0.2179,0.3631 0.2179,0.5289 0,0.1661 -0.0275,0.3322 -0.083,0.4983 l -1.328,3.528 h -5.6036 l -1.3904,-3.5489 c -0.0552,-0.1659 -0.083,-0.3286 -0.083,-0.4876 0,-0.159 0.0725,-0.3322 0.218,-0.5187 0.1451,-0.1868 0.3631,-0.2804 0.6536,-0.2804 h 0.1868 v -0.2075 h -4.1714 v 0.2075 h 0.1868 c 0.3458,0 0.6848,0.1109 1.0168,0.3322 0.3322,0.2211 0.602,0.5463 0.8095,0.9754 l 4.6902,11.1651 c 0.512,1.1209 0.7679,1.8332 0.7679,2.1377 h 0.1869 l 5.5618,-13.3028 c 0.1936,-0.4291 0.4564,-0.7543 0.7886,-0.9754 0.3319,-0.2213 0.6778,-0.3322 1.0378,-0.3322 z m -10.2107,5.4581 h 5.1052 l -2.4902,6.662 z m 23.97,-5.9561 c -2.186,0.0139 -3.9673,0.7126 -5.3441,2.0962 -1.3765,1.3833 -2.0648,3.2063 -2.0648,5.4683 0,2.2621 0.6883,4.085 2.0648,5.4686 1.3768,1.3836 3.1994,2.0753 5.4686,2.0753 1.8538,0 3.4934,-0.4703 4.9187,-1.4111 l 0.415,-2.9262 h -0.1869 c -0.3044,1.1897 -0.9201,2.1064 -1.847,2.7496 -0.9269,0.6434 -2.0271,0.9652 -3.2998,0.9652 -1.8125,0 -3.2618,-0.6296 -4.3478,-1.8888 -1.0862,-1.2588 -1.6291,-2.9262 -1.6291,-5.0014 0,-2.0753 0.5361,-3.746 1.6084,-5.0119 1.0721,-1.266 2.4868,-1.9197 4.244,-1.9613 1.5495,0 2.8432,0.422 3.881,1.2659 1.1205,0.9133 1.7985,2.4007 2.0338,4.462 h 0.1658 l -0.2488,-3.2581 c -1.2592,-2.0616 -3.2032,-3.0923 -5.8318,-3.0923 z m 21.9779,0.498 h 0.1658 v -0.2075 h -4.6695 v 0.2075 h 0.1868 c 0.2906,0 0.5086,0.0936 0.6537,0.2804 0.1454,0.1865 0.218,0.3631 0.218,0.5289 0,0.1661 -0.0275,0.3322 -0.0831,0.4983 l -1.328,3.528 h -5.6035 l -1.3904,-3.5489 c -0.0553,-0.1659 -0.0831,-0.3286 -0.0831,-0.4876 0,-0.159 0.0726,-0.3322 0.218,-0.5187 0.1451,-0.1868 0.3631,-0.2804 0.6537,-0.2804 h 0.1868 v -0.2075 h -4.1715 v 0.2075 h 0.1868 c 0.3458,0 0.6849,0.1109 1.0168,0.3322 0.3322,0.2211 0.6021,0.5463 0.8096,0.9754 l 4.6902,11.1651 c 0.5119,1.1209 0.7679,1.8332 0.7679,2.1377 h 0.1868 l 5.5618,-13.3028 c 0.1936,-0.4291 0.4564,-0.7543 0.7886,-0.9754 0.332,-0.2213 0.6778,-0.3322 1.0378,-0.3322 z m -10.2107,5.4581 h 5.1052 l -2.4902,6.662 z m 15.6481,8.2182 h -1.3283 v -12.3687 c 0,-0.3597 0.1281,-0.6675 0.3838,-0.9235 0.256,-0.256 0.5709,-0.3841 0.9445,-0.3841 h 0.2489 l 0.0207,-0.2075 h -4.5448 v 0.2075 h 0.2699 c 0.3597,0 0.6675,0.1245 0.9235,0.3736 0.2557,0.2492 0.3906,0.5533 0.4045,0.9131 v 11.5183 c -0.0139,0.3597 -0.1488,0.6675 -0.4045,0.9235 -0.256,0.2557 -0.5638,0.3838 -0.9235,0.3838 h -0.2699 v 0.2075 h 5.6032 c 1.2592,0 2.2485,-0.3492 2.9679,-1.048 0.7195,-0.6987 1.0792,-1.6049 1.0792,-2.7187 0,-1.1137 -0.3425,-2.0752 -1.0273,-2.8848 -0.6849,-0.8093 -1.5185,-1.2141 -2.5007,-1.2141 0.2075,-0.0966 0.4529,-0.2868 0.7367,-0.5706 0.2835,-0.2837 0.536,-0.5777 0.7574,-0.8821 1.1897,-1.7017 1.9647,-2.7496 2.3244,-3.1439 0.3597,-0.3943 0.6157,-0.6642 0.7679,-0.8096 0.1522,-0.1451 0.3181,-0.2869 0.4981,-0.4252 0.1797,-0.1386 0.3597,-0.2492 0.5394,-0.3322 0.4014,-0.1936 0.8303,-0.2906 1.2869,-0.2906 v -0.2075 h -1.1415 c -0.595,0 -1.1483,0.1072 -1.6602,0.3218 -0.512,0.2143 -0.8961,0.4356 -1.152,0.6641 -0.2557,0.2282 -0.4771,0.4496 -0.6639,0.6639 -0.1868,0.2146 -0.7021,0.9306 -1.5463,2.1481 -0.8439,1.2175 -1.3351,1.9128 -1.4734,2.0857 -0.1384,0.1729 -0.2835,0.3424 -0.4357,0.5086 -0.4428,0.4702 -0.8856,0.7055 -1.3283,0.7055 v 0.2075 c 0.1108,-0.0139 0.2559,-0.0207 0.4359,-0.0207 0.1797,0 0.4011,0.007 0.6639,0.0207 1.7158,0.0414 2.795,0.7608 3.2377,2.1583 0.0828,0.2767 0.1245,0.536 0.1245,0.7784 0,0.2421 0,0.3977 0,0.4668 -0.0278,0.927 -0.2699,1.6742 -0.7266,2.2414 -0.4563,0.5672 -1.072,0.8717 -1.847,0.913 -0.3319,0.0139 -0.7469,0.0207 -1.245,0.0207 z m 9.4221,-13.6763 c 0.3597,0 0.6676,0.1281 0.9235,0.3841 0.2557,0.256 0.3906,0.5638 0.4045,0.9235 v 11.4974 c -0.0139,0.3597 -0.1488,0.6675 -0.4045,0.9235 -0.2559,0.2557 -0.5638,0.3838 -0.9235,0.3838 h -0.2699 v 0.2075 h 4.5448 v -0.2075 h -0.2696 c -0.498,0 -0.8787,-0.2146 -1.1415,-0.6435 -0.1244,-0.2075 -0.1868,-0.4288 -0.1868,-0.6638 v -12.369 h 2.9676 c 1.0239,0 1.8057,0.2282 2.3454,0.6848 0.5394,0.4564 0.989,1.1345 1.3487,2.0339 h 0.2078 l -1.2039,-3.3622 h -8.6125 v 0.2075 z m 25.0078,0 h 0.1658 v -0.2075 h -4.6695 v 0.2075 h 0.1868 c 0.2906,0 0.5086,0.0936 0.6537,0.2804 0.1454,0.1865 0.218,0.3631 0.218,0.5289 0,0.1661 -0.0275,0.3322 -0.0831,0.4983 l -1.328,3.528 h -5.6035 l -1.3904,-3.5489 c -0.0553,-0.1659 -0.0831,-0.3286 -0.0831,-0.4876 0,-0.159 0.0726,-0.3322 0.218,-0.5187 0.1451,-0.1868 0.3631,-0.2804 0.6537,-0.2804 h 0.1868 v -0.2075 h -4.1715 v 0.2075 h 0.1868 c 0.3458,0 0.6849,0.1109 1.0168,0.3322 0.3322,0.2211 0.6021,0.5463 0.8096,0.9754 l 4.6902,11.1651 c 0.5119,1.1209 0.7679,1.8332 0.7679,2.1377 h 0.1868 l 5.5618,-13.3028 c 0.1937,-0.4291 0.4564,-0.7543 0.7886,-0.9754 0.332,-0.2213 0.6778,-0.3322 1.0378,-0.3322 z m -10.2107,5.4581 h 5.1052 l -2.4902,6.662 z M 65.0103,80.4419 h 0.0692 v -0.0865 h -1.9457 v 0.0865 h 0.0779 c 0.1211,0 0.2118,0.0388 0.2722,0.1167 0.0606,0.0777 0.091,0.1514 0.091,0.2206 0,0.0691 -0.0117,0.1383 -0.0346,0.2075 l -0.5536,1.47 h -2.3346 l -0.5794,-1.4788 c -0.023,-0.0692 -0.0346,-0.1369 -0.0346,-0.2033 0,-0.066 0.0303,-0.1383 0.091,-0.216 0.0603,-0.0779 0.1511,-0.1167 0.2721,-0.1167 h 0.0779 v -0.0865 h -1.7382 v 0.0865 h 0.078 c 0.144,0 0.2854,0.0462 0.4238,0.1383 0.1383,0.0924 0.2506,0.2276 0.337,0.4065 l 1.9545,4.6522 c 0.2132,0.4669 0.3198,0.7637 0.3198,0.8906 h 0.0779 l 2.3173,-5.5428 c 0.0808,-0.1789 0.1902,-0.3141 0.3286,-0.4065 0.1383,-0.0921 0.2826,-0.1383 0.4325,-0.1383 z m -4.2545,2.2742 h 2.1271 l -1.0375,2.7757 z m 18.3804,3.4242 h -0.5533 v -5.1536 c 0,-0.15 0.0533,-0.2781 0.1599,-0.385 0.1068,-0.1066 0.2378,-0.1598 0.3934,-0.1598 H 79.24 l 0.0088,-0.0865 h -1.8939 v 0.0865 h 0.1126 c 0.1499,0 0.278,0.0518 0.3846,0.1556 0.1069,0.1037 0.163,0.2307 0.1687,0.3804 v 4.7993 c -0.0057,0.1497 -0.0618,0.2781 -0.1687,0.3847 -0.1066,0.1066 -0.2347,0.1599 -0.3846,0.1599 h -0.1126 v 0.0864 h 2.3349 c 0.5244,0 0.9366,-0.1454 1.2365,-0.4365 0.2996,-0.2911 0.4496,-0.6687 0.4496,-1.1327 0,-0.4641 -0.1426,-0.8649 -0.4281,-1.2019 -0.2854,-0.3374 -0.6327,-0.506 -1.042,-0.506 0.0865,-0.0403 0.1888,-0.1196 0.307,-0.2378 0.1182,-0.1182 0.2234,-0.2407 0.3158,-0.3674 0.4958,-0.7092 0.8184,-1.1458 0.9683,-1.3102 0.15,-0.1641 0.2565,-0.2766 0.32,-0.337 0.0635,-0.0607 0.1327,-0.1196 0.2075,-0.1775 0.0749,-0.0575 0.15,-0.1037 0.2248,-0.1383 0.1673,-0.0808 0.3459,-0.121 0.5361,-0.121 v -0.0865 h -0.4754 c -0.248,0 -0.4785,0.0448 -0.6919,0.1341 -0.2132,0.0893 -0.3734,0.1814 -0.48,0.2766 -0.1065,0.0953 -0.1987,0.1874 -0.2766,0.2767 -0.0777,0.0893 -0.2925,0.3878 -0.6443,0.8949 -0.3515,0.5074 -0.5562,0.7971 -0.6137,0.8691 -0.0579,0.072 -0.1182,0.1426 -0.1817,0.212 -0.1846,0.1959 -0.3691,0.294 -0.5534,0.294 v 0.0864 c 0.046,-0.0059 0.1066,-0.0087 0.1815,-0.0087 0.0751,0 0.1672,0.0028 0.2766,0.0087 0.7149,0.0173 1.1645,0.317 1.349,0.8992 0.0346,0.1154 0.0519,0.2234 0.0519,0.3243 0,0.1009 0,0.1658 0,0.1947 -0.0113,0.3861 -0.1122,0.6973 -0.3024,0.9337 -0.1905,0.2365 -0.4471,0.3632 -0.7697,0.3805 -0.1383,0.0059 -0.3115,0.0087 -0.519,0.0087 z m 20.0319,-0.5014 c 0,0.1383 -0.0488,0.258 -0.1468,0.3589 -0.0981,0.1006 -0.2135,0.1542 -0.3459,0.1598 h -1.6429 v -5.1797 c 0.0056,-0.1497 0.0618,-0.2767 0.1686,-0.3804 0.1066,-0.1038 0.2347,-0.1556 0.3847,-0.1556 h 0.1125 v -0.0865 h -1.8938 v 0.0865 h 0.1125 c 0.1497,0 0.2781,0.0518 0.3847,0.1556 0.1066,0.1037 0.163,0.2276 0.1687,0.3719 v 5.1882 h -1.643 C 94.6891,86.152 94.5723,86.0984 94.477,85.9978 94.3821,85.8969 94.3345,85.7772 94.3345,85.6389 V 85.4918 L 94.248,85.483 v 1.0896 c 0.0865,-0.0346 0.2364,-0.0691 0.4496,-0.1037 0.2134,-0.0346 0.4093,-0.0519 0.5882,-0.0519 h 2.9225 c 0.2826,0 0.5176,0.0216 0.705,0.0649 0.187,0.0431 0.301,0.0734 0.3413,0.0907 V 85.483 l -0.0865,0.0088 z m 12.7426,-5.197 c 0.1499,0 0.2781,0.0532 0.3846,0.1598 0.1069,0.1069 0.163,0.235 0.1687,0.385 v 4.8424 c -0.0173,0.1383 -0.0777,0.2551 -0.1814,0.3501 -0.1038,0.0952 -0.2279,0.1426 -0.3719,0.1426 h -0.1038 l -0.009,0.0864 h 2.5336 c 0.1789,0 0.3734,0.0176 0.5837,0.0522 0.2106,0.0346 0.3589,0.0691 0.4453,0.1037 v -1.0896 h -0.0864 v 0.1556 c 0,0.1383 -0.0474,0.2565 -0.1426,0.3546 -0.0953,0.0978 -0.2089,0.15 -0.3416,0.1556 h -1.764 v -2.6719 h 1.4613 c 0.1153,0.0057 0.2134,0.049 0.2942,0.1296 0.0805,0.0807 0.121,0.1817 0.121,0.3027 v 0.121 h 0.0865 v -1.3663 h -0.0865 v 0.1299 c 0,0.1153 -0.0391,0.2131 -0.1167,0.2939 -0.078,0.0808 -0.1744,0.1239 -0.2897,0.1298 h -1.4701 v -2.5854 h 1.2365 c 0.4266,0 0.7523,0.0949 0.9771,0.2851 0.2248,0.1902 0.4121,0.4728 0.5621,0.8476 h 0.0865 l -0.5015,-1.4009 h -3.5887 v 0.0865 h 0.1126 z m 18.7608,-0.0865 h -2.1101 l 0.009,0.0865 h 0.1037 c 0.15,0 0.2781,0.0518 0.3847,0.1556 0.1068,0.1037 0.163,0.2307 0.1686,0.3804 v 4.8078 c 0,0.15 -0.0547,0.2767 -0.1641,0.3804 -0.1097,0.1038 -0.2392,0.1557 -0.3892,0.1557 h -0.1037 l -0.009,0.0864 h 1.7209 c 0.5936,0 1.0548,-0.1309 1.3836,-0.3931 0.3285,-0.2625 0.4927,-0.6126 0.4927,-1.0508 0,-0.3459 -0.0922,-0.6327 -0.2767,-0.8604 -0.1845,-0.2276 -0.4093,-0.379 -0.6744,-0.4541 0.4553,-0.0691 0.8156,-0.2565 1.0809,-0.5618 0.265,-0.3056 0.3977,-0.6905 0.3977,-1.1546 0,-0.464 -0.1772,-0.843 -0.5318,-1.1369 -0.3546,-0.294 -0.8487,-0.4411 -1.4828,-0.4411 z m -0.8821,0.3112 h 0.8472 c 0.006,0 0.0117,0 0.0176,0 0.438,0 0.7781,0.1197 1.0202,0.3589 0.2421,0.2393 0.3631,0.578 0.3631,1.0159 0,0.2481 -0.0417,0.4658 -0.1253,0.6532 -0.0836,0.1873 -0.1888,0.3356 -0.3155,0.4453 -0.3345,0.2766 -0.8359,0.415 -1.5046,0.415 0,0 -0.003,0 -0.009,0 v 0.0776 c 0.006,0 0.0332,0 0.0822,0 0.0491,0 0.1196,0.006 0.2118,0.0173 0.0924,0.0116 0.1961,0.0318 0.3115,0.0607 0.1151,0.0289 0.2188,0.0748 0.3112,0.1383 0.0922,0.0635 0.1786,0.1383 0.2594,0.2248 0.1672,0.1902 0.2509,0.4742 0.2509,0.8518 0,0.3776 -0.1083,0.673 -0.3243,0.8864 -0.2163,0.2132 -0.529,0.3198 -0.9383,0.3198 h -0.4583 v -5.465 z m 15.7257,-0.2247 c 0.15,0 0.2781,0.0532 0.3847,0.1598 0.1068,0.1069 0.163,0.235 0.1686,0.385 v 4.799 c -0.006,0.15 -0.0618,0.2767 -0.1686,0.3804 -0.1066,0.1038 -0.2347,0.1557 -0.3847,0.1557 h -0.1125 v 0.0864 h 1.8938 v -0.0864 h -0.1125 c -0.1497,0 -0.2781,-0.0519 -0.3847,-0.1557 -0.1066,-0.1037 -0.163,-0.2304 -0.1686,-0.3804 v -4.799 c 0,-0.15 0.0547,-0.2781 0.1644,-0.385 0.1094,-0.1066 0.2392,-0.1598 0.3889,-0.1598 h 0.1125 v -0.0865 h -1.8938 v 0.0865 z m 16.452,5.8799 c -0.2075,0 -0.3659,-0.0893 -0.4754,-0.2679 -0.0462,-0.0808 -0.0722,-0.1729 -0.0779,-0.2767 v -5.4218 c 0,-0.4842 -0.1514,-0.8935 -0.4541,-1.228 -0.3025,-0.3342 -0.6758,-0.5014 -1.1197,-0.5014 v 0.0779 c 0.2826,0.0978 0.5219,0.3099 0.7177,0.6356 0.1959,0.3257 0.294,0.6729 0.294,1.042 v 5.3957 c -0.006,0.1497 -0.0618,0.2781 -0.1687,0.3847 -0.1066,0.1066 -0.2347,0.1599 -0.3846,0.1599 h -0.1126 v 0.0864 h 1.8939 v -0.0864 z m 18.7178,0 h -0.1384 c -0.121,0 -0.2262,-0.0389 -0.3155,-0.1165 -0.0896,-0.078 -0.1369,-0.1747 -0.1428,-0.2897 v -3.4243 c 0,-0.6746 -0.2132,-1.2192 -0.6398,-1.6344 -0.4266,-0.415 -0.9944,-0.6225 -1.7036,-0.6225 -0.709,0 -1.2841,0.206 -1.7249,0.6182 -0.4411,0.4122 -0.6616,0.9556 -0.6616,1.6299 v 3.407 c 0,0.1729 -0.0749,0.2999 -0.2248,0.3804 -0.0692,0.0346 -0.1471,0.0519 -0.2336,0.0519 h -0.1383 v 0.0864 h 1.7555 v -0.0864 h -0.1384 c -0.127,0 -0.2335,-0.0389 -0.32,-0.1165 -0.0864,-0.078 -0.1327,-0.1775 -0.1383,-0.2985 v -3.3032 c 0,-0.6282 0.1686,-1.1356 0.5057,-1.522 0.3373,-0.386 0.7886,-0.5791 1.3532,-0.5791 0.565,0 1.0233,0.1829 1.3751,0.5491 0.3515,0.3659 0.5276,0.8458 0.5276,1.4397 v 3.4155 c -0.006,0.121 -0.0519,0.2205 -0.1384,0.2985 -0.0867,0.0776 -0.1933,0.1165 -0.32,0.1165 h -0.1383 v 0.0864 h 1.5996 z"
         style="fill:#baa98b;fill-opacity:1;fill-rule:nonzero;stroke:none"
         id="path72"
         inkscape:connector-curvature="0" /><g
         id="g74"><path
           d="m 119.9996,94.0717 c 0.1352,0.2188 0.2801,0.396 0.4504,0.5323 0.2631,0.2104 0.5741,0.3158 0.9823,0.3158 0.4532,0 0.8648,-0.1842 1.1622,-0.4816 0.297,-0.2982 0.4816,-0.7089 0.4816,-1.1622 0,-0.7679 -0.3756,-1.5248 -0.9383,-2.2751 -0.5491,-0.7319 -1.2691,-1.4519 -1.9888,-2.1716 l -0.1494,-0.1494 -0.1494,0.1494 c -0.7197,0.7197 -1.4397,1.4394 -1.9885,2.1716 -0.5629,0.7503 -0.9382,1.5072 -0.9382,2.2751 0,0.4538 0.1842,0.8649 0.4816,1.1622 0.2973,0.2974 0.7083,0.4816 1.1622,0.4816 0.6916,0 1.0871,-0.2829 1.4323,-0.8481 z m -0.0113,-2.9758 c -0.5811,0.0343 -0.8711,0.3118 -0.8711,0.8322 0,0.4071 0.214,0.9788 0.642,1.7133 -0.3018,0.5703 -0.6131,0.8555 -1.1919,0.8555 -0.3371,0 -0.6424,-0.1369 -0.8632,-0.3578 -0.2208,-0.2208 -0.3577,-0.5261 -0.3577,-0.8631 0,-0.6642 0.3413,-1.3405 0.8524,-2.0222 0.4881,-0.6514 1.1389,-1.3133 1.8008,-1.9758 0.6622,0.6628 1.313,1.3249 1.8012,1.9758 0.511,0.6817 0.8523,1.358 0.8523,2.0222 0,0.3373 -0.1369,0.6429 -0.3574,0.8637 -0.2211,0.2203 -0.5267,0.3572 -0.8634,0.3572 -0.3079,0 -0.5349,-0.074 -0.7195,-0.2214 -0.1754,-0.1403 -0.3245,-0.3541 -0.4737,-0.6375 0.3184,-0.5735 0.5202,-1.0443 0.6041,-1.4108 0.0621,-0.2713 0.0629,-0.4961 0.002,-0.6735 -0.0712,-0.2061 -0.2154,-0.3442 -0.4329,-0.4133 -0.1201,-0.0383 -0.2616,-0.053 -0.424,-0.0445 z m -0.4482,0.8322 c 0,-0.2557 0.1576,-0.3926 0.4723,-0.411 0.1114,-0.0057 0.2029,0.0028 0.2727,0.0247 0.0813,0.0258 0.1352,0.0759 0.1604,0.1491 0.0352,0.1017 0.0303,0.2494 -0.0139,0.4419 -0.0629,0.2758 -0.2044,0.6242 -0.4235,1.0451 l -0.008,-0.0159 -0.0128,0.0261 c -0.2979,-0.5473 -0.4473,-0.9677 -0.4473,-1.26"
           style="fill:#baa98b;fill-opacity:1;fill-rule:nonzero;stroke:none"
           id="path76"
           inkscape:connector-curvature="0" /><path
           d="m 113.6727,92.0449 c 0.1888,0 0.3419,-0.11 0.3419,-0.2455 0,-0.1355 -0.1531,-0.2454 -0.3419,-0.2454 H 58.7239 c -0.1888,0 -0.3421,0.1099 -0.3421,0.2454 0,0.1355 0.1533,0.2455 0.3421,0.2455 z m 67.6032,0 c 0.1888,0 0.3421,-0.11 0.3421,-0.2455 0,-0.1355 -0.1533,-0.2454 -0.3421,-0.2454 h -54.9488 c -0.1888,0 -0.3421,0.1099 -0.3421,0.2454 0,0.1355 0.1533,0.2455 0.3421,0.2455 z"
           style="fill:#baa98b;fill-opacity:1;fill-rule:nonzero;stroke:none"
           id="path78"
           inkscape:connector-curvature="0" /></g></g></g></svg>