<?xml version="1.0" encoding="UTF-8" standalone="no"?>
<!-- Created with Inkscape (http://www.inkscape.org/) -->

<svg
   xmlns:dc="http://purl.org/dc/elements/1.1/"
   xmlns:cc="http://creativecommons.org/ns#"
   xmlns:rdf="http://www.w3.org/1999/02/22-rdf-syntax-ns#"
   xmlns:svg="http://www.w3.org/2000/svg"
   xmlns="http://www.w3.org/2000/svg"
   xmlns:sodipodi="http://sodipodi.sourceforge.net/DTD/sodipodi-0.dtd"
   xmlns:inkscape="http://www.inkscape.org/namespaces/inkscape"
   version="1.1"
   id="svg2"
   width="174.716"
   height="147.293"
   viewBox="0 0 174.71601 147.293"
   sodipodi:docname="logo_restinga.svg"
   inkscape:version="0.92.3 (2405546, 2018-03-11)">
  <metadata
     id="metadata8">
    <rdf:RDF>
      <cc:Work
         rdf:about="">
        <dc:format>image/svg+xml</dc:format>
        <dc:type
           rdf:resource="http://purl.org/dc/dcmitype/StillImage" />
        <dc:title></dc:title>
      </cc:Work>
    </rdf:RDF>
  </metadata>
  <defs
     id="defs6" />
  <sodipodi:namedview
     pagecolor="#ffffff"
     bordercolor="#666666"
     borderopacity="1"
     objecttolerance="10"
     gridtolerance="10"
     guidetolerance="10"
     inkscape:pageopacity="0"
     inkscape:pageshadow="2"
     inkscape:window-width="1366"
     inkscape:window-height="712"
     id="namedview4"
     showgrid="false"
     inkscape:zoom="3.6050593"
     inkscape:cx="86.813832"
     inkscape:cy="80.64735"
     inkscape:window-x="0"
     inkscape:window-y="0"
     inkscape:window-maximized="1"
     inkscape:current-layer="svg2" />
  <path
     style="fill:#ffffff;stroke-width:0.20031427"
     d="m 63.895074,129.6682 c -0.936213,-0.47102 -1.325062,-1.47096 -1.016966,-2.61513 0.365325,-1.35672 2.044605,-3.61413 4.39946,-5.91407 1.278778,-1.24896 2.221336,-2.33011 2.221336,-2.54797 0,-0.35183 -0.04977,-0.34466 -0.707754,0.10187 -1.337281,0.9075 -2.732045,0.83755 -3.692883,-0.18521 l -0.453262,-0.48248 -0.728001,0.47827 c -0.85098,0.55906 -2.429448,1.01913 -2.890094,0.84236 -0.176489,-0.0678 -0.483348,-0.42073 -0.68191,-0.78445 -0.29902,-0.54776 -0.358708,-1.11961 -0.347534,-3.32971 l 0.01353,-2.66838 -1.639315,3.24095 c -0.901622,1.78254 -1.764036,3.31996 -1.916473,3.4165 -0.75006,0.47504 -1.979824,-0.28855 -1.979824,-1.22931 0,-0.30315 -0.218067,-0.24252 -1.484138,0.41265 -1.819137,0.94136 -2.972098,1.15049 -3.992414,0.72418 -0.562451,-0.23502 -0.769077,-0.45615 -0.862455,-0.92304 -0.06753,-0.33769 -0.193394,-0.65761 -0.279679,-0.71093 -0.08628,-0.0532 -0.922251,0.30339 -1.857698,0.7927 -1.989895,1.04088 -2.904043,1.26253 -3.754396,0.91029 -0.640866,-0.26545 -1.791219,-1.51381 -1.791219,-1.94382 0,-0.36771 -0.355782,-0.31404 -1.011028,0.15256 -1.569516,1.1176 -4.49932,2.0133 -6.607201,2.01996 -1.686923,0.005 -2.710238,-0.42662 -3.138562,-1.32483 l -0.30394,-0.63736 -1.654767,0.85147 c -2.010445,1.03451 -3.463719,1.28179 -4.850347,0.82529 -0.903986,-0.29761 -0.970545,-0.29135 -1.898157,0.17871 -1.113948,0.56448 -2.977301,1.08474 -3.885073,1.08474 -0.839101,0 -1.88162,-0.73148 -2.435076,-1.70859 -0.508661,-0.89792 -0.831381,-1.94837 -1.447073,-4.71003 -0.533124,-2.39131 -0.986311,-3.19645 -1.799172,-3.19645 -0.554569,0 -0.599497,0.0596 -0.717528,0.95149 -0.391186,2.95606 -0.9284848,5.69824 -1.313589,6.70406 -0.9629167,2.51497 -2.5564807,3.49114 -4.6877083,2.87157 -2.8753331,-0.83587 -4.79578793,-5.51914 -4.113177,-10.03047 0.9589324,-6.33751 5.3142814,-10.84439 11.3175653,-11.711318 3.570372,-0.515585 6.970152,0.905628 8.0357,3.359188 0.464521,1.06961 0.431874,2.77092 -0.07195,3.74903 -0.932603,1.81057 -2.825219,3.06816 -5.305056,3.52509 l -1.322491,0.24368 0.615343,0.41924 c 1.068184,0.72774 1.709164,1.74208 2.163677,3.42394 0.238189,0.88139 0.584008,2.00815 0.768486,2.50392 0.307837,0.8273 0.397605,0.90659 1.091737,0.96422 0.475523,0.0396 1.086826,-0.0973 1.646515,-0.36812 0.811075,-0.39263 0.876894,-0.47833 0.740553,-0.96422 -0.08231,-0.29331 -0.14446,-1.25441 -0.138125,-2.1358 0.01284,-1.77807 0.524937,-3.21319 1.600779,-4.4855 0.639911,-0.75677 1.906297,-1.41265 2.740494,-1.41937 0.844123,-0.007 2.121403,0.58425 2.543442,1.17695 0.68786,0.96602 0.725732,1.89459 0.127167,3.11801 -0.61884,1.26485 -1.361064,1.94897 -2.90992,2.68207 -0.60982,0.28863 -1.146675,0.54894 -1.193016,0.57844 -0.04635,0.0294 0.133947,0.28769 0.400629,0.57374 0.429353,0.46051 0.594487,0.50731 1.441944,0.40862 2.191751,-0.25528 5.184535,-2.51952 7.655617,-5.79199 1.658609,-2.19649 2.300232,-2.75024 3.18669,-2.75024 0.550392,0 1.321216,0.62166 1.321216,1.06555 0,0.14537 -0.351482,0.73539 -0.78107,1.31115 l -0.781068,1.04687 0.285149,1.14269 c 0.156822,0.62849 0.340547,1.66101 0.40826,2.2945 0.06772,0.6335 0.178202,1.14871 0.245529,1.14494 0.06733,-0.003 0.827634,-0.38689 1.68957,-0.85135 l 1.567157,-0.84445 0.03536,-2.96356 c 0.03991,-3.34495 0.209231,-3.0248 -1.748501,-3.3061 -1.080052,-0.15513 -1.599325,-0.64277 -1.157008,-1.08639 0.14059,-0.14108 0.939607,-0.30087 1.779548,-0.35605 l 1.524391,-0.10017 0.470221,-1.80283 c 0.258621,-0.99155 0.831133,-2.53906 1.272249,-3.43888 1.152697,-2.351372 2.427267,-3.293968 3.501926,-2.589834 1.740056,1.140134 1.839346,3.741284 0.258607,6.774834 -0.360265,0.69136 -0.685723,1.32464 -0.723237,1.40725 -0.03751,0.0827 0.748857,0.15017 1.747493,0.15017 1.777372,0 1.818402,0.0103 1.94342,0.50887 0.0869,0.34623 0.01421,0.63429 -0.227544,0.9014 -0.31246,0.34527 -0.625002,0.39256 -2.5943,0.39256 h -2.239042 l -0.626768,0.77993 c -0.583294,0.72583 -0.636138,0.92484 -0.761841,2.86917 -0.196244,3.03543 0.196226,3.96284 1.677022,3.96284 0.726116,0 2.701084,-0.98482 3.711822,-1.8509 0.702025,-0.60155 0.809585,-0.84142 1.364411,-3.04284 0.331267,-1.3144 0.686226,-2.54664 0.788795,-2.73829 0.23971,-0.4479 1.46997,-0.85517 2.103188,-0.69624 0.649317,0.16301 0.633443,0.42481 -0.220952,3.64493 -0.879029,3.31296 -0.908358,4.95104 -0.09017,5.03553 0.336846,0.0348 0.907959,-0.25285 1.744564,-0.8786 1.145657,-0.85691 1.25295,-1.00321 1.360037,-1.85454 0.282861,-2.24864 0.772144,-4.77294 1.018923,-5.25679 0.464406,-0.91056 1.492965,-1.05535 1.999988,-0.28153 0.286313,0.43696 0.295047,0.70311 0.07573,2.30796 -0.136344,0.99771 -0.199563,1.86236 -0.140488,1.92144 0.05907,0.0591 0.618066,-0.84459 1.242196,-2.00817 0.828534,-1.54463 1.297584,-2.19976 1.738017,-2.42752 0.79907,-0.41322 1.349269,-0.30587 1.844448,0.35984 0.383362,0.51538 0.3925,0.6381 0.156652,2.1033 -0.59165,3.67566 -0.628066,4.10115 -0.417819,4.88194 0.246213,0.91437 0.701404,1.01752 1.616074,0.36622 0.402912,-0.2869 0.581788,-0.5852 0.581788,-0.97021 0,-0.30577 0.180677,-1.0811 0.401506,-1.72294 0.962063,-2.7963 3.02047,-4.87918 5.159924,-5.22128 0.662959,-0.10599 0.844362,-0.0582 1.085734,0.28645 0.176268,0.25166 0.619905,0.46651 1.13251,0.54848 0.463495,0.0741 0.899267,0.22627 0.968385,0.33809 0.209442,0.33888 0.07582,2.30065 -0.350949,5.15252 -0.222574,1.48734 -0.451292,2.862 -0.508263,3.05481 -0.180792,0.61181 0.315086,0.38169 1.411051,-0.65482 0.87796,-0.83034 1.08378,-1.15678 1.18222,-1.87497 0.299814,-2.18736 1.914667,-4.93437 3.528592,-6.0024 0.441116,-0.29192 1.207562,-0.63922 1.703209,-0.77178 0.833018,-0.22281 0.937066,-0.20732 1.375625,0.20468 0.260944,0.24514 0.871868,0.51308 1.357614,0.59544 1.120474,0.18994 1.149875,0.3796 0.593302,3.82733 -0.415219,2.57212 -0.358675,3.62486 0.1947,3.62486 0.488113,0 1.399125,-0.64436 2.251728,-1.59266 0.998879,-1.11099 1.044635,-1.09036 1.26496,0.57053 0.128794,0.97093 0.116602,1.00006 -0.80478,1.92144 -1.892327,1.89233 -3.676937,2.16402 -4.641391,0.70665 l -0.515063,-0.77832 -0.933601,0.66213 c -1.773054,1.25749 -3.085114,1.38315 -4.352092,0.41677 -0.589244,-0.44944 -0.671765,-0.46473 -0.91648,-0.16985 -0.147919,0.17822 -0.899585,0.76694 -1.670384,1.30824 l -1.401451,0.9842 -0.431988,1.74135 c -1.062489,4.28288 -2.413574,6.3734 -4.630362,7.16448 -1.039743,0.37106 -2.027949,0.34849 -2.849915,-0.0651 z m 2.58501,-2.24317 c 0.892947,-0.63585 2.712533,-4.59846 2.29681,-5.0019 -0.06583,-0.0639 -0.776931,0.57892 -1.580206,1.42849 -1.486834,1.57252 -2.436117,3.1331 -2.230998,3.66762 0.15862,0.41336 0.863123,0.36953 1.514394,-0.0942 z M 6.9898956,118.46942 c 0.7343061,-0.93352 1.4131571,-4.28594 1.4131571,-6.9787 0,-0.95411 -0.040475,-1.03316 -0.7149157,-1.39637 -0.8573489,-0.4617 -1.1658028,-0.971 -0.9965394,-1.6454 0.1189173,-0.4738 0.1770898,-0.49269 1.1187613,-0.36318 0.9898829,0.13613 0.9933264,0.13458 0.9944402,-0.43303 0.00414,-2.11944 1.4951659,-3.75215 2.5046369,-2.74268 0.272185,0.27218 0.304504,0.54771 0.182098,1.55244 -0.261266,2.14454 -0.327307,2.00435 0.917804,1.94846 1.60403,-0.0719 3.13767,-0.61274 4.060502,-1.43168 0.728046,-0.64609 0.816832,-0.82892 0.902145,-1.85771 0.092,-1.10945 0.07299,-1.16271 -0.685776,-1.92148 -0.89765,-0.89765 -1.856171,-1.22443 -3.575771,-1.21902 -4.5822109,0.0137 -8.1583874,3.15886 -9.407435,8.27176 -0.4441728,1.81819 -0.4509294,4.74875 -0.0144,6.25033 0.6356712,2.18663 2.3328338,3.19747 3.3013012,1.96626 z m 26.4379014,-1.39765 c 0.463565,-0.58933 0.531931,-1.54756 0.196582,-2.75532 l -0.216351,-0.77922 -1.472242,1.46243 -1.472241,1.46241 0.715682,0.56875 c 0.914253,0.72656 1.698044,0.74084 2.24857,0.0409 z m 35.370437,-0.393 c 0.582198,-0.6282 0.832667,-1.35124 1.398459,-4.03698 0.382638,-1.81632 0.396227,-2.05307 0.117766,-2.05189 -1.302735,0.005 -3.213373,2.8972 -3.217373,4.86945 -0.0034,1.72711 0.738019,2.25865 1.701144,1.21942 z m 10.581205,-0.0757 c 0.275758,-0.32772 0.597711,-0.89111 0.715452,-1.25196 0.176096,-0.53971 1.022239,-4.41719 1.022239,-4.68446 0,-0.043 -0.164065,-0.0781 -0.364572,-0.0781 -0.623134,0 -1.926975,1.30577 -2.526573,2.5303 -1.275027,2.60395 -0.380218,5.30688 1.153454,3.48422 z m -55.319173,-3.05225 c 1.050021,-0.59015 1.60615,-1.49384 1.398935,-2.27323 -0.187308,-0.70453 -0.823878,-0.87083 -1.539207,-0.40213 -0.614984,0.40295 -1.009233,1.18166 -1.147815,2.2671 -0.129376,1.01331 0.08861,1.0824 1.288087,0.40826 z m 19.74674,-8.0202 c 0.448393,-0.90893 0.922448,-1.99542 1.053455,-2.41442 0.526205,-1.68296 -0.4395,-2.43567 -1.203523,-0.93806 -0.225606,0.44224 -0.641052,1.67142 -0.923216,2.73154 -0.41834,1.57177 -0.463538,1.95886 -0.244898,2.09744 0.147474,0.0935 0.320953,0.17134 0.385523,0.17302 0.06457,0.002 0.484264,-0.7406 0.932659,-1.64952 z m 56.498504,22.49877 c -0.967855,-0.31168 -1.760789,-1.02831 -2.306197,-2.08429 -0.447841,-0.8671 -0.547215,-1.35755 -0.615388,-3.03722 -0.0934,-2.30131 0.2832,-3.76237 1.478083,-5.73425 1.007072,-1.66195 3.255252,-3.68969 5.019952,-4.52773 l 1.47424,-0.70013 -1.58602,-1.67551 c -0.91956,-0.97145 -1.82444,-2.16148 -2.15341,-2.832 -1.10093,-2.24395 -0.80094,-5.25094 0.76981,-7.716244 1.55023,-2.433084 4.35048,-3.547004 6.48237,-2.578623 1.50357,0.682988 2.64454,2.546828 3.22405,5.266667 0.25085,1.17733 0.28887,2.24135 0.19203,5.37409 -0.0664,2.14837 -0.17139,4.22163 -0.23328,4.60723 -0.10654,0.66374 -0.0625,0.73096 0.82592,1.26146 0.51616,0.3082 0.95679,0.53356 0.97919,0.50079 0.0224,-0.0327 0.20016,-0.48975 0.39501,-1.01552 0.46901,-1.26552 1.91196,-3.15951 2.91054,-3.82036 0.44112,-0.2919 1.20756,-0.63921 1.70321,-0.77179 0.83302,-0.22279 0.93707,-0.20731 1.37563,0.2047 0.26094,0.24514 0.87186,0.51309 1.35761,0.59543 1.12047,0.18995 1.14988,0.37961 0.5933,3.82734 -0.41522,2.57212 -0.35867,3.62486 0.1947,3.62486 0.41094,0 1.3005,-0.57042 1.92575,-1.23487 0.50233,-0.53384 0.674,-0.94992 0.85414,-2.07032 0.3527,-2.19361 0.84085,-4.16321 1.15718,-4.66907 0.22182,-0.35472 0.43802,-0.44807 0.92789,-0.40063 l 0.63869,0.0618 0.0585,1.55243 c 0.0322,0.85384 0.12232,1.55104 0.20032,1.54932 0.078,-0.002 0.41896,-0.52002 0.75771,-1.15179 0.61228,-1.14197 1.62939,-2.05013 2.29608,-2.05013 0.19185,0 0.5509,0.16369 0.79789,0.36364 0.44126,0.35731 0.4446,0.39369 0.19196,2.09184 -0.23095,1.55234 -0.22296,1.78033 0.0785,2.24044 0.59624,0.91 1.74281,0.66078 2.33931,-0.50846 0.8526,-1.67123 2.30127,-2.87138 3.98075,-3.29781 l 0.90544,-0.2299 0.24146,-1.92274 c 0.46797,-3.72637 1.60123,-6.82967 3.07973,-8.433678 1.45354,-1.576888 2.98588,-1.702976 3.70872,-0.305186 1.08785,2.103684 0.27633,6.228044 -2.41585,12.278154 -0.86598,1.94609 -1.1711,2.88175 -1.24664,3.82294 -0.18559,2.31193 0.51641,2.65715 2.56685,1.26232 l 1.25148,-0.85133 0.67298,-2.80442 c 0.72972,-3.04089 0.94073,-3.38848 2.20039,-3.6248 0.50998,-0.0957 0.79112,-0.0452 1.01948,0.18319 0.28685,0.28686 0.25027,0.56474 -0.4055,3.08035 -0.89404,3.42963 -1.05381,4.49315 -0.75807,5.04575 0.30544,0.57072 0.76492,0.53317 1.82595,-0.14914 1.58016,-1.0162 1.72623,-1.28579 2.07758,-3.83419 0.17467,-1.26699 0.4117,-2.64251 0.52672,-3.05669 0.26638,-0.95926 1.01548,-1.48931 1.74286,-1.2332 0.82994,0.29221 0.89739,1.07564 0.35648,4.13964 -0.17045,0.96551 0.19138,0.59806 1.08496,-1.10171 1.24245,-2.36342 1.69478,-2.91441 2.51959,-3.06914 0.4588,-0.0861 0.80929,-0.0401 1.01862,0.13372 0.66088,0.54846 0.69826,1.14464 0.24498,3.90697 -0.52518,3.20069 -0.41771,4.14635 0.48304,4.24999 0.44268,0.051 0.59121,-0.043 0.75677,-0.47846 0.11332,-0.29802 0.81584,-1.10644 1.56117,-1.7965 0.74533,-0.69006 2.07201,-2.20363 2.94819,-3.36349 1.65044,-2.18478 2.29255,-2.73796 3.17808,-2.73796 0.55038,0 1.32121,0.62165 1.32121,1.06555 0,0.14536 -0.35147,0.73538 -0.78106,1.31115 l -0.78107,1.04687 0.28515,1.1427 c 0.15682,0.62847 0.34054,1.66099 0.40826,2.29448 0.0677,0.63351 0.1782,1.14897 0.24553,1.14549 0.0673,-0.003 0.95622,-0.44081 1.97531,-0.97184 l 1.85292,-0.9655 v 1.22222 c 0,1.21989 -0.002,1.22326 -0.85134,1.75924 -3.53946,2.23352 -8.76678,2.69634 -9.60774,0.85063 l -0.20588,-0.45189 -1.26388,0.69472 c -1.68831,0.92799 -2.77043,0.99428 -3.36652,0.20622 -0.3907,-0.5165 -0.42896,-0.81583 -0.42896,-3.35529 0,-1.53352 -0.022,-2.7882 -0.0489,-2.78818 -0.0269,1e-5 -0.76913,1.43835 -1.64939,3.19629 -1.51285,3.02123 -1.95522,3.61441 -2.69548,3.61441 -0.47984,0 -1.11487,-0.74163 -1.11487,-1.30204 0,-0.61851 -0.0311,-0.61844 -0.96895,0.002 -0.90233,0.59714 -2.81776,1.29987 -3.54307,1.29987 -0.54582,0 -1.69562,-0.5113 -1.70079,-0.75632 -0.002,-0.0798 -0.081,-0.26807 -0.1762,-0.41835 -0.13881,-0.21911 -0.47324,-0.12499 -1.6876,0.47524 -1.20622,0.59615 -1.64947,0.72177 -2.17752,0.61719 -0.75234,-0.14896 -1.33187,-0.57852 -1.85239,-1.37294 l -0.35782,-0.54613 -0.72874,0.57256 c -1.20752,0.94873 -2.06208,1.30009 -3.19764,1.31477 -0.98214,0.012 -1.12062,-0.045 -1.74774,-0.729 -0.3804,-0.41485 -0.77911,-1.13209 -0.90313,-1.62464 l -0.22206,-0.88186 -1.10601,0.0154 c -1.02457,0.0154 -1.15509,-0.0375 -1.77251,-0.71129 -0.49084,-0.5356 -0.72975,-1.04874 -0.90645,-1.94692 -0.13198,-0.6708 -0.29583,-1.2191 -0.36413,-1.21845 -0.0683,6e-4 -0.64912,1.48003 -1.29074,3.28748 -0.6416,1.80747 -1.33657,3.44018 -1.54436,3.62822 -0.54071,0.48933 -1.35518,0.23603 -1.67323,-0.52038 l -0.2525,-0.60053 -0.52444,0.41253 c -1.59017,1.25081 -3.04872,1.25257 -3.87455,0.005 l -0.51506,-0.77832 -0.9336,0.66213 c -2.36959,1.68058 -4.35838,1.32807 -5.19744,-0.92122 -0.34616,-0.92796 -0.47411,-1.05898 -1.36426,-1.39704 -0.54025,-0.20518 -0.99765,-0.37313 -1.01644,-0.37321 -0.0188,-1.1e-4 -0.098,0.29279 -0.17596,0.65085 -0.79367,3.64372 -3.03502,7.78641 -5.33988,9.86971 -1.75458,1.58589 -4.11926,2.39206 -5.60923,1.91226 z m 3.14409,-3.17799 c 1.07287,-0.7479 2.16249,-2.20787 3.09498,-4.14698 0.85331,-1.77443 1.76997,-4.52111 1.95195,-5.8488 0.11635,-0.84885 0.10921,-0.86172 -0.47806,-0.86172 -0.3279,0 -1.12889,0.26626 -1.77998,0.59171 -3.26296,1.63097 -6.0915,5.6862 -6.0915,8.7333 0,0.98302 0.0755,1.19763 0.60897,1.73111 0.51034,0.51035 0.7131,0.58866 1.25196,0.48355 0.35365,-0.069 1.00241,-0.37595 1.44168,-0.68217 z m 63.98843,-7.77965 c 0.46387,-0.5897 0.53192,-1.54762 0.19591,-2.75782 l -0.21704,-0.78168 -1.43445,1.44218 -1.43443,1.44217 0.65418,0.59147 c 0.84319,0.76237 1.66778,0.78586 2.23583,0.0637 z m -49.19762,-0.46868 c 0.27576,-0.32772 0.59771,-0.8911 0.71545,-1.25196 0.1761,-0.53971 1.02224,-4.41719 1.02224,-4.68446 0,-0.043 -0.16407,-0.0781 -0.36457,-0.0781 -0.62314,0 -1.92698,1.30577 -2.52657,2.53032 -1.27503,2.60393 -0.38022,5.30686 1.15345,3.4842 z m 20.40673,-0.1553 c 1.01147,-1.08108 1.16529,-1.6406 1.02751,-3.73785 -0.0694,-1.05656 -0.18218,-1.92103 -0.25063,-1.92103 -0.0685,0 -0.44434,0.26366 -0.83529,0.58592 -0.84855,0.69944 -1.88762,2.58441 -2.08231,3.77751 -0.27573,1.68974 1.03162,2.48089 2.14072,1.29545 z m -29.21712,-10.66674 c 0.031,-4.22394 0.0219,-4.32603 -0.4692,-5.30832 -0.54276,-1.085519 -1.16615,-1.454999 -2.0715,-1.22777 -1.45201,0.364429 -3.13829,2.95478 -3.13472,4.81533 0.004,1.88844 1.28137,3.82755 3.9994,6.0695 l 1.30129,1.07337 0.17158,-0.55768 c 0.0944,-0.30671 0.18578,-2.49572 0.20315,-4.86443 z m 33.85173,2.69287 c 1.68451,-4.42007 2.27776,-8.501985 1.23564,-8.501985 -0.94943,0 -1.83552,3.534245 -2.20978,8.813825 -0.16236,2.29017 0.003,2.23736 0.97414,-0.31184 z m -92.26456,-1.82991 c -0.514838,-0.13423 -0.997614,-1.18614 -0.850926,-1.85401 0.368631,-1.67837 2.886534,-2.14651 3.826795,-0.71149 0.289576,0.44196 0.304825,0.63598 0.102939,1.30983 -0.345425,1.15292 -1.565229,1.65041 -3.078808,1.25567 z m 98.09752,-0.35307 c -1.26749,-1.26749 0.14761,-3.35522 2.06349,-3.04432 1.00975,0.16386 1.45112,0.64423 1.45112,1.57931 0,1.16438 -0.84913,1.95669 -2.09699,1.95669 -0.716,0 -1.03741,-0.11147 -1.41762,-0.49168 z M 82.018545,81.620032 C 79.4954,81.241528 76.802834,80.621532 75.062079,80.018203 64.559662,76.378156 56.449915,67.303928 54.062913,56.521633 c -2.033512,-9.185546 0.177054,-19.152397 5.913186,-26.660982 1.275348,-1.66943 4.24642,-4.640503 5.91585,-5.915852 9.593606,-7.328967 22.571377,-8.71528 33.453551,-3.573578 9.05625,4.278974 15.88643,13.030221 17.84071,22.858602 0.54587,2.745243 0.72391,7.262896 0.39719,10.078022 -1.59255,13.721737 -11.88166,24.913405 -25.596956,27.842336 -1.466707,0.313217 -2.881384,0.435367 -5.661142,0.488788 -2.038199,0.03921 -3.976239,0.03065 -4.306757,-0.01901 z m 6.009428,-1.688388 c 2.895301,-0.274423 4.751168,-0.662582 7.31147,-1.52921 14.645747,-4.957386 23.329507,-20.257122 20.043317,-35.313911 -2.6712,-12.238976 -12.4776,-21.545389 -24.951016,-23.678847 -3.066807,-0.524548 -8.147052,-0.426162 -11.056208,0.214119 -12.018974,2.645278 -21.075165,11.70147 -23.720442,23.720442 -0.64028,2.909156 -0.738666,7.989401 -0.21412,11.056208 2.36558,13.830523 13.450415,24.184038 27.329054,25.526024 2.422879,0.234279 2.836486,0.234686 5.257945,0.0051 z M 83.22043,77.610588 c -2.117114,-0.230205 -4.5226,-0.742173 -6.518056,-1.387259 L 74.50676,75.513534 v -0.988615 -0.988618 l 1.05165,0.423114 c 3.512075,1.413025 5.947678,1.860223 10.065792,1.848167 4.239644,-0.0125 6.735018,-0.516666 10.766892,-2.175741 0.304231,-0.12518 0.35055,-0.02137 0.35055,0.785717 0,0.909782 -0.01933,0.938253 -0.890993,1.311889 -1.365702,0.585409 -3.428341,1.157488 -5.418907,1.502956 -1.865943,0.323838 -5.809254,0.530638 -7.211314,0.378185 z M 69.884635,72.894401 C 67.412659,71.27486 63.778653,67.65495 62.198174,65.237755 59.835203,61.623814 58.381325,57.884442 57.75095,53.799501 c -0.37646,-2.439536 -0.259374,-7.878305 0.215399,-10.005405 1.232711,-5.522848 3.79465,-10.216147 7.718776,-14.140269 1.85425,-1.854251 5.453478,-4.599421 6.030362,-4.599421 0.102956,0 0.182737,0.428172 0.177299,0.951494 l -0.0099,0.951492 -1.60189,1.101728 c -1.968627,1.353956 -5.165846,4.593218 -6.526143,6.611959 -6.419322,9.526557 -6.070894,21.814554 0.876391,30.907669 1.391146,1.820835 3.834735,4.174707 5.665747,5.457731 l 1.605676,1.125129 v 0.984894 c 0,0.541694 -0.02925,0.984897 -0.06498,0.984897 -0.03573,0 -0.914618,-0.556648 -1.953065,-1.236998 z m 29.26078,0.289818 v -0.985247 l 1.452285,-0.984343 c 1.98976,-1.348645 5.42252,-4.836416 6.78982,-6.898628 3.72173,-5.613251 5.2276,-12.075425 4.29104,-18.41424 -1.10878,-7.504435 -4.90039,-13.633072 -11.22776,-18.148189 -1.268987,-0.905531 -1.305385,-0.956149 -1.305385,-1.815335 0,-0.527108 0.092,-0.883831 0.227946,-0.883831 0.628539,0 3.901879,2.51595 5.986729,4.601511 2.57722,2.57811 3.90437,4.392139 5.36323,7.330819 1.69083,3.405937 2.5098,6.352475 2.84791,10.246388 0.70964,8.172662 -2.31247,16.434784 -8.11696,22.190891 -1.50767,1.495105 -3.7986,3.288161 -5.35736,4.193076 L 99.145415,74.16945 Z M 67.986264,67.381957 c -0.292652,-0.292653 -0.32022,-0.600226 -0.200265,-2.234359 0.242685,-3.306165 1.44987,-7.209884 3.137549,-10.14602 l 0.805859,-1.401991 -0.706923,-1.402409 c -1.139559,-2.260684 -1.403666,-3.461457 -1.409914,-6.410265 -0.0063,-2.962108 0.255383,-4.113283 1.456734,-6.408951 2.241462,-4.283212 6.759858,-6.493427 14.955527,-7.315638 2.44075,-0.244862 16.244889,-0.511533 16.976339,-0.327951 0.28845,0.07239 0.57729,0.298073 0.64185,0.501502 0.17222,0.542622 -0.59534,4.277699 -1.58869,7.730788 -1.94839,6.773062 -4.737822,11.731243 -8.374403,14.885437 -1.735082,1.504925 -3.161385,2.32706 -5.362342,3.090906 -1.797248,0.623737 -2.037774,0.65685 -4.796684,0.660343 -2.107242,0.0027 -3.23448,-0.08803 -4.106442,-0.330404 -1.949124,-0.54179 -3.488142,-1.172562 -4.059006,-1.663599 -0.477833,-0.411013 -0.508764,-0.514165 -0.294923,-0.983497 0.299099,-0.656448 0.703278,-0.660318 2.101672,-0.02012 2.156617,0.987332 4.167147,1.3547 6.844087,1.250564 2.52175,-0.09809 4.266891,-0.558845 6.086098,-1.606835 4.56194,-2.62799 7.967683,-7.801349 10.185573,-15.47198 0.56757,-1.962958 1.47154,-5.809693 1.47154,-6.261949 0,-0.237639 -14.19297,0.138502 -16.700475,0.442601 -6.977837,0.846221 -10.469241,2.655482 -12.508821,6.482125 -0.94879,1.780115 -1.300957,3.560549 -1.176421,5.947593 0.10638,2.039214 0.652844,4.258697 1.233676,5.010707 0.298932,0.387028 0.324334,0.376128 0.940152,-0.403479 1.33848,-1.694478 5.155006,-5.265774 6.87842,-6.436444 3.231648,-2.19518 6.275536,-3.497005 8.860364,-3.789444 0.963738,-0.109034 1.245763,-0.07142 1.519878,0.202693 0.672922,0.672922 0.15535,1.509839 -0.933728,1.509839 -1.036445,0 -3.446324,0.750652 -5.102699,1.589435 -7.772906,3.936179 -13.711602,11.603554 -14.96287,19.318362 -0.163055,1.00533 -0.296826,2.249605 -0.297267,2.765056 -0.0012,1.377962 -0.753082,1.987737 -1.513445,1.227375 z m 6.559599,-42.867471 c 0.06102,-0.940112 0.06155,-0.940722 1.167253,-1.36795 3.383917,-1.307491 6.561118,-1.78587 10.87969,-1.638109 3.484608,0.119222 5.085686,0.39657 8.139119,1.409892 l 1.90956,0.633714 0.06106,0.951492 c 0.03358,0.523321 -0.0045,0.951493 -0.08445,0.951493 -0.08003,0 -0.731849,-0.234581 -1.448504,-0.521286 -1.96439,-0.785879 -4.668365,-1.414098 -7.291859,-1.694125 -3.761074,-0.401453 -8.387448,0.260379 -11.914719,1.704476 -0.686391,0.281015 -1.299786,0.510935 -1.363097,0.510935 -0.06332,0 -0.08763,-0.42324 -0.05406,-0.940532 z"
     id="path12"
     inkscape:connector-curvature="0" />
</svg>
