<?xml version="1.0" encoding="UTF-8" standalone="no"?>
<!-- Created with Inkscape (http://www.inkscape.org/) -->

<svg
   xmlns:dc="http://purl.org/dc/elements/1.1/"
   xmlns:cc="http://creativecommons.org/ns#"
   xmlns:rdf="http://www.w3.org/1999/02/22-rdf-syntax-ns#"
   xmlns:svg="http://www.w3.org/2000/svg"
   xmlns="http://www.w3.org/2000/svg"
   xmlns:sodipodi="http://sodipodi.sourceforge.net/DTD/sodipodi-0.dtd"
   xmlns:inkscape="http://www.inkscape.org/namespaces/inkscape"
   version="1.1"
   id="svg2"
   width="1458"
   height="600"
   viewBox="0 0 1458 600"
   sodipodi:docname="restinga.svg"
   inkscape:version="0.92.3 (2405546, 2018-03-11)">
  <metadata
     id="metadata8">
    <rdf:RDF>
      <cc:Work
         rdf:about="">
        <dc:format>image/svg+xml</dc:format>
        <dc:type
           rdf:resource="http://purl.org/dc/dcmitype/StillImage" />
        <dc:title />
      </cc:Work>
    </rdf:RDF>
  </metadata>
  <defs
     id="defs6" />
  <sodipodi:namedview
     pagecolor="#ffffff"
     bordercolor="#666666"
     borderopacity="1"
     objecttolerance="10"
     gridtolerance="10"
     guidetolerance="10"
     inkscape:pageopacity="0"
     inkscape:pageshadow="2"
     inkscape:window-width="1366"
     inkscape:window-height="712"
     id="namedview4"
     showgrid="false"
     inkscape:zoom="0.70859053"
     inkscape:cx="686.34169"
     inkscape:cy="300"
     inkscape:window-x="0"
     inkscape:window-y="0"
     inkscape:window-maximized="1"
     inkscape:current-layer="svg2" />
  <path
     style="fill:#ffffff"
     d="m 611.86934,579.66906 c -4.67372,-2.35145 -6.61491,-7.34326 -5.07685,-13.05519 1.82376,-6.77293 10.20699,-18.04225 21.96279,-29.52392 6.38386,-6.23499 11.08925,-11.63228 11.08925,-12.71986 0,-1.75633 -0.24851,-1.72056 -3.53321,0.5085 -6.67592,4.5304 -13.6388,4.18118 -18.43545,-0.92462 l -2.26276,-2.40859 -3.63429,2.3876 c -4.24822,2.79093 -12.12818,5.08769 -14.4278,4.20524 -0.88106,-0.33809 -2.41295,-2.10036 -3.4042,-3.91616 -1.49276,-2.73445 -1.79073,-5.58923 -1.73495,-16.62243 l 0.0673,-13.32098 -8.18372,16.17938 c -4.50104,8.89866 -8.80634,16.57371 -9.56733,17.05567 -3.74441,2.37146 -9.88359,-1.44044 -9.88359,-6.13687 0,-1.51341 -1.08862,-1.21074 -7.40905,2.05994 -9.08141,4.69942 -14.83717,5.74346 -19.93075,3.61522 -2.80784,-1.17319 -3.83935,-2.27715 -4.30551,-4.60791 -0.33716,-1.6858 -0.96545,-3.2829 -1.3962,-3.54912 -0.43075,-0.26622 -4.60402,1.51457 -9.27392,3.95731 -9.93386,5.19622 -14.49743,6.30271 -18.74253,4.54433 -3.1993,-1.32519 -8.94204,-7.55717 -8.94204,-9.70383 0,-1.83573 -1.77612,-1.56777 -5.04721,0.76145 -7.83527,5.57921 -22.46131,10.05069 -32.98417,10.08395 -8.42139,0.0266 -13.52994,-2.12978 -15.6682,-6.61377 l -1.51731,-3.18183 -8.26086,4.25073 c -10.03645,5.16439 -17.29142,6.39881 -24.21368,4.11991 -4.51284,-1.48569 -4.84512,-1.4544 -9.4759,0.89219 -5.561,2.81797 -14.86315,5.41521 -19.39489,5.41521 -4.18892,0 -9.39334,-3.65173 -12.15628,-8.52957 -2.53908,-4.48263 -4.15015,-9.72663 -7.22378,-23.51323 -2.66144,-11.93779 -4.92382,-15.9572 -8.98175,-15.9572 -2.76849,0 -2.99278,0.29742 -3.58201,4.75 -1.95286,14.75711 -4.63514,28.44648 -6.55764,33.46769 -4.80703,12.5551 -12.76235,17.42834 -23.40177,14.33538 -14.35409,-4.17285 -23.9413,-27.55243 -20.5336,-50.07366 4.78714,-31.6379 26.52972,-54.13695 56.49905,-58.46477 17.82385,-2.57391 34.79609,4.52104 40.11547,16.76957 2.31896,5.33969 2.15598,13.83292 -0.35914,18.71579 -4.6557,9.0386 -14.10394,15.31674 -26.48367,17.59779 l -6.60208,1.21648 3.07189,2.09287 c 5.33254,3.63304 8.53241,8.69673 10.80141,17.09286 1.18908,4.4 2.91546,10.025 3.8364,12.5 1.53677,4.12998 1.98491,4.52578 5.45013,4.81353 2.37388,0.19712 5.4256,-0.48519 8.21966,-1.83777 4.04901,-1.96009 4.37759,-2.3879 3.69695,-4.81353 -0.41086,-1.46422 -0.72116,-6.26223 -0.68956,-10.66223 0.0638,-8.87635 2.62056,-16.04073 7.99133,-22.3923 3.19453,-3.7779 9.51653,-7.05223 13.68097,-7.08574 4.214,-0.0339 10.59038,2.91671 12.69726,5.87554 3.4339,4.82248 3.62297,9.45807 0.63486,15.56555 -3.08934,6.31439 -6.79464,9.72957 -14.52677,13.38935 -3.04431,1.44094 -5.72438,2.7404 -5.95572,2.88769 -0.23134,0.14729 0.66866,1.43616 2,2.86415 2.1434,2.29902 2.96777,2.53263 7.19841,2.03988 10.94156,-1.27438 25.88201,-12.57781 38.21803,-28.91443 8.28004,-10.96529 11.48312,-13.72969 15.90846,-13.72969 2.74764,0 6.59571,3.10345 6.59571,5.31939 0,0.72567 -1.75465,3.67116 -3.89922,6.54553 l -3.89921,5.22613 1.4235,5.70448 c 0.78292,3.13746 1.70007,8.29197 2.0381,11.45447 0.33803,3.1625 0.88961,5.73456 1.22572,5.71569 0.33611,-0.0189 4.13168,-1.93136 8.4346,-4.25 l 7.82349,-4.21569 0.17651,-14.79458 c 0.19923,-16.69849 1.04452,-15.1002 -8.72879,-16.50451 -5.39179,-0.77474 -7.98408,-3.20879 -5.77596,-5.42339 0.70185,-0.70391 4.69066,-1.50202 8.88378,-1.77752 l 7.61,-0.5 2.34741,-9 c 1.29108,-4.95 4.14915,-12.67535 6.35127,-17.16744 5.75444,-11.73844 12.11729,-16.44406 17.48216,-12.92887 8.68663,5.6917 9.1823,18.67709 1.291,33.82098 -1.7985,3.45143 -3.42323,6.61283 -3.61051,7.02533 -0.18728,0.4125 3.73841,0.75 8.72376,0.75 8.87292,0 9.07775,0.0536 9.70186,2.54029 0.43382,1.72848 0.0708,3.16657 -1.13594,4.5 -1.55985,1.72362 -3.12011,1.95971 -12.95115,1.95971 h -11.17765 l -3.12892,3.89352 c -2.91189,3.62346 -3.1757,4.61697 -3.80323,14.32333 -0.97968,15.15333 0.97959,19.78315 8.37196,19.78315 3.62488,0 13.48423,-4.91636 18.52999,-9.23997 3.50462,-3.00303 4.04157,-4.20053 6.81135,-15.19039 1.65374,-6.5617 3.42575,-12.71316 3.93779,-13.66992 1.19667,-2.236 7.33832,-4.26914 10.49944,-3.47575 3.24149,0.81357 3.16225,2.12067 -1.10303,18.19603 -4.38825,16.53884 -4.53466,24.71637 -0.45008,25.13815 1.68158,0.17364 4.53267,-1.26221 8.70913,-4.38606 5.7193,-4.27783 6.25492,-5.00819 6.78952,-9.25815 1.41208,-11.22557 3.85466,-23.82728 5.08662,-26.24276 2.31839,-4.54564 7.45311,-5.26842 9.98425,-1.40543 1.42932,2.18142 1.47292,3.51002 0.37807,11.52169 -0.68065,4.98076 -0.99625,9.29723 -0.70134,9.59215 0.29492,0.29492 3.08548,-4.21638 6.20124,-10.0251 4.13617,-7.71107 6.47774,-10.98158 8.67645,-12.11858 3.98908,-2.06284 6.73576,-1.52697 9.20777,1.79639 1.9138,2.5729 1.95942,3.18549 0.78204,10.5 -2.95361,18.34947 -3.1354,20.47356 -2.08582,24.37141 1.22913,4.56467 3.50152,5.07961 8.0677,1.8282 2.01139,-1.43224 2.90437,-2.92141 2.90437,-4.84345 0,-1.52645 0.90197,-5.39698 2.00438,-8.60118 4.80277,-13.9595 15.07866,-24.35758 25.75915,-26.06546 3.30959,-0.52922 4.21518,-0.2903 5.42015,1.43003 0.87996,1.25633 3.09466,2.32893 5.65366,2.73813 2.31384,0.37 4.48929,1.1295 4.83433,1.68778 1.04557,1.69177 0.37852,11.48521 -1.75199,25.72224 -1.11112,7.425 -2.25292,14.2875 -2.53733,15.25 -0.90254,3.05428 1.57296,1.90549 7.04419,-3.26896 4.38291,-4.14518 5.4104,-5.77475 5.90183,-9.36011 1.49671,-10.91969 9.55831,-24.63309 17.61528,-29.96494 2.20212,-1.45729 6.02833,-3.19109 8.50268,-3.85288 4.15856,-1.11224 4.67798,-1.03495 6.86733,1.02183 1.30268,1.2238 4.35251,2.56143 6.77742,2.97251 5.59359,0.94826 5.74036,1.89508 2.96186,19.10668 -2.07284,12.84037 -1.79056,18.09587 0.97197,18.09587 2.43674,0 6.98465,-3.21677 11.24098,-7.95083 4.98656,-5.54627 5.21498,-5.44324 6.31488,2.84814 0.64298,4.84709 0.5821,4.99245 -4.01759,9.59214 -9.44679,9.44679 -18.35584,10.80318 -23.17054,3.52769 l -2.57128,-3.88547 -4.66068,3.30547 c -8.85136,6.27762 -15.40137,6.90487 -21.72632,2.08059 -2.9416,-2.24366 -3.35356,-2.32002 -4.57522,-0.84801 -0.7384,0.88972 -4.49086,3.82865 -8.33881,6.53096 l -6.99626,4.91328 -2.15655,8.69302 c -5.30411,21.38083 -12.04894,31.81701 -23.11549,35.76627 -5.19056,1.85232 -10.12384,1.7397 -14.22722,-0.3248 z m 12.90477,-11.1983 c 4.45774,-3.1742 13.54139,-22.95616 11.46604,-24.97021 -0.32868,-0.31897 -3.87856,2.89012 -7.88864,7.1313 -7.4225,7.85027 -12.16147,15.64081 -11.13749,18.30925 0.79186,2.06355 4.30885,1.84474 7.56009,-0.47034 z M 327.78983,523.76303 c 3.66577,-4.66029 7.0547,-21.39608 7.0547,-34.83878 0,-4.76299 -0.20206,-5.15765 -3.56897,-6.97085 -4.28002,-2.30494 -5.81987,-4.84741 -4.97488,-8.2141 0.59365,-2.3653 0.88406,-2.45958 5.58503,-1.81303 4.94165,0.67965 4.95884,0.67217 4.9644,-2.16182 0.0207,-10.58055 7.4641,-18.73131 12.50354,-13.69186 1.35879,1.35878 1.52013,2.73424 0.90906,7.75 -1.30428,10.70593 -1.63397,10.006 4.58182,9.72702 8.00757,-0.3594 15.66374,-3.05886 20.27066,-7.14714 3.63452,-3.22535 4.07775,-4.13805 4.50365,-9.27393 0.45931,-5.53862 0.36442,-5.80449 -3.4235,-9.59241 -4.48121,-4.48122 -9.2663,-6.11249 -17.85081,-6.0855 -22.87511,0.0719 -40.72794,15.76955 -46.96338,41.29388 -2.21738,9.0767 -2.25111,23.70653 -0.0719,31.20264 3.17337,10.916 11.64587,15.96224 16.48061,9.81588 z m 131.98212,-6.97728 c 2.31419,-2.94202 2.65548,-7.72561 0.98137,-13.75505 l -1.08006,-3.88991 -7.34966,7.30061 -7.34966,7.3006 3.5728,2.83931 c 4.56409,3.62708 8.4769,3.69835 11.22521,0.20444 z m 176.57473,-1.96196 c 2.90642,-3.13608 4.1568,-6.74557 6.98132,-20.15318 1.9102,-9.06741 1.97803,-10.24924 0.58793,-10.24341 -6.50346,0.0273 -16.04166,14.46326 -16.06163,24.30915 -0.0175,8.62193 3.68431,11.27543 8.49238,6.08744 z m 52.82302,-0.37778 c 1.37663,-1.63602 2.98387,-4.44852 3.57165,-6.25 0.8791,-2.6943 5.10318,-22.0513 5.10318,-23.38548 0,-0.21446 -0.819,-0.38992 -1.82,-0.38992 -3.11078,0 -9.61976,6.5186 -12.61305,12.6317 -6.36513,12.9993 -1.89811,26.49273 5.75822,17.3937 z M 413.00778,499.2087 c 5.24186,-2.94609 8.01815,-7.45748 6.9837,-11.34831 -0.93507,-3.51708 -4.11293,-4.34731 -7.68396,-2.00749 -3.0701,2.01161 -5.03825,5.89899 -5.73007,11.31771 -0.64585,5.05863 0.44235,5.40353 6.43033,2.03809 z m 98.5788,-40.03809 c 2.23845,-4.5375 4.605,-9.9614 5.25901,-12.05311 2.6269,-8.40163 -2.19405,-12.15924 -6.00817,-4.68296 -1.12626,2.20766 -3.20024,8.34398 -4.60884,13.63627 -2.08842,7.84649 -2.31406,9.77893 -1.22257,10.47076 0.73619,0.46663 1.60225,0.85531 1.92459,0.86373 0.32233,0.008 2.41752,-3.69719 4.65598,-8.23469 z m 282.04931,112.31733 c -4.83167,-1.5559 -8.79011,-5.13345 -11.51287,-10.4051 -2.2357,-4.32863 -2.73179,-6.77704 -3.07212,-15.16223 -0.46629,-11.48856 1.41378,-18.78232 7.37882,-28.62627 5.02746,-8.29669 16.25071,-18.41948 25.06037,-22.60317 l 7.35963,-3.49508 -7.91765,-8.36445 c -4.59059,-4.84964 -9.1079,-10.79045 -10.75016,-14.13774 -5.49603,-11.2022 -3.99843,-26.21357 3.84302,-38.52073 7.739,-12.14638 21.71827,-17.7072 32.36097,-12.8729 7.50608,3.40954 13.202,12.71414 16.095,26.29209 1.25225,5.8773 1.44205,11.18914 0.95862,26.82825 -0.33153,10.725 -0.85559,21.075 -1.16458,23 -0.53185,3.31351 -0.31216,3.64905 4.12316,6.29741 2.57671,1.53858 4.77643,2.66358 4.88826,2.5 0.11182,-0.16357 0.9992,-2.44492 1.97195,-5.06965 2.34137,-6.31768 9.54477,-15.77279 14.52987,-19.07177 2.20212,-1.45729 6.02833,-3.19109 8.50268,-3.85288 4.15856,-1.11224 4.67798,-1.03495 6.86733,1.02183 1.30268,1.2238 4.35251,2.56143 6.77742,2.97251 5.59359,0.94826 5.74036,1.89508 2.96186,19.10668 -2.07284,12.84037 -1.79056,18.09587 0.97197,18.09587 2.05148,0 6.4923,-2.84765 9.61361,-6.16468 2.50774,-2.66499 3.36472,-4.74218 4.26402,-10.33532 1.76075,-10.95084 4.19765,-20.78345 5.77682,-23.30877 1.10736,-1.77082 2.18667,-2.23682 4.6322,-2 l 3.18844,0.30877 0.29206,7.75 c 0.16064,4.2625 0.61064,7.74303 1,7.7345 0.38937,-0.009 2.09154,-2.59602 3.7826,-5.75 3.05662,-5.70086 8.13421,-10.2345 11.46244,-10.2345 0.95773,0 2.75016,0.8169 3.98317,1.81533 2.20284,1.78375 2.21951,1.96537 0.95828,10.44278 -1.15293,7.74949 -1.11304,8.88768 0.392,11.18467 2.97655,4.54279 8.70037,3.29869 11.67819,-2.53831 4.25631,-8.34307 11.48832,-14.33438 19.87252,-16.4632 l 4.5201,-1.1477 1.2054,-9.59862 c 2.3362,-18.60266 7.9936,-34.09485 15.37451,-42.10228 7.2563,-7.87207 14.906,-8.50155 18.5145,-1.52351 5.4307,10.50187 1.3795,31.0914 -12.0603,61.29442 -4.3231,9.71525 -5.8463,14.38619 -6.2234,19.08472 -0.9265,11.54156 2.578,13.26495 12.8141,6.3017 l 6.2476,-4.25 3.3596,-14 c 3.6429,-15.18062 4.6963,-16.91593 10.9847,-18.09563 2.5459,-0.47763 3.9494,-0.22542 5.0894,0.91454 1.432,1.43205 1.2494,2.81921 -2.0243,15.37756 -4.4632,17.12127 -5.2608,22.43047 -3.7844,25.18916 1.5248,2.8491 3.8186,2.66169 9.1154,-0.74473 7.8884,-5.07304 8.6176,-6.41885 10.3716,-19.1409 0.872,-6.325 2.0553,-13.19176 2.6295,-15.25946 1.3298,-4.78876 5.0694,-7.43486 8.7006,-6.15633 4.1432,1.45881 4.4799,5.36974 1.7796,20.66579 -0.8509,4.81987 0.9554,2.98561 5.4163,-5.5 6.2025,-11.79852 8.4606,-14.54913 12.5782,-15.32161 2.2904,-0.42967 4.0401,-0.2001 5.0851,0.66717 3.2992,2.73803 3.4858,5.71426 1.223,19.50416 -2.6218,15.97838 -2.0853,20.69924 2.4114,21.21666 2.2099,0.25428 2.9514,-0.21448 3.7779,-2.38857 0.5657,-1.48772 4.0728,-5.52349 7.7936,-8.96838 3.7208,-3.44489 10.3438,-11.00086 14.7178,-16.79104 8.2393,-10.9068 11.4448,-13.66839 15.8655,-13.66839 2.7476,0 6.5957,3.10345 6.5957,5.31939 0,0.72567 -1.7546,3.67116 -3.8992,6.54553 l -3.8992,5.22613 1.4235,5.70448 c 0.7829,3.13746 1.7,8.29197 2.0381,11.45447 0.338,3.1625 0.8896,5.7358 1.2257,5.71843 0.3361,-0.0174 4.7736,-2.20056 9.8611,-4.85155 l 9.25,-4.81998 v 6.10155 c 0,6.08987 -0.01,6.10668 -4.25,8.78235 -17.6695,11.15016 -43.7651,13.4606 -47.9633,4.24654 l -1.0278,-2.25596 -6.3095,3.46813 c -8.4283,4.63273 -13.8304,4.96366 -16.8062,1.02952 -1.9504,-2.57842 -2.1414,-4.07269 -2.1414,-16.75011 0,-7.65553 -0.1098,-13.91909 -0.2441,-13.91903 -0.1343,6e-5 -3.8396,7.18042 -8.234,15.95635 -7.5524,15.08252 -9.7608,18.04376 -13.4563,18.04376 -2.3954,0 -5.5656,-3.70234 -5.5656,-6.5 0,-3.08769 -0.1554,-3.08734 -4.8371,0.0109 -4.5046,2.981 -14.0667,6.4891 -17.6876,6.4891 -2.7248,0 -8.4648,-2.55248 -8.4906,-3.77568 -0.01,-0.39838 -0.4042,-1.33819 -0.8796,-2.08847 -0.693,-1.09381 -2.3625,-0.62366 -8.4248,2.37251 -6.0216,2.97603 -8.2344,3.60323 -10.8705,3.08114 -3.7558,-0.74387 -6.64891,-2.88815 -9.24741,-6.85399 l -1.7863,-2.72621 -3.638,2.85833 c -6.0281,4.73615 -10.2942,6.49026 -15.9631,6.56354 -4.903,0.0634 -5.5943,-0.22497 -8.725,-3.63926 -1.89903,-2.07107 -3.88944,-5.65162 -4.50859,-8.11049 l -1.10854,-4.40239 -5.52137,0.0798 c -5.11479,0.0739 -5.76638,-0.18755 -8.84865,-3.5509 -2.45035,-2.67378 -3.64301,-5.23542 -4.52516,-9.71932 -0.65882,-3.34874 -1.47681,-6.08595 -1.81776,-6.08269 -0.34094,0.003 -3.24054,7.38851 -6.44356,16.41168 -3.20301,9.02316 -6.67238,17.17383 -7.7097,18.11259 -2.69932,2.44285 -6.76527,1.17832 -8.35302,-2.59783 l -1.26054,-2.99794 -2.61809,2.05939 c -7.93834,6.24431 -15.21967,6.25308 -19.34234,0.0233 l -2.57128,-3.88547 -4.66068,3.30547 c -11.82933,8.38968 -21.7577,6.62989 -25.94644,-4.59896 -1.72806,-4.63245 -2.36682,-5.28656 -6.81057,-6.97422 -2.69702,-1.02428 -4.98042,-1.8627 -5.07421,-1.86315 -0.0938,-4.4e-4 -0.48911,1.46169 -0.87846,3.24919 -3.96211,18.19002 -15.15127,38.87095 -26.65747,49.27104 -8.75913,7.91709 -20.56401,11.94152 -28.00217,9.54629 z m 15.69581,-15.86496 c 5.35592,-3.7336 10.79545,-11.02205 15.45061,-20.70237 4.25983,-8.85821 8.83596,-22.57011 9.74444,-29.19816 0.58082,-4.23759 0.54518,-4.30184 -2.38657,-4.30184 -1.63691,0 -5.63558,1.32927 -8.88593,2.95393 -16.28921,8.14205 -30.40972,28.38643 -30.40972,43.59801 0,4.90741 0.37689,5.9788 3.04006,8.64197 2.5477,2.54769 3.55995,2.93866 6.25,2.41398 1.76547,-0.34434 5.00417,-1.87683 7.19711,-3.40552 z m 319.4402,-38.83723 c 2.3157,-2.94392 2.6554,-7.72597 0.978,-13.76746 l -1.0835,-3.90232 -7.161,7.1996 -7.1609,7.19959 3.2658,2.95272 c 4.2093,3.80584 8.3258,3.92307 11.1616,0.31787 z m -245.6022,-2.33974 c 1.37663,-1.63602 2.98387,-4.44852 3.57165,-6.25 0.8791,-2.6943 5.10318,-22.0513 5.10318,-23.38548 0,-0.21446 -0.819,-0.38992 -1.82,-0.38992 -3.11078,0 -9.61976,6.5186 -12.61305,12.6317 -6.36513,12.9993 -1.89811,26.49273 5.75822,17.3937 z m 101.87359,-0.7754 c 5.0494,-5.39696 5.8173,-8.19015 5.1295,-18.65997 -0.3464,-5.27452 -0.9095,-9.59003 -1.2512,-9.59003 -0.3418,0 -2.2182,1.31626 -4.1699,2.92502 -4.2361,3.49169 -9.4233,12.9018 -10.3952,18.85788 -1.3765,8.43548 5.15,12.38497 10.6868,6.4671 z m -145.85641,-53.25 c 0.15462,-21.08654 0.10957,-21.59615 -2.34235,-26.5 -2.70952,-5.41905 -5.8216,-7.26356 -10.34123,-6.12921 -7.24866,1.8193 -15.66683,14.75071 -15.649,24.03893 0.0181,9.42736 6.3968,19.10773 19.96561,30.29991 l 6.49625,5.35841 0.85653,-2.78402 c 0.47109,-1.53121 0.92748,-12.45902 1.01419,-24.28402 z M 1008.18,473.86382 c 8.4093,-22.06567 11.3709,-42.44321 6.1685,-42.44321 -4.7397,0 -9.1632,17.64353 -11.0316,44 -0.8105,11.43291 0.013,11.16926 4.8631,-1.55679 z m -460.59906,-9.13515 c -2.57015,-0.67029 -4.98025,-5.9214 -4.24796,-9.25547 1.84027,-8.37871 14.41003,-10.71574 19.10396,-3.5519 1.44561,2.20628 1.52174,3.17495 0.5139,6.53881 -1.72442,5.75559 -7.81387,8.23915 -15.3699,6.26856 z m 489.71806,-1.76261 c -6.3275,-6.32754 0.7369,-16.74974 10.3013,-15.19765 5.0408,0.818 7.2442,3.21606 7.2442,7.88411 0,5.81271 -4.239,9.76809 -10.4685,9.76809 -3.5744,0 -5.1789,-0.5565 -7.077,-2.45455 z M 702.34453,339.80502 c -12.59593,-1.8895 -26.03764,-4.98465 -34.72776,-7.99657 -52.4297,-18.17168 -92.91482,-63.47164 -104.83111,-117.29854 -10.15161,-45.85567 0.88388,-95.61174 29.51955,-133.095772 6.36674,-8.33405 21.19879,-23.16611 29.53284,-29.53285 47.89278,-36.58735 112.67983,-43.5080393 167.00534,-17.83986 45.21019,21.3613 79.30753,65.04889 89.0636,114.113702 2.72505,13.70468 3.61388,36.25751 1.98282,50.31105 -7.95028,68.50105 -59.31508,124.3716 -127.78398,138.99328 -7.32202,1.56363 -14.38431,2.17339 -28.2613,2.44007 -10.175,0.19553 -19.85,0.15301 -21.5,-0.0945 z m 30,-8.42869 c 14.45379,-1.36996 23.71857,-3.30771 36.5,-7.63405 C 841.95838,298.99424 885.30903,222.61557 868.90386,147.44974 855.56883,86.350858 806.61373,39.891798 744.34453,29.241248 c -15.30998,-2.61863 -40.67135,-2.12747 -55.19431,1.06891 -60.00059,13.20564 -105.21051,58.41556 -118.41614,118.416142 -3.19638,14.52296 -3.68754,39.88433 -1.06892,55.19431 11.80934,69.04413 67.14656,120.73049 136.43089,127.42989 12.09539,1.16956 14.16018,1.17159 26.24848,0.0258 z m -24,-11.58707 c -10.56897,-1.14922 -22.57752,-3.70504 -32.53915,-6.92541 l -10.96085,-3.54341 v -4.93532 -4.93533 l 5.25,2.11225 c 17.53283,7.05404 29.69174,9.28652 50.25,9.22634 21.16497,-0.062 33.62226,-2.57928 53.75,-10.86164 1.51877,-0.62496 1.75,-0.10669 1.75,3.92242 0,4.54177 -0.0965,4.6839 -4.44797,6.54915 -6.8178,2.92245 -17.11481,5.77836 -27.05203,7.50299 -9.31508,1.61665 -29.0007,2.64903 -36,1.88796 z m -66.57437,-23.54394 c -12.34049,-8.085 -30.48201,-26.15615 -38.37201,-38.22317 -11.79631,-18.04135 -19.0543,-36.70888 -22.20123,-57.10154 -1.87935,-12.17855 -1.29484,-39.32973 1.0753,-49.94854 6.15389,-27.57092 18.94349,-51.000602 38.53333,-70.590432 9.25671,-9.25671 27.22462,-22.96102 30.10451,-22.96102 0.51396,0 0.91225,2.1375 0.8851,4.75 l -0.0494,4.75 -7.99689,5.5 c -9.82769,6.75916 -25.7887,22.93006 -32.57952,33.007932 -32.04625,47.55805 -30.30684,108.90165 4.37508,154.29589 6.94482,9.08989 19.1436,20.84079 28.2843,27.24585 l 8.01578,5.61681 v 4.91675 c 0,2.70422 -0.14597,4.91676 -0.32437,4.91676 -0.17841,0 -4.56591,-2.77888 -9.75,-6.17529 z m 146.07437,1.44682 v -4.91851 l 7.25,-4.91399 c 9.93321,-6.73265 27.07009,-24.14414 33.89586,-34.43903 18.57944,-28.02222 26.09697,-60.2824 21.42154,-91.92675 -5.53519,-37.46331 -24.46349,-68.058422 -56.05072,-90.598592 -6.33497,-4.52055 -6.51668,-4.77324 -6.51668,-9.06243 0,-2.63141 0.45929,-4.41222 1.13795,-4.41222 3.13776,0 19.47875,12.56001 29.88664,22.97146 12.86592,12.87032 19.49124,21.926242 26.77412,36.596592 8.44087,17.00296 12.52929,31.71254 14.2172,51.15156 3.54263,40.7992 -11.54422,82.045 -40.52114,110.78038 -7.52654,7.4638 -18.96322,16.41502 -26.74477,20.93249 l -4.75,2.75755 z M 632.2932,268.72643 c -1.46096,-1.46097 -1.59859,-2.99642 -0.99976,-11.15427 1.21153,-16.50489 7.23798,-35.99286 15.66314,-50.65051 l 4.02297,-6.99896 -3.52907,-7.00104 c -5.68886,-11.28569 -7.00732,-17.28014 -7.03851,-32.00104 -0.0313,-14.78731 1.27491,-20.53415 7.27225,-31.99449 11.18972,-21.38246 33.74626,-32.416202 74.66031,-36.520802 12.18461,-1.22239 81.09702,-2.55365 84.74851,-1.63718 1.44001,0.36142 2.88191,1.48802 3.20423,2.50357 0.85976,2.70886 -2.97203,21.354942 -7.93097,38.593302 -9.7267,33.81218 -23.65195,58.56419 -41.80633,74.31042 -8.6618,7.51282 -15.78213,11.61705 -26.76965,15.43029 -8.97214,3.11379 -10.17288,3.27909 -23.94579,3.29653 -10.51968,0.0133 -16.14703,-0.43946 -20.5,-1.64943 -9.73033,-2.7047 -17.41335,-5.85361 -20.26319,-8.30494 -2.38542,-2.05185 -2.53983,-2.56679 -1.4723,-4.90977 1.49315,-3.2771 3.51087,-3.29641 10.49187,-0.1004 10.76617,4.92891 20.80305,6.76287 34.16675,6.24301 12.58897,-0.48972 21.30098,-2.78984 30.38275,-8.02157 22.77391,-13.11934 39.77591,-38.94555 50.84795,-77.23854 2.83339,-9.79939 7.34617,-29.00289 7.34617,-31.260622 0,-1.18633 -70.85352,0.691462 -83.37137,2.209532 -34.83445,4.22447 -52.26408,13.25658 -62.44598,32.35978 -4.73651,8.88661 -6.49458,17.77481 -5.87288,29.69131 0.53111,10.18007 3.2591,21.26008 6.1587,25.01423 1.49232,1.93211 1.61913,1.87769 4.69339,-2.01423 6.6819,-8.4591 25.73459,-26.28756 34.33814,-32.13173 16.13289,-10.95868 31.32845,-17.45759 44.23232,-18.91749 4.81113,-0.54432 6.21904,-0.35656 7.58747,1.01187 3.35933,3.35933 0.77551,7.53735 -4.66132,7.53735 -5.1741,0 -17.20459,3.74737 -25.47347,7.93471 -38.80355,19.65002 -68.45045,57.92675 -74.69697,96.44027 -0.81399,5.01876 -1.4818,11.23038 -1.48401,13.80359 -0.006,6.879 -3.7595,9.92309 -7.55535,6.12725 z M 665.03974,54.725338 c 0.30465,-4.69319 0.30725,-4.69623 5.82711,-6.82902 16.89304,-6.5272 32.75412,-8.91534 54.3131,-8.1777 17.39571,0.59519 25.38854,1.97974 40.63175,7.0384 l 9.53283,3.1636 0.30479,4.75 c 0.16764,2.6125 -0.0221,4.75 -0.42154,4.75 -0.39948,0 -3.6535,-1.17106 -7.23115,-2.60234 -9.80654,-3.92323 -23.30521,-7.0594 -36.4021,-8.45734 -18.77586,-2.00411 -41.87144,1.29986 -59.48013,8.50901 -3.42657,1.40287 -6.48873,2.55067 -6.80479,2.55067 -0.31606,0 -0.43751,-2.11288 -0.26987,-4.69528 z"
     id="path12"
     inkscape:connector-curvature="0" />
</svg>
