<?xml version="1.0" encoding="UTF-8" standalone="no"?>
<!-- Created with Inkscape (http://www.inkscape.org/) -->

<svg
   xmlns:dc="http://purl.org/dc/elements/1.1/"
   xmlns:cc="http://creativecommons.org/ns#"
   xmlns:rdf="http://www.w3.org/1999/02/22-rdf-syntax-ns#"
   xmlns:svg="http://www.w3.org/2000/svg"
   xmlns="http://www.w3.org/2000/svg"
   xmlns:sodipodi="http://sodipodi.sourceforge.net/DTD/sodipodi-0.dtd"
   xmlns:inkscape="http://www.inkscape.org/namespaces/inkscape"
   version="1.1"
   id="svg2"
   xml:space="preserve"
   width="395.04724"
   height="307.85703"
   viewBox="0 0 395.04723 307.85702"
   sodipodi:docname="sexyfation.svg"
   inkscape:version="0.92.3 (2405546, 2018-03-11)"><metadata
     id="metadata8"><rdf:RDF><cc:Work
         rdf:about=""><dc:format>image/svg+xml</dc:format><dc:type
           rdf:resource="http://purl.org/dc/dcmitype/StillImage" /><dc:title></dc:title></cc:Work></rdf:RDF></metadata><defs
     id="defs6"><clipPath
       clipPathUnits="userSpaceOnUse"
       id="clipPath18"><path
         d="M 0,1190.55 H 841.89 V 0 H 0 Z"
         id="path16"
         inkscape:connector-curvature="0" /></clipPath></defs><sodipodi:namedview
     pagecolor="#ffffff"
     bordercolor="#666666"
     borderopacity="1"
     objecttolerance="10"
     gridtolerance="10"
     guidetolerance="10"
     inkscape:pageopacity="0"
     inkscape:pageshadow="2"
     inkscape:window-width="1366"
     inkscape:window-height="712"
     id="namedview4"
     showgrid="false"
     inkscape:zoom="0.84100893"
     inkscape:cx="-43.081939"
     inkscape:cy="120.19657"
     inkscape:window-x="0"
     inkscape:window-y="0"
     inkscape:window-maximized="1"
     inkscape:current-layer="g20" /><g
     id="g10"
     inkscape:groupmode="layer"
     inkscape:label="sexyfation"
     transform="matrix(1.3333333,0,0,-1.3333333,-366.22988,945.63129)"><g
       id="g12"
       style="display:inline"><g
         id="g14"
         clip-path="url(#clipPath18)"
         style="display:inline"><g
           id="g20"
           transform="translate(368.4424,696.1133)"><rect
             style="fill:#ffffff;fill-opacity:1;stroke:#000000;stroke-width:0;stroke-miterlimit:4;stroke-dasharray:none;stroke-opacity:1"
             id="rect826"
             width="297.63748"
             height="230.79518"
             x="-94.400574"
             y="-13.012608"
             transform="scale(1,-1)"
             inkscape:label="fundo" /><path
             d="M 0,0 0.05,-0.01 C 3.685,-6.237 -1.159,-17.243 -6.671,-13.613 -11.837,-10.213 -4.463,-1.497 0,0 m -20.968,-36.468 c -7.354,20.976 -8.654,34.729 -0.878,41.031 6.437,5.213 14.04,2.901 19.759,-2.223 L -2.09,2.33 C -7.812,0.981 -17.843,-12.5 -7.495,-17.029 2.902,-21.58 7.134,-5.736 3.468,0.128 c 2.933,-0.025 6.891,-0.807 9.208,-2.925 3.418,-3.13 3.085,0.562 3.085,0.562 0,0 -0.808,3.972 -6.693,5.326 C 7.298,3.499 4.97,3.653 2.521,3.381 L 2.367,3.438 c -3.171,3.252 -6.613,7.867 -15.095,9.24 -20.236,3.279 -39.43,-12.177 -29.517,-43.757 7.294,-23.237 22.894,-73.91 -15.68,-79.329 -39.81,-5.591 -38.261,59.283 -2.758,50.679 13.039,-2.626 13.418,-16.563 4.623,-21.306 -0.41,-0.221 -1.373,-0.799 0.182,-1.751 1.557,-0.956 7.662,1.392 9.469,6.933 2.071,6.37 0.394,16.302 -8.708,19.714 -23.715,8.894 -40.623,-13.121 -38.468,-32.579 1.865,-16.837 20.052,-41.32 53.975,-26.224 33.922,15.093 29.152,48.496 18.642,78.474"
             style="fill:#070809;fill-opacity:1;fill-rule:nonzero;stroke:none"
             id="path22"
             inkscape:connector-curvature="0" /></g><g
           id="g24"
           transform="translate(495.1357,528.3115)"><path
             d="m 0,0 c -6.815,-1.276 -10.172,7.681 -10.691,14.382 3.367,-1.26 7.421,-1.917 12.09,-1.894 2.822,0.015 5.254,0.285 7.403,0.711 C 9.183,8.587 8.369,1.567 0,0 m -12.452,35.182 c 6.626,3.355 16.003,1.53 20.395,-17.052 -7.384,-2.02 -13.97,-1.129 -18.416,1.151 1.006,5.183 4.256,7.823 2.697,9.397 -1.76,1.779 -4.337,0.664 -5.55,-0.004 -1.323,-0.727 -2.516,-1.506 -3.586,-2.331 -0.964,3.31 0.297,6.73 4.46,8.839 m -128.531,-77.715 c -8.187,-0.35 -10.475,10.953 -8.401,31.828 4.709,0.434 9.278,1.873 13.065,3.424 4.235,-15.549 2.011,-34.967 -4.664,-35.252 m -5.704,51.351 c 0.042,0.246 0.081,0.481 0.124,0.723 3.912,-2.58 6.83,-7.121 8.846,-12.486 -3.649,-2.006 -7.437,-2.944 -11.184,-3.635 0.564,4.85 1.248,9.648 2.214,15.398 m -16.367,-13.845 c -0.547,0.359 -1.076,0.746 -1.568,1.191 -5.748,5.18 -5.256,15.256 4.599,16.356 -1.392,-6.29 -2.406,-12.149 -3.031,-17.547 m 67.026,80.809 c 19.354,-14.817 -29.02,-52.003 -48.557,-55.604 6.362,27.636 31.396,68.743 48.557,55.604 M 75.654,24.146 c -0.685,4.387 -0.977,7.963 -2.521,7.18 -1.267,-0.646 -0.5,-2.562 -0.312,-3.394 C 76.056,13.674 64.176,6.209 55.365,27.025 48.986,42.094 46.578,69.104 44.119,76.959 41.664,84.815 27.174,82.037 25.098,68.067 22.948,53.59 25.045,41.996 25.045,41.996 c -1.811,4.57 -6.926,14.721 -10.178,14.949 -5.195,0.364 -8.482,-6.33 -6.961,-9.568 1.51,-3.217 3.676,-9.205 8.055,-19.385 0.843,-1.959 1.666,-3.661 2.472,-5.158 -0.282,-0.164 -0.562,-0.33 -0.859,-0.51 -1.399,-0.85 -2.79,-1.572 -4.169,-2.203 -1.316,6.324 -4.302,12.442 -9.223,17.014 -10.75,9.99 -26.776,0.07 -25.695,-9.627 0.18,-1.612 0.582,-3.094 1.159,-4.463 -5.139,-6.215 -5.043,-14.134 -1.281,-21.962 -0.928,-6.17 -3.143,-13.336 -8.431,-11.101 -8.885,3.754 -3.649,26.252 -2.59,30.278 1.056,4.021 -14.127,0.066 -14.127,0.066 0,0 -1.708,-13.575 0.159,-24.868 -1.301,-9.328 -4.276,-24.289 -9.961,-23.892 -10.999,0.771 -1.669,44.137 2.763,77.457 1.743,0.2 3.294,0.38 4.473,0.53 5.155,0.654 7.206,1.308 5.06,4.117 -0.42,0.55 -4.127,0.368 -8.959,-0.147 0.904,7.428 1.489,14.201 1.446,19.67 -0.15,19.336 -15.354,10.999 -15.372,4.737 -0.016,-5.964 1.666,-12.877 -0.918,-24.805 -0.114,-0.525 -0.238,-1.086 -0.369,-1.669 -2.6,-0.41 -4.946,-0.808 -6.727,-1.136 -5.31,-0.974 -3.652,-4.441 2.118,-3.588 1.023,0.152 2.269,0.317 3.644,0.49 -3.384,-14.75 -9.175,-40.178 -6.683,-58.617 -2.696,-2.884 -5.711,-4.776 -8.605,-3.734 -5.633,2.025 -1.436,15.807 0.248,25.673 1.684,9.865 8.205,18.918 -2.666,19.483 -7.843,0.459 -9.888,-1.79 -9.888,-1.79 0,0 -5.249,-19.566 -10.778,-26.936 -4.215,-5.62 -7.002,0.014 -6.774,6.812 0.232,6.918 2.53,15.184 5.989,18.298 2.802,2.523 5.789,1.19 6.569,-0.778 0.446,-1.121 1.295,0.334 1.295,0.334 0,0 1.065,4.537 -5.041,6.091 -5.63,1.432 -15.154,-3.98 -17.142,-13.613 -1.111,-5.378 -1.173,-10.504 -0.193,-14.675 -5.525,-2.987 -11.262,-5.381 -11.523,-5.553 -0.628,1.82 -1.432,4.06 -2.108,5.402 -2.311,4.592 -5.64,7.584 -9.242,9.447 0.221,1.297 0.44,2.565 0.656,3.805 2.782,0.736 8.262,2.768 18.913,8.188 19.279,9.814 56.102,40.041 31.316,56.477 0,0 -0.03,0.02 -0.081,0.05 -3.88,2.554 -7.68,3.681 -11.33,3.951 -12.096,1.855 -31.181,-2.307 -43.97,-39.689 -3.73,-10.907 -6.678,-20.977 -8.846,-30.168 -2.048,-0.145 -3.81,-0.524 -5.062,-1.004 -5.535,-2.117 -13.381,-11.012 -1.93,-20.666 0.946,-0.797 1.93,-1.475 2.939,-2.051 -1.97,-21.387 2.45,-35.135 13.235,-40.07 1.916,-1.166 4.174,-1.84 6.842,-1.869 15.426,-0.17 14.463,27.203 9.932,44.365 1.176,0.552 7.136,3.469 11.412,5.949 1.517,-3.353 3.965,-5.667 7.37,-6.309 8.067,-1.52 13.017,4.952 15.498,16.608 0,0 -5.188,-22.393 6.308,-28.354 6.502,-3.369 11.916,-2.663 17.313,2.518 2.042,-9.529 6.807,-16.573 16.071,-18.203 9.805,-1.725 14.251,8.6 16.266,18.691 6.083,-8.544 20.112,-5.466 24.056,11.289 0.247,-0.371 0.499,-0.742 0.761,-1.111 5.76,-8.135 17.901,-8.154 24.276,-3.445 5.752,4.247 8.736,13.311 8.151,22.753 2.927,1.191 5.087,2.655 6.84,3.944 5.613,-7.763 10.183,-5.225 13.54,-2.434 2.59,2.155 -3.574,13.088 -5.621,27.557 -2.057,14.531 -3,29.464 3.592,29.162 4.309,-0.199 2.007,-18.893 11.085,-45.613 7.901,-22.574 22.608,-21.399 29.344,-13.68 2.852,3.268 3.207,7.482 2.746,10.439"
             style="fill:#070809;fill-opacity:1;fill-rule:nonzero;stroke:none"
             id="path26"
             inkscape:connector-curvature="0" /></g><g
           id="g28"
           transform="translate(381.2822,660.1709)"><path
             d="m 0,0 c 2.564,-2.605 2.71,-7.283 -3.957,-11.351 -3.138,-1.916 -6.755,-3.207 -10.269,-4.025 -0.285,3.451 0.727,6.723 2.495,9.839 C -8.859,-0.481 -2.563,2.603 0,0 m 102.391,-39.379 c 4.628,-31.325 -3.106,-38.24 -13.464,-34.846 -16.378,5.368 11.077,40.173 11.077,40.173 0,0 0.422,0.751 1.109,2.045 0.461,-2.319 0.893,-4.765 1.278,-7.372 m -125.228,34.26 c -4.783,-15.446 2.063,-24.964 11.588,-28.918 22.127,-9.184 34.63,40.402 40.658,18.192 0.353,-1.3 0.71,-2.567 1.075,-3.799 -4.48,-5.11 -9.164,-10.759 -13.45,-15.739 -3.524,-4.09 -0.462,-5.147 3.497,-0.861 1.619,1.753 6.197,6.801 11.286,12.426 3.581,-10.359 8.414,-17.195 18.454,-16.715 7.426,0.355 11.315,6.369 14,12.371 3.412,-6.166 8.508,-8.633 14.898,-8.284 9.302,0.509 10.235,23.503 8.935,37.208 2.402,-2.96 7.979,-11.229 11.951,-27.91 -1.269,-2.544 -2.587,-4.89 -3.934,-6.861 -7.89,-11.557 -23.686,-31.575 -14.164,-45.661 8.05,-11.906 34.85,-10.213 33.676,21.737 -0.496,13.506 -3.675,27.546 -8.123,39.291 3.552,8.337 6.886,18.267 6.199,24.974 0,0 -0.921,2.602 -1.814,-0.98 -0.498,-1.99 -2.877,-10.358 -6.248,-19.382 -5.869,13.631 -13.38,23.197 -19.93,23.368 0,0 -0.004,-0.028 -0.008,-0.054 C 84.427,9.4 83.293,4.91 83.714,1.341 c 0.69,-5.846 1.44,-31.38 -5.628,-29.506 -7.069,1.869 -5.642,19.56 -6.252,27.541 -0.608,7.98 -12.25,8.004 -12.365,2.28 -0.24,-11.815 0.939,-20.502 3.302,-26.581 -2.445,-6.133 -5.509,-10.663 -8.889,-10.594 -5.886,0.12 -8.412,13.148 -11.016,23.928 3.214,3.56 5.786,6.412 6.83,7.571 3.593,3.987 6.888,6.679 3.454,7.518 -1.104,0.271 -6.34,-5.202 -11.398,-10.712 -0.816,2.984 -1.684,5.571 -2.699,7.328 -4.836,8.369 -7.801,5.812 -12.365,1.173 -8.17,-8.3 -23.481,-46.075 -38.746,-23.323 -0.882,1.318 -1.341,2.724 -1.703,4.048 C 11.72,-13.24 12.969,4.223 3.348,8.22 -7.316,12.651 -19.585,5.381 -22.837,-5.119"
             style="fill:#070809;fill-opacity:1;fill-rule:nonzero;stroke:none"
             id="path30"
             inkscape:connector-curvature="0" /></g><g
           id="g32"
           transform="translate(461.0166,571.2939)"><path
             d="m 0,0 c -4.211,3.879 -9.729,2.535 -10.689,1.66 -0.428,-0.387 -0.737,-0.912 -0.652,-1.984 0.179,-2.196 1.063,-4.094 2.653,-5.67 1.598,-1.58 3.308,-2.746 5.135,-3.5 1.829,-0.752 3.471,-1.082 4.928,-0.998 1.467,0.086 2.15,0.695 2.061,1.826 C 3.375,-7.953 3.214,-7.035 2.943,-5.918 2.677,-4.799 2.301,-3.727 1.83,-2.682 1.36,-1.645 0.779,-0.717 0,0"
             style="fill:#070809;fill-opacity:1;fill-rule:nonzero;stroke:none"
             id="path34"
             inkscape:connector-curvature="0" /></g></g></g></g></svg>