<?xml version="1.0" encoding="UTF-8" standalone="no"?>
<!-- Created with Inkscape (http://www.inkscape.org/) -->

<svg
   xmlns:dc="http://purl.org/dc/elements/1.1/"
   xmlns:cc="http://creativecommons.org/ns#"
   xmlns:rdf="http://www.w3.org/1999/02/22-rdf-syntax-ns#"
   xmlns:svg="http://www.w3.org/2000/svg"
   xmlns="http://www.w3.org/2000/svg"
   xmlns:sodipodi="http://sodipodi.sourceforge.net/DTD/sodipodi-0.dtd"
   xmlns:inkscape="http://www.inkscape.org/namespaces/inkscape"
   width="495mm"
   height="247mm"
   viewBox="0 0 495 247"
   version="1.1"
   id="svg8"
   inkscape:version="0.92.3 (2405546, 2018-03-11)"
   sodipodi:docname="4.svg">
  <defs
     id="defs2" />
  <sodipodi:namedview
     id="base"
     pagecolor="#ffffff"
     bordercolor="#666666"
     borderopacity="1.0"
     inkscape:pageopacity="0.0"
     inkscape:pageshadow="2"
     inkscape:zoom="0.46662879"
     inkscape:cx="937.5761"
     inkscape:cy="466.77165"
     inkscape:document-units="mm"
     inkscape:current-layer="layer1"
     showgrid="false"
     inkscape:window-width="1366"
     inkscape:window-height="712"
     inkscape:window-x="0"
     inkscape:window-y="0"
     inkscape:window-maximized="1"
     inkscape:snap-global="false" />
  <metadata
     id="metadata5">
    <rdf:RDF>
      <cc:Work
         rdf:about="">
        <dc:format>image/svg+xml</dc:format>
        <dc:type
           rdf:resource="http://purl.org/dc/dcmitype/StillImage" />
        <dc:title></dc:title>
      </cc:Work>
    </rdf:RDF>
  </metadata>
  <g
     inkscape:label="Camada 1"
     inkscape:groupmode="layer"
     id="layer1"
     transform="translate(0,-50)"
     style="display:inline">
    <path
       id="path867"
       d="m 226.8316,188.5183 c -1.25354,0 -2.34178,0.44516 -3.26544,1.33583 -0.90716,0.87418 -1.36116,1.91359 -1.36116,3.11764 0,1.28652 0.42907,2.34204 1.28675,3.16673 0.87417,0.8247 1.98735,1.23714 3.33985,1.23714 1.3525,0 2.45788,-0.41244 3.31556,-1.23714 0.87417,-0.82469 1.31103,-1.88021 1.31103,-3.16673 0,-1.20405 -0.46179,-2.24346 -1.38545,-3.11764 -0.90716,-0.89067 -1.98761,-1.33583 -3.24114,-1.33583 z m 43.14827,0 c -1.25354,0 -2.34229,0.44516 -3.26595,1.33583 -0.90716,0.87418 -1.36064,1.91359 -1.36064,3.11764 0,1.28652 0.42854,2.34204 1.28622,3.16673 0.87417,0.8247 1.98787,1.23714 3.34037,1.23714 1.35249,0 2.45736,-0.41244 3.31504,-1.23714 0.87418,-0.82469 1.31155,-1.88021 1.31155,-3.16673 0,-1.20405 -0.4623,-2.24346 -1.38596,-3.11764 -0.90716,-0.89067 -1.9871,-1.33583 -3.24063,-1.33583 z m -134.78816,1.06401 c -1.8968,0 -3.73564,0.38751 -5.51697,1.16272 -1.78134,0.77521 -3.26592,1.83073 -4.45348,3.16673 -1.05561,1.20406 -1.80621,2.50684 -2.25154,3.90881 -0.42885,1.38549 -0.64285,3.16719 -0.64285,5.34438 v 21.02972 h 10.04434 v -22.06894 c 0,-1.94627 0.78385,-2.9192 2.35076,-2.9192 1.55043,0 2.32544,0.70905 2.32544,2.12752 0,1.55042 -1.01448,2.32544 -3.04322,2.32544 v 8.85734 l 1.53427,0.0248 c 3.85956,0 6.74562,-0.94851 8.6589,-2.8453 2.09472,-2.06173 3.14245,-4.7504 3.14245,-8.06566 0,-3.41423 -1.17136,-6.27586 -3.51348,-8.585 -2.32564,-2.30914 -5.2039,-3.46336 -8.63462,-3.46336 z m 42.5049,0.84078 v 20.55998 c 0,3.7771 0.98955,6.85326 2.96881,9.22838 1.13808,1.36899 2.58111,2.45723 4.32946,3.26543 1.76484,0.8082 3.57096,1.21233 5.41827,1.21233 3.67812,0 6.77923,-1.2368 9.30279,-3.71088 2.52357,-2.47408 3.7853,-5.51752 3.7853,-9.12968 0,-3.52968 -1.24512,-6.54767 -3.73569,-9.05474 -2.47408,-2.50707 -5.45155,-3.76101 -8.93176,-3.76101 -0.56079,0 -1.38515,0.0499 -2.47375,0.14883 v 10.19317 c 0.87418,-0.59378 1.64919,-0.8909 2.32544,-0.8909 0.95664,0 1.76491,0.34647 2.42466,1.03921 0.65976,0.67625 0.9896,1.51724 0.9896,2.52337 0,0.97313 -0.35477,1.80632 -1.06401,2.49907 -0.69274,0.67624 -1.54204,1.0144 -2.54817,1.0144 -2.35862,0 -3.53777,-1.64144 -3.53777,-4.92373 v -20.21323 z m 29.83746,0 v 33.77158 h 9.25318 v -33.77158 z m 87.73057,0 v 20.21323 c 0,3.28229 -1.18748,4.92373 -3.56259,4.92373 -0.98962,0 -1.83893,-0.33816 -2.54815,-1.0144 -0.70924,-0.69275 -1.06402,-1.51763 -1.06402,-2.47427 0,-0.98963 0.33817,-1.83062 1.01439,-2.52336 0.69276,-0.70924 1.51762,-1.06402 2.47427,-1.06402 0.75872,0 1.51713,0.29712 2.27584,0.8909 v -10.19317 c -1.10508,-0.099 -1.92944,-0.14883 -2.47374,-0.14883 -3.43072,0 -6.3999,1.27005 -8.90696,3.8101 -2.50706,2.54006 -3.7605,5.55026 -3.7605,9.03046 0,3.59566 1.26175,6.63079 3.78531,9.10487 2.52355,2.47408 5.62465,3.71088 9.30278,3.71088 1.84732,0 3.64514,-0.40413 5.39348,-1.21233 1.76482,-0.8082 3.21617,-1.89644 4.35425,-3.26543 1.97927,-2.37512 2.96881,-5.45128 2.96881,-9.22838 v -20.55998 z m 59.08114,0 v 20.21323 c 0,3.28229 -1.18745,4.92373 -3.56259,4.92373 -0.98962,0 -1.8389,-0.33816 -2.54815,-1.0144 -0.70924,-0.69275 -1.06402,-1.51763 -1.06402,-2.47427 0,-0.98963 0.33817,-1.83062 1.01441,-2.52336 0.69274,-0.70924 1.5171,-1.06402 2.47375,-1.06402 0.75872,0 1.51763,0.29712 2.27634,0.8909 v -10.19317 c -1.10508,-0.099 -1.92997,-0.14883 -2.47427,-0.14883 -3.43072,0 -6.39935,1.27005 -8.90643,3.8101 -2.50706,2.54006 -3.7605,5.55026 -3.7605,9.03046 0,3.59566 1.26175,6.63079 3.78531,9.10487 2.52355,2.47408 5.62415,3.71088 9.30228,3.71088 1.84729,0 3.64511,-0.40413 5.39345,-1.21233 1.76485,-0.8082 3.2167,-1.89644 4.35478,-3.26543 1.97927,-2.37512 2.96881,-5.45128 2.96881,-9.22838 v -20.55998 z m 25.77981,8.56072 c -3.66162,0 -6.75391,1.24511 -9.27746,3.73568 -2.50708,2.49058 -3.76102,5.54182 -3.76102,9.15397 0,3.62865 1.24563,6.67209 3.73621,9.12967 2.49057,2.45759 5.56675,3.68608 9.22837,3.68608 3.00188,0 5.73159,-0.96461 8.18917,-2.89439 l -5.26997,-6.33398 c -0.85767,0.92365 -1.74852,1.38544 -2.67218,1.38544 -1.13808,0 -2.06164,-0.49451 -2.77088,-1.48414 -0.69276,-0.98963 -1.03923,-2.28462 -1.03923,-3.88452 0,-1.53393 0.36311,-2.78736 1.08884,-3.7605 0.72573,-0.98963 1.66592,-1.48466 2.82049,-1.48466 1.73185,0 2.76246,0.91578 3.09231,2.7466 h -4.70048 c -0.29689,0.79171 -0.44545,1.59997 -0.44545,2.42466 0,0.59378 0.107,1.24517 0.32141,1.9544 h 14.02811 c 0.066,-0.7917 0.0992,-1.36932 0.0992,-1.73219 0,-3.56268 -1.22071,-6.55626 -3.66181,-8.98085 -2.42459,-2.44109 -5.42647,-3.66127 -9.00565,-3.66127 z m -131.67051,0.0243 c -3.52968,0 -6.55599,1.23733 -9.07955,3.7114 -2.52356,2.47409 -3.78529,5.45104 -3.78529,8.93124 0,3.66164 1.24511,6.75443 3.73568,9.27799 2.50707,2.52356 5.57493,3.7853 9.20358,3.7853 3.43072,0 6.3417,-1.14642 8.73331,-3.43907 2.39161,-2.29265 3.71932,-5.22025 3.98322,-8.78292 l -9.17876,0.34623 c -0.65976,1.83082 -1.77294,2.7466 -3.33985,2.7466 -1.07211,0 -1.97127,-0.3631 -2.697,-1.08882 -0.70923,-0.72574 -1.0635,-1.62438 -1.0635,-2.69648 0,-1.05561 0.33816,-1.92984 1.01441,-2.62258 0.67625,-0.69274 1.54217,-1.03921 2.59777,-1.03921 1.23705,0 2.25932,0.52776 3.06752,1.58336 l 9.37669,-0.34623 c -0.57729,-3.01837 -2.04525,-5.50081 -4.40387,-7.44709 -2.35863,-1.94627 -5.08001,-2.91972 -8.16436,-2.91972 z m 72.41625,0.0248 c -3.57918,0 -6.62209,1.24563 -9.12915,3.7362 -2.49058,2.49058 -3.73568,5.52519 -3.73568,9.10436 0,3.67813 1.23679,6.73768 3.71086,9.17877 2.47409,2.44109 5.56688,3.66179 9.27801,3.66179 0.62674,0 1.31919,-0.066 2.0779,-0.19792 v -9.57461 c -0.69275,0.42884 -1.44282,0.64337 -2.25102,0.64337 -0.98965,0 -1.8062,-0.32985 -2.44948,-0.9896 -0.64326,-0.65976 -0.96478,-1.50126 -0.96478,-2.52388 0,-0.97314 0.35425,-1.81413 1.06349,-2.52336 0.70924,-0.70924 1.55073,-1.06402 2.52389,-1.06402 1.07209,0 1.92138,0.38751 2.54815,1.16272 0.64325,0.77521 0.9648,1.81463 0.9648,3.11764 v 11.43031 h 9.25319 v -12.09849 c 0,-4.04099 -1.15474,-7.22416 -3.46387,-9.5498 -2.29266,-2.34213 -5.4348,-3.51348 -9.42631,-3.51348 z m -98.69061,0.49506 v 24.66671 h 9.25266 v -24.66671 z m 43.14775,0 v 24.66671 h 9.25318 v -24.66671 z m -114.5005,0.34623 v 13.01368 c 0,3.54618 0.83319,6.31743 2.49907,8.31319 2.14421,2.55654 4.9726,3.83438 8.48579,3.83438 3.08435,0 5.69042,-1.09655 7.81813,-3.29023 2.1277,-2.21018 3.19153,-4.91546 3.19153,-8.11527 V 199.8742 h -9.25318 v 13.92937 c 0,1.40198 -0.5771,2.10272 -1.73168,2.10272 -1.17106,0 -1.75648,-0.70074 -1.75648,-2.10272 v -13.92938 z"
       style="font-style:normal;font-variant:normal;font-weight:normal;font-stretch:normal;font-size:50.66913605px;line-height:1.25;font-family:'Bauhaus 93';-inkscape-font-specification:'Bauhaus 93, Normal';font-variant-ligatures:normal;font-variant-caps:normal;font-variant-numeric:normal;font-feature-settings:normal;text-align:start;letter-spacing:0px;word-spacing:0px;writing-mode:lr-tb;text-anchor:start;fill:#ffff00;fill-opacity:1;stroke:none;stroke-width:1.2667284"
       inkscape:connector-curvature="0" />
    <path
       style="font-style:normal;font-variant:normal;font-weight:normal;font-stretch:normal;font-size:50.66913605px;line-height:1.25;font-family:'Bauhaus 93';-inkscape-font-specification:'Bauhaus 93, Normal';font-variant-ligatures:normal;font-variant-caps:normal;font-variant-numeric:normal;font-feature-settings:normal;text-align:start;letter-spacing:0px;word-spacing:0px;writing-mode:lr-tb;text-anchor:start;fill:#ffffff;fill-opacity:1;stroke:none;stroke-width:1.2667284"
       d="m 224.14291,187.1022 c -1.25353,0 -2.34178,0.44517 -3.26543,1.33584 -0.90716,0.87417 -1.36116,1.91358 -1.36116,3.11764 0,1.28651 0.42906,2.34204 1.28675,3.16673 0.87417,0.82469 1.98735,1.23713 3.33984,1.23713 1.3525,0 2.45788,-0.41244 3.31556,-1.23713 0.87417,-0.82469 1.31103,-1.88022 1.31103,-3.16673 0,-1.20406 -0.46179,-2.24347 -1.38544,-3.11764 -0.90717,-0.89067 -1.98761,-1.33584 -3.24115,-1.33584 z m 43.14827,0 c -1.25353,0 -2.34229,0.44517 -3.26595,1.33584 -0.90716,0.87417 -1.36064,1.91358 -1.36064,3.11764 0,1.28651 0.42855,2.34204 1.28623,3.16673 0.87417,0.82469 1.98786,1.23713 3.34036,1.23713 1.3525,0 2.45737,-0.41244 3.31505,-1.23713 0.87417,-0.82469 1.31154,-1.88022 1.31154,-3.16673 0,-1.20406 -0.4623,-2.24347 -1.38596,-3.11764 -0.90716,-0.89067 -1.98709,-1.33584 -3.24063,-1.33584 z m -134.78815,1.06402 c -1.8968,0 -3.73564,0.3875 -5.51698,1.16272 -1.78134,0.77521 -3.26592,1.83072 -4.45347,3.16673 -1.05561,1.20405 -1.80621,2.50683 -2.25154,3.90881 -0.42885,1.38548 -0.64286,3.16718 -0.64286,5.34437 v 21.02973 h 10.04435 v -22.06894 c 0,-1.94627 0.78385,-2.9192 2.35076,-2.9192 1.55042,0 2.32544,0.70904 2.32544,2.12752 0,1.55042 -1.01449,2.32544 -3.04323,2.32544 v 8.85734 l 1.53428,0.0248 c 3.85956,0 6.74561,-0.94851 8.6589,-2.84531 2.09472,-2.06173 3.14245,-4.75039 3.14245,-8.06565 0,-3.41424 -1.17136,-6.27587 -3.51349,-8.58501 -2.32563,-2.30914 -5.20389,-3.46335 -8.63461,-3.46335 z m 42.5049,0.84077 v 20.55999 c 0,3.77709 0.98954,6.85326 2.96881,9.22838 1.13807,1.36898 2.5811,2.45723 4.32945,3.26543 1.76485,0.8082 3.57096,1.21233 5.41827,1.21233 3.67813,0 6.77923,-1.23681 9.3028,-3.71089 2.52356,-2.47407 3.78529,-5.51752 3.78529,-9.12967 0,-3.52969 -1.24511,-6.54768 -3.73568,-9.05475 -2.47409,-2.50706 -5.45155,-3.76101 -8.93176,-3.76101 -0.56079,0 -1.38516,0.0499 -2.47375,0.14883 v 10.19318 c 0.87417,-0.59378 1.64919,-0.8909 2.32544,-0.8909 0.95664,0 1.7649,0.34646 2.42466,1.03921 0.65976,0.67625 0.9896,1.51723 0.9896,2.52336 0,0.97313 -0.35478,1.80632 -1.06402,2.49907 -0.69274,0.67625 -1.54204,1.01441 -2.54816,1.01441 -2.35862,0 -3.53777,-1.64145 -3.53777,-4.92373 v -20.21324 z m 29.83745,0 v 33.77159 h 9.25318 v -33.77159 z m 87.73058,0 v 20.21324 c 0,3.28228 -1.18748,4.92373 -3.56259,4.92373 -0.98962,0 -1.83894,-0.33816 -2.54815,-1.01441 -0.70924,-0.69275 -1.06402,-1.51763 -1.06402,-2.47426 0,-0.98964 0.33816,-1.83062 1.01438,-2.52336 0.69276,-0.70924 1.51763,-1.06402 2.47428,-1.06402 0.75872,0 1.51712,0.29712 2.27584,0.8909 v -10.19318 c -1.10508,-0.099 -1.92945,-0.14883 -2.47375,-0.14883 -3.43072,0 -6.3999,1.27005 -8.90696,3.81011 -2.50706,2.54006 -3.76049,5.55025 -3.76049,9.03045 0,3.59566 1.26174,6.6308 3.78531,9.10487 2.52354,2.47408 5.62465,3.71089 9.30278,3.71089 1.84732,0 3.64514,-0.40413 5.39348,-1.21233 1.76482,-0.8082 3.21616,-1.89645 4.35424,-3.26543 1.97927,-2.37512 2.96881,-5.45129 2.96881,-9.22838 v -20.55999 z m 59.08114,0 v 20.21324 c 0,3.28228 -1.18745,4.92373 -3.56259,4.92373 -0.98962,0 -1.83891,-0.33816 -2.54815,-1.01441 -0.70924,-0.69275 -1.06402,-1.51763 -1.06402,-2.47426 0,-0.98964 0.33816,-1.83062 1.01441,-2.52336 0.69273,-0.70924 1.51709,-1.06402 2.47375,-1.06402 0.75872,0 1.51762,0.29712 2.27634,0.8909 v -10.19318 c -1.10508,-0.099 -1.92998,-0.14883 -2.47428,-0.14883 -3.43072,0 -6.39934,1.27005 -8.90643,3.81011 -2.50706,2.54006 -3.76049,5.55025 -3.76049,9.03045 0,3.59566 1.26174,6.6308 3.78531,9.10487 2.52354,2.47408 5.62414,3.71089 9.30227,3.71089 1.8473,0 3.64512,-0.40413 5.39346,-1.21233 1.76485,-0.8082 3.21669,-1.89645 4.35477,-3.26543 1.97927,-2.37512 2.96881,-5.45129 2.96881,-9.22838 v -20.55999 z m 25.77981,8.56072 c -3.66163,0 -6.75392,1.24512 -9.27746,3.73569 -2.50709,2.49057 -3.76103,5.54181 -3.76103,9.15396 0,3.62866 1.24564,6.6721 3.73621,9.12968 2.49058,2.45759 5.56676,3.68608 9.22838,3.68608 3.00188,0 5.73159,-0.96462 8.18917,-2.8944 l -5.26997,-6.33398 c -0.85768,0.92366 -1.74853,1.38545 -2.67219,1.38545 -1.13808,0 -2.06163,-0.49452 -2.77087,-1.48415 -0.69276,-0.98963 -1.03923,-2.28461 -1.03923,-3.88452 0,-1.53392 0.36311,-2.78735 1.08884,-3.76049 0.72572,-0.98963 1.66592,-1.48466 2.82048,-1.48466 1.73186,0 2.76246,0.91578 3.09232,2.7466 h -4.70048 c -0.29689,0.7917 -0.44546,1.59996 -0.44546,2.42466 0,0.59378 0.107,1.24516 0.32142,1.9544 h 14.0281 c 0.066,-0.79171 0.0992,-1.36933 0.0992,-1.7322 0,-3.56267 -1.22071,-6.55625 -3.66181,-8.98084 -2.42458,-2.4411 -5.42647,-3.66128 -9.00564,-3.66128 z M 245.7664,197.592 c -3.52969,0 -6.55599,1.23732 -9.07955,3.7114 -2.52356,2.47408 -3.7853,5.45104 -3.7853,8.93124 0,3.66164 1.24512,6.75442 3.73569,9.27799 2.50707,2.52355 5.57493,3.78529 9.20357,3.78529 3.43072,0 6.34171,-1.14642 8.73332,-3.43906 2.39161,-2.29265 3.71931,-5.22026 3.98322,-8.78293 l -9.17877,0.34623 c -0.65975,1.83082 -1.77293,2.7466 -3.33985,2.7466 -1.0721,0 -1.97126,-0.36309 -2.69699,-1.08882 -0.70923,-0.72573 -1.0635,-1.62437 -1.0635,-2.69647 0,-1.05561 0.33816,-1.92984 1.01441,-2.62258 0.67625,-0.69275 1.54217,-1.03922 2.59777,-1.03922 1.23704,0 2.25932,0.52776 3.06751,1.58337 l 9.37669,-0.34623 c -0.57728,-3.01837 -2.04524,-5.50081 -4.40386,-7.44709 -2.35863,-1.94628 -5.08001,-2.91972 -8.16436,-2.91972 z m 72.41625,0.0248 c -3.57918,0 -6.6221,1.24564 -9.12916,3.73621 -2.49057,2.49057 -3.73568,5.52519 -3.73568,9.10435 0,3.67814 1.2368,6.73768 3.71086,9.17877 2.4741,2.4411 5.56689,3.66179 9.27802,3.66179 0.62674,0 1.31918,-0.066 2.0779,-0.19792 v -9.57461 c -0.69276,0.42884 -1.44283,0.64337 -2.25102,0.64337 -0.98965,0 -1.80621,-0.32984 -2.44949,-0.9896 -0.64325,-0.65975 -0.96477,-1.50125 -0.96477,-2.52387 0,-0.97314 0.35425,-1.81413 1.06349,-2.52336 0.70924,-0.70924 1.55072,-1.06402 2.52389,-1.06402 1.07209,0 1.92137,0.3875 2.54814,1.16272 0.64326,0.77521 0.96481,1.81462 0.96481,3.11764 v 11.43031 h 9.25319 v -12.09849 c 0,-4.04099 -1.15475,-7.22416 -3.46387,-9.5498 -2.29267,-2.34213 -5.43481,-3.51349 -9.42631,-3.51349 z m -98.69062,0.49506 v 24.66672 h 9.25267 v -24.66672 z m 43.14776,0 v 24.66672 h 9.25318 v -24.66672 z m -114.50051,0.34624 v 13.01367 c 0,3.54618 0.8332,6.31743 2.49908,8.31319 2.1442,2.55655 4.9726,3.83439 8.48578,3.83439 3.08436,0 5.69042,-1.09656 7.81813,-3.29024 2.12771,-2.21018 3.19154,-4.91546 3.19154,-8.11526 V 198.4581 h -9.25318 v 13.92938 c 0,1.40198 -0.57711,2.10271 -1.73168,2.10271 -1.17106,0 -1.75648,-0.70073 -1.75648,-2.10271 V 198.4581 Z"
       id="path832"
       inkscape:connector-curvature="0" />
  </g>
  <g
     inkscape:groupmode="layer"
     id="layer2"
     inkscape:label="Camada 2"
     style="display:inline">
    <g
       transform="translate(0,-50.000001)"
       id="g910"
       style="display:inline;fill:#ffff00">
      <path
         d="m 115.05339,78.296024 h 8.91449 q 5.67827,0 8.08061,1.568473 3.05753,1.965554 3.05753,5.459873 0,2.124387 -1.17139,3.69286 -1.17139,1.568473 -3.27592,2.263366 -2.10454,0.694893 -6.69083,0.694893 h -2.44205 v 9.609381 l 2.42219,2.18395 h -9.23214 l 2.75971,-2.32293 v -7.961491 q -0.23825,-0.01985 -0.33752,-0.01985 -1.42949,0 -2.73986,0.615477 l -0.17869,-0.357374 q 1.33023,-0.754455 2.38249,-0.754455 h 0.71475 l 0.15883,-0.01985 v -0.97285 q -0.45664,-0.05956 -0.61547,-0.05956 -2.12439,0 -3.39505,1.032412 l -0.19854,-0.297811 q 1.2111,-2.223658 3.8914,-2.223658 h 0.31766 v -9.728502 z m 6.47244,2.044971 v 9.946897 h 0.2581 l 0.51621,0.01985 q 0.0794,0 0.2581,-0.01985 v -8.854923 h 2.18395 q 2.54132,0 3.57373,0.456644 1.05227,0.43679 1.78687,1.84643 -0.7346,-1.012558 -1.84643,-1.40964 -1.09197,-0.416936 -3.09724,-0.416936 h -2.04497 v 8.378425 q 3.93111,0 5.75769,-1.151537 1.84643,-1.151537 1.84643,-3.613444 0,-2.759718 -1.64789,-4.010525 -1.62804,-1.250808 -5.26133,-1.250808 -0.93315,0 -2.28322,0.07942 z m 12.56763,0.07942 q 1.2111,0.595623 1.9457,2.104533 0.7346,1.489056 0.7346,3.395049 0,4.308336 -3.33548,6.194474 -2.52147,1.429495 -8.61668,1.429495 -1.01255,0 -1.70745,-0.03971 v 8.199734 l 3.11709,3.69286 h -9.94689 l -0.53606,-0.53606 h 9.35127 l -2.54132,-2.9384 v -8.954194 q 1.7273,0.09927 3.673,0.09927 5.12236,0 7.60412,-1.806721 2.48176,-1.806722 2.48176,-5.53929 0,-1.548619 -0.4765,-2.680302 -0.4765,-1.151537 -1.74716,-2.620738 z"
         style="font-style:normal;font-variant:normal;font-weight:normal;font-stretch:extra-condensed;font-size:40.66116714px;line-height:1.25;font-family:Algerian;-inkscape-font-specification:'Algerian, Extra-Condensed';font-variant-ligatures:normal;font-variant-caps:normal;font-variant-numeric:normal;font-feature-settings:normal;text-align:start;letter-spacing:0px;word-spacing:0px;writing-mode:lr-tb;text-anchor:start;fill:#ffff00;fill-opacity:1;stroke:none;stroke-width:1.01651931"
         id="path869"
         inkscape:connector-curvature="0" />
      <path
         d="m 138.93786,80.678514 q 4.70542,-2.72001 10.12558,-2.72001 4.20907,0 6.92908,1.826576 2.73986,1.826576 2.73986,4.645856 0,2.303074 -1.78686,4.089942 -1.78687,1.767014 -4.88411,2.561177 1.36993,3.772276 3.71271,7.346012 2.36264,3.573733 4.72528,5.479723 l -0.29781,0.0993 q -2.95826,1.01256 -5.7974,2.85899 l -0.29781,0.19854 -0.0993,-0.63533 q -1.27066,-7.683528 -3.55388,-13.024277 l -0.0794,-0.198541 q -1.36993,0.635331 -3.673,1.012558 l -0.15884,0.01986 v 7.42543 l 3.49432,3.73256 h -10.26456 l -0.31766,-0.53606 h 9.45054 l -2.87884,-3.05753 V 93.8021 l 0.41693,-0.05956 q 2.26337,-0.238249 3.79213,-0.893433 -0.11912,-0.238249 -0.13897,-0.297812 l -0.19854,-0.575768 q -0.0199,-0.05956 -0.0993,-0.238249 -1.23095,0.357373 -4.64585,0.774309 l -0.2184,0.03971 v 8.854923 l 2.26337,2.36264 h -8.77551 l 2.58103,-2.36264 v -6.670973 l -0.15883,0.01985 q -1.15153,0.258103 -2.08468,0.575768 l -0.15883,0.05956 -0.17869,-0.397081 q 0.87358,-0.33752 1.36994,-0.456644 l 1.05226,-0.258103 0.15883,-0.03971 v -1.032413 q -1.17139,0 -2.91855,0.516206 l -0.21839,0.07942 q 0.0397,-0.277958 0.39708,-1.290516 0.0397,-0.07942 0.27796,-0.893434 0.0198,-0.05956 0.0596,-0.178687 0.89343,0.05956 1.38979,0.05956 0.53606,0 0.9927,-0.05956 v -9.76821 q -0.91329,-0.555914 -1.88614,-0.933142 z m 5.99593,-0.516206 V 90.86366 q 0.57577,0 1.09198,-0.09927 v -9.768211 q 1.09197,-0.297811 2.62074,-0.297811 3.87154,0 5.26133,2.541323 -1.4692,-1.191245 -2.58103,-1.628035 -1.11183,-0.456644 -2.66045,-0.456644 -1.2111,0 -2.12439,0.238249 v 9.371129 l 0.2184,-0.03971 q 3.91125,-0.714747 5.79739,-2.243511 1.90599,-1.548619 1.90599,-4.010526 0,-2.203803 -1.70745,-3.633297 -1.70745,-1.449348 -4.30833,-1.449348 -2.08468,0 -3.51418,0.774309 z m 9.58953,11.912451 q 1.2508,4.089942 4.42746,8.001201 1.98541,2.44205 5.02308,4.38775 -4.54658,1.2111 -8.53725,3.69286 l -0.17869,0.11912 -0.39708,-0.31766 q 3.79213,-2.48176 8.08061,-3.65315 -5.71798,-3.81199 -8.9939,-12.190413 l -0.11913,-0.337519 q 6.07535,-2.303074 6.07535,-7.028346 0,-1.945701 -1.56847,-4.248775 2.00526,1.826576 2.00526,4.645856 0,4.56644 -5.81724,6.929076 z"
         style="font-style:normal;font-variant:normal;font-weight:normal;font-stretch:extra-condensed;font-size:40.66116714px;line-height:1.25;font-family:Algerian;-inkscape-font-specification:'Algerian, Extra-Condensed';font-variant-ligatures:normal;font-variant-caps:normal;font-variant-numeric:normal;font-feature-settings:normal;text-align:start;letter-spacing:0px;word-spacing:0px;writing-mode:lr-tb;text-anchor:start;fill:#ffff00;fill-opacity:1;stroke:none;stroke-width:1.01651931"
         id="path871"
         inkscape:connector-curvature="0" />
      <path
         d="m 179.20194,82.723485 -0.33751,-0.198541 q -1.906,-1.052266 -3.49432,-1.052266 -5.22163,0 -5.22163,10.264562 0,7.504844 3.23622,9.9469 l -0.17869,0.19854 q -1.98541,-1.40964 -2.83913,-3.692862 -0.83387,-2.303074 -0.83387,-6.214329 0,-11.019018 5.79739,-11.019018 2.64059,0 3.87154,1.767014 z m -4.24877,-4.685564 q 4.82454,0 7.70339,3.653151 2.89869,3.653152 2.89869,9.768211 0,5.777538 -2.85899,9.212297 -2.83913,3.43476 -7.64382,3.43476 -3.79213,0 -6.75039,-2.4222 -4.34804,-3.573739 -4.34804,-10.582231 0,-5.995934 2.97811,-9.529961 2.97811,-3.534027 8.02105,-3.534027 z m 0,1.707451 q -6.71068,0 -6.71068,11.793327 0,10.899891 6.61141,10.899891 3.07738,0 4.68556,-2.878841 1.60819,-2.898696 1.60819,-8.45784 0,-6.293745 -1.54862,-8.775506 -1.62804,-2.581031 -4.64586,-2.581031 z m 6.33345,-0.694893 q 2.83914,1.369932 4.48703,4.685564 1.64789,3.315633 1.64789,7.663677 0,6.393016 -3.25607,10.32412 -3.23622,3.93111 -8.51741,3.93111 -3.37519,0 -6.3136,-2.28322 v -0.0993 q 2.46191,1.80673 6.17462,1.80673 4.98338,0 8.17989,-3.75243 3.19651,-3.752419 3.19651,-9.58952 0,-4.348045 -1.46921,-7.604115 -1.44934,-3.25607 -4.12965,-4.864251 z"
         style="font-style:normal;font-variant:normal;font-weight:normal;font-stretch:extra-condensed;font-size:40.66116714px;line-height:1.25;font-family:Algerian;-inkscape-font-specification:'Algerian, Extra-Condensed';font-variant-ligatures:normal;font-variant-caps:normal;font-variant-numeric:normal;font-feature-settings:normal;text-align:start;letter-spacing:0px;word-spacing:0px;writing-mode:lr-tb;text-anchor:start;fill:#ffff00;fill-opacity:1;stroke:none;stroke-width:1.01651931"
         id="path873"
         inkscape:connector-curvature="0" />
      <path
         d="m 190.34008,78.296024 h 8.91449 q 5.67827,0 8.08061,1.568473 3.05753,1.965554 3.05753,5.459873 0,2.124387 -1.17139,3.69286 -1.17139,1.568473 -3.27592,2.263366 -2.10454,0.694893 -6.69083,0.694893 h -2.44205 v 9.609381 l 2.42219,2.18395 h -9.23215 l 2.75972,-2.32293 v -7.961491 q -0.23825,-0.01985 -0.33752,-0.01985 -1.42949,0 -2.73986,0.615477 l -0.17869,-0.357374 q 1.33023,-0.754455 2.38249,-0.754455 h 0.71475 l 0.15883,-0.01985 v -0.97285 q -0.45664,-0.05956 -0.61547,-0.05956 -2.12439,0 -3.39505,1.032412 l -0.19854,-0.297811 q 1.2111,-2.223658 3.8914,-2.223658 h 0.31766 v -9.728502 z m 6.47244,2.044971 v 9.946897 h 0.2581 l 0.51621,0.01985 q 0.0794,0 0.2581,-0.01985 v -8.854923 h 2.18395 q 2.54132,0 3.57373,0.456644 1.05227,0.43679 1.78687,1.84643 -0.7346,-1.012558 -1.84643,-1.40964 -1.09197,-0.416936 -3.09724,-0.416936 h -2.04497 v 8.378425 q 3.93111,0 5.75769,-1.151537 1.84643,-1.151537 1.84643,-3.613444 0,-2.759718 -1.64789,-4.010525 -1.62804,-1.250808 -5.26133,-1.250808 -0.93315,0 -2.28322,0.07942 z m 12.56763,0.07942 q 1.2111,0.595623 1.9457,2.104533 0.7346,1.489056 0.7346,3.395049 0,4.308336 -3.33548,6.194474 -2.52147,1.429495 -8.61668,1.429495 -1.01255,0 -1.70745,-0.03971 v 8.199734 l 3.11709,3.69286 h -9.94689 l -0.53606,-0.53606 h 9.35127 l -2.54132,-2.9384 v -8.954194 q 1.7273,0.09927 3.673,0.09927 5.12236,0 7.60412,-1.806721 2.48176,-1.806722 2.48176,-5.53929 0,-1.548619 -0.4765,-2.680302 -0.4765,-1.151537 -1.74716,-2.620738 z"
         style="font-style:normal;font-variant:normal;font-weight:normal;font-stretch:extra-condensed;font-size:40.66116714px;line-height:1.25;font-family:Algerian;-inkscape-font-specification:'Algerian, Extra-Condensed';font-variant-ligatures:normal;font-variant-caps:normal;font-variant-numeric:normal;font-feature-settings:normal;text-align:start;letter-spacing:0px;word-spacing:0px;writing-mode:lr-tb;text-anchor:start;fill:#ffff00;fill-opacity:1;stroke:none;stroke-width:1.01651931"
         id="path875"
         inkscape:connector-curvature="0" />
      <path
         d="m 231.67629,78.296024 -2.06482,2.342782 3.25607,8.656381 0.79416,-0.43679 -2.9384,-7.822509 2.10453,-2.422199 0.51621,0.218395 -2.00526,2.322928 2.77957,7.405574 q 0.23825,-0.178687 0.27795,-0.218395 l 0.65519,-0.555914 q 0.59562,-0.476498 0.75445,-0.675039 0.51621,2.263366 1.58833,4.050233 -0.57577,-0.03971 -0.83387,-0.03971 -1.88614,0 -2.75972,0.595623 l 3.59359,9.748356 2.97811,2.30308 h -10.02631 l 2.73986,-2.30308 -2.2038,-5.797393 q -2.18395,2.203803 -3.35534,4.189212 l -0.45664,-0.119125 q 1.17139,-1.9457 3.49432,-4.348045 l 0.15883,-0.19854 -0.37723,-0.87358 q -2.36264,1.965554 -3.91125,4.56644 l -0.35738,-0.575769 q -1.03241,-1.647889 -2.64059,-3.752422 l -0.19854,-0.238249 q -1.52877,3.395048 -1.52877,5.519436 0,1.250805 0.41694,2.124385 0.43679,0.85373 2.06482,2.87885 0.13898,0.17868 0.43679,0.55591 h -10.7212 l -0.39708,-0.53606 h 10.10573 l -0.33752,-0.41694 q -1.31037,-1.58832 -1.72731,-2.4619 -0.39708,-0.89344 -0.39708,-2.084683 0,-2.025117 1.64789,-6.035642 l -0.87358,-0.913288 q -0.2581,0.635331 -0.65519,1.866284 l -0.65518,2.025117 q -0.53606,1.628035 -0.53606,2.700155 0,1.111827 0.37723,1.846437 0.37722,0.7346 1.58832,2.00526 0.11913,0.11912 0.35738,0.37723 h -9.92705 q 2.83914,-1.46921 4.48703,-3.950969 1.66774,-2.481761 3.29578,-7.663677 l 0.0794,-0.277958 q -1.05226,-0.893434 -3.03767,-1.091974 1.09197,-1.628035 1.68759,-3.395049 0.27796,0.258103 0.33752,0.317665 l 0.89344,0.833872 q 0.45664,0.43679 1.09197,0.893434 l 0.35738,-0.87358 -0.23825,-0.198541 q -0.99271,-0.87358 -1.66775,-1.40964 l -0.17868,-0.138978 0.31766,-0.43679 q 1.05227,0.694893 2.02512,1.608181 l 2.70015,-7.425428 -2.10453,-2.263366 z m -4.90395,6.373161 -2.18395,5.757685 q 0.17868,0.198541 0.19854,0.238249 l 0.81401,0.913288 q 0.65519,0.714747 1.66775,2.223658 l 0.19854,0.297811 q 0.85372,-1.072121 2.02512,-2.124387 z m -0.89344,-2.303074 -3.1568,8.338716 q 1.50891,1.548619 2.60089,3.057529 l 0.91329,1.270662 q 0.0199,0.01985 0.19854,0.258103 0.17868,-0.178687 0.19854,-0.218395 l 0.27795,-0.337519 q 0.0596,-0.07942 0.2184,-0.258103 -1.38979,-2.144242 -3.23622,-3.871547 l 2.54133,-6.710681 z m 11.6742,5.698123 q 0.43679,1.786868 2.18395,4.903959 -0.43679,-0.05956 -0.49635,-0.05956 l -1.60818,-0.138979 q -1.09197,-0.09927 -1.58833,-0.09927 -0.0794,0 -0.39708,0.01985 l 3.31563,8.795366 4.42747,3.91125 h -11.49552 l -0.37723,-0.53606 h 10.54252 l -3.57373,-3.1568 -3.53403,-9.351276 q 0.67504,-0.178686 1.54862,-0.178686 1.07212,0 2.38249,0.178686 l -0.23825,-0.436789 q -1.27066,-2.342783 -1.70745,-4.228921 z"
         style="font-style:normal;font-variant:normal;font-weight:normal;font-stretch:extra-condensed;font-size:40.66116714px;line-height:1.25;font-family:Algerian;-inkscape-font-specification:'Algerian, Extra-Condensed';font-variant-ligatures:normal;font-variant-caps:normal;font-variant-numeric:normal;font-feature-settings:normal;text-align:start;letter-spacing:0px;word-spacing:0px;writing-mode:lr-tb;text-anchor:start;fill:#ffff00;fill-opacity:1;stroke:none;stroke-width:1.01651931"
         id="path877"
         inkscape:connector-curvature="0" />
      <path
         d="m 266.55993,78.990917 -3.71272,7.306303 q -0.35737,-3.117091 -1.96555,-4.76498 -1.58833,-1.647889 -4.20907,-1.647889 -3.73257,0 -5.81724,2.898696 -2.06483,2.898697 -2.06483,8.120321 0,11.495512 9.41084,11.495512 h 3.19651 V 92.094613 h -5.00323 q -1.62804,0 -2.34279,-0.178686 -0.69489,-0.178687 -1.35007,-0.77431 v -0.496352 q 0.71474,0.53606 1.42949,0.714747 0.71475,0.158833 2.32293,0.158833 h 4.94367 v -1.072121 h -5.51944 -0.89343 q -2.95826,0 -2.95826,-2.144241 0,-0.833872 0.49635,-1.429494 0.49635,-0.595623 1.19124,-0.595623 0.51621,0 0.89344,0.377228 0.39708,0.377227 0.39708,0.893434 0,0.873579 -0.63533,1.012558 l -0.4765,0.09927 q -0.23825,0.05956 -0.23825,0.198541 0,0.258103 0.65519,0.258103 h 0.67504 13.10369 l -2.73986,2.680302 v 9.788068 l 2.54132,2.18395 h -10.14544 -2.00526 q -2.52147,0 -4.16936,-0.61548 -1.64789,-0.61548 -3.33548,-2.18395 -3.99067,-3.653152 -3.99067,-9.788065 0,-6.333453 3.77227,-9.887334 3.29578,-3.117092 7.82251,-3.117092 2.02512,0 4.64586,0.714747 2.6803,0.734602 3.53402,0.734602 1.25081,0 2.54133,-0.635331 z m 1.19124,1.250807 -3.39505,6.670973 -0.47649,-0.218395 3.4149,-6.690827 z m -6.3533,3.017821 -0.35738,-0.258103 q -2.26336,-1.608181 -4.12965,-1.608181 -2.26336,0 -3.91125,1.608181 -1.19125,1.191245 -1.72731,3.117092 -0.5162,1.925846 -0.5162,5.082645 0,4.010526 0.79416,6.134913 0.79416,2.124387 2.91855,3.831838 v 0.2184 q -2.30307,-1.36994 -3.31563,-3.851697 -1.01256,-2.501615 -1.01256,-6.770243 0,-4.705419 1.76701,-7.306304 1.76702,-2.620739 4.96352,-2.620739 2.77958,0 4.52674,2.303074 z m 7.54455,6.988638 -2.04497,2.044971 v 9.311566 l 3.29578,3.79213 -7.88208,-0.0596 -7.14747,0.0794 q -0.67504,0 -1.03241,-0.0397 -1.25081,-0.13898 -2.52147,-1.09198 h 0.41694 q 1.35007,0.59562 3.69286,0.59562 l 0.9927,-0.0199 h 12.3691 l -2.73987,-3.03767 v -9.728507 l 2.28322,-2.303074 z"
         style="font-style:normal;font-variant:normal;font-weight:normal;font-stretch:extra-condensed;font-size:40.66116714px;line-height:1.25;font-family:Algerian;-inkscape-font-specification:'Algerian, Extra-Condensed';font-variant-ligatures:normal;font-variant-caps:normal;font-variant-numeric:normal;font-feature-settings:normal;text-align:start;letter-spacing:0px;word-spacing:0px;writing-mode:lr-tb;text-anchor:start;fill:#ffff00;fill-opacity:1;stroke:none;stroke-width:1.01651931"
         id="path879"
         inkscape:connector-curvature="0" />
      <path
         d="m 290.20613,78.296024 -2.06482,2.342782 3.25607,8.656381 0.79416,-0.43679 -2.9384,-7.822509 2.10453,-2.422199 0.51621,0.218395 -2.00527,2.322928 2.77958,7.405574 q 0.23824,-0.178687 0.27795,-0.218395 l 0.65519,-0.555914 q 0.59562,-0.476498 0.75445,-0.675039 0.51621,2.263366 1.58833,4.050233 -0.57577,-0.03971 -0.83387,-0.03971 -1.88614,0 -2.75972,0.595623 l 3.59359,9.748356 2.97811,2.30308 h -10.02631 l 2.73986,-2.30308 -2.2038,-5.797393 q -2.18395,2.203803 -3.35534,4.189212 l -0.45664,-0.119125 q 1.17139,-1.9457 3.49431,-4.348045 l 0.15884,-0.19854 -0.37723,-0.87358 q -2.36264,1.965554 -3.91126,4.56644 l -0.35737,-0.575769 q -1.03241,-1.647889 -2.64059,-3.752422 l -0.19854,-0.238249 q -1.52877,3.395048 -1.52877,5.519436 0,1.250805 0.41694,2.124385 0.43679,0.85373 2.06482,2.87885 0.13898,0.17868 0.43679,0.55591 h -10.7212 l -0.39708,-0.53606 h 10.10572 l -0.33751,-0.41694 q -1.31037,-1.58832 -1.72731,-2.4619 -0.39708,-0.89344 -0.39708,-2.084683 0,-2.025117 1.64789,-6.035642 l -0.87358,-0.913288 q -0.25811,0.635331 -0.65519,1.866284 l -0.65518,2.025117 q -0.53606,1.628035 -0.53606,2.700155 0,1.111827 0.37723,1.846437 0.37722,0.7346 1.58832,2.00526 0.11913,0.11912 0.35738,0.37723 h -9.92705 q 2.83914,-1.46921 4.48703,-3.950969 1.66774,-2.481761 3.29577,-7.663677 l 0.0794,-0.277958 q -1.05227,-0.893434 -3.03767,-1.091974 1.09197,-1.628035 1.68759,-3.395049 0.27796,0.258103 0.33752,0.317665 l 0.89344,0.833872 q 0.45664,0.43679 1.09197,0.893434 l 0.35737,-0.87358 -0.23824,-0.198541 q -0.99271,-0.87358 -1.66775,-1.40964 l -0.17868,-0.138978 0.31766,-0.43679 q 1.05227,0.694893 2.02512,1.608181 l 2.70015,-7.425428 -2.10453,-2.263366 z m -4.90396,6.373161 -2.18395,5.757685 q 0.17869,0.198541 0.19855,0.238249 l 0.81401,0.913288 q 0.65519,0.714747 1.66775,2.223658 l 0.19854,0.297811 q 0.85372,-1.072121 2.02511,-2.124387 z m -0.89343,-2.303074 -3.1568,8.338716 q 1.50891,1.548619 2.60089,3.057529 l 0.91328,1.270662 q 0.0199,0.01985 0.19854,0.258103 0.17869,-0.178687 0.19855,-0.218395 l 0.27795,-0.337519 q 0.0596,-0.07942 0.2184,-0.258103 -1.38979,-2.144242 -3.23622,-3.871547 l 2.54132,-6.710681 z m 11.6742,5.698123 q 0.43679,1.786868 2.18395,4.903959 -0.43679,-0.05956 -0.49635,-0.05956 l -1.60818,-0.138979 q -1.09198,-0.09927 -1.58833,-0.09927 -0.0794,0 -0.39708,0.01985 l 3.31563,8.795366 4.42746,3.91125 h -11.49551 l -0.37723,-0.53606 h 10.54252 l -3.57374,-3.1568 -3.53402,-9.351276 q 0.67504,-0.178686 1.54862,-0.178686 1.07212,0 2.38249,0.178686 l -0.23825,-0.436789 q -1.27066,-2.342783 -1.70745,-4.228921 z"
         style="font-style:normal;font-variant:normal;font-weight:normal;font-stretch:extra-condensed;font-size:40.66116714px;line-height:1.25;font-family:Algerian;-inkscape-font-specification:'Algerian, Extra-Condensed';font-variant-ligatures:normal;font-variant-caps:normal;font-variant-numeric:normal;font-feature-settings:normal;text-align:start;letter-spacing:0px;word-spacing:0px;writing-mode:lr-tb;text-anchor:start;fill:#ffff00;fill-opacity:1;stroke:none;stroke-width:1.01651931"
         id="path881"
         inkscape:connector-curvature="0" />
      <path
         d="m 325.28831,78.296024 q -2.26336,1.171391 -2.91855,2.144241 -0.9927,1.508911 -0.9927,4.546586 v 1.290515 17.491454 h -3.35534 l -9.37113,-18.186347 v 10.780769 l -0.0199,0.893434 0.23825,2.858984 q 0.39708,1.98541 1.80672,2.93841 l 0.15883,0.13898 q -2.73986,-0.91329 -2.73986,-5.856958 l 0.0199,-1.866284 V 84.609623 l -1.07212,-2.084679 v 11.435953 q 0,5.44002 0.71475,7.127613 0.71474,1.6876 3.35534,2.46191 l 1.7273,1.84643 h -10.76091 l -0.31767,-0.53606 h 9.9469 l -1.03241,-1.09197 h -9.25201 q 2.4222,-0.87358 3.21637,-2.34279 0.79416,-1.469199 0.79416,-5.042934 V 80.499827 l -2.64059,-2.203803 h 10.04616 l -2.81928,1.886138 9.60938,18.742257 v -2.382491 l -8.23945,-16.042101 2.77958,-1.886138 0.37722,0.377228 -2.4619,1.667743 7.54455,14.811148 V 86.19795 85.145683 q 0,-3.454611 -0.57577,-4.606147 -0.55591,-1.171392 -2.77957,-2.243512 z m 0.6949,1.469202 -0.35738,0.595623 q -1.52876,0.357373 -2.08467,1.330223 -0.53607,0.952997 -0.53607,3.236216 v 20.469562 h -4.26862 l -0.25811,-0.53606 h 3.99067 V 85.125829 q 0,-2.799426 0.71475,-3.8914 0.7346,-1.111829 2.79943,-1.469203 z"
         style="font-style:normal;font-variant:normal;font-weight:normal;font-stretch:extra-condensed;font-size:40.66116714px;line-height:1.25;font-family:Algerian;-inkscape-font-specification:'Algerian, Extra-Condensed';font-variant-ligatures:normal;font-variant-caps:normal;font-variant-numeric:normal;font-feature-settings:normal;text-align:start;letter-spacing:0px;word-spacing:0px;writing-mode:lr-tb;text-anchor:start;fill:#ffff00;fill-opacity:1;stroke:none;stroke-width:1.01651931"
         id="path883"
         inkscape:connector-curvature="0" />
      <path
         d="m 327.69065,78.296024 h 7.82251 q 5.73783,0 8.49754,2.203803 4.1098,3.25607 4.1098,10.205 0,7.207033 -3.59359,10.423393 -1.62803,1.44935 -3.65315,2.04497 -2.00526,0.59563 -5.34075,0.59563 h -8.43799 l 2.72001,-2.08468 V 80.579244 Z m 6.01578,1.667743 v 22.276283 h 1.09198 V 81.274137 q 1.03241,-0.158833 1.88614,-0.158833 1.62803,0 2.56117,0.337519 0.953,0.317666 1.906,1.191246 -2.10454,-0.992705 -4.50688,-0.992705 -0.51621,0 -1.35008,0.07942 v 20.509266 q 2.22366,0 3.3752,-0.35737 1.15153,-0.37723 2.18394,-1.4295 2.87885,-2.918544 2.87885,-9.807912 0,-6.730535 -3.11709,-9.192442 -1.88614,-1.489056 -5.97608,-1.489056 z m -5.38045,25.433083 -0.29781,-0.53606 h 7.26659 q 5.3606,0 8.14018,-1.48906 5.97608,-3.17665 5.97608,-12.289675 0,-6.095204 -2.68031,-9.053463 l -0.79416,-0.87358 q -0.0397,-0.03971 -0.23825,-0.277957 4.20907,2.640593 4.20907,10.105729 0,7.842364 -4.16936,11.555076 -3.19651,2.85899 -10.44325,2.85899 z"
         style="font-style:normal;font-variant:normal;font-weight:normal;font-stretch:extra-condensed;font-size:40.66116714px;line-height:1.25;font-family:Algerian;-inkscape-font-specification:'Algerian, Extra-Condensed';font-variant-ligatures:normal;font-variant-caps:normal;font-variant-numeric:normal;font-feature-settings:normal;text-align:start;letter-spacing:0px;word-spacing:0px;writing-mode:lr-tb;text-anchor:start;fill:#ffff00;fill-opacity:1;stroke:none;stroke-width:1.01651931"
         id="path885"
         inkscape:connector-curvature="0" />
      <path
         d="m 370.01956,78.296024 -2.06482,2.342782 3.25607,8.656381 0.79416,-0.43679 -2.9384,-7.822509 2.10453,-2.422199 0.51621,0.218395 -2.00527,2.322928 2.77958,7.405574 q 0.23825,-0.178687 0.27795,-0.218395 l 0.65519,-0.555914 q 0.59562,-0.476498 0.75445,-0.675039 0.51621,2.263366 1.58833,4.050233 -0.57577,-0.03971 -0.83387,-0.03971 -1.88614,0 -2.75972,0.595623 l 3.59359,9.748356 2.97811,2.30308 h -10.02631 l 2.73986,-2.30308 -2.2038,-5.797393 q -2.18395,2.203803 -3.35534,4.189212 l -0.45664,-0.119125 q 1.17139,-1.9457 3.49432,-4.348045 l 0.15883,-0.19854 -0.37723,-0.87358 q -2.36264,1.965554 -3.91125,4.56644 l -0.35738,-0.575769 q -1.03241,-1.647889 -2.64059,-3.752422 l -0.19854,-0.238249 q -1.52877,3.395048 -1.52877,5.519436 0,1.250805 0.41694,2.124385 0.43679,0.85373 2.06482,2.87885 0.13898,0.17868 0.43679,0.55591 h -10.7212 l -0.39708,-0.53606 h 10.10573 l -0.33752,-0.41694 q -1.31037,-1.58832 -1.72731,-2.4619 -0.39708,-0.89344 -0.39708,-2.084683 0,-2.025117 1.64789,-6.035642 l -0.87358,-0.913288 q -0.2581,0.635331 -0.65519,1.866284 l -0.65518,2.025117 q -0.53606,1.628035 -0.53606,2.700155 0,1.111827 0.37723,1.846437 0.37722,0.7346 1.58832,2.00526 0.11913,0.11912 0.35738,0.37723 h -9.92705 q 2.83914,-1.46921 4.48703,-3.950969 1.66774,-2.481761 3.29577,-7.663677 l 0.0794,-0.277958 q -1.05227,-0.893434 -3.03767,-1.091974 1.09197,-1.628035 1.68759,-3.395049 0.27796,0.258103 0.33752,0.317665 l 0.89344,0.833872 q 0.45664,0.43679 1.09197,0.893434 l 0.35738,-0.87358 -0.23825,-0.198541 q -0.99271,-0.87358 -1.66775,-1.40964 l -0.17868,-0.138978 0.31766,-0.43679 q 1.05227,0.694893 2.02512,1.608181 l 2.70015,-7.425428 -2.10453,-2.263366 z m -4.90395,6.373161 -2.18395,5.757685 q 0.17868,0.198541 0.19854,0.238249 l 0.81401,0.913288 q 0.65519,0.714747 1.66775,2.223658 l 0.19854,0.297811 q 0.85372,-1.072121 2.02511,-2.124387 z m -0.89344,-2.303074 -3.1568,8.338716 q 1.50891,1.548619 2.60089,3.057529 l 0.91328,1.270662 q 0.0199,0.01985 0.19855,0.258103 0.17868,-0.178687 0.19854,-0.218395 l 0.27795,-0.337519 q 0.0596,-0.07942 0.2184,-0.258103 -1.38979,-2.144242 -3.23622,-3.871547 l 2.54133,-6.710681 z m 11.6742,5.698123 q 0.43679,1.786868 2.18395,4.903959 -0.43679,-0.05956 -0.49635,-0.05956 l -1.60818,-0.138979 q -1.09197,-0.09927 -1.58833,-0.09927 -0.0794,0 -0.39708,0.01985 l 3.31563,8.795366 4.42746,3.91125 h -11.49551 l -0.37723,-0.53606 h 10.54252 l -3.57373,-3.1568 -3.53403,-9.351276 q 0.67504,-0.178686 1.54862,-0.178686 1.07212,0 2.38249,0.178686 l -0.23825,-0.436789 q -1.27066,-2.342783 -1.70745,-4.228921 z"
         style="font-style:normal;font-variant:normal;font-weight:normal;font-stretch:extra-condensed;font-size:40.66116714px;line-height:1.25;font-family:Algerian;-inkscape-font-specification:'Algerian, Extra-Condensed';font-variant-ligatures:normal;font-variant-caps:normal;font-variant-numeric:normal;font-feature-settings:normal;text-align:start;letter-spacing:0px;word-spacing:0px;writing-mode:lr-tb;text-anchor:start;fill:#ffff00;fill-opacity:1;stroke:none;stroke-width:1.01651931"
         id="path887"
         inkscape:connector-curvature="0" />
    </g>
  </g>
</svg>
