<?xml version="1.0" encoding="UTF-8" standalone="no"?>
<!-- Generator: Adobe Illustrator 16.0.0, SVG Export Plug-In . SVG Version: 6.00 Build 0)  -->

<svg
   xmlns:dc="http://purl.org/dc/elements/1.1/"
   xmlns:cc="http://creativecommons.org/ns#"
   xmlns:rdf="http://www.w3.org/1999/02/22-rdf-syntax-ns#"
   xmlns:svg="http://www.w3.org/2000/svg"
   xmlns="http://www.w3.org/2000/svg"
   xmlns:sodipodi="http://sodipodi.sourceforge.net/DTD/sodipodi-0.dtd"
   xmlns:inkscape="http://www.inkscape.org/namespaces/inkscape"
   version="1.1"
   id="Camada_1"
   x="0px"
   y="0px"
   width="45.049114"
   height="61.393524"
   viewBox="0 0 45.049116 61.393526"
   enable-background="new 0 0 74.074 74.074"
   xml:space="preserve"
   sodipodi:docname="facebook.svg"
   inkscape:version="0.92.3 (2405546, 2018-03-11)"><metadata
   id="metadata31"><rdf:RDF><cc:Work
       rdf:about=""><dc:format>image/svg+xml</dc:format><dc:type
         rdf:resource="http://purl.org/dc/dcmitype/StillImage" /></cc:Work></rdf:RDF></metadata><defs
   id="defs29" /><sodipodi:namedview
   pagecolor="#ffffff"
   bordercolor="#666666"
   borderopacity="1"
   objecttolerance="10"
   gridtolerance="10"
   guidetolerance="10"
   inkscape:pageopacity="0"
   inkscape:pageshadow="2"
   inkscape:window-width="1366"
   inkscape:window-height="712"
   id="namedview27"
   showgrid="false"
   inkscape:zoom="3.1860033"
   inkscape:cx="-17.218481"
   inkscape:cy="30.696576"
   inkscape:window-x="0"
   inkscape:window-y="0"
   inkscape:window-maximized="1"
   inkscape:current-layer="Camada_1" />
<g
   id="g24"
   transform="translate(-15.962989,-6.3400504)">
	<g
   id="g20">
		<path
   d="m 53.931,27.514 c 6.034,9.439 5.373,12.687 -4.718,23.239 -3.216,0.224 -6.098,3.462 -9.607,1.078 -0.941,-5.391 2.891,-8.881 5.929,-13.644 -7.278,-1.61 -14.54,-2.373 -19.342,-8.278 -2.781,-2.227 -4.365,-4.589 -2.706,-8.492 1.261,-2.966 1.758,-6.293 2.387,-9.51 l -0.018,0.036 c 4.563,-4.088 9.287,-5.029 14.388,-0.881 1.407,1.142 3.146,1.584 4.972,1.835 9.218,1.266 10.431,3.049 8.576,12.449 -0.155,0.776 -0.251,1.466 0.139,2.168 z"
   id="path2"
   inkscape:connector-curvature="0"
   style="clip-rule:evenodd;fill:#37508f;fill-rule:evenodd" />
		<path
   d="m 25.873,11.907 c 0.062,3.526 0.861,7.211 -1.204,10.406 -2.486,3.845 2.463,4.287 2.867,6.758 2.632,4.129 5.579,7.88 9.946,10.445 2.841,1.664 4.419,4.271 3.022,7.803 -2.572,2.104 -5.094,0.764 -6.839,-0.863 C 28.97,42.081 23.073,39.481 18.206,35.411 17.704,34.863 17.235,34.285 16.794,33.687 17.838,25.6 22.625,19.076 25.873,11.907 Z"
   id="path4"
   inkscape:connector-curvature="0"
   style="clip-rule:evenodd;fill:#3f5b99;fill-rule:evenodd" />
		<path
   d="m 53.931,27.514 c -1.769,-1.123 -0.715,-2.516 -0.582,-3.987 0.47,-5.178 0.369,-10.037 -7.304,-8.49 -1.887,0.38 -4.284,0.673 -5.718,-1.165 C 36.077,8.42 31.176,8.847 25.854,11.943 28.792,8.829 44.482,5.088 47.661,6.748 c 7.335,3.828 9.169,9.893 6.27,20.766 z"
   id="path6"
   inkscape:connector-curvature="0"
   style="clip-rule:evenodd;fill:#3f5b99;fill-rule:evenodd" />
		<path
   d="m 16.792,33.687 c 0.486,0 0.972,0.012 1.458,0.03 0.857,1.589 2.379,2.765 2.944,4.515 2,6.184 6.335,9.088 12.711,9.319 2.07,0.077 4.128,0.411 5.606,2.147 0.145,0.346 0.288,0.692 0.43,1.039 3.087,2.667 6.184,-1.274 9.271,0.016 -3.957,2.759 -7.996,4.504 -12.659,1.439 -1.473,-0.965 -3,-0.8 -3.908,0.915 -3.347,6.34 -7.287,2.725 -9.611,-0.227 -4.302,-5.457 -9.013,-11.244 -6.242,-19.193 z"
   id="path8"
   inkscape:connector-curvature="0"
   style="clip-rule:evenodd;fill:#648bc3;fill-rule:evenodd" />
		<path
   d="m 32.308,63.456 c 0.108,-1.563 0.758,-2.642 2.274,-2.458 2.147,0.259 2.853,2.022 2.725,3.813 -0.099,1.364 -0.604,3.416 -2.586,2.815 -1.78,-0.538 -2.117,-2.573 -2.413,-4.17 z"
   id="path10"
   inkscape:connector-curvature="0"
   style="clip-rule:evenodd;fill:#5172ad;fill-rule:evenodd" />
		<path
   d="m 58.372,46.974 c 1.777,0.387 2.651,1.525 2.64,3.201 -0.014,1.923 -1.315,2.559 -3.021,2.438 -1.741,-0.121 -2.859,-1.034 -2.601,-2.896 0.232,-1.664 1.284,-2.644 2.982,-2.743 z"
   id="path12"
   inkscape:connector-curvature="0"
   style="clip-rule:evenodd;fill:#5172ad;fill-rule:evenodd" />
		<path
   d="m 17.779,56.158 c -0.179,-1.224 0.483,-1.579 1.221,-1.4 0.593,0.144 1.361,0.628 1.544,1.142 0.274,0.774 -0.328,1.457 -1.193,1.259 -0.616,-0.144 -1.134,-0.707 -1.572,-1.001 z"
   id="path14"
   inkscape:connector-curvature="0"
   style="clip-rule:evenodd;fill:#648bc3;fill-rule:evenodd" />
		<path
   d="M 39.923,47.656 C 40.219,44.51 39.145,41.55 36.226,40.682 30.208,38.89 28.984,34.01 27.535,29.071 c 4.588,3.993 9.65,6.692 16.002,6.236 2.087,-0.148 4.362,0.075 4.983,2.587 0.562,2.276 -1.485,3.03 -3.017,3.894 -3.502,1.979 -2.98,6.423 -5.563,8.949 l -0.039,0.031 c -0.828,-1.041 -0.947,-2.08 0.022,-3.112 z"
   id="path16"
   inkscape:connector-curvature="0"
   style="clip-rule:evenodd;fill:#355387;fill-rule:evenodd" />
		<path
   d="M 39.923,47.656 C 39.916,48.694 39.91,49.731 39.902,50.768 38.464,50.26 37.059,49.471 35.581,49.287 21.91,47.569 21.905,47.601 18.25,33.717 c 7.225,4.644 14.448,9.292 21.673,13.939 z"
   id="path18"
   inkscape:connector-curvature="0"
   style="clip-rule:evenodd;fill:#5172ad;fill-rule:evenodd" />
	</g>
	<path
   d="m 43.641,54.102 v -15.44 h 5.183 l 0.774,-6.017 h -5.957 v -3.843 c 0,-1.742 0.483,-2.928 2.982,-2.928 l 3.186,-10e-4 V 20.49 c -0.552,-0.072 -2.443,-0.236 -4.644,-0.236 -4.594,0 -7.739,2.803 -7.739,7.953 v 4.438 h -5.195 v 6.017 h 5.195 v 15.439 h 6.215 z"
   id="path22"
   inkscape:connector-curvature="0"
   style="fill:#ffffff" />
</g>
</svg>