<?xml version="1.0" encoding="UTF-8" standalone="no"?>
<!-- Generator: Adobe Illustrator 16.0.0, SVG Export Plug-In . SVG Version: 6.00 Build 0)  -->

<svg
   xmlns:dc="http://purl.org/dc/elements/1.1/"
   xmlns:cc="http://creativecommons.org/ns#"
   xmlns:rdf="http://www.w3.org/1999/02/22-rdf-syntax-ns#"
   xmlns:svg="http://www.w3.org/2000/svg"
   xmlns="http://www.w3.org/2000/svg"
   xmlns:sodipodi="http://sodipodi.sourceforge.net/DTD/sodipodi-0.dtd"
   xmlns:inkscape="http://www.inkscape.org/namespaces/inkscape"
   version="1.1"
   id="Camada_1"
   x="0px"
   y="0px"
   width="45"
   height="61.4"
   viewBox="0 0 45.049116 61.393526"
   enable-background="new 0 0 74.074 74.074"
   xml:space="preserve"
   sodipodi:docname="facebook.svg"
   inkscape:version="0.92.3 (2405546, 2018-03-11)"><metadata
   id="metadata31"><rdf:RDF><cc:Work
       rdf:about=""><dc:format>image/svg+xml</dc:format><dc:type
         rdf:resource="http://purl.org/dc/dcmitype/StillImage" /></cc:Work></rdf:RDF></metadata><defs
   id="defs29" /><sodipodi:namedview
   pagecolor="#ffffff"
   bordercolor="#666666"
   borderopacity="1"
   objecttolerance="10"
   gridtolerance="10"
   guidetolerance="10"
   inkscape:pageopacity="0"
   inkscape:pageshadow="2"
   inkscape:window-width="1366"
   inkscape:window-height="712"
   id="namedview27"
   showgrid="false"
   inkscape:zoom="3.1860033"
   inkscape:cx="-28.008976"
   inkscape:cy="30.696762"
   inkscape:window-x="0"
   inkscape:window-y="0"
   inkscape:window-maximized="1"
   inkscape:current-layer="Camada_1" />
<g
   id="g24"
   transform="matrix(1,0,0,1,-16,-6.3)">
	<g
   id="g20">
		<path
   d="M 53.9 27.5 c 6 9.4 5.4 12.7 -4.7 23.2 c -3.2 0.2 -6.1 3.5 -9.6 1.1 c -0.9 -5.4 2.9 -8.9 5.9 -13.6 c -7.3 -1.6 -14.5 -2.4 -19.3 -8.3 c -2.8 -2.2 -4.4 -4.6 -2.7 -8.5 c 1.3 -3 1.8 -6.3 2.4 -9.5 l 0 0 c 4.6 -4.1 9.3 -5 14.4 -0.9 c 1.4 1.1 3.1 1.6 5 1.8 c 9.2 1.3 10.4 3 8.6 12.4 c -0.2 0.8 -0.3 1.5 0.1 2.2 z"
   id="path2"
   inkscape:connector-curvature="0"
   style="fill: #37508f; fill-rule: evenodd; clip-rule: evenodd" />
		<path
   d="M 25.9 11.9 c 0.1 3.5 0.9 7.2 -1.2 10.4 c -2.5 3.8 2.5 4.3 2.9 6.8 c 2.6 4.1 5.6 7.9 9.9 10.4 c 2.8 1.7 4.4 4.3 3 7.8 c -2.6 2.1 -5.1 0.8 -6.8 -0.9 C 29 42.1 23.1 39.5 18.2 35.4 C 17.7 34.9 17.2 34.3 16.8 33.7 C 17.8 25.6 22.6 19.1 25.9 11.9 Z"
   id="path4"
   inkscape:connector-curvature="0"
   style="fill: #3f5b99; fill-rule: evenodd; clip-rule: evenodd" />
		<path
   d="M 53.9 27.5 c -1.8 -1.1 -0.7 -2.5 -0.6 -4 c 0.5 -5.2 0.4 -10 -7.3 -8.5 c -1.9 0.4 -4.3 0.7 -5.7 -1.2 C 36.1 8.4 31.2 8.8 25.9 11.9 C 28.8 8.8 44.5 5.1 47.7 6.7 c 7.3 3.8 9.2 9.9 6.3 20.8 z"
   id="path6"
   inkscape:connector-curvature="0"
   style="fill: #3f5b99; fill-rule: evenodd; clip-rule: evenodd" />
		<path
   d="M 16.8 33.7 c 0.5 0 1 0 1.5 0 c 0.9 1.6 2.4 2.8 2.9 4.5 c 2 6.2 6.3 9.1 12.7 9.3 c 2.1 0.1 4.1 0.4 5.6 2.1 c 0.1 0.3 0.3 0.7 0.4 1 c 3.1 2.7 6.2 -1.3 9.3 0 c -4 2.8 -8 4.5 -12.7 1.4 c -1.5 -1 -3 -0.8 -3.9 0.9 c -3.3 6.3 -7.3 2.7 -9.6 -0.2 c -4.3 -5.5 -9 -11.2 -6.2 -19.2 z"
   id="path8"
   inkscape:connector-curvature="0"
   style="fill: #648bc3; fill-rule: evenodd; clip-rule: evenodd" />
		<path
   d="M 32.3 63.5 c 0.1 -1.6 0.8 -2.6 2.3 -2.5 c 2.1 0.3 2.9 2 2.7 3.8 c -0.1 1.4 -0.6 3.4 -2.6 2.8 c -1.8 -0.5 -2.1 -2.6 -2.4 -4.2 z"
   id="path10"
   inkscape:connector-curvature="0"
   style="fill: #5172ad; fill-rule: evenodd; clip-rule: evenodd" />
		<path
   d="M 58.4 47 c 1.8 0.4 2.7 1.5 2.6 3.2 c 0 1.9 -1.3 2.6 -3 2.4 c -1.7 -0.1 -2.9 -1 -2.6 -2.9 c 0.2 -1.7 1.3 -2.6 3 -2.7 z"
   id="path12"
   inkscape:connector-curvature="0"
   style="fill: #5172ad; fill-rule: evenodd; clip-rule: evenodd" />
		<path
   d="M 17.8 56.2 c -0.2 -1.2 0.5 -1.6 1.2 -1.4 c 0.6 0.1 1.4 0.6 1.5 1.1 c 0.3 0.8 -0.3 1.5 -1.2 1.3 c -0.6 -0.1 -1.1 -0.7 -1.6 -1 z"
   id="path14"
   inkscape:connector-curvature="0"
   style="fill: #648bc3; fill-rule: evenodd; clip-rule: evenodd" />
		<path
   d="M 39.9 47.7 C 40.2 44.5 39.1 41.5 36.2 40.7 C 30.2 38.9 29 34 27.5 29.1 c 4.6 4 9.7 6.7 16 6.2 c 2.1 -0.1 4.4 0.1 5 2.6 c 0.6 2.3 -1.5 3 -3 3.9 c -3.5 2 -3 6.4 -5.6 8.9 l 0 0 c -0.8 -1 -0.9 -2.1 0 -3.1 z"
   id="path16"
   inkscape:connector-curvature="0"
   style="fill: #355387; fill-rule: evenodd; clip-rule: evenodd" />
		<path
   d="M 39.9 47.7 C 39.9 48.7 39.9 49.7 39.9 50.8 C 38.5 50.3 37.1 49.5 35.6 49.3 C 21.9 47.6 21.9 47.6 18.3 33.7 c 7.2 4.6 14.4 9.3 21.7 13.9 z"
   id="path18"
   inkscape:connector-curvature="0"
   style="fill: #5172ad; fill-rule: evenodd; clip-rule: evenodd" />
	</g>
	<path
   d="M 43.6 54.1 v -15.4 h 5.2 l 0.8 -6 h -6 v -3.8 c 0 -1.7 0.5 -2.9 3 -2.9 l 3.2 0 V 20.5 c -0.6 -0.1 -2.4 -0.2 -4.6 -0.2 c -4.6 0 -7.7 2.8 -7.7 8 v 4.4 h -5.2 v 6 h 5.2 v 15.4 h 6.2 z"
   id="path22"
   inkscape:connector-curvature="0"
   style="fill: #ffffff" />
</g>
</svg>