<?xml version="1.0" encoding="utf-8"?>
<!-- Generator: Adobe Illustrator 16.0.0, SVG Export Plug-In . SVG Version: 6.00 Build 0)  -->
<!DOCTYPE svg PUBLIC "-//W3C//DTD SVG 1.1//EN" "http://www.w3.org/Graphics/SVG/1.1/DTD/svg11.dtd">
<svg version="1.1" id="Camada_1" xmlns="http://www.w3.org/2000/svg" xmlns:xlink="http://www.w3.org/1999/xlink" x="0px" y="0px"
	 width="132.704px" height="118.665px" viewBox="0 0 132.704 118.665" enable-background="new 0 0 132.704 118.665"
	 xml:space="preserve">
<g>
	<path fill="#E6B54A" d="M86.402,38.721c-0.021,0.185,0.251,0.198,0.306,0.042c0.344-0.987,0.228-2.433-0.832-2.938
		c-0.067-0.032-0.123,0.06-0.059,0.101C86.745,36.531,86.51,37.793,86.402,38.721z"/>
	<path fill="#E6B54A" d="M89.52,39.433l-0.059-2.846c-0.002-0.075-0.115-0.075-0.117,0l-0.059,2.846
		C89.284,39.583,89.522,39.583,89.52,39.433z"/>
	<path fill="#E6B54A" d="M72.899,53.859c-0.754-0.981-1.438-1.939-1.924-3.083c-0.036-0.083-0.166-0.022-0.143,0.06
		c0.71,2.536,2.494,5.407,4.956,6.55c0.198,0.092,0.391-0.137,0.236-0.306C75.008,55.963,73.829,55.067,72.899,53.859z"/>
	<path fill="#E6B54A" d="M70.431,53.086c0.122-0.273-0.19-0.557-0.428-0.331c-1.065,1.018-0.805,2.322-0.251,3.56
		c0.385,0.861,1.088,1.642,1.668,2.377c0.594,0.751,1.208,1.62,2.224,1.765c0.267,0.038,0.507-0.104,0.519-0.395
		c0.051-1.347-1.297-2.377-2.076-3.336C71.383,55.861,69.952,54.168,70.431,53.086z"/>
	<path fill="#E6B54A" d="M52.412,26.687c0.076,0,0.076-0.117,0-0.117S52.336,26.687,52.412,26.687z"/>
	<path fill="#E6B54A" d="M59.525,43.36c0.202,0.007,0.37-0.174,0.37-0.37c0-0.208-0.168-0.363-0.37-0.37
		c-0.011-0.001-0.018-0.001-0.025-0.001c-0.016-0.006-0.072-0.023-0.069-0.021c-0.054-0.026-0.087-0.05-0.118-0.078
		c-0.087-0.08-0.115-0.141-0.136-0.262c-0.036-0.199-0.274-0.308-0.456-0.259c-0.208,0.058-0.293,0.257-0.258,0.456
		C58.551,42.957,59.025,43.342,59.525,43.36z"/>
	<path fill="#E6B54A" d="M63.962,40.546c0.104-0.67,0.413-1.278,1.026-1.606c0.287-0.154,0.032-0.591-0.256-0.438
		c-0.749,0.401-1.208,1.144-1.115,1.997C63.638,40.68,63.929,40.758,63.962,40.546z"/>
	<path fill="#E6B54A" d="M64.458,44.955c-0.167,0.068-0.167,0.271,0,0.339c0.116,0.046,0.261,0.035,0.388,0.043
		c0.123,0.006,0.247,0.014,0.37,0.021c0.302,0.018,0.302-0.485,0-0.467c-0.123,0.007-0.247,0.014-0.37,0.021
		C64.719,44.919,64.575,44.907,64.458,44.955z"/>
	<path fill="#E6B54A" d="M59.397,47.039c-0.498,0.223-1.004,0.007-1.126-0.539c-0.036-0.162-0.313-0.175-0.338,0
		c-0.148,1.04,0.915,1.363,1.72,0.977C59.95,47.334,59.691,46.908,59.397,47.039z"/>
	<path fill="#E6B54A" d="M61.696,38.142c0.188-0.052,0.23-0.244,0.317-0.396c0.07,0.117,0.129,0.241,0.189,0.362
		c0.112,0.225,0.448,0.027,0.336-0.196c-0.095-0.191-0.251-0.657-0.537-0.629c-0.138,0.013-0.22,0.107-0.292,0.216
		c-0.097,0.146-0.25,0.37-0.182,0.547C61.555,38.116,61.619,38.163,61.696,38.142z"/>
	<path fill="#E6B54A" d="M64.977,50.112c-0.143,0.701-0.258,1.41-0.209,2.125c0.039,0.587,0.83,0.566,0.896,0
		c0.079-0.679,0.268-1.37,0.445-2.049c0.22-0.035,0.395-0.147,0.516-0.345c0.122-0.04,0.241-0.086,0.359-0.134
		c0.049,0.281,0.168,0.517,0.215,0.791c0.025,0.149,0.275,0.149,0.301,0c0.07-0.412,0.246-0.829,0.344-1.249
		c0.787-0.53,1.42-1.298,1.791-2.308c0.064-0.177-0.189-0.254-0.285-0.121c-0.33,0.464-0.682,0.883-1.055,1.25
		c0.008-0.035,0.016-0.069,0.02-0.104c0.021-0.179-0.176-0.268-0.32-0.244c-0.535,0.087-0.815,0.649-0.949,1.121
		c-0.02,0.072-0.036,0.147-0.05,0.222c-0.063,0.035-0.125,0.07-0.188,0.103c0.004-0.172-0.019-0.346-0.056-0.52
		c-0.023-0.112-0.202-0.112-0.225,0c-0.05,0.236-0.069,0.453-0.086,0.686c-0.044,0.018-0.089,0.032-0.133,0.049
		c0.126-0.538,0.44-1.451-0.103-1.848c-0.041-0.029-0.096-0.044-0.152-0.051c0.035-0.021,0.068-0.052,0.094-0.101
		c0.178-0.347,0.393-0.675,0.555-1.03c0.137-0.3,0.132-0.596,0.088-0.917c-0.021-0.153-0.271-0.145-0.301,0
		c-0.124,0.619-0.496,1.141-0.781,1.692c-0.085,0.167,0.025,0.324,0.162,0.37c-0.029,0.009-0.059,0.021-0.081,0.037
		c-0.028,0.021-0.056,0.043-0.083,0.065v0c-0.002,0.001-0.004,0.005-0.007,0.006c-0.037,0.033-0.07,0.066-0.094,0.104
		c-0.327,0.422-0.386,1.235-0.491,1.744c-0.016,0.067-0.03,0.135-0.043,0.203c-0.178,0.015-0.357,0.022-0.543,0.017
		c0.051-0.061,0.1-0.123,0.146-0.185c0.116-0.159-0.109-0.373-0.267-0.267c-0.188,0.125-0.372,0.261-0.561,0.395
		c-0.117-0.017-0.235-0.034-0.357-0.059c-0.242-0.049-0.346,0.308-0.11,0.373c-0.354,0.218-0.729,0.393-1.152,0.445
		c-0.976,0.119-1.515-0.863-1.804-1.641c0-0.001,0.001-0.002,0.001-0.005c0.017-0.082-0.008-0.178-0.089-0.219
		c-0.082-0.041-0.167-0.054-0.239-0.054c-0.01,0-0.021,0.003-0.033,0.004c0.042-0.158,0.144-0.326,0.241-0.455
		c0.058-0.078-0.06-0.144-0.123-0.095c-0.131,0.103-0.241,0.224-0.354,0.346c-0.092,0.1-0.19,0.225-0.217,0.361
		c-0.068,0.343,0.297,0.488,0.563,0.393c0.291,0.895,0.801,1.728,1.812,1.885c0.797,0.124,1.582-0.278,2.172-0.829
		C64.433,50.102,64.706,50.116,64.977,50.112z"/>
	<path fill="#E6B54A" d="M67.448,40.557c0.053,0.015,0.104,0.015,0.155,0.012c0.048,0.023,0.099,0.045,0.151,0.064
		c0.023,0.096,0.044,0.193,0.063,0.29c0.05,0.243,0.44,0.243,0.489,0c0.005-0.027,0.012-0.056,0.018-0.084
		c0.104,0.047,0.201,0.105,0.284,0.182c0.221,0.207,0.555-0.13,0.331-0.33c-0.165-0.147-0.354-0.24-0.556-0.315
		c-0.003-0.086-0.018-0.169-0.05-0.249c0.259,0.104,0.534,0.158,0.796,0.154c0.176-0.003,0.174-0.264,0-0.272
		c-0.355-0.019-0.685-0.124-0.965-0.35c-0.339-0.274-0.43-0.681-0.68-1.015c-0.084-0.115-0.297-0.091-0.291,0.078
		c0.016,0.406,0.215,0.752,0.506,1.015c-0.008-0.001-0.017-0.002-0.023-0.003c-0.214-0.029-0.337,0.038-0.496,0.166
		c-0.137,0.111-0.135,0.381,0,0.491C67.264,40.458,67.342,40.529,67.448,40.557z"/>
	<path fill="#E6B54A" d="M62.686,44.46c-0.031,0.214-0.059,0.426-0.116,0.625c-0.026-0.029-0.052-0.059-0.076-0.086
		c-0.12-0.138-0.333,0.009-0.293,0.171c0.035,0.141,0.079,0.271,0.137,0.387c-0.036,0.044-0.075,0.086-0.119,0.126
		c-0.161,0.146,0.007,0.417,0.208,0.359c0.089-0.026,0.175-0.063,0.26-0.104c0.029,0.017,0.057,0.034,0.089,0.049
		c0.353,0.168,0.696,0.09,1.063,0.016c0.168-0.034,0.168-0.304,0-0.338c-0.198-0.041-0.394-0.09-0.589-0.14
		c0.178-0.188,0.316-0.41,0.382-0.65c0.182-0.666,0.23-1.715-0.404-2.139c-0.133-0.089-0.322-0.026-0.4,0.105
		C62.54,43.334,62.769,43.917,62.686,44.46z"/>
	<path fill="#E6B54A" d="M60.179,42.485c0.229,0.059,0.426,0.169,0.647,0.237c0.101,0.031,0.125,0.039,0.145,0.121
		c0.027,0.111-0.03,0.251-0.044,0.36c-0.02,0.157-0.059,0.313-0.092,0.467c-0.024,0.106,0.114,0.208,0.194,0.113
		c0.284-0.332,0.609-0.709,0.521-1.181c-0.042-0.232-0.203-0.401-0.396-0.522c-0.283-0.179-0.673-0.08-0.976-0.009
		C59.971,42.12,59.978,42.433,60.179,42.485z"/>
	<path fill="#E6B54A" d="M61.385,48.425c-0.169-0.278-0.562-0.336-0.795-0.102c-0.235,0.234-0.176,0.625,0.103,0.795
		c0.143,0.087,0.285,0.173,0.427,0.26c0.152,0.092,0.301,0.209,0.478,0.24c0.185,0.031,0.319-0.103,0.288-0.288
		c-0.03-0.177-0.147-0.326-0.239-0.479C61.559,48.71,61.472,48.567,61.385,48.425z"/>
	<path fill="#E6B54A" d="M64.504,52.16c-0.349-0.037-0.59-0.167-0.809-0.401c0.064-0.25,0.063-0.494-0.146-0.701
		c-0.254-0.255-0.682-0.255-0.937,0c-0.211,0.21-0.254,0.546-0.104,0.803c0.202,0.344,0.547,0.358,0.876,0.251
		c0.352,0.155,0.73,0.225,1.118,0.205C64.607,52.31,64.603,52.17,64.504,52.16z"/>
	<path fill="#E6B54A" d="M68.942,44.722c-0.025-0.168-0.311-0.168-0.338,0c-0.097,0.612-0.113,1.205-0.123,1.825
		c-0.006,0.377,0.591,0.377,0.584,0c-0.007-0.444-0.019-0.875-0.06-1.309c0.56-0.02,1.137-0.16,1.303-0.794
		c0.029-0.107-0.116-0.207-0.194-0.114c-0.184,0.217-0.273,0.477-0.555,0.593c-0.178,0.074-0.383,0.083-0.58,0.083
		C68.967,44.912,68.958,44.817,68.942,44.722z"/>
	<path fill="#E6B54A" d="M91.181,68.459c-2.135,0.133-4.218,0.785-6.214,1.518c-2.607,0.955-5.159,2.145-7.568,3.525
		c-2.35,1.348-4.607,2.955-6.605,4.785c-0.631,0.577-1.254,1.198-1.797,1.875c-0.035-0.786-0.068-1.572-0.096-2.358
		c-0.164-4.782,0.301-9.833-0.562-14.598c0.729,1.074,1.569,2.069,2.54,2.962c3.396,3.119,8.105,4.409,12.254,1.969
		c3.239-1.906,4.222-5.473,3.164-8.947c-1.054-3.466-3.607-6.424-6.448-8.614c0.476-0.035,0.945-0.087,1.403-0.153
		c3.945-0.573,7.727-2.667,9.977-6c1.951-2.892,2.195-6.956-0.066-9.741c-2.012-2.477-5.31-3.39-8.375-3.561
		c-1.391-0.078-2.818,0.019-4.208,0.288c0.555-1.019,1.034-2.08,1.446-3.165c1.511-3.987,1.52-8.677-1.284-12.091
		c-2.321-2.827-6.321-4.05-9.705-2.543c-3.363,1.497-5.688,4.774-7.204,8.014c-1.638,3.503-2.791,8.063-1.354,11.836
		c-0.19,0.088-0.377,0.183-0.561,0.284c0.313-3.201-1.051-6.585-2.492-9.349c-1.67-3.204-4.252-6.388-7.762-7.617
		c-3.712-1.3-7.363,1.096-9.275,4.201c-2.213,3.591-1.051,8.026,1.086,11.341c1.341,2.081,3.139,3.935,5.209,5.373
		c-0.377-0.052-0.753-0.096-1.124-0.135c-3.312-0.34-6.892-0.037-9.833,1.64c-3.175,1.811-4.51,5.361-4.476,8.868
		c0.035,3.554,1.258,7.786,4.691,9.464c3.593,1.758,7.899,0.29,11.26-1.312c1.677-0.799,3.273-1.766,4.8-2.825
		c-0.821,1.564-1.409,3.272-1.853,4.893c-0.97,3.545-1.277,7.57,0.1,11.055c1.195,3.025,4.296,5.797,7.762,5.203
		c3.278-0.561,5.413-3.971,6.708-6.731c0.45-0.959,0.84-1.942,1.168-2.944c-0.055,1.396-0.095,2.792-0.114,4.19
		c-0.055,4.008-0.035,8.007,0.031,12.015c0.065,3.995,0.087,7.993,0.216,11.986c0.064,1.987,0.121,3.975,0.172,5.963
		c0.053,2.031-0.025,4.092,0.275,6.102c0.132,0.878,1.635,0.879,1.766,0c0.091-0.607,0.142-1.22,0.172-1.834
		c0.344,0.22,0.88,0.098,1.007-0.367c0.551-2.018,0.363-4.08,0.315-6.152c-0.05-2.135-0.131-4.269-0.219-6.402
		c-0.062-1.482-0.137-2.966-0.217-4.448c0.521,0.231,1.084,0.394,1.555,0.548c1.285,0.421,2.665,0.59,4.014,0.566
		c2.723-0.045,5.328-1.139,7.523-2.693c4.852-3.434,8.051-9.173,9.619-14.803C92.145,69.028,91.739,68.424,91.181,68.459z
		 M63.809,52.772c-0.52-0.04-1.031-0.153-1.528-0.322c0.051-0.051,0.105-0.099,0.16-0.144c0.077-0.063-0.007-0.188-0.096-0.163
		c-0.142,0.04-0.29,0.095-0.425,0.17c-1.283-0.517-2.461-1.406-3.431-2.428c0.143-0.132,0.311-0.235,0.463-0.355
		c0.16-0.126-0.015-0.374-0.19-0.326c-0.154,0.043-0.42,0.14-0.64,0.279c-0.378-0.435-0.72-0.885-1.016-1.337
		c-0.493-0.754-0.895-1.614-1.104-2.507c-0.037-0.824,0.022-1.663,0.164-2.491c0.289-0.584,0.744-1.091,1.253-1.554
		c0.03-0.027-0.002-0.075-0.038-0.065c-0.36,0.086-0.668,0.212-0.935,0.368c1.027-3.673,3.922-7.225,7.992-7.261
		c0.4-0.004,0.787,0.028,1.158,0.09c0,0.027-0.001,0.054,0,0.082c0.009,0.202,0.207,0.395,0.419,0.32
		c0.144-0.051,0.272-0.124,0.392-0.213c2.842,0.862,4.662,3.621,5.031,6.644c0.312,2.555-0.344,5.877-1.958,8.244
		c-0.978,1.188-2.315,2.2-3.704,2.8C65.168,52.764,64.513,52.826,63.809,52.772z M81.096,54.765
		c2.133,2.322,4.303,5.886,3.102,9.128c-0.611,1.652-2.454,2.748-4.054,3.207c-2.162,0.622-4.37-0.091-6.213-1.242
		c-2-1.251-3.648-3.191-4.93-5.147c-0.611-0.934-1.16-1.934-1.642-2.94c-0.084-0.177-0.162-0.356-0.236-0.537
		c-0.04-0.866-0.194-1.724-0.559-2.463c0.543-0.233,1.068-0.522,1.569-0.873c0.858-0.603,1.481-1.481,1.955-2.443
		c0.563-0.639,1.05-1.354,1.462-2.101c0.123,0.152,0.289,0.271,0.504,0.324c1.637,0.407,3.104,0.66,4.612,1.497
		C78.34,52.103,79.805,53.359,81.096,54.765z M82.868,33.488c-0.072,0.501-0.113,0.987-0.127,1.512
		c-0.021,0.77-0.157,1.608,0.072,2.35c0.057,0.186,0.318,0.186,0.375,0c0.201-0.65,0.101-1.348,0.082-2.022
		c-0.017-0.63-0.053-1.22-0.137-1.826c1.84,0.133,3.599,0.641,5.029,1.545c2.73,1.726,2.747,5.23,1.242,7.791
		c-1.902,3.232-6.039,5.079-9.632,5.518c-1.2,0.147-2.425,0.139-3.622-0.037c-0.891-0.387-1.82-0.664-2.728-0.725
		c-0.309-0.122-0.612-0.257-0.91-0.407c0.313-0.905,0.528-1.854,0.643-2.82c1.065,1.006,2.95,0.888,4.301,0.723
		c2.13-0.261,4.102-1.185,6.255-1.291c0.105-0.005,0.139-0.169,0.026-0.192c-1.681-0.344-3.48-0.318-5.177-0.1
		c-0.98,0.125-1.958,0.174-2.944,0.09c-0.802-0.068-1.579-0.301-2.377-0.246c0.017-0.363,0.016-0.726,0.002-1.089
		c3.464-0.937,6.845-2.819,10.47-2.819c0.013,0,0.016-0.02,0.003-0.021c-1.89-0.277-3.709-0.263-5.595,0.032
		c-1.709,0.266-3.377,0.699-5.063,1.054c-0.154-0.876-0.402-1.733-0.75-2.545c0.054-0.051,0.106-0.106,0.153-0.172
		c0.037-0.052,0.078-0.101,0.117-0.15c0.137,0.002,0.265-0.002,0.385-0.014c0.007,0.373-0.035,0.743-0.089,1.049
		c-0.033,0.181,0.237,0.331,0.319,0.135c0.157-0.367,0.227-0.818,0.199-1.265c0.438-0.13,0.795-0.396,1.246-0.836
		c0.357-0.35,0.693-0.717,1.018-1.096c-0.02,0.344-0.031,0.689,0.063,1.021c0.048,0.167,0.291,0.167,0.338,0
		c0.129-0.449,0.063-0.919,0.045-1.381c-0.002-0.056-0.004-0.112-0.007-0.169c0.11-0.134,0.218-0.269,0.324-0.405
		c0.653-0.297,1.338-0.54,2.044-0.728c-0.003,0.09-0.007,0.18-0.008,0.271c-0.006,0.558-0.142,1.241,0.11,1.752
		c0.063,0.128,0.274,0.128,0.337,0c0.252-0.511,0.115-1.194,0.111-1.752c-0.002-0.137-0.007-0.271-0.014-0.404
		C80.267,33.532,81.583,33.42,82.868,33.488z M62.425,23.071c1.419-3.318,3.825-6.921,7.314-8.298
		c3.781-1.491,7.783,1.167,8.978,4.828c1.356,4.165-0.73,8.995-2.999,12.437c-0.063,0.094-0.129,0.185-0.192,0.277
		c-0.025,0.011-0.051,0.02-0.076,0.031c-1.777,0.739-3.528,1.804-4.367,3.519c-0.371-0.466-0.791-0.886-1.248-1.257
		c0.58-1.091,1.002-2.327,1.535-3.411c0.754-1.532,1.547-3.083,2.5-4.5c0.09-0.131-0.104-0.27-0.214-0.165
		c-1.187,1.148-2.17,2.392-3.021,3.805c-0.657,1.089-1.423,2.264-1.984,3.465c-0.414-0.235-0.848-0.435-1.295-0.6
		c0.25-0.938,0.33-1.991,0.446-2.658c0.347-1.99,0.681-4.676,2.433-5.983c0.08-0.06,0.014-0.177-0.078-0.134
		c-1.848,0.862-2.543,2.69-3.027,4.577c-0.277,1.077-0.481,2.171-0.768,3.246c-0.053,0.201-0.127,0.401-0.207,0.6
		c-1.111-0.244-2.273-0.28-3.411-0.093c0.31-0.979,0.252-2.194,0.262-3.181c0.009-1.046-0.089-2.05-0.534-3.007
		c-0.058-0.123-0.248-0.034-0.214,0.091c0.536,2.023-0.851,4.302-0.205,6.24c-0.083,0.021-0.168,0.042-0.251,0.065
		c-0.236,0.066-0.466,0.143-0.693,0.228C60.086,29.93,61.132,26.094,62.425,23.071z M41.425,27.261
		c-0.988-3.759,1.343-8.127,5.246-9.016c3.619-0.824,6.816,2.823,8.645,5.415c2.067,2.93,3.667,6.571,3.891,10.206
		c-0.185-0.32-0.436-0.585-0.692-0.89c-0.44-0.522-0.793-1.103-1.11-1.706c-0.63-1.197-1.072-2.632-1.379-3.946
		c-0.012-0.055-0.101-0.058-0.113,0c-0.312,1.552-0.235,2.938,0.322,4.439c0.386,1.042,1.03,2.5,2.06,3.102
		c-0.11,0.093-0.219,0.187-0.325,0.284c-0.412-0.656-1.049-1.152-1.6-1.694c-0.77-0.756-1.5-1.55-2.255-2.322
		c-1.351-1.382-2.706-2.924-3.685-4.594c-0.099-0.168-0.386-0.058-0.32,0.135c0.631,1.84,1.457,3.472,2.533,5.095
		c0.564,0.848,1.195,1.632,1.848,2.412c0.382,0.455,0.77,0.976,1.202,1.438c-0.725-0.17-1.518-0.227-2.181-0.439
		c-1.303-0.419-2.617-1.032-3.866-1.573c-0.153-0.066-0.326,0.112-0.188,0.244c1.088,1.05,2.105,1.994,3.482,2.688
		c0.882,0.444,2.082,0.956,3.117,0.811c-0.371,0.535-0.706,1.097-1.003,1.673c-0.051-0.105-0.126-0.206-0.234-0.297
		c-0.68-0.572-1.732-0.517-2.58-0.745c-1-0.269-1.941-0.7-2.848-1.195C45.773,34.805,42.491,31.313,41.425,27.261z M54.427,40.391
		c-0.002,0.005-0.005,0.01-0.007,0.016c-0.003-0.002-0.007-0.005-0.011-0.008C54.416,40.396,54.421,40.394,54.427,40.391z
		 M38.437,55.899c-3.588-0.589-4.715-4.4-4.863-7.578c-0.163-3.463,1.298-6.268,4.444-7.774c4.964-2.378,11.107-0.842,16.158,0.512
		c-0.099,0.281-0.19,0.563-0.271,0.844c-0.103,0.356-0.187,0.715-0.256,1.077c-1.382-0.517-3.295-0.21-4.724-0.095
		c-1.526,0.124-3.289,0.118-4.729,0.684c-0.13,0.05-0.13,0.212,0,0.263c1.441,0.567,3.203,0.561,4.729,0.684
		c0.604,0.049,1.293,0.131,1.994,0.172c-0.842,0.411-1.688,0.811-2.545,1.19c-2.609,1.158-5.351,1.912-8.082,2.708
		c-0.072,0.021-0.104,0.144-0.023,0.179c2.53,1.071,5.445,0.057,7.869-0.844c1.424-0.529,2.818-1.145,4.204-1.77
		c0.327-0.147,0.718-0.295,1.121-0.46c0.014,0.271,0.034,0.542,0.066,0.811c-0.264,0.139-0.517,0.309-0.82,0.494
		c-0.771,0.47-1.604,0.838-2.407,1.249c-0.708,0.363-1.422,0.717-2.121,1.1c-0.605,0.33-1.042,0.926-1.5,1.428
		c-0.045,0.049,0.011,0.122,0.07,0.091c0.665-0.339,1.403-0.387,2.095-0.67c0.836-0.343,1.693-0.642,2.539-0.966
		c0.728-0.28,1.702-0.626,2.447-1.153c0.08,0.3,0.174,0.596,0.28,0.887c-0.047,0.028-0.093,0.056-0.137,0.085
		c-0.68,0.456-1.293,1.009-1.948,1.5c-1.414,1.058-2.904,2.014-4.45,2.867C44.927,54.875,41.546,56.409,38.437,55.899z
		 M63.863,63.481c-0.899,2.974-2.447,6.721-5.303,8.322c-2.578,1.446-5.386-1.327-6.231-3.657
		c-1.231-3.394-0.753-7.471,0.131-10.888c0.544-2.106,1.324-4.415,2.709-6.161c0.221,0.341,0.465,0.668,0.729,0.982
		c-0.682,1.081-1.189,2.372-1.691,3.408c-0.808,1.664-1.524,3.414-1.512,5.286c0.003,0.48,0.724,0.591,0.843,0.114
		c0.475-1.903,1.203-3.648,2.152-5.362c0.398-0.718,0.934-1.488,1.354-2.291c0.059,0.05,0.117,0.102,0.178,0.15
		c0.407,0.332,0.839,0.625,1.289,0.879c-0.661,1.037-1.04,2.303-1.316,3.441c-0.521,2.148-0.89,4.417-0.922,6.624
		c-0.007,0.492,0.645,0.519,0.804,0.109c0.712-1.83,0.904-3.813,1.381-5.716c0.336-1.339,0.839-2.592,1.345-3.852
		c1.008,0.383,2.07,0.584,3.136,0.602c-0.096,0.186-0.186,0.378-0.261,0.582c-0.311,0.842-0.443,1.797-0.589,2.68
		c-0.275,1.664-0.308,3.308-0.016,4.967c0.062,0.352,0.619,0.263,0.612-0.083c-0.055-2.81,0.542-5.463,1.094-8.171
		c0.294-0.022,0.587-0.058,0.879-0.109C65.464,57.862,64.581,61.107,63.863,63.481z M82.09,82.508
		c-1.896,1.523-4.232,2.578-6.665,2.788c-1.294,0.112-2.575-0.064-3.821-0.414c-0.778-0.219-1.595-0.747-2.419-0.954
		c-0.005-0.109-0.011-0.219-0.017-0.328c0.186-0.141,0.364-0.311,0.564-0.499c0.398-0.375,0.815-0.731,1.24-1.077
		c0.622,0.219,1.34,0.193,1.99,0.219c0.934,0.038,1.865,0.109,2.797,0.15c1.566,0.07,3.116,0.021,4.464-0.87
		c0.126-0.084,0.049-0.292-0.105-0.25c-1.515,0.413-3.354,0.06-4.88-0.159c-0.73-0.104-1.643-0.342-2.527-0.436
		c1.172-0.857,2.391-1.656,3.625-2.42c0.075,0.053,0.164,0.082,0.262,0.076c0.54-0.032,1.019-0.217,1.547-0.336
		c0.77-0.173,1.583-0.152,2.365-0.119c1.308,0.058,2.604,0.2,3.913,0.222c0.289,0.005,0.341-0.42,0.067-0.498
		c-1.425-0.405-2.858-0.783-4.344-0.878c-0.353-0.022-0.738-0.035-1.133-0.024c2.668-1.452,5.426-2.669,8.266-3.796
		c0.041-0.016,0.034-0.072-0.011-0.076c-1.739-0.16-3.385,0.455-4.999,1.041c-2.039,0.742-3.979,1.708-5.88,2.748
		c-0.948,0.519-1.884,1.063-2.802,1.633c1.578-1.166,3.279-2.162,4.813-3.033c2.286-1.299,4.604-2.512,7.051-3.482
		c1.449-0.575,2.989-1.141,4.549-1.42C88.542,75.007,85.948,79.406,82.09,82.508z"/>
</g>
</svg>
