<?xml version="1.0" encoding="UTF-8" standalone="no"?>
<!-- Generator: Adobe Illustrator 16.0.0, SVG Export Plug-In . SVG Version: 6.00 Build 0)  -->

<svg
   xmlns:dc="http://purl.org/dc/elements/1.1/"
   xmlns:cc="http://creativecommons.org/ns#"
   xmlns:rdf="http://www.w3.org/1999/02/22-rdf-syntax-ns#"
   xmlns:svg="http://www.w3.org/2000/svg"
   xmlns="http://www.w3.org/2000/svg"
   xmlns:sodipodi="http://sodipodi.sourceforge.net/DTD/sodipodi-0.dtd"
   xmlns:inkscape="http://www.inkscape.org/namespaces/inkscape"
   version="1.1"
   id="Camada_1"
   x="0px"
   y="0px"
   width="61.525837"
   height="92.823753"
   viewBox="0 0 61.525839 92.823753"
   enable-background="new 0 0 132.704 118.665"
   xml:space="preserve"
   sodipodi:docname="fparte.svg"
   inkscape:version="0.92.3 (2405546, 2018-03-11)"><metadata
   id="metadata45"><rdf:RDF><cc:Work
       rdf:about=""><dc:format>image/svg+xml</dc:format><dc:type
         rdf:resource="http://purl.org/dc/dcmitype/StillImage" /></cc:Work></rdf:RDF></metadata><defs
   id="defs43" /><sodipodi:namedview
   pagecolor="#ffffff"
   bordercolor="#666666"
   borderopacity="1"
   objecttolerance="10"
   gridtolerance="10"
   guidetolerance="10"
   inkscape:pageopacity="0"
   inkscape:pageshadow="2"
   inkscape:window-width="1366"
   inkscape:window-height="712"
   id="namedview41"
   showgrid="false"
   inkscape:zoom="1.988792"
   inkscape:cx="-26.242142"
   inkscape:cy="46.451375"
   inkscape:window-x="0"
   inkscape:window-y="0"
   inkscape:window-maximized="1"
   inkscape:current-layer="Camada_1" />
<g
   id="g38"
   transform="translate(-31.250368,-12.960122)">
	<path
   d="m 86.402,38.721 c -0.021,0.185 0.251,0.198 0.306,0.042 0.344,-0.987 0.228,-2.433 -0.832,-2.938 -0.067,-0.032 -0.123,0.06 -0.059,0.101 0.928,0.605 0.693,1.867 0.585,2.795 z"
   id="path2"
   inkscape:connector-curvature="0"
   style="fill:#e6b54a" />
	<path
   d="m 89.52,39.433 -0.059,-2.846 c -0.002,-0.075 -0.115,-0.075 -0.117,0 l -0.059,2.846 c -10e-4,0.15 0.237,0.15 0.235,0 z"
   id="path4"
   inkscape:connector-curvature="0"
   style="fill:#e6b54a" />
	<path
   d="m 72.899,53.859 c -0.754,-0.981 -1.438,-1.939 -1.924,-3.083 -0.036,-0.083 -0.166,-0.022 -0.143,0.06 0.71,2.536 2.494,5.407 4.956,6.55 0.198,0.092 0.391,-0.137 0.236,-0.306 -1.016,-1.117 -2.195,-2.013 -3.125,-3.221 z"
   id="path6"
   inkscape:connector-curvature="0"
   style="fill:#e6b54a" />
	<path
   d="m 70.431,53.086 c 0.122,-0.273 -0.19,-0.557 -0.428,-0.331 -1.065,1.018 -0.805,2.322 -0.251,3.56 0.385,0.861 1.088,1.642 1.668,2.377 0.594,0.751 1.208,1.62 2.224,1.765 0.267,0.038 0.507,-0.104 0.519,-0.395 0.051,-1.347 -1.297,-2.377 -2.076,-3.336 -0.704,-0.865 -2.135,-2.558 -1.656,-3.64 z"
   id="path8"
   inkscape:connector-curvature="0"
   style="fill:#e6b54a" />
	<path
   d="m 52.412,26.687 c 0.076,0 0.076,-0.117 0,-0.117 -0.076,0 -0.076,0.117 0,0.117 z"
   id="path10"
   inkscape:connector-curvature="0"
   style="fill:#e6b54a" />
	<path
   d="m 59.525,43.36 c 0.202,0.007 0.37,-0.174 0.37,-0.37 0,-0.208 -0.168,-0.363 -0.37,-0.37 -0.011,-10e-4 -0.018,-10e-4 -0.025,-10e-4 -0.016,-0.006 -0.072,-0.023 -0.069,-0.021 -0.054,-0.026 -0.087,-0.05 -0.118,-0.078 -0.087,-0.08 -0.115,-0.141 -0.136,-0.262 -0.036,-0.199 -0.274,-0.308 -0.456,-0.259 -0.208,0.058 -0.293,0.257 -0.258,0.456 0.088,0.502 0.562,0.887 1.062,0.905 z"
   id="path12"
   inkscape:connector-curvature="0"
   style="fill:#e6b54a" />
	<path
   d="m 63.962,40.546 c 0.104,-0.67 0.413,-1.278 1.026,-1.606 0.287,-0.154 0.032,-0.591 -0.256,-0.438 -0.749,0.401 -1.208,1.144 -1.115,1.997 0.021,0.181 0.312,0.259 0.345,0.047 z"
   id="path14"
   inkscape:connector-curvature="0"
   style="fill:#e6b54a" />
	<path
   d="m 64.458,44.955 c -0.167,0.068 -0.167,0.271 0,0.339 0.116,0.046 0.261,0.035 0.388,0.043 0.123,0.006 0.247,0.014 0.37,0.021 0.302,0.018 0.302,-0.485 0,-0.467 -0.123,0.007 -0.247,0.014 -0.37,0.021 -0.127,0.007 -0.271,-0.005 -0.388,0.043 z"
   id="path16"
   inkscape:connector-curvature="0"
   style="fill:#e6b54a" />
	<path
   d="m 59.397,47.039 c -0.498,0.223 -1.004,0.007 -1.126,-0.539 -0.036,-0.162 -0.313,-0.175 -0.338,0 -0.148,1.04 0.915,1.363 1.72,0.977 0.297,-0.143 0.038,-0.569 -0.256,-0.438 z"
   id="path18"
   inkscape:connector-curvature="0"
   style="fill:#e6b54a" />
	<path
   d="m 61.696,38.142 c 0.188,-0.052 0.23,-0.244 0.317,-0.396 0.07,0.117 0.129,0.241 0.189,0.362 0.112,0.225 0.448,0.027 0.336,-0.196 -0.095,-0.191 -0.251,-0.657 -0.537,-0.629 -0.138,0.013 -0.22,0.107 -0.292,0.216 -0.097,0.146 -0.25,0.37 -0.182,0.547 0.028,0.07 0.092,0.117 0.169,0.096 z"
   id="path20"
   inkscape:connector-curvature="0"
   style="fill:#e6b54a" />
	<path
   d="m 64.977,50.112 c -0.143,0.701 -0.258,1.41 -0.209,2.125 0.039,0.587 0.83,0.566 0.896,0 0.079,-0.679 0.268,-1.37 0.445,-2.049 0.22,-0.035 0.395,-0.147 0.516,-0.345 0.122,-0.04 0.241,-0.086 0.359,-0.134 0.049,0.281 0.168,0.517 0.215,0.791 0.025,0.149 0.275,0.149 0.301,0 0.07,-0.412 0.246,-0.829 0.344,-1.249 0.787,-0.53 1.42,-1.298 1.791,-2.308 0.064,-0.177 -0.189,-0.254 -0.285,-0.121 -0.33,0.464 -0.682,0.883 -1.055,1.25 0.008,-0.035 0.016,-0.069 0.02,-0.104 0.021,-0.179 -0.176,-0.268 -0.32,-0.244 -0.535,0.087 -0.815,0.649 -0.949,1.121 -0.02,0.072 -0.036,0.147 -0.05,0.222 -0.063,0.035 -0.125,0.07 -0.188,0.103 0.004,-0.172 -0.019,-0.346 -0.056,-0.52 -0.023,-0.112 -0.202,-0.112 -0.225,0 -0.05,0.236 -0.069,0.453 -0.086,0.686 -0.044,0.018 -0.089,0.032 -0.133,0.049 0.126,-0.538 0.44,-1.451 -0.103,-1.848 -0.041,-0.029 -0.096,-0.044 -0.152,-0.051 0.035,-0.021 0.068,-0.052 0.094,-0.101 0.178,-0.347 0.393,-0.675 0.555,-1.03 0.137,-0.3 0.132,-0.596 0.088,-0.917 -0.021,-0.153 -0.271,-0.145 -0.301,0 -0.124,0.619 -0.496,1.141 -0.781,1.692 -0.085,0.167 0.025,0.324 0.162,0.37 -0.029,0.009 -0.059,0.021 -0.081,0.037 -0.028,0.021 -0.056,0.043 -0.083,0.065 v 0 c -0.002,0.001 -0.004,0.005 -0.007,0.006 -0.037,0.033 -0.07,0.066 -0.094,0.104 -0.327,0.422 -0.386,1.235 -0.491,1.744 -0.016,0.067 -0.03,0.135 -0.043,0.203 -0.178,0.015 -0.357,0.022 -0.543,0.017 0.051,-0.061 0.1,-0.123 0.146,-0.185 0.116,-0.159 -0.109,-0.373 -0.267,-0.267 -0.188,0.125 -0.372,0.261 -0.561,0.395 -0.117,-0.017 -0.235,-0.034 -0.357,-0.059 -0.242,-0.049 -0.346,0.308 -0.11,0.373 -0.354,0.218 -0.729,0.393 -1.152,0.445 -0.976,0.119 -1.515,-0.863 -1.804,-1.641 0,-0.001 10e-4,-0.002 10e-4,-0.005 0.017,-0.082 -0.008,-0.178 -0.089,-0.219 -0.082,-0.041 -0.167,-0.054 -0.239,-0.054 -0.01,0 -0.021,0.003 -0.033,0.004 0.042,-0.158 0.144,-0.326 0.241,-0.455 0.058,-0.078 -0.06,-0.144 -0.123,-0.095 -0.131,0.103 -0.241,0.224 -0.354,0.346 -0.092,0.1 -0.19,0.225 -0.217,0.361 -0.068,0.343 0.297,0.488 0.563,0.393 0.291,0.895 0.801,1.728 1.812,1.885 0.797,0.124 1.582,-0.278 2.172,-0.829 0.276,0.033 0.549,0.047 0.82,0.043 z"
   id="path22"
   inkscape:connector-curvature="0"
   style="fill:#e6b54a" />
	<path
   d="m 67.448,40.557 c 0.053,0.015 0.104,0.015 0.155,0.012 0.048,0.023 0.099,0.045 0.151,0.064 0.023,0.096 0.044,0.193 0.063,0.29 0.05,0.243 0.44,0.243 0.489,0 0.005,-0.027 0.012,-0.056 0.018,-0.084 0.104,0.047 0.201,0.105 0.284,0.182 0.221,0.207 0.555,-0.13 0.331,-0.33 -0.165,-0.147 -0.354,-0.24 -0.556,-0.315 -0.003,-0.086 -0.018,-0.169 -0.05,-0.249 0.259,0.104 0.534,0.158 0.796,0.154 0.176,-0.003 0.174,-0.264 0,-0.272 -0.355,-0.019 -0.685,-0.124 -0.965,-0.35 -0.339,-0.274 -0.43,-0.681 -0.68,-1.015 -0.084,-0.115 -0.297,-0.091 -0.291,0.078 0.016,0.406 0.215,0.752 0.506,1.015 -0.008,-0.001 -0.017,-0.002 -0.023,-0.003 -0.214,-0.029 -0.337,0.038 -0.496,0.166 -0.137,0.111 -0.135,0.381 0,0.491 0.084,0.067 0.162,0.138 0.268,0.166 z"
   id="path24"
   inkscape:connector-curvature="0"
   style="fill:#e6b54a" />
	<path
   d="m 62.686,44.46 c -0.031,0.214 -0.059,0.426 -0.116,0.625 -0.026,-0.029 -0.052,-0.059 -0.076,-0.086 -0.12,-0.138 -0.333,0.009 -0.293,0.171 0.035,0.141 0.079,0.271 0.137,0.387 -0.036,0.044 -0.075,0.086 -0.119,0.126 -0.161,0.146 0.007,0.417 0.208,0.359 0.089,-0.026 0.175,-0.063 0.26,-0.104 0.029,0.017 0.057,0.034 0.089,0.049 0.353,0.168 0.696,0.09 1.063,0.016 0.168,-0.034 0.168,-0.304 0,-0.338 -0.198,-0.041 -0.394,-0.09 -0.589,-0.14 0.178,-0.188 0.316,-0.41 0.382,-0.65 0.182,-0.666 0.23,-1.715 -0.404,-2.139 -0.133,-0.089 -0.322,-0.026 -0.4,0.105 -0.288,0.493 -0.059,1.076 -0.142,1.619 z"
   id="path26"
   inkscape:connector-curvature="0"
   style="fill:#e6b54a" />
	<path
   d="m 60.179,42.485 c 0.229,0.059 0.426,0.169 0.647,0.237 0.101,0.031 0.125,0.039 0.145,0.121 0.027,0.111 -0.03,0.251 -0.044,0.36 -0.02,0.157 -0.059,0.313 -0.092,0.467 -0.024,0.106 0.114,0.208 0.194,0.113 0.284,-0.332 0.609,-0.709 0.521,-1.181 C 61.508,42.37 61.347,42.201 61.154,42.08 60.871,41.901 60.481,42 60.178,42.071 c -0.207,0.049 -0.2,0.362 0.001,0.414 z"
   id="path28"
   inkscape:connector-curvature="0"
   style="fill:#e6b54a" />
	<path
   d="m 61.385,48.425 c -0.169,-0.278 -0.562,-0.336 -0.795,-0.102 -0.235,0.234 -0.176,0.625 0.103,0.795 0.143,0.087 0.285,0.173 0.427,0.26 0.152,0.092 0.301,0.209 0.478,0.24 0.185,0.031 0.319,-0.103 0.288,-0.288 -0.03,-0.177 -0.147,-0.326 -0.239,-0.479 -0.088,-0.141 -0.175,-0.284 -0.262,-0.426 z"
   id="path30"
   inkscape:connector-curvature="0"
   style="fill:#e6b54a" />
	<path
   d="m 64.504,52.16 c -0.349,-0.037 -0.59,-0.167 -0.809,-0.401 0.064,-0.25 0.063,-0.494 -0.146,-0.701 -0.254,-0.255 -0.682,-0.255 -0.937,0 -0.211,0.21 -0.254,0.546 -0.104,0.803 0.202,0.344 0.547,0.358 0.876,0.251 0.352,0.155 0.73,0.225 1.118,0.205 0.105,-0.007 0.101,-0.147 0.002,-0.157 z"
   id="path32"
   inkscape:connector-curvature="0"
   style="fill:#e6b54a" />
	<path
   d="m 68.942,44.722 c -0.025,-0.168 -0.311,-0.168 -0.338,0 -0.097,0.612 -0.113,1.205 -0.123,1.825 -0.006,0.377 0.591,0.377 0.584,0 -0.007,-0.444 -0.019,-0.875 -0.06,-1.309 0.56,-0.02 1.137,-0.16 1.303,-0.794 0.029,-0.107 -0.116,-0.207 -0.194,-0.114 -0.184,0.217 -0.273,0.477 -0.555,0.593 -0.178,0.074 -0.383,0.083 -0.58,0.083 -0.012,-0.094 -0.021,-0.189 -0.037,-0.284 z"
   id="path34"
   inkscape:connector-curvature="0"
   style="fill:#e6b54a" />
	<path
   d="m 91.181,68.459 c -2.135,0.133 -4.218,0.785 -6.214,1.518 -2.607,0.955 -5.159,2.145 -7.568,3.525 -2.35,1.348 -4.607,2.955 -6.605,4.785 -0.631,0.577 -1.254,1.198 -1.797,1.875 -0.035,-0.786 -0.068,-1.572 -0.096,-2.358 -0.164,-4.782 0.301,-9.833 -0.562,-14.598 0.729,1.074 1.569,2.069 2.54,2.962 3.396,3.119 8.105,4.409 12.254,1.969 3.239,-1.906 4.222,-5.473 3.164,-8.947 -1.054,-3.466 -3.607,-6.424 -6.448,-8.614 0.476,-0.035 0.945,-0.087 1.403,-0.153 3.945,-0.573 7.727,-2.667 9.977,-6 1.951,-2.892 2.195,-6.956 -0.066,-9.741 -2.012,-2.477 -5.31,-3.39 -8.375,-3.561 -1.391,-0.078 -2.818,0.019 -4.208,0.288 0.555,-1.019 1.034,-2.08 1.446,-3.165 1.511,-3.987 1.52,-8.677 -1.284,-12.091 -2.321,-2.827 -6.321,-4.05 -9.705,-2.543 -3.363,1.497 -5.688,4.774 -7.204,8.014 -1.638,3.503 -2.791,8.063 -1.354,11.836 -0.19,0.088 -0.377,0.183 -0.561,0.284 0.313,-3.201 -1.051,-6.585 -2.492,-9.349 -1.67,-3.204 -4.252,-6.388 -7.762,-7.617 -3.712,-1.3 -7.363,1.096 -9.275,4.201 -2.213,3.591 -1.051,8.026 1.086,11.341 1.341,2.081 3.139,3.935 5.209,5.373 -0.377,-0.052 -0.753,-0.096 -1.124,-0.135 -3.312,-0.34 -6.892,-0.037 -9.833,1.64 -3.175,1.811 -4.51,5.361 -4.476,8.868 0.035,3.554 1.258,7.786 4.691,9.464 3.593,1.758 7.899,0.29 11.26,-1.312 1.677,-0.799 3.273,-1.766 4.8,-2.825 -0.821,1.564 -1.409,3.272 -1.853,4.893 -0.97,3.545 -1.277,7.57 0.1,11.055 1.195,3.025 4.296,5.797 7.762,5.203 3.278,-0.561 5.413,-3.971 6.708,-6.731 0.45,-0.959 0.84,-1.942 1.168,-2.944 -0.055,1.396 -0.095,2.792 -0.114,4.19 -0.055,4.008 -0.035,8.007 0.031,12.015 0.065,3.995 0.087,7.993 0.216,11.986 0.064,1.987 0.121,3.975 0.172,5.963 0.053,2.031 -0.025,4.092 0.275,6.102 0.132,0.878 1.635,0.879 1.766,0 0.091,-0.607 0.142,-1.22 0.172,-1.834 0.344,0.22 0.88,0.098 1.007,-0.367 0.551,-2.018 0.363,-4.08 0.315,-6.152 -0.05,-2.135 -0.131,-4.269 -0.219,-6.402 -0.062,-1.482 -0.137,-2.966 -0.217,-4.448 0.521,0.231 1.084,0.394 1.555,0.548 1.285,0.421 2.665,0.59 4.014,0.566 2.723,-0.045 5.328,-1.139 7.523,-2.693 4.852,-3.434 8.051,-9.173 9.619,-14.803 0.143,-0.512 -0.263,-1.116 -0.821,-1.081 z M 63.809,52.772 c -0.52,-0.04 -1.031,-0.153 -1.528,-0.322 0.051,-0.051 0.105,-0.099 0.16,-0.144 0.077,-0.063 -0.007,-0.188 -0.096,-0.163 -0.142,0.04 -0.29,0.095 -0.425,0.17 -1.283,-0.517 -2.461,-1.406 -3.431,-2.428 0.143,-0.132 0.311,-0.235 0.463,-0.355 0.16,-0.126 -0.015,-0.374 -0.19,-0.326 -0.154,0.043 -0.42,0.14 -0.64,0.279 -0.378,-0.435 -0.72,-0.885 -1.016,-1.337 -0.493,-0.754 -0.895,-1.614 -1.104,-2.507 -0.037,-0.824 0.022,-1.663 0.164,-2.491 0.289,-0.584 0.744,-1.091 1.253,-1.554 0.03,-0.027 -0.002,-0.075 -0.038,-0.065 -0.36,0.086 -0.668,0.212 -0.935,0.368 1.027,-3.673 3.922,-7.225 7.992,-7.261 0.4,-0.004 0.787,0.028 1.158,0.09 0,0.027 -0.001,0.054 0,0.082 0.009,0.202 0.207,0.395 0.419,0.32 0.144,-0.051 0.272,-0.124 0.392,-0.213 2.842,0.862 4.662,3.621 5.031,6.644 0.312,2.555 -0.344,5.877 -1.958,8.244 -0.978,1.188 -2.315,2.2 -3.704,2.8 -0.608,0.161 -1.263,0.223 -1.967,0.169 z m 17.287,1.993 c 2.133,2.322 4.303,5.886 3.102,9.128 -0.611,1.652 -2.454,2.748 -4.054,3.207 -2.162,0.622 -4.37,-0.091 -6.213,-1.242 -2,-1.251 -3.648,-3.191 -4.93,-5.147 -0.611,-0.934 -1.16,-1.934 -1.642,-2.94 -0.084,-0.177 -0.162,-0.356 -0.236,-0.537 -0.04,-0.866 -0.194,-1.724 -0.559,-2.463 0.543,-0.233 1.068,-0.522 1.569,-0.873 0.858,-0.603 1.481,-1.481 1.955,-2.443 0.563,-0.639 1.05,-1.354 1.462,-2.101 0.123,0.152 0.289,0.271 0.504,0.324 1.637,0.407 3.104,0.66 4.612,1.497 1.674,0.928 3.139,2.184 4.43,3.59 z m 1.772,-21.277 c -0.072,0.501 -0.113,0.987 -0.127,1.512 -0.021,0.77 -0.157,1.608 0.072,2.35 0.057,0.186 0.318,0.186 0.375,0 0.201,-0.65 0.101,-1.348 0.082,-2.022 -0.017,-0.63 -0.053,-1.22 -0.137,-1.826 1.84,0.133 3.599,0.641 5.029,1.545 2.73,1.726 2.747,5.23 1.242,7.791 -1.902,3.232 -6.039,5.079 -9.632,5.518 -1.2,0.147 -2.425,0.139 -3.622,-0.037 -0.891,-0.387 -1.82,-0.664 -2.728,-0.725 -0.309,-0.122 -0.612,-0.257 -0.91,-0.407 0.313,-0.905 0.528,-1.854 0.643,-2.82 1.065,1.006 2.95,0.888 4.301,0.723 2.13,-0.261 4.102,-1.185 6.255,-1.291 0.105,-0.005 0.139,-0.169 0.026,-0.192 -1.681,-0.344 -3.48,-0.318 -5.177,-0.1 -0.98,0.125 -1.958,0.174 -2.944,0.09 -0.802,-0.068 -1.579,-0.301 -2.377,-0.246 0.017,-0.363 0.016,-0.726 0.002,-1.089 3.464,-0.937 6.845,-2.819 10.47,-2.819 0.013,0 0.016,-0.02 0.003,-0.021 -1.89,-0.277 -3.709,-0.263 -5.595,0.032 -1.709,0.266 -3.377,0.699 -5.063,1.054 -0.154,-0.876 -0.402,-1.733 -0.75,-2.545 0.054,-0.051 0.106,-0.106 0.153,-0.172 0.037,-0.052 0.078,-0.101 0.117,-0.15 0.137,0.002 0.265,-0.002 0.385,-0.014 0.007,0.373 -0.035,0.743 -0.089,1.049 -0.033,0.181 0.237,0.331 0.319,0.135 0.157,-0.367 0.227,-0.818 0.199,-1.265 0.438,-0.13 0.795,-0.396 1.246,-0.836 0.357,-0.35 0.693,-0.717 1.018,-1.096 -0.02,0.344 -0.031,0.689 0.063,1.021 0.048,0.167 0.291,0.167 0.338,0 0.129,-0.449 0.063,-0.919 0.045,-1.381 -0.002,-0.056 -0.004,-0.112 -0.007,-0.169 0.11,-0.134 0.218,-0.269 0.324,-0.405 0.653,-0.297 1.338,-0.54 2.044,-0.728 -0.003,0.09 -0.007,0.18 -0.008,0.271 -0.006,0.558 -0.142,1.241 0.11,1.752 0.063,0.128 0.274,0.128 0.337,0 0.252,-0.511 0.115,-1.194 0.111,-1.752 -0.002,-0.137 -0.007,-0.271 -0.014,-0.404 1.27,-0.287 2.586,-0.399 3.871,-0.331 z M 62.425,23.071 c 1.419,-3.318 3.825,-6.921 7.314,-8.298 3.781,-1.491 7.783,1.167 8.978,4.828 1.356,4.165 -0.73,8.995 -2.999,12.437 -0.063,0.094 -0.129,0.185 -0.192,0.277 -0.025,0.011 -0.051,0.02 -0.076,0.031 -1.777,0.739 -3.528,1.804 -4.367,3.519 -0.371,-0.466 -0.791,-0.886 -1.248,-1.257 0.58,-1.091 1.002,-2.327 1.535,-3.411 0.754,-1.532 1.547,-3.083 2.5,-4.5 0.09,-0.131 -0.104,-0.27 -0.214,-0.165 -1.187,1.148 -2.17,2.392 -3.021,3.805 -0.657,1.089 -1.423,2.264 -1.984,3.465 -0.414,-0.235 -0.848,-0.435 -1.295,-0.6 0.25,-0.938 0.33,-1.991 0.446,-2.658 0.347,-1.99 0.681,-4.676 2.433,-5.983 0.08,-0.06 0.014,-0.177 -0.078,-0.134 -1.848,0.862 -2.543,2.69 -3.027,4.577 -0.277,1.077 -0.481,2.171 -0.768,3.246 -0.053,0.201 -0.127,0.401 -0.207,0.6 -1.111,-0.244 -2.273,-0.28 -3.411,-0.093 0.31,-0.979 0.252,-2.194 0.262,-3.181 0.009,-1.046 -0.089,-2.05 -0.534,-3.007 -0.058,-0.123 -0.248,-0.034 -0.214,0.091 0.536,2.023 -0.851,4.302 -0.205,6.24 -0.083,0.021 -0.168,0.042 -0.251,0.065 -0.236,0.066 -0.466,0.143 -0.693,0.228 -1.023,-3.263 0.023,-7.099 1.316,-10.122 z m -21,4.19 c -0.988,-3.759 1.343,-8.127 5.246,-9.016 3.619,-0.824 6.816,2.823 8.645,5.415 2.067,2.93 3.667,6.571 3.891,10.206 -0.185,-0.32 -0.436,-0.585 -0.692,-0.89 -0.44,-0.522 -0.793,-1.103 -1.11,-1.706 -0.63,-1.197 -1.072,-2.632 -1.379,-3.946 -0.012,-0.055 -0.101,-0.058 -0.113,0 -0.312,1.552 -0.235,2.938 0.322,4.439 0.386,1.042 1.03,2.5 2.06,3.102 -0.11,0.093 -0.219,0.187 -0.325,0.284 -0.412,-0.656 -1.049,-1.152 -1.6,-1.694 -0.77,-0.756 -1.5,-1.55 -2.255,-2.322 -1.351,-1.382 -2.706,-2.924 -3.685,-4.594 -0.099,-0.168 -0.386,-0.058 -0.32,0.135 0.631,1.84 1.457,3.472 2.533,5.095 0.564,0.848 1.195,1.632 1.848,2.412 0.382,0.455 0.77,0.976 1.202,1.438 -0.725,-0.17 -1.518,-0.227 -2.181,-0.439 -1.303,-0.419 -2.617,-1.032 -3.866,-1.573 -0.153,-0.066 -0.326,0.112 -0.188,0.244 1.088,1.05 2.105,1.994 3.482,2.688 0.882,0.444 2.082,0.956 3.117,0.811 -0.371,0.535 -0.706,1.097 -1.003,1.673 -0.051,-0.105 -0.126,-0.206 -0.234,-0.297 -0.68,-0.572 -1.732,-0.517 -2.58,-0.745 -1,-0.269 -1.941,-0.7 -2.848,-1.195 -3.619,-1.981 -6.901,-5.473 -7.967,-9.525 z m 13.002,13.13 c -0.002,0.005 -0.005,0.01 -0.007,0.016 -0.003,-0.002 -0.007,-0.005 -0.011,-0.008 0.007,-0.003 0.012,-0.005 0.018,-0.008 z m -15.99,15.508 c -3.588,-0.589 -4.715,-4.4 -4.863,-7.578 -0.163,-3.463 1.298,-6.268 4.444,-7.774 4.964,-2.378 11.107,-0.842 16.158,0.512 -0.099,0.281 -0.19,0.563 -0.271,0.844 -0.103,0.356 -0.187,0.715 -0.256,1.077 -1.382,-0.517 -3.295,-0.21 -4.724,-0.095 -1.526,0.124 -3.289,0.118 -4.729,0.684 -0.13,0.05 -0.13,0.212 0,0.263 1.441,0.567 3.203,0.561 4.729,0.684 0.604,0.049 1.293,0.131 1.994,0.172 -0.842,0.411 -1.688,0.811 -2.545,1.19 -2.609,1.158 -5.351,1.912 -8.082,2.708 -0.072,0.021 -0.104,0.144 -0.023,0.179 2.53,1.071 5.445,0.057 7.869,-0.844 1.424,-0.529 2.818,-1.145 4.204,-1.77 0.327,-0.147 0.718,-0.295 1.121,-0.46 0.014,0.271 0.034,0.542 0.066,0.811 -0.264,0.139 -0.517,0.309 -0.82,0.494 -0.771,0.47 -1.604,0.838 -2.407,1.249 -0.708,0.363 -1.422,0.717 -2.121,1.1 -0.605,0.33 -1.042,0.926 -1.5,1.428 -0.045,0.049 0.011,0.122 0.07,0.091 0.665,-0.339 1.403,-0.387 2.095,-0.67 0.836,-0.343 1.693,-0.642 2.539,-0.966 0.728,-0.28 1.702,-0.626 2.447,-1.153 0.08,0.3 0.174,0.596 0.28,0.887 -0.047,0.028 -0.093,0.056 -0.137,0.085 -0.68,0.456 -1.293,1.009 -1.948,1.5 -1.414,1.058 -2.904,2.014 -4.45,2.867 -2.65,1.461 -6.031,2.995 -9.14,2.485 z m 25.426,7.582 c -0.899,2.974 -2.447,6.721 -5.303,8.322 -2.578,1.446 -5.386,-1.327 -6.231,-3.657 -1.231,-3.394 -0.753,-7.471 0.131,-10.888 0.544,-2.106 1.324,-4.415 2.709,-6.161 0.221,0.341 0.465,0.668 0.729,0.982 -0.682,1.081 -1.189,2.372 -1.691,3.408 -0.808,1.664 -1.524,3.414 -1.512,5.286 0.003,0.48 0.724,0.591 0.843,0.114 0.475,-1.903 1.203,-3.648 2.152,-5.362 0.398,-0.718 0.934,-1.488 1.354,-2.291 0.059,0.05 0.117,0.102 0.178,0.15 0.407,0.332 0.839,0.625 1.289,0.879 -0.661,1.037 -1.04,2.303 -1.316,3.441 -0.521,2.148 -0.89,4.417 -0.922,6.624 -0.007,0.492 0.645,0.519 0.804,0.109 0.712,-1.83 0.904,-3.813 1.381,-5.716 0.336,-1.339 0.839,-2.592 1.345,-3.852 1.008,0.383 2.07,0.584 3.136,0.602 -0.096,0.186 -0.186,0.378 -0.261,0.582 -0.311,0.842 -0.443,1.797 -0.589,2.68 -0.275,1.664 -0.308,3.308 -0.016,4.967 0.062,0.352 0.619,0.263 0.612,-0.083 -0.055,-2.81 0.542,-5.463 1.094,-8.171 0.294,-0.022 0.587,-0.058 0.879,-0.109 0.806,2.525 -0.077,5.77 -0.795,8.144 z M 82.09,82.508 c -1.896,1.523 -4.232,2.578 -6.665,2.788 -1.294,0.112 -2.575,-0.064 -3.821,-0.414 -0.778,-0.219 -1.595,-0.747 -2.419,-0.954 -0.005,-0.109 -0.011,-0.219 -0.017,-0.328 0.186,-0.141 0.364,-0.311 0.564,-0.499 0.398,-0.375 0.815,-0.731 1.24,-1.077 0.622,0.219 1.34,0.193 1.99,0.219 0.934,0.038 1.865,0.109 2.797,0.15 1.566,0.07 3.116,0.021 4.464,-0.87 0.126,-0.084 0.049,-0.292 -0.105,-0.25 -1.515,0.413 -3.354,0.06 -4.88,-0.159 -0.73,-0.104 -1.643,-0.342 -2.527,-0.436 1.172,-0.857 2.391,-1.656 3.625,-2.42 0.075,0.053 0.164,0.082 0.262,0.076 0.54,-0.032 1.019,-0.217 1.547,-0.336 0.77,-0.173 1.583,-0.152 2.365,-0.119 1.308,0.058 2.604,0.2 3.913,0.222 0.289,0.005 0.341,-0.42 0.067,-0.498 -1.425,-0.405 -2.858,-0.783 -4.344,-0.878 -0.353,-0.022 -0.738,-0.035 -1.133,-0.024 2.668,-1.452 5.426,-2.669 8.266,-3.796 0.041,-0.016 0.034,-0.072 -0.011,-0.076 -1.739,-0.16 -3.385,0.455 -4.999,1.041 -2.039,0.742 -3.979,1.708 -5.88,2.748 -0.948,0.519 -1.884,1.063 -2.802,1.633 1.578,-1.166 3.279,-2.162 4.813,-3.033 2.286,-1.299 4.604,-2.512 7.051,-3.482 1.449,-0.575 2.989,-1.141 4.549,-1.42 -1.458,4.691 -4.052,9.09 -7.91,12.192 z"
   id="path36"
   inkscape:connector-curvature="0"
   style="fill:#e6b54a" />
</g>
</svg>