<?xml version="1.0" encoding="utf-8"?>
<!-- Generator: Adobe Illustrator 16.0.0, SVG Export Plug-In . SVG Version: 6.00 Build 0)  -->
<!DOCTYPE svg PUBLIC "-//W3C//DTD SVG 1.1//EN" "http://www.w3.org/Graphics/SVG/1.1/DTD/svg11.dtd">
<svg version="1.1" id="Camada_1" xmlns="http://www.w3.org/2000/svg" xmlns:xlink="http://www.w3.org/1999/xlink" x="0px" y="0px"
	 width="74.074px" height="74.074px" viewBox="0 0 74.074 74.074" enable-background="new 0 0 74.074 74.074" xml:space="preserve">
<g>
	<g>
		<g>
			<path fill-rule="evenodd" clip-rule="evenodd" fill="#9C3689" d="M25.089,27.141c-2.094-3.934-1.532-5.905,3.26-7.814
				c4.792-1.91,25.832-1.622,24.287,0c-1.545,1.621,0.318,1.123-0.232,1.584c-1.629,1.036-3.467,0.969-5.285,1.008
				c-4.208,0.053-8.42-0.002-12.633,0.028c-3.193,0.024-5.714,1.075-7.172,4.081C26.745,26.743,26.089,27.295,25.089,27.141z"/>
			<path fill-rule="evenodd" clip-rule="evenodd" fill="#803A8A" d="M51.641,20.688c-0.004-0.367-0.004-0.734,0-1.1
				c0.367,0,0.734,0,1.103,0c0.879,1.565,2.688,0.74,3.853,1.486c1.455,0.936,1.074,1.588-0.455,1.883
				c-1.019,0.871-0.336,2.342-1.156,3.282c-0.004,0.718-0.006,1.438-0.008,2.159c-3.018,0.066-3.615-2.604-4.988-4.406
				C49.535,22.391,50.406,21.448,51.641,20.688z"/>
			<path fill-rule="evenodd" clip-rule="evenodd" fill="#C4496D" d="M25.089,27.141c0.387-0.4,0.776-0.804,1.163-1.205
				c4.578-5.182,11.083-4.186,16.057-2.779c4.917,1.389,9.693,4.672,14.406,7.359c2.589,2.56,2.909,5.513,1.519,8.76
				c-0.053,0.899-0.326,1.672-1.206,2.098c-1.091,1.154-0.884,2.82-1.616,4.12c-1.658,1.752-4.387,2.644-5.94,1.741
				c-4.289-2.491-5.521-0.064-6.725,3.158c-8.392,4.317-7.87,3.627-14.638-3.453C21.944,40.49,21.664,34.416,25.089,27.141z"/>
			<path fill-rule="evenodd" clip-rule="evenodd" fill="#BF3684" d="M55.961,31.463c-1.365,0.263-1.246-5.127-3.957-0.852
				c-1.047,1.652-2.166-0.936-3.119-1.818c-5.98-5.535-16.106-6.816-22.634-2.857c0.79-4.031,3.342-5.643,7.324-5.535
				c4.508,0.124,9.02,0.091,13.53,0.127c1.451,1.102,2.232,3.137,4.443,3.168c2.203,0.758,2.688,3.223,4.426,4.444
				c0.383,0.352,0.765,0.703,1.148,1.056C57.801,30.496,56.73,30.901,55.961,31.463z"/>
			<path fill-rule="evenodd" clip-rule="evenodd" fill="#BF3684" d="M42.747,50.393c1.619-3.002-2.186-1.782-2.772-3.721
				c3.762,0.014,6.829-1.459,9.048-4.205c1.989,1.842-0.257,2.666,0.097,4.15c2.17,0.338,3.977-0.646,5.715-1.874
				c2.063-0.14,1.783,0.927,1.123,2.187C51.555,48.085,47.148,49.239,42.747,50.393z"/>
			<path fill-rule="evenodd" clip-rule="evenodd" fill="#89398A" d="M55.961,31.463c0.389-0.758,0.773-1.512,1.162-2.268
				c3,3.07,6.361,6.102,1.109,10.079C57.526,36.655,58.365,33.588,55.961,31.463z"/>
			<path fill-rule="evenodd" clip-rule="evenodd" fill="#89398A" d="M55.957,46.93c-0.068-0.886-0.217-1.73-1.123-2.187
				c0.011-1.594,0.598-2.812,2.197-3.37C55.838,43.063,60.047,45.797,55.957,46.93z"/>
			<path fill-rule="evenodd" clip-rule="evenodd" fill="#9C3689" d="M54.982,26.501c-0.6-1.441-2.07-3.761,0.979-3.917
				c1.538-0.556,2.51,3.268,2.51,3.268S55.477,28.018,54.982,26.501z"/>
			<path fill-rule="evenodd" clip-rule="evenodd" fill="#A33489" d="M51.549,23.695c-0.338,0.574-0.896,1.677-0.979,1.644
				c-2.112-0.88-3.608-2.28-3.465-4.812c1.844-0.033,3.688-0.068,5.531-0.102C52.274,21.517,51.912,22.604,51.549,23.695z"/>
		</g>
		<path fill-rule="evenodd" clip-rule="evenodd" fill="#D17B5C" d="M29.539,52.803c-0.35-0.107-0.701-0.217-1.05-0.324
			c-4.387-1.147-5.727-5.25-6.376-8.579c-0.64-3.289-0.131-7.057,0.049-10.61c0.733-2.272,2.368-3.334,4.68-3.48
			c0.542-0.235,1.076-0.303,1.585,0.086c0.998,0.298,1.913-0.316,2.89-0.272c1.515,0.454,2.845,1.787,2.776,2.964
			c-0.19,3.248,1.595,3.251,3.837,3.003c5.009,3.637,4.451,3.534,2.307,9.592C38.284,50.697,34.81,52.658,29.539,52.803z"/>
		<path fill-rule="evenodd" clip-rule="evenodd" fill="#DFA251" d="M25.021,50.226c-0.653-0.056-1.304-0.118-1.954-0.188
			c0.063-0.655,0.125-1.305,0.188-1.959c2.93-1.296,1.772-4.649,3.294-6.591c1.908-2.426,3.003-1.637,3.268,1.129
			c1.373,1.956,4.104,0.994,5.632,2.612c1.276,0.126,2.554,0.253,3.835,0.379c-0.394,5.372-5.24,5.979-8.672,8.112
			C27.689,54.252,26.162,52.546,25.021,50.226z"/>
	</g>
	<g>
		<g>
			<path fill="#FFFFFF" d="M44.438,46.236h-9.258c-4.108,0-7.452-3.344-7.452-7.452v-8.159c0-4.108,3.343-7.451,7.452-7.451h9.258
				c4.109,0,7.451,3.343,7.451,7.451v8.159C51.889,42.893,48.547,46.236,44.438,46.236z M35.179,24.83
				c-3.196,0-5.796,2.6-5.796,5.795v8.159c0,3.196,2.6,5.796,5.796,5.796h9.258c3.195,0,5.795-2.6,5.795-5.796v-8.159
				c0-3.195-2.6-5.795-5.795-5.795H35.179z"/>
		</g>
		<g>
			<path fill="#FFFFFF" d="M39.809,41.339c-3.658,0-6.633-2.977-6.633-6.634c0-3.658,2.976-6.634,6.633-6.634
				s6.633,2.976,6.633,6.634C46.441,38.362,43.466,41.339,39.809,41.339z M39.809,29.728c-2.745,0-4.978,2.232-4.978,4.978
				c0,2.744,2.233,4.977,4.978,4.977s4.977-2.232,4.977-4.977C44.785,31.96,42.553,29.728,39.809,29.728z"/>
		</g>
		<g>
			<circle fill="#FFFFFF" cx="46.34" cy="28.275" r="1.376"/>
		</g>
	</g>
</g>
</svg>
