<?xml version="1.0" encoding="UTF-8" standalone="no"?>
<!-- Generator: Adobe Illustrator 16.0.0, SVG Export Plug-In . SVG Version: 6.00 Build 0)  -->

<svg
   xmlns:dc="http://purl.org/dc/elements/1.1/"
   xmlns:cc="http://creativecommons.org/ns#"
   xmlns:rdf="http://www.w3.org/1999/02/22-rdf-syntax-ns#"
   xmlns:svg="http://www.w3.org/2000/svg"
   xmlns="http://www.w3.org/2000/svg"
   xmlns:sodipodi="http://sodipodi.sourceforge.net/DTD/sodipodi-0.dtd"
   xmlns:inkscape="http://www.inkscape.org/namespaces/inkscape"
   version="1.1"
   id="Camada_1"
   x="0px"
   y="0px"
   width="155.98561"
   height="31.286867"
   viewBox="0 0 155.98561 31.286868"
   enable-background="new 0 0 74.074 74.074"
   xml:space="preserve"
   sodipodi:docname="instagram2.svg"
   inkscape:version="0.92.3 (2405546, 2018-03-11)"><metadata
   id="metadata49"><rdf:RDF><cc:Work
       rdf:about=""><dc:format>image/svg+xml</dc:format><dc:type
         rdf:resource="http://purl.org/dc/dcmitype/StillImage" /><dc:title /></cc:Work></rdf:RDF></metadata><defs
   id="defs47" /><sodipodi:namedview
   pagecolor="#ffffff"
   bordercolor="#666666"
   borderopacity="1"
   objecttolerance="10"
   gridtolerance="10"
   guidetolerance="10"
   inkscape:pageopacity="0"
   inkscape:pageshadow="2"
   inkscape:window-width="1366"
   inkscape:window-height="712"
   id="namedview45"
   showgrid="false"
   inkscape:zoom="4.3445293"
   inkscape:cx="88.618991"
   inkscape:cy="10.214842"
   inkscape:window-x="0"
   inkscape:window-y="0"
   inkscape:window-maximized="1"
   inkscape:current-layer="Camada_1" />
<g
   id="g42"
   transform="matrix(0.87350878,0,0,0.87350878,-19.0421,-15.723425)">
	<g
   id="g26">
		<g
   id="g20">
			<path
   d="m 25.089,27.141 c -2.094,-3.934 -1.532,-5.905 3.26,-7.814 4.792,-1.91 25.832,-1.622 24.287,0 -1.545,1.621 0.318,1.123 -0.232,1.584 -1.629,1.036 -3.467,0.969 -5.285,1.008 -4.208,0.053 -8.42,-0.002 -12.633,0.028 -3.193,0.024 -5.714,1.075 -7.172,4.081 -0.569,0.715 -1.225,1.267 -2.225,1.113 z"
   id="path2"
   inkscape:connector-curvature="0"
   style="clip-rule:evenodd;fill:#9c3689;fill-rule:evenodd" />
			<path
   d="m 51.641,20.688 c -0.004,-0.367 -0.004,-0.734 0,-1.1 0.367,0 0.734,0 1.103,0 0.879,1.565 2.688,0.74 3.853,1.486 1.455,0.936 1.074,1.588 -0.455,1.883 -1.019,0.871 -0.336,2.342 -1.156,3.282 -0.004,0.718 -0.006,1.438 -0.008,2.159 -3.018,0.066 -3.615,-2.604 -4.988,-4.406 -0.455,-1.601 0.416,-2.544 1.651,-3.304 z"
   id="path4"
   inkscape:connector-curvature="0"
   style="clip-rule:evenodd;fill:#803a8a;fill-rule:evenodd" />
			<path
   d="m 25.089,27.141 c 0.387,-0.4 0.776,-0.804 1.163,-1.205 4.578,-5.182 11.083,-4.186 16.057,-2.779 4.917,1.389 9.693,4.672 14.406,7.359 2.589,2.56 2.909,5.513 1.519,8.76 -0.053,0.899 -0.326,1.672 -1.206,2.098 -1.091,1.154 -0.884,2.82 -1.616,4.12 -1.658,1.752 -4.387,2.644 -5.94,1.741 -4.289,-2.491 -5.521,-0.064 -6.725,3.158 -8.392,4.317 -7.87,3.627 -14.638,-3.453 -6.165,-6.45 -6.445,-12.524 -3.02,-19.799 z"
   id="path6"
   inkscape:connector-curvature="0"
   style="clip-rule:evenodd;fill:#c4496d;fill-rule:evenodd" />
			<path
   d="m 55.961,31.463 c -1.365,0.263 -1.246,-5.127 -3.957,-0.852 -1.047,1.652 -2.166,-0.936 -3.119,-1.818 -5.98,-5.535 -16.106,-6.816 -22.634,-2.857 0.79,-4.031 3.342,-5.643 7.324,-5.535 4.508,0.124 9.02,0.091 13.53,0.127 1.451,1.102 2.232,3.137 4.443,3.168 2.203,0.758 2.688,3.223 4.426,4.444 0.383,0.352 0.765,0.703 1.148,1.056 0.679,1.3 -0.392,1.705 -1.161,2.267 z"
   id="path8"
   inkscape:connector-curvature="0"
   style="clip-rule:evenodd;fill:#bf3684;fill-rule:evenodd" />
			<path
   d="m 42.747,50.393 c 1.619,-3.002 -2.186,-1.782 -2.772,-3.721 3.762,0.014 6.829,-1.459 9.048,-4.205 1.989,1.842 -0.257,2.666 0.097,4.15 2.17,0.338 3.977,-0.646 5.715,-1.874 2.063,-0.14 1.783,0.927 1.123,2.187 -4.403,1.155 -8.81,2.309 -13.211,3.463 z"
   id="path10"
   inkscape:connector-curvature="0"
   style="clip-rule:evenodd;fill:#bf3684;fill-rule:evenodd" />
			<path
   d="m 55.961,31.463 c 0.389,-0.758 0.773,-1.512 1.162,-2.268 3,3.07 6.361,6.102 1.109,10.079 -0.706,-2.619 0.133,-5.686 -2.271,-7.811 z"
   id="path12"
   inkscape:connector-curvature="0"
   style="clip-rule:evenodd;fill:#89398a;fill-rule:evenodd" />
			<path
   d="m 55.957,46.93 c -0.068,-0.886 -0.217,-1.73 -1.123,-2.187 0.011,-1.594 0.598,-2.812 2.197,-3.37 -1.193,1.69 3.016,4.424 -1.074,5.557 z"
   id="path14"
   inkscape:connector-curvature="0"
   style="clip-rule:evenodd;fill:#89398a;fill-rule:evenodd" />
			<path
   d="m 54.982,26.501 c -0.6,-1.441 -2.07,-3.761 0.979,-3.917 1.538,-0.556 2.51,3.268 2.51,3.268 0,0 -2.994,2.166 -3.489,0.649 z"
   id="path16"
   inkscape:connector-curvature="0"
   style="clip-rule:evenodd;fill:#9c3689;fill-rule:evenodd" />
			<path
   d="m 51.549,23.695 c -0.338,0.574 -0.896,1.677 -0.979,1.644 -2.112,-0.88 -3.608,-2.28 -3.465,-4.812 1.844,-0.033 3.688,-0.068 5.531,-0.102 -0.362,1.092 -0.724,2.179 -1.087,3.27 z"
   id="path18"
   inkscape:connector-curvature="0"
   style="clip-rule:evenodd;fill:#a33489;fill-rule:evenodd" />
		</g>
		<path
   d="m 29.539,52.803 c -0.35,-0.107 -0.701,-0.217 -1.05,-0.324 -4.387,-1.147 -5.727,-5.25 -6.376,-8.579 -0.64,-3.289 -0.131,-7.057 0.049,-10.61 0.733,-2.272 2.368,-3.334 4.68,-3.48 0.542,-0.235 1.076,-0.303 1.585,0.086 0.998,0.298 1.913,-0.316 2.89,-0.272 1.515,0.454 2.845,1.787 2.776,2.964 -0.19,3.248 1.595,3.251 3.837,3.003 5.009,3.637 4.451,3.534 2.307,9.592 -1.953,5.514 -5.427,7.475 -10.698,7.62 z"
   id="path22"
   inkscape:connector-curvature="0"
   style="clip-rule:evenodd;fill:#d17b5c;fill-rule:evenodd" />
		<path
   d="m 25.021,50.226 c -0.653,-0.056 -1.304,-0.118 -1.954,-0.188 0.063,-0.655 0.125,-1.305 0.188,-1.959 2.93,-1.296 1.772,-4.649 3.294,-6.591 1.908,-2.426 3.003,-1.637 3.268,1.129 1.373,1.956 4.104,0.994 5.632,2.612 1.276,0.126 2.554,0.253 3.835,0.379 -0.394,5.372 -5.24,5.979 -8.672,8.112 -2.923,0.532 -4.45,-1.174 -5.591,-3.494 z"
   id="path24"
   inkscape:connector-curvature="0"
   style="clip-rule:evenodd;fill:#dfa251;fill-rule:evenodd" />
	</g>
	<g
   id="g40">
		<g
   id="g30">
			<path
   d="M 44.438,46.236 H 35.18 c -4.108,0 -7.452,-3.344 -7.452,-7.452 v -8.159 c 0,-4.108 3.343,-7.451 7.452,-7.451 h 9.258 c 4.109,0 7.451,3.343 7.451,7.451 v 8.159 c 0,4.109 -3.342,7.452 -7.451,7.452 z M 35.179,24.83 c -3.196,0 -5.796,2.6 -5.796,5.795 v 8.159 c 0,3.196 2.6,5.796 5.796,5.796 h 9.258 c 3.195,0 5.795,-2.6 5.795,-5.796 v -8.159 c 0,-3.195 -2.6,-5.795 -5.795,-5.795 z"
   id="path28"
   inkscape:connector-curvature="0"
   style="fill:#ffffff" />
		</g>
		<g
   id="g34">
			<path
   d="m 39.809,41.339 c -3.658,0 -6.633,-2.977 -6.633,-6.634 0,-3.658 2.976,-6.634 6.633,-6.634 3.657,0 6.633,2.976 6.633,6.634 -10e-4,3.657 -2.976,6.634 -6.633,6.634 z m 0,-11.611 c -2.745,0 -4.978,2.232 -4.978,4.978 0,2.744 2.233,4.977 4.978,4.977 2.745,0 4.977,-2.232 4.977,-4.977 -0.001,-2.746 -2.233,-4.978 -4.977,-4.978 z"
   id="path32"
   inkscape:connector-curvature="0"
   style="fill:#ffffff" />
		</g>
		<g
   id="g38">
			<circle
   cx="46.34"
   cy="28.275"
   r="1.376"
   id="circle36"
   style="fill:#ffffff" />
		</g>
	</g>
</g>
<text
   xml:space="preserve"
   style="font-style:normal;font-variant:normal;font-weight:bold;font-stretch:condensed;font-size:26.66666603px;line-height:1.25;font-family:'Agency FB';-inkscape-font-specification:'Agency FB, Bold Condensed';font-variant-ligatures:normal;font-variant-caps:normal;font-variant-numeric:normal;font-feature-settings:normal;text-align:start;letter-spacing:0px;word-spacing:0px;writing-mode:lr-tb;text-anchor:start;fill:#ffffff;fill-opacity:1;stroke:none;"
   x="52.600193"
   y="25.845257"
   id="text853"><tspan
     sodipodi:role="line"
     id="tspan851"
     x="52.600193"
     y="25.845257">INSTAGRAM</tspan></text>


</svg>