<?xml version="1.0" encoding="UTF-8" standalone="no"?>
<!-- Generator: Adobe Illustrator 16.0.0, SVG Export Plug-In . SVG Version: 6.00 Build 0)  -->

<svg
   xmlns:dc="http://purl.org/dc/elements/1.1/"
   xmlns:cc="http://creativecommons.org/ns#"
   xmlns:rdf="http://www.w3.org/1999/02/22-rdf-syntax-ns#"
   xmlns:svg="http://www.w3.org/2000/svg"
   xmlns="http://www.w3.org/2000/svg"
   xmlns:sodipodi="http://sodipodi.sourceforge.net/DTD/sodipodi-0.dtd"
   xmlns:inkscape="http://www.inkscape.org/namespaces/inkscape"
   version="1.1"
   id="Camada_1"
   x="0px"
   y="0px"
   width="250.99586"
   height="28.817461"
   viewBox="0 0 250.99587 28.817462"
   enable-background="new 0 0 74.074 74.074"
   xml:space="preserve"
   sodipodi:docname="instagram1.svg"
   inkscape:version="0.92.3 (2405546, 2018-03-11)"><metadata
   id="metadata49"><rdf:RDF><cc:Work
       rdf:about=""><dc:format>image/svg+xml</dc:format><dc:type
         rdf:resource="http://purl.org/dc/dcmitype/StillImage" /><dc:title></dc:title></cc:Work></rdf:RDF></metadata><defs
   id="defs47" /><sodipodi:namedview
   pagecolor="#ffffff"
   bordercolor="#666666"
   borderopacity="1"
   objecttolerance="10"
   gridtolerance="10"
   guidetolerance="10"
   inkscape:pageopacity="0"
   inkscape:pageshadow="2"
   inkscape:window-width="1366"
   inkscape:window-height="712"
   id="namedview45"
   showgrid="false"
   inkscape:zoom="1"
   inkscape:cx="-18.002068"
   inkscape:cy="14.408732"
   inkscape:window-x="0"
   inkscape:window-y="0"
   inkscape:window-maximized="1"
   inkscape:current-layer="text4638" />

<g
   aria-label="INSTAGRAM"
   style="font-style:normal;font-weight:normal;font-size:40px;line-height:1.25;font-family:sans-serif;letter-spacing:0px;word-spacing:0px;fill:#000000;fill-opacity:1;stroke:none"
   id="text4638"
   transform="translate(-30.484488,-3.5000006)"><g
     id="g4772"
     transform="matrix(0.8045646,0,0,0.8045646,30.484488,3.5000009)"><g
       transform="translate(-21.799551,-18.000306)"
       id="g42">
	<g
   id="g26">
		<g
   id="g20">
			<path
   style="clip-rule:evenodd;fill:#9c3689;fill-rule:evenodd"
   inkscape:connector-curvature="0"
   id="path2"
   d="m 25.089,27.141 c -2.094,-3.934 -1.532,-5.905 3.26,-7.814 4.792,-1.91 25.832,-1.622 24.287,0 -1.545,1.621 0.318,1.123 -0.232,1.584 -1.629,1.036 -3.467,0.969 -5.285,1.008 -4.208,0.053 -8.42,-0.002 -12.633,0.028 -3.193,0.024 -5.714,1.075 -7.172,4.081 -0.569,0.715 -1.225,1.267 -2.225,1.113 z" />
			<path
   style="clip-rule:evenodd;fill:#803a8a;fill-rule:evenodd"
   inkscape:connector-curvature="0"
   id="path4"
   d="m 51.641,20.688 c -0.004,-0.367 -0.004,-0.734 0,-1.1 0.367,0 0.734,0 1.103,0 0.879,1.565 2.688,0.74 3.853,1.486 1.455,0.936 1.074,1.588 -0.455,1.883 -1.019,0.871 -0.336,2.342 -1.156,3.282 -0.004,0.718 -0.006,1.438 -0.008,2.159 -3.018,0.066 -3.615,-2.604 -4.988,-4.406 -0.455,-1.601 0.416,-2.544 1.651,-3.304 z" />
			<path
   style="clip-rule:evenodd;fill:#c4496d;fill-rule:evenodd"
   inkscape:connector-curvature="0"
   id="path6"
   d="m 25.089,27.141 c 0.387,-0.4 0.776,-0.804 1.163,-1.205 4.578,-5.182 11.083,-4.186 16.057,-2.779 4.917,1.389 9.693,4.672 14.406,7.359 2.589,2.56 2.909,5.513 1.519,8.76 -0.053,0.899 -0.326,1.672 -1.206,2.098 -1.091,1.154 -0.884,2.82 -1.616,4.12 -1.658,1.752 -4.387,2.644 -5.94,1.741 -4.289,-2.491 -5.521,-0.064 -6.725,3.158 -8.392,4.317 -7.87,3.627 -14.638,-3.453 -6.165,-6.45 -6.445,-12.524 -3.02,-19.799 z" />
			<path
   style="clip-rule:evenodd;fill:#bf3684;fill-rule:evenodd"
   inkscape:connector-curvature="0"
   id="path8"
   d="m 55.961,31.463 c -1.365,0.263 -1.246,-5.127 -3.957,-0.852 -1.047,1.652 -2.166,-0.936 -3.119,-1.818 -5.98,-5.535 -16.106,-6.816 -22.634,-2.857 0.79,-4.031 3.342,-5.643 7.324,-5.535 4.508,0.124 9.02,0.091 13.53,0.127 1.451,1.102 2.232,3.137 4.443,3.168 2.203,0.758 2.688,3.223 4.426,4.444 0.383,0.352 0.765,0.703 1.148,1.056 0.679,1.3 -0.392,1.705 -1.161,2.267 z" />
			<path
   style="clip-rule:evenodd;fill:#bf3684;fill-rule:evenodd"
   inkscape:connector-curvature="0"
   id="path10"
   d="m 42.747,50.393 c 1.619,-3.002 -2.186,-1.782 -2.772,-3.721 3.762,0.014 6.829,-1.459 9.048,-4.205 1.989,1.842 -0.257,2.666 0.097,4.15 2.17,0.338 3.977,-0.646 5.715,-1.874 2.063,-0.14 1.783,0.927 1.123,2.187 -4.403,1.155 -8.81,2.309 -13.211,3.463 z" />
			<path
   style="clip-rule:evenodd;fill:#89398a;fill-rule:evenodd"
   inkscape:connector-curvature="0"
   id="path12"
   d="m 55.961,31.463 c 0.389,-0.758 0.773,-1.512 1.162,-2.268 3,3.07 6.361,6.102 1.109,10.079 -0.706,-2.619 0.133,-5.686 -2.271,-7.811 z" />
			<path
   style="clip-rule:evenodd;fill:#89398a;fill-rule:evenodd"
   inkscape:connector-curvature="0"
   id="path14"
   d="m 55.957,46.93 c -0.068,-0.886 -0.217,-1.73 -1.123,-2.187 0.011,-1.594 0.598,-2.812 2.197,-3.37 -1.193,1.69 3.016,4.424 -1.074,5.557 z" />
			<path
   style="clip-rule:evenodd;fill:#9c3689;fill-rule:evenodd"
   inkscape:connector-curvature="0"
   id="path16"
   d="m 54.982,26.501 c -0.6,-1.441 -2.07,-3.761 0.979,-3.917 1.538,-0.556 2.51,3.268 2.51,3.268 0,0 -2.994,2.166 -3.489,0.649 z" />
			<path
   style="clip-rule:evenodd;fill:#a33489;fill-rule:evenodd"
   inkscape:connector-curvature="0"
   id="path18"
   d="m 51.549,23.695 c -0.338,0.574 -0.896,1.677 -0.979,1.644 -2.112,-0.88 -3.608,-2.28 -3.465,-4.812 1.844,-0.033 3.688,-0.068 5.531,-0.102 -0.362,1.092 -0.724,2.179 -1.087,3.27 z" />
		</g>
		<path
   style="clip-rule:evenodd;fill:#d17b5c;fill-rule:evenodd"
   inkscape:connector-curvature="0"
   id="path22"
   d="m 29.539,52.803 c -0.35,-0.107 -0.701,-0.217 -1.05,-0.324 -4.387,-1.147 -5.727,-5.25 -6.376,-8.579 -0.64,-3.289 -0.131,-7.057 0.049,-10.61 0.733,-2.272 2.368,-3.334 4.68,-3.48 0.542,-0.235 1.076,-0.303 1.585,0.086 0.998,0.298 1.913,-0.316 2.89,-0.272 1.515,0.454 2.845,1.787 2.776,2.964 -0.19,3.248 1.595,3.251 3.837,3.003 5.009,3.637 4.451,3.534 2.307,9.592 -1.953,5.514 -5.427,7.475 -10.698,7.62 z" />
		<path
   style="clip-rule:evenodd;fill:#dfa251;fill-rule:evenodd"
   inkscape:connector-curvature="0"
   id="path24"
   d="m 25.021,50.226 c -0.653,-0.056 -1.304,-0.118 -1.954,-0.188 0.063,-0.655 0.125,-1.305 0.188,-1.959 2.93,-1.296 1.772,-4.649 3.294,-6.591 1.908,-2.426 3.003,-1.637 3.268,1.129 1.373,1.956 4.104,0.994 5.632,2.612 1.276,0.126 2.554,0.253 3.835,0.379 -0.394,5.372 -5.24,5.979 -8.672,8.112 -2.923,0.532 -4.45,-1.174 -5.591,-3.494 z" />
	</g>
	<g
   id="g40">
		<g
   id="g30">
			<path
   style="fill:#ffffff"
   inkscape:connector-curvature="0"
   id="path28"
   d="M 44.438,46.236 H 35.18 c -4.108,0 -7.452,-3.344 -7.452,-7.452 v -8.159 c 0,-4.108 3.343,-7.451 7.452,-7.451 h 9.258 c 4.109,0 7.451,3.343 7.451,7.451 v 8.159 c 0,4.109 -3.342,7.452 -7.451,7.452 z M 35.179,24.83 c -3.196,0 -5.796,2.6 -5.796,5.795 v 8.159 c 0,3.196 2.6,5.796 5.796,5.796 h 9.258 c 3.195,0 5.795,-2.6 5.795,-5.796 v -8.159 c 0,-3.195 -2.6,-5.795 -5.795,-5.795 z" />
		</g>
		<g
   id="g34">
			<path
   style="fill:#ffffff"
   inkscape:connector-curvature="0"
   id="path32"
   d="m 39.809,41.339 c -3.658,0 -6.633,-2.977 -6.633,-6.634 0,-3.658 2.976,-6.634 6.633,-6.634 3.657,0 6.633,2.976 6.633,6.634 -10e-4,3.657 -2.976,6.634 -6.633,6.634 z m 0,-11.611 c -2.745,0 -4.978,2.232 -4.978,4.978 0,2.744 2.233,4.977 4.978,4.977 2.745,0 4.977,-2.232 4.977,-4.977 -0.001,-2.746 -2.233,-4.978 -4.977,-4.978 z" />
		</g>
		<g
   id="g38">
			<circle
   style="fill:#ffffff"
   id="circle36"
   r="1.376"
   cy="28.275"
   cx="46.34" />
		</g>
	</g>
</g><path
       id="path4640"
       style="font-style:normal;font-variant:normal;font-weight:normal;font-stretch:normal;font-size:40px;font-family:'Cooper Black';-inkscape-font-specification:'Cooper Black, Normal';font-variant-ligatures:normal;font-variant-caps:normal;font-variant-numeric:normal;font-feature-settings:normal;text-align:start;writing-mode:lr-tb;text-anchor:start;fill:#ffffff"
       d="m 57.140625,5.3989639 q 2.226562,0 4.199219,0.390625 2.65625,0.5273438 2.65625,2.2460938 0,0.5664062 -0.273438,0.859375 -0.253906,0.2734375 -1.328125,0.8203125 -0.898437,0.4492188 -1.191406,1.9726558 -0.273438,1.523438 -0.273438,5.9375 0,7.460938 0.371094,9.238282 0.136719,0.566406 0.410156,0.878906 0.292969,0.292969 0.996094,0.644531 1.289063,0.585938 1.289063,1.699219 0,1.5625 -2.382813,2.148437 -2.578125,0.625 -6.308594,0.625 -6.367187,0 -6.367187,-2.421875 0,-0.878906 1.25,-1.640625 0.957031,-0.585937 1.132812,-1.601562 0.371094,-2.226563 0.371094,-9.453125 0,-5 -0.507812,-6.40625 Q 50.910156,10.535683 49.875,9.8911514 49.074219,9.3638077 48.800781,9.0122452 48.527344,8.6606827 48.527344,8.1138077 q 0,-0.8398438 0.800781,-1.328125 0.820312,-0.5078125 2.871094,-0.8984375 2.441406,-0.4882813 4.941406,-0.4882813 z"
       inkscape:connector-curvature="0" /><path
       id="path4642"
       style="font-style:normal;font-variant:normal;font-weight:normal;font-stretch:normal;font-size:40px;font-family:'Cooper Black';-inkscape-font-specification:'Cooper Black, Normal';font-variant-ligatures:normal;font-variant-caps:normal;font-variant-numeric:normal;font-feature-settings:normal;text-align:start;writing-mode:lr-tb;text-anchor:start;fill:#ffffff"
       d="M 76.085937,6.7466202 85.8125,15.262245 q 1.367187,1.191406 1.972656,1.191406 1.015625,0 1.015625,-2.167968 0,-2.460938 -0.292969,-3.359375 -0.292968,-0.898438 -1.230468,-1.3476566 -0.761719,-0.3710937 -1.074219,-0.78125 -0.3125,-0.4296875 -0.3125,-1.09375 0,-1.640625 2.246094,-2.109375 0.917968,-0.1953125 3.203125,-0.1953125 2.949218,0 4.082031,0.3515625 1.796875,0.546875 1.796875,2.0703125 0,1.2695313 -1.464844,1.9140625 -0.585937,0.2539063 -0.800781,0.4492186 -0.214844,0.195313 -0.371094,0.585938 -0.527344,1.289062 -0.546875,4.882812 v 6.367188 q 0,1.464843 0.01953,4.003906 0.01953,3.4375 -0.410156,4.960937 -0.527344,1.894532 -1.914062,1.894532 -0.605469,0 -1.054688,-0.253907 -0.429687,-0.253906 -1.445312,-1.171875 L 77.648437,21.082558 q -1.210937,-1.09375 -2.011718,-1.09375 -1.191407,0 -1.191407,3.300781 0,2.714844 0.292969,3.710937 0.3125,0.996094 1.25,1.464844 1.308594,0.644531 1.308594,1.679688 0,2.714843 -5.839844,2.714843 -2.636719,0 -4.101562,-0.683593 -1.445313,-0.703125 -1.445313,-1.972657 0,-0.664062 0.273438,-0.996093 0.273437,-0.332032 1.230468,-0.898438 0.917969,-0.546875 1.113282,-1.933594 0.332031,-2.519531 0.332031,-7.246093 0,-5.039063 -0.585938,-7.34375 -0.214843,-0.839844 -0.546875,-1.25 -0.332031,-0.410157 -1.09375,-0.7812503 -0.878906,-0.4296875 -1.230468,-0.8398438 -0.332032,-0.4101562 -0.332032,-0.9960937 0,-1.875 3.222657,-2.3632813 1.09375,-0.15625 3.828125,-0.15625 1.5625,0 2.265625,0.2539063 0.722656,0.234375 1.699218,1.09375 z"
       inkscape:connector-curvature="0" /><path
       id="path4644"
       style="font-style:normal;font-variant:normal;font-weight:normal;font-stretch:normal;font-size:40px;font-family:'Cooper Black';-inkscape-font-specification:'Cooper Black, Normal';font-variant-ligatures:normal;font-variant-caps:normal;font-variant-numeric:normal;font-feature-settings:normal;text-align:start;writing-mode:lr-tb;text-anchor:start;fill:#ffffff"
       d="m 110.34375,5.2622452 q 2.01172,0 5.27344,0.9960937 0.39062,0.1171875 0.625,0.1171875 0.19531,0 1.17187,-0.3515625 0.3125,-0.1171875 0.66407,-0.1171875 1.30859,0 2.7539,2.0703125 1.46485,2.0703121 1.46485,3.9453121 0,1.09375 -0.66407,1.855469 -0.64453,0.742188 -1.58203,0.742188 -0.78125,0 -1.26953,-0.3125 -0.48828,-0.3125 -2.14844,-1.855469 -2.34375,-2.1875 -4.60937,-2.1875 -1.09375,0 -1.75781,0.527344 -0.64454,0.527343 -0.64454,1.386718 0,1.699219 2.98829,2.558594 4.04296,1.191406 5.17578,1.738281 4.98047,2.421875 4.98047,7.128907 0,4.160156 -3.39844,6.796875 -3.47656,2.695312 -9.08203,2.695312 -2.5,0 -5.27344,-0.585937 -2.77344,-0.605469 -4.00391,-1.40625 -0.9375,-0.625 -1.699216,-2.714844 -0.742188,-2.109375 -0.742188,-4.101563 0,-0.957031 0.390625,-1.445312 0.488281,-0.625 1.230469,-0.625 0.74219,0 1.42578,0.761719 0.41016,0.429687 1.9336,2.753906 0.72265,1.09375 2.28515,1.816406 1.58203,0.722656 3.26172,0.722656 1.44531,0 2.34375,-0.527343 0.89844,-0.546875 0.89844,-1.386719 0,-0.78125 -0.70313,-1.347656 -0.70312,-0.566407 -2.28515,-1.054688 -2.79297,-0.878906 -4.25782,-1.601562 -1.46484,-0.742188 -2.73437,-1.855469 -3.085939,-2.734375 -3.085939,-6.210938 0,-1.71875 0.800779,-3.339843 0.80078,-1.6406253 2.26563,-2.8320316 3.28125,-2.7539062 8.00781,-2.7539062 z"
       inkscape:connector-curvature="0" /><path
       id="path4646"
       style="font-style:normal;font-variant:normal;font-weight:normal;font-stretch:normal;font-size:40px;font-family:'Cooper Black';-inkscape-font-specification:'Cooper Black, Normal';font-variant-ligatures:normal;font-variant-caps:normal;font-variant-numeric:normal;font-feature-settings:normal;text-align:start;writing-mode:lr-tb;text-anchor:start;fill:#ffffff"
       d="m 132.94141,5.8091202 h 10.29296 q 1.66016,-0.058594 3.02735,-0.4492188 0.58594,-0.15625 1.03515,-0.15625 1.58204,0 3.06641,2.34375 1.50391,2.34375 1.50391,4.8242186 0,1.699219 -1.03516,2.480469 -0.78125,0.585937 -1.875,0.585937 -1.03516,0 -1.79687,-0.566406 -0.76172,-0.585937 -1.50391,-1.914062 -0.64453,-1.210938 -1.01563,-1.582032 -0.37109,-0.371093 -0.89843,-0.371093 -0.72266,0 -1.03516,0.605468 -0.3125,0.605469 -0.3125,1.992188 v 10.9375 q 0,1.679687 0.35156,2.441406 0.35157,0.761719 1.32813,1.171875 1.05469,0.449219 1.42578,0.859375 0.39062,0.390625 0.39062,1.09375 0,1.40625 -1.91406,2.089844 -1.89453,0.683594 -5.83984,0.683594 -4.84375,0 -7.1875,-0.800782 -1.97266,-0.664062 -1.97266,-2.148437 0,-0.800781 0.70313,-1.25 0.17578,-0.09766 1.38672,-0.46875 0.74218,-0.214844 1.01562,-0.820313 0.29297,-0.605468 0.46875,-2.324218 0.15625,-1.523438 0.29297,-4.921875 0.13672,-3.417969 0.13672,-5.917969 0,-1.757813 -0.27344,-2.5 -0.27344,-0.742188 -0.89844,-0.742188 -0.76172,0 -1.48437,1.09375 -1.3086,1.992188 -2.14844,2.636719 -0.99609,0.761719 -1.93359,0.761719 -1.05469,0 -1.73828,-0.78125 -0.6836,-0.800781 -0.6836,-2.03125 0,-1.210938 0.54688,-2.65625 0.54687,-1.4648438 1.46484,-2.6953126 1.48438,-1.9921875 2.92969,-1.9921875 0.39062,0 0.89844,0.1171875 1.05468,0.2148438 1.71875,0.2929688 0.68359,0.078125 1.5625,0.078125 z"
       inkscape:connector-curvature="0" /><path
       id="path4648"
       style="font-style:normal;font-variant:normal;font-weight:normal;font-stretch:normal;font-size:40px;font-family:'Cooper Black';-inkscape-font-specification:'Cooper Black, Normal';font-variant-ligatures:normal;font-variant-caps:normal;font-variant-numeric:normal;font-feature-settings:normal;text-align:start;writing-mode:lr-tb;text-anchor:start;fill:#ffffff"
       d="m 175.77344,18.973183 3.6914,7.910156 q 0.52735,1.09375 0.87891,1.445312 0.35156,0.332032 1.07422,0.449219 1.40625,0.214844 1.40625,1.425781 0,1.425782 -1.71875,2.050782 -1.71875,0.625 -5.625,0.625 -4.41406,0 -6.54297,-0.371094 -0.97656,-0.175781 -1.5625,-0.703125 -0.56641,-0.546875 -0.56641,-1.308594 0,-0.585937 0.29297,-0.898437 0.3125,-0.332032 1.13281,-0.605469 0.91797,-0.3125 0.91797,-1.054688 0,-1.308593 -1.58203,-1.542968 -1.69922,-0.234375 -4.78515,-0.234375 -2.59766,0 -3.10547,0.3125 -0.3125,0.195312 -0.54688,0.703125 -0.23437,0.507812 -0.23437,0.976562 0,0.429688 0.15625,0.566406 0.17578,0.117188 1.09375,0.410157 1.1914,0.351562 1.1914,1.40625 0,2.324218 -5.5664,2.324218 -3.16407,0 -4.64844,-0.429687 -1.36719,-0.410156 -1.36719,-1.796875 0,-0.605469 0.29297,-0.9375 0.3125,-0.332031 1.09375,-0.605469 1.26953,-0.449219 1.91406,-1.25 0.66407,-0.820312 1.875,-3.476562 l 2.75391,-6.035157 q 1.52344,-3.320312 2.03125,-4.960937 0.52734,-1.660156 0.54687,-3.242188 0.0195,-1.6796871 0.19532,-2.3242183 0.19531,-0.6640625 0.83984,-1.2890625 1.34766,-1.3671875 3.4375,-1.3671875 1.97266,0 3.76953,1.5429687 2.5,2.109375 7.26563,12.2851566 z m -13.59375,2.460937 h 3.82812 q 1.05469,0 1.05469,-0.46875 0,-0.644531 -1.46484,-3.164062 -0.66407,-1.152344 -1.01563,-1.542969 -0.35156,-0.390625 -0.74219,-0.390625 -0.70312,0 -1.17187,1.308594 -0.0781,0.175781 -0.56641,1.386718 -0.82031,1.992188 -0.82031,2.382813 0,0.488281 0.89844,0.488281 z"
       inkscape:connector-curvature="0" /><path
       id="path4650"
       style="font-style:normal;font-variant:normal;font-weight:normal;font-stretch:normal;font-size:40px;font-family:'Cooper Black';-inkscape-font-specification:'Cooper Black, Normal';font-variant-ligatures:normal;font-variant-caps:normal;font-variant-numeric:normal;font-feature-settings:normal;text-align:start;writing-mode:lr-tb;text-anchor:start;fill:#ffffff"
       d="m 196.96484,5.2622452 q 2.5586,0 4.82422,0.7226562 1.01563,0.3320313 1.38672,0.3320313 0.39063,0 1.64063,-0.4492188 0.41015,-0.1367187 0.83984,-0.1367187 1.09375,0 2.08984,1.2890625 1.60157,2.0703125 1.60157,4.5312503 0,1.679687 -0.85938,2.714843 -0.83984,1.035157 -2.22656,1.035157 -1.13281,0 -2.22656,-0.820313 -0.33204,-0.253906 -1.6211,-1.835937 -2.14844,-2.636719 -4.9414,-2.636719 -2.53907,0 -4.04297,1.855469 -1.48438,1.855468 -1.48438,5 0,4.667968 2.38281,7.949218 0.89844,1.191407 2.14844,1.914063 1.25,0.703125 2.48047,0.703125 1.01563,0 1.66016,-0.664063 0.66406,-0.683593 0.66406,-1.738281 0,-0.9375 -0.54688,-1.328125 -0.21484,-0.15625 -0.41015,-0.175781 -0.17578,-0.03906 -1.11328,-0.03906 -0.83985,0 -1.40625,-0.527343 -0.54688,-0.546875 -0.54688,-1.367188 0,-1.621094 2.14844,-2.304687 2.36328,-0.742188 5.44922,-0.742188 3.30078,0 5.54687,0.683594 2.12891,0.664062 2.12891,2.402344 0,0.703125 -0.48828,1.230468 -0.48828,0.507813 -1.26953,0.605469 -0.6836,0.09766 -0.89844,0.3125 -0.19531,0.195313 -0.41016,0.996094 -0.83984,3.105469 -3.28125,5.195312 -1.67968,1.425782 -4.0625,2.226563 -2.36328,0.800781 -4.98047,0.800781 -4.27734,0 -7.85156,-1.972656 -3.67187,-2.011719 -5.58594,-5.625 -1.60156,-3.007813 -1.60156,-6.503906 0,-3.535157 1.91406,-6.71875 2.03125,-3.4179691 5.6836,-5.2734378 3.18359,-1.640625 7.26562,-1.640625 z"
       inkscape:connector-curvature="0" /><path
       id="path4652"
       style="font-style:normal;font-variant:normal;font-weight:normal;font-stretch:normal;font-size:40px;font-family:'Cooper Black';-inkscape-font-specification:'Cooper Black, Normal';font-variant-ligatures:normal;font-variant-caps:normal;font-variant-numeric:normal;font-feature-settings:normal;text-align:start;writing-mode:lr-tb;text-anchor:start;fill:#ffffff"
       d="m 226.55469,21.258339 q -0.74219,0 -0.95703,0.449219 -0.19532,0.449218 -0.19532,2.089843 0,2.480469 0.3125,3.867188 0.0977,0.390625 0.29297,0.605469 0.19531,0.214843 0.74219,0.527343 1.17187,0.644532 1.17187,1.699219 0,1.289063 -1.64062,1.835938 -1.62109,0.527343 -5.50781,0.527343 -7.22657,0 -7.22657,-2.734375 0,-0.46875 0.21485,-0.742187 0.21484,-0.292969 0.97656,-0.800781 0.85938,-0.566407 1.15234,-1.328125 0.3125,-0.78125 0.42969,-2.675782 0.0977,-1.386718 0.0977,-9.941406 0,-2.714844 -0.27344,-3.691406 -0.27344,-0.9765626 -1.17187,-1.4257813 -0.85938,-0.4101563 -1.15235,-0.7421875 -0.29297,-0.3515625 -0.29297,-0.8984375 0,-0.7226563 0.54688,-1.25 0.5664,-0.546875 1.5625,-0.8007813 0.83984,-0.2148437 2.30469,-0.2148437 0.64453,0 3.22265,0.1953125 0.48828,0.039063 1.54297,0.039063 1.75781,0 4.6875,-0.234375 1.85547,-0.1367188 2.59766,-0.1367188 4.17968,0 6.91406,2.0117188 2.46094,1.8164062 2.46094,5.0390618 0,1.796875 -0.85938,3.28125 -0.85937,1.464844 -2.36328,2.207031 -0.625,0.3125 -0.625,0.742188 0,0.566406 0.95703,0.917969 2.05078,0.742187 3.00781,2.246093 0.95704,1.503907 1.36719,4.609375 0.17578,1.289063 0.50781,1.679688 0.33204,0.371094 1.54297,0.722656 0.3711,0.117188 0.625,0.507813 0.25391,0.371093 0.25391,0.839843 0,0.605469 -0.46875,1.230469 -0.46875,0.605469 -1.21094,0.957031 -1.64062,0.761719 -4.49219,0.761719 -3.80859,0 -5.44921,-2.011719 -0.74219,-0.898437 -1.26954,-2.265625 -0.50781,-1.367187 -1.21093,-4.257812 -0.44922,-1.855469 -1.15235,-2.617188 -0.68359,-0.761718 -1.97265,-0.820312 z m -1.13282,-9.960938 -0.21484,4.550782 q 0,0.05859 0,0.175781 0,0.703125 0.19531,0.9375 0.21485,0.234375 0.83985,0.234375 1.71875,0 2.5,-0.878906 0.78125,-0.898438 0.78125,-2.851563 0,-3.7695311 -2.67578,-3.7695311 -0.76172,0 -1.07422,0.3515621 -0.3125,0.351563 -0.35157,1.25 z"
       inkscape:connector-curvature="0" /><path
       id="path4654"
       style="font-style:normal;font-variant:normal;font-weight:normal;font-stretch:normal;font-size:40px;font-family:'Cooper Black';-inkscape-font-specification:'Cooper Black, Normal';font-variant-ligatures:normal;font-variant-caps:normal;font-variant-numeric:normal;font-feature-settings:normal;text-align:start;writing-mode:lr-tb;text-anchor:start;fill:#ffffff"
       d="m 270.10937,18.973183 3.69141,7.910156 q 0.52734,1.09375 0.87891,1.445312 0.35156,0.332032 1.07422,0.449219 1.40625,0.214844 1.40625,1.425781 0,1.425782 -1.71875,2.050782 -1.71875,0.625 -5.625,0.625 -4.41407,0 -6.54297,-0.371094 -0.97657,-0.175781 -1.5625,-0.703125 -0.56641,-0.546875 -0.56641,-1.308594 0,-0.585937 0.29297,-0.898437 0.3125,-0.332032 1.13281,-0.605469 0.91797,-0.3125 0.91797,-1.054688 0,-1.308593 -1.58203,-1.542968 -1.69922,-0.234375 -4.78516,-0.234375 -2.59765,0 -3.10547,0.3125 -0.3125,0.195312 -0.54687,0.703125 -0.23438,0.507812 -0.23438,0.976562 0,0.429688 0.15625,0.566406 0.17579,0.117188 1.09375,0.410157 1.19141,0.351562 1.19141,1.40625 0,2.324218 -5.56641,2.324218 -3.16406,0 -4.64843,-0.429687 -1.36719,-0.410156 -1.36719,-1.796875 0,-0.605469 0.29297,-0.9375 0.3125,-0.332031 1.09375,-0.605469 1.26953,-0.449219 1.91406,-1.25 0.66406,-0.820312 1.875,-3.476562 l 2.75391,-6.035157 q 1.52343,-3.320312 2.03125,-4.960937 0.52734,-1.660156 0.54687,-3.242188 0.0195,-1.6796871 0.19531,-2.3242183 0.19532,-0.6640625 0.83985,-1.2890625 1.34765,-1.3671875 3.4375,-1.3671875 1.97265,0 3.76953,1.5429687 2.5,2.109375 7.26562,12.2851566 z m -13.59375,2.460937 h 3.82813 q 1.05469,0 1.05469,-0.46875 0,-0.644531 -1.46485,-3.164062 -0.66406,-1.152344 -1.01562,-1.542969 -0.35156,-0.390625 -0.74219,-0.390625 -0.70312,0 -1.17187,1.308594 -0.0781,0.175781 -0.56641,1.386718 -0.82031,1.992188 -0.82031,2.382813 0,0.488281 0.89843,0.488281 z"
       inkscape:connector-curvature="0" /><path
       id="path4656"
       style="font-style:normal;font-variant:normal;font-weight:normal;font-stretch:normal;font-size:40px;font-family:'Cooper Black';-inkscape-font-specification:'Cooper Black, Normal';font-variant-ligatures:normal;font-variant-caps:normal;font-variant-numeric:normal;font-feature-settings:normal;text-align:start;writing-mode:lr-tb;text-anchor:start;fill:#ffffff"
       d="m 297.25781,24.383339 -2.34375,5.253906 q -0.60547,1.328125 -0.97656,1.796875 -0.37109,0.449219 -0.82031,0.449219 -0.42969,0 -0.76172,-0.371094 -0.21485,-0.234375 -0.9961,-1.71875 -0.76171,-1.484375 -1.26953,-2.636719 l -2.57812,-5.800781 q -0.52735,-1.210937 -1.11328,-1.210937 -0.625,0 -0.6836,1.035156 -0.13672,2.304687 -0.13672,4.257812 0,2.03125 0.19532,2.753907 0.13672,0.429687 0.35156,0.625 0.23437,0.195312 1.23047,0.703125 Q 288,29.852089 288,30.672401 q 0,2.1875 -5.60547,2.1875 -4.72656,0 -4.72656,-2.128906 0,-0.546875 0.23437,-0.78125 0.25391,-0.253906 1.26953,-0.742187 0.64454,-0.292969 0.85938,-0.800782 0.23437,-0.507812 0.39062,-1.972656 0.17579,-1.5625 0.33204,-5.117187 0.15625,-3.574219 0.15625,-6.113282 0,-3.183593 -0.48829,-4.316406 -0.17578,-0.390625 -0.41015,-0.585937 -0.21485,-0.195313 -0.83985,-0.5078128 -1.38671,-0.6640625 -1.38671,-1.71875 0,-0.6835938 0.50781,-1.25 0.52734,-0.5664063 1.38672,-0.8007813 0.85937,-0.2539062 2.28515,-0.4296875 1.44532,-0.1953125 2.44141,-0.1953125 2.5,0 3.53516,0.4101563 0.50781,0.1953125 0.80078,0.5273437 0.29297,0.3320313 0.83984,1.3671875 l 4.0625,7.4804686 q 0.66406,1.230469 0.91797,1.503906 0.25391,0.273438 0.70312,0.273438 0.39063,0 0.6836,-0.292969 0.3125,-0.292969 0.72265,-1.09375 l 2.75391,-5.371094 q 0.50781,-1.0351558 0.66406,-1.3476558 0.95703,-1.953125 1.89453,-2.5976563 1.19141,-0.8398437 4.33594,-0.8398437 5.52735,0 5.52735,2.5195312 0,0.5664063 -0.21485,0.9179688 -0.21484,0.3320312 -0.8789,0.8203125 -0.89844,0.6835933 -1.13282,1.9726563 -0.44922,2.695312 -0.44922,6.5625 0,4.980469 0.46875,8.730469 0.11719,0.917968 0.35157,1.25 0.2539,0.332031 1.26953,0.996093 0.70312,0.46875 0.70312,1.25 0,1.367188 -1.8164,1.933594 -0.9375,0.3125 -1.97266,0.410156 -1.03516,0.09766 -3.18359,0.09766 -3.30078,0 -4.92188,-0.46875 -1.79687,-0.527344 -1.79687,-1.796875 0,-0.46875 0.23437,-0.761719 0.23438,-0.3125 1.21094,-1.113281 0.50781,-0.410157 0.68359,-1.582032 0.19532,-1.171875 0.19532,-3.984375 0,-1.5625 -0.15625,-2.050781 -0.13672,-0.488281 -0.60547,-0.488281 -0.54688,0 -1.05469,0.761719 -0.50781,0.742187 -1.52344,2.988281 z"
       inkscape:connector-curvature="0" /></g></g></svg>