<?xml version="1.0" encoding="UTF-8" standalone="no"?>
<!-- Generator: Adobe Illustrator 16.0.0, SVG Export Plug-In . SVG Version: 6.00 Build 0)  -->

<svg
   xmlns:dc="http://purl.org/dc/elements/1.1/"
   xmlns:cc="http://creativecommons.org/ns#"
   xmlns:rdf="http://www.w3.org/1999/02/22-rdf-syntax-ns#"
   xmlns:svg="http://www.w3.org/2000/svg"
   xmlns="http://www.w3.org/2000/svg"
   xmlns:sodipodi="http://sodipodi.sourceforge.net/DTD/sodipodi-0.dtd"
   xmlns:inkscape="http://www.inkscape.org/namespaces/inkscape"
   version="1.1"
   id="Camada_1"
   x="0px"
   y="0px"
   width="39.2"
   height="35.8"
   viewBox="0 0 39.181001 35.817464"
   enable-background="new 0 0 74.074 74.074"
   xml:space="preserve"
   sodipodi:docname="instagram.svg"
   inkscape:version="0.92.3 (2405546, 2018-03-11)"><metadata
   id="metadata49"><rdf:RDF><cc:Work
       rdf:about=""><dc:format>image/svg+xml</dc:format><dc:type
         rdf:resource="http://purl.org/dc/dcmitype/StillImage" /></cc:Work></rdf:RDF></metadata><defs
   id="defs47">
	
	
</defs><sodipodi:namedview
   pagecolor="#ffffff"
   bordercolor="#666666"
   borderopacity="1"
   objecttolerance="10"
   gridtolerance="10"
   guidetolerance="10"
   inkscape:pageopacity="0"
   inkscape:pageshadow="2"
   inkscape:window-width="1366"
   inkscape:window-height="712"
   id="namedview45"
   showgrid="false"
   inkscape:zoom="3.1860033"
   inkscape:cx="14.097724"
   inkscape:cy="17.908731"
   inkscape:window-x="0"
   inkscape:window-y="0"
   inkscape:window-maximized="1"
   inkscape:current-layer="g40" />
<g
   id="g26"
   transform="matrix(1,0,0,1,-21.8,-18)">
		<g
   id="g20">
			<path
   style="fill: #9c3689; fill-rule: evenodd; clip-rule: evenodd"
   inkscape:connector-curvature="0"
   id="path2"
   d="M 25.1 27.1 c -2.1 -3.9 -1.5 -5.9 3.3 -7.8 c 4.8 -1.9 25.8 -1.6 24.3 0 c -1.5 1.6 0.3 1.1 -0.2 1.6 c -1.6 1 -3.5 1 -5.3 1 c -4.2 0.1 -8.4 0 -12.6 0 c -3.2 0 -5.7 1.1 -7.2 4.1 c -0.6 0.7 -1.2 1.3 -2.2 1.1 z" />
			<path
   style="fill: #803a8a; fill-rule: evenodd; clip-rule: evenodd"
   inkscape:connector-curvature="0"
   id="path4"
   d="M 51.6 20.7 c 0 -0.4 0 -0.7 0 -1.1 c 0.4 0 0.7 0 1.1 0 c 0.9 1.6 2.7 0.7 3.9 1.5 c 1.5 0.9 1.1 1.6 -0.5 1.9 c -1 0.9 -0.3 2.3 -1.2 3.3 c 0 0.7 0 1.4 0 2.2 c -3 0.1 -3.6 -2.6 -5 -4.4 c -0.5 -1.6 0.4 -2.5 1.7 -3.3 z" />
			<path
   style="fill: #c4496d; fill-rule: evenodd; clip-rule: evenodd"
   inkscape:connector-curvature="0"
   id="path6"
   d="M 25.1 27.1 c 0.4 -0.4 0.8 -0.8 1.2 -1.2 c 4.6 -5.2 11.1 -4.2 16.1 -2.8 c 4.9 1.4 9.7 4.7 14.4 7.4 c 2.6 2.6 2.9 5.5 1.5 8.8 c -0.1 0.9 -0.3 1.7 -1.2 2.1 c -1.1 1.2 -0.9 2.8 -1.6 4.1 c -1.7 1.8 -4.4 2.6 -5.9 1.7 c -4.3 -2.5 -5.5 -0.1 -6.7 3.2 c -8.4 4.3 -7.9 3.6 -14.6 -3.5 c -6.2 -6.5 -6.4 -12.5 -3 -19.8 z" />
			<path
   style="fill: #bf3684; fill-rule: evenodd; clip-rule: evenodd"
   inkscape:connector-curvature="0"
   id="path8"
   d="M 56 31.5 c -1.4 0.3 -1.2 -5.1 -4 -0.9 c -1 1.7 -2.2 -0.9 -3.1 -1.8 c -6 -5.5 -16.1 -6.8 -22.6 -2.9 c 0.8 -4 3.3 -5.6 7.3 -5.5 c 4.5 0.1 9 0.1 13.5 0.1 c 1.5 1.1 2.2 3.1 4.4 3.2 c 2.2 0.8 2.7 3.2 4.4 4.4 c 0.4 0.4 0.8 0.7 1.1 1.1 c 0.7 1.3 -0.4 1.7 -1.2 2.3 z" />
			<path
   style="fill: #bf3684; fill-rule: evenodd; clip-rule: evenodd"
   inkscape:connector-curvature="0"
   id="path10"
   d="M 42.7 50.4 c 1.6 -3 -2.2 -1.8 -2.8 -3.7 c 3.8 0 6.8 -1.5 9 -4.2 c 2 1.8 -0.3 2.7 0.1 4.2 c 2.2 0.3 4 -0.6 5.7 -1.9 c 2.1 -0.1 1.8 0.9 1.1 2.2 c -4.4 1.2 -8.8 2.3 -13.2 3.5 z" />
			<path
   style="fill: #89398a; fill-rule: evenodd; clip-rule: evenodd"
   inkscape:connector-curvature="0"
   id="path12"
   d="M 56 31.5 c 0.4 -0.8 0.8 -1.5 1.2 -2.3 c 3 3.1 6.4 6.1 1.1 10.1 c -0.7 -2.6 0.1 -5.7 -2.3 -7.8 z" />
			<path
   style="fill: #89398a; fill-rule: evenodd; clip-rule: evenodd"
   inkscape:connector-curvature="0"
   id="path14"
   d="M 56 46.9 c -0.1 -0.9 -0.2 -1.7 -1.1 -2.2 c 0 -1.6 0.6 -2.8 2.2 -3.4 c -1.2 1.7 3 4.4 -1.1 5.6 z" />
			<path
   style="fill: #9c3689; fill-rule: evenodd; clip-rule: evenodd"
   inkscape:connector-curvature="0"
   id="path16"
   d="M 55 26.5 c -0.6 -1.4 -2.1 -3.8 1 -3.9 c 1.5 -0.6 2.5 3.3 2.5 3.3 c 0 0 -3 2.2 -3.5 0.6 z" />
			<path
   style="fill: #a33489; fill-rule: evenodd; clip-rule: evenodd"
   inkscape:connector-curvature="0"
   id="path18"
   d="M 51.5 23.7 c -0.3 0.6 -0.9 1.7 -1 1.6 c -2.1 -0.9 -3.6 -2.3 -3.5 -4.8 c 1.8 0 3.7 -0.1 5.5 -0.1 c -0.4 1.1 -0.7 2.2 -1.1 3.3 z" />
		</g>
		<path
   style="fill: #d17b5c; fill-rule: evenodd; clip-rule: evenodd"
   inkscape:connector-curvature="0"
   id="path22"
   d="M 29.5 52.8 c -0.3 -0.1 -0.7 -0.2 -1.1 -0.3 c -4.4 -1.1 -5.7 -5.3 -6.4 -8.6 c -0.6 -3.3 -0.1 -7.1 0 -10.6 c 0.7 -2.3 2.4 -3.3 4.7 -3.5 c 0.5 -0.2 1.1 -0.3 1.6 0.1 c 1 0.3 1.9 -0.3 2.9 -0.3 c 1.5 0.5 2.8 1.8 2.8 3 c -0.2 3.2 1.6 3.3 3.8 3 c 5 3.6 4.5 3.5 2.3 9.6 c -2 5.5 -5.4 7.5 -10.7 7.6 z" />
		<path
   style="fill: #dfa251; fill-rule: evenodd; clip-rule: evenodd"
   inkscape:connector-curvature="0"
   id="path24"
   d="M 25 50.2 c -0.7 -0.1 -1.3 -0.1 -2 -0.2 c 0.1 -0.7 0.1 -1.3 0.2 -2 c 2.9 -1.3 1.8 -4.6 3.3 -6.6 c 1.9 -2.4 3 -1.6 3.3 1.1 c 1.4 2 4.1 1 5.6 2.6 c 1.3 0.1 2.6 0.3 3.8 0.4 c -0.4 5.4 -5.2 6 -8.7 8.1 c -2.9 0.5 -4.5 -1.2 -5.6 -3.5 z" />
	</g><g
   id="g40"
   transform="matrix(1,0,0,1,-17.4,-19.1)">
		<g
   id="g30"
   transform="translate(-2.8,2.3)">
			<path
   style="fill: #ffffff"
   inkscape:connector-curvature="0"
   id="path28"
   d="M 44.4 46.2 H 35.2 c -4.1 0 -7.5 -3.3 -7.5 -7.5 v -8.2 c 0 -4.1 3.3 -7.5 7.5 -7.5 h 9.3 c 4.1 0 7.5 3.3 7.5 7.5 v 8.2 c 0 4.1 -3.3 7.5 -7.5 7.5 z M 35.2 24.8 c -3.2 0 -5.8 2.6 -5.8 5.8 v 8.2 c 0 3.2 2.6 5.8 5.8 5.8 h 9.3 c 3.2 0 5.8 -2.6 5.8 -5.8 v -8.2 c 0 -3.2 -2.6 -5.8 -5.8 -5.8 z" />
		</g>
		<g
   id="g34"
   transform="translate(-2.8,2.3)">
			<path
   style="fill: #ffffff"
   inkscape:connector-curvature="0"
   id="path32"
   d="M 39.8 41.3 c -3.7 0 -6.6 -3 -6.6 -6.6 c 0 -3.7 3 -6.6 6.6 -6.6 c 3.7 0 6.6 3 6.6 6.6 c 0 3.7 -3 6.6 -6.6 6.6 z m 0 -11.6 c -2.7 0 -5 2.2 -5 5 c 0 2.7 2.2 5 5 5 c 2.7 0 5 -2.2 5 -5 c 0 -2.7 -2.2 -5 -5 -5 z" />
		</g>
		<g
   id="g38"
   transform="translate(-9.3,8.8)">
			<circle
   style="fill: #ffffff"
   id="circle36"
   r="1.4"
   cy="28.3"
   cx="46.3" />
		</g>
	</g>
</svg>