<?xml version="1.0" encoding="utf-8"?>
<!-- Generator: Adobe Illustrator 16.0.0, SVG Export Plug-In . SVG Version: 6.00 Build 0)  -->
<!DOCTYPE svg PUBLIC "-//W3C//DTD SVG 1.1//EN" "http://www.w3.org/Graphics/SVG/1.1/DTD/svg11.dtd">
<svg version="1.1" id="Camada_1" xmlns="http://www.w3.org/2000/svg" xmlns:xlink="http://www.w3.org/1999/xlink" x="0px" y="0px"
	 width="112.963px" height="129.629px" viewBox="0 0 112.963 129.629" enable-background="new 0 0 112.963 129.629"
	 xml:space="preserve">
<g>
	<path fill="#E6B54A" d="M95.609,95.569c-0.416-1.807-1.172-3.563-2.217-5.096c-1.877-2.758-4.676-4.517-7.715-5.751
		c-2.986-1.213-6.164-1.869-9.246-2.778c-2.783-0.821-5.711-1.841-7.83-3.901c-1.729-1.68-2.479-3.818-3.051-6.068
		c0.425-0.338,0.827-0.703,1.201-1.092c3.084-3.196,4.617-7.592,6.083-11.687c1.724-4.814,3.055-9.78,3.61-14.872
		c0.532-4.872,0.129-9.856-1.848-14.378c-2.108-4.828-6.311-8.411-11.074-10.484c-9.512-4.144-21.291-1.347-26.428,8.076
		c-0.414,0.76-0.765,1.541-1.063,2.338c-0.014-0.388-0.023-0.775-0.021-1.16c0-0.074-0.119-0.094-0.132-0.018
		c-0.141,0.807-0.223,1.612-0.26,2.413c-0.986,3.283-1.143,6.793-0.926,10.219c0.31,4.896,1.481,9.698,3.294,14.249
		c1.806,4.532,4.283,8.803,7.606,12.394c0.681,0.737,1.409,1.433,2.174,2.081c-0.443,0.843-0.795,1.735-1.049,2.665
		c-0.449,1.646-0.619,3.352-1.026,5.008c-0.349,1.41-0.916,2.822-2.118,3.717c-1.864,1.389-4.274,1.715-6.529,1.873
		c-2.913,0.205-5.684-0.127-8.55-0.627c-2.728-0.477-5.521-0.998-8.296-0.668c-2.551,0.303-5.248,1.53-6.669,3.77
		c-1.25,1.971-1.458,4.642-1.508,6.906c-0.067,2.967,0.169,6.574,1.699,9.202c0.512,0.882,1.593,0.627,2.002-0.037
		c2.481,0.221,5.219-0.5,7.565-0.72c3.472-0.324,6.93-1.009,10.402-1.39c7.14-0.782,14.337-1.459,21.521-1.629
		c6.685-0.159,13.359,0.419,19.973,1.368c3.236,0.464,6.46,1.027,9.678,1.608c1.59,0.287,3.176,0.582,4.763,0.875
		c1.503,0.278,3.249,0.979,4.66,0.217c0.043,0.146,0.089,0.291,0.144,0.434c0.271,0.717,1.139,0.682,1.422,0
		C96.715,100.55,96.104,97.714,95.609,95.569z M92.289,93.019c0.67,1.292,1.068,2.725,1.357,4.145
		c0.163,0.805,0.207,1.636,0.263,2.463c-0.44-1.684-1.026-3.355-1.578-4.986c-0.479-1.416-1.039-2.84-1.938-4.046
		c-2.143-2.874-6.039-3.861-9.333-4.691c-1.859-0.469-3.743-0.786-5.572-1.367c-2.019-0.643-3.977-1.471-5.854-2.451
		c-2.294-1.198-7.133-3.779-5.665-6.969c0.289,0.755,0.59,1.508,1.001,2.213c0.739,1.266,2.024,2.63,3.532,2.949
		c2.195,1.926,4.977,2.959,7.74,3.789C82.174,85.852,89.153,86.975,92.289,93.019z M67.003,78.68
		c-0.05-0.038-0.101-0.072-0.15-0.113c-0.735-0.611-1.255-1.449-1.712-2.276c-0.313-0.567-0.6-1.155-0.899-1.734
		c0.124-0.317,0.177-0.644,0.271-0.988c0.075-0.271-0.046-0.546-0.251-0.708c0.134-0.078,0.264-0.16,0.395-0.244
		C64.84,74.81,65.664,76.936,67.003,78.68z M37.333,34.901c0.278,3.886,2.157,7.685,4.167,10.9c0.005,0.497,0.015,0.994,0.032,1.492
		c0.004,0.118,0.18,0.118,0.183,0c0.24-6.241,0.493-12.484,2.229-18.353c-1.722,5.235-2.464,10.761-2.447,16.35
		c-1.914-3.443-3.659-7.187-3.921-11.158c-0.018-0.26-0.023-0.517-0.021-0.771c0.011-0.064,0.019-0.13,0.031-0.194
		c0.539-2.779,1.826-5.299,3.633-7.382c0.238-0.202,0.481-0.398,0.736-0.583c-0.227,0.159-0.446,0.324-0.66,0.493
		c1.426-1.621,3.168-2.973,5.123-3.97c0.294-0.15,0.593-0.291,0.894-0.422c-1.51,2.448-2.59,5.004-3.368,7.637
		c0.865-2.631,1.983-5.186,3.374-7.64c9.234-4.02,21.469,0.756,25.384,10.062c3.943,9.373,0.388,20.167-2.791,29.194
		c-1.837,5.213-5.925,13.661-12.803,10.597c-1.048-0.466-2.016-1.085-2.919-1.798c0.208-0.029,0.418-0.058,0.623-0.093
		c-0.211,0.031-0.424,0.058-0.641,0.08c-1.574-1.245-2.947-2.779-4.186-4.307c-2.509-3.094-4.577-6.606-6.407-10.134
		c-2.322-4.475-4.203-9.193-5.587-14.041c-0.292-1.023-0.569-2.07-0.818-3.13C37.175,36.781,37.229,35.836,37.333,34.901z
		 M45.695,63.546c-3.286-4.349-5.475-9.464-6.863-14.71c-0.316-1.197-0.608-2.429-0.859-3.681c0.493,1.612,1.038,3.21,1.625,4.787
		c2.28,6.101,5.252,12.357,9.558,17.373C47.898,66.167,46.736,64.923,45.695,63.546z M50.779,72.202
		c2.004,1.181,4.094,1.521,6.386,1.746c0.282,0.028,0.445-0.118,0.504-0.313c0.542,0.157,1.099,0.277,1.671,0.347
		c0.982,0.12,1.941,0.021,2.854-0.237c-0.703,0.854-0.958,2.06-0.755,3.245c0.294,1.715,1.534,3.105,2.822,4.189
		c3.187,2.677,7.36,4.328,11.333,5.429c1.892,0.524,3.869,0.832,5.818,1.232c2.328,1.762,3.721,4.391,4.238,7.514
		c0.038,0.231,0.398,0.137,0.353-0.096c-0.64-3.279-2.126-5.696-4.507-7.4c1.961,0.406,3.891,0.913,5.674,1.838
		c2.945,1.531,3.953,4.798,5.017,7.719c0.271,0.744,0.526,1.495,0.811,2.232c-0.667-0.196-1.401-0.27-2.154-0.416
		c-0.593-0.113-1.185-0.227-1.776-0.341c-0.014-3.748-2.126-7.132-4.742-9.702c-0.028-0.027-0.07,0.015-0.044,0.043
		c1.405,1.49,2.6,3.094,3.397,4.988c0.624,1.479,0.768,3.022,0.928,4.583c-0.985-0.19-1.97-0.38-2.954-0.567
		c-3.21-0.608-6.429-1.188-9.659-1.684c-6.729-1.036-13.508-1.578-20.316-1.439c-5.274,0.106-10.572,0.514-15.831,1.112
		c-4.046,0.138-8.085,0.413-12.098,0.979c-2.281,0.322-4.512,0.904-6.755,1.422c-0.301-2.858,0.696-5.457,2.395-7.861
		c0.045-0.064-0.06-0.123-0.106-0.062c-1.784,2.429-2.826,5.063-2.564,7.986c-0.165,0.037-0.329,0.075-0.494,0.112
		c-0.917,0.203-1.942,0.461-2.982,0.643c-1.199-3.432-0.591-6.788,0.95-9.85c0.615-0.685,1.313-1.318,2.111-1.883
		c0.032-0.023,0.001-0.074-0.031-0.053c-0.714,0.49-1.347,1.036-1.92,1.622c0.564-1.07,1.24-2.104,1.989-3.09
		c0.042-0.055-0.053-0.127-0.096-0.072c-0.928,1.154-1.821,2.471-2.54,3.875c-1.563,1.858-2.547,4.082-3.095,6.466
		c-0.065-0.736-0.095-1.467-0.117-2.156c-0.012-0.385-0.02-0.781-0.02-1.185c0.352-1.901,0.97-3.708,2.092-5.159
		c2.166-2.804,6.164-2.921,9.394-2.87c0.927,0.014,1.952,0.08,3.037,0.16c0.63,0.111,1.262,0.216,1.892,0.303
		c1.824,0.252,3.653,0.273,5.476,0.128c5.565,0.021,10.903-1.126,12.547-6.851c0.283-0.984,0.385-2.027,0.432-3.046
		c0.063-1.406-0.015-2.523-0.685-3.76c-0.179-0.329-0.657-0.302-0.841-0.015c0.12-0.529,0.264-1.049,0.434-1.563
		C49.049,71.09,49.893,71.682,50.779,72.202z M14.691,97.235c0.433-2.469,1.299-4.805,2.781-6.777
		c-1.374,2.884-1.963,6.1-0.593,9.047c-0.547,0.086-1.094,0.146-1.63,0.162C14.971,98.898,14.8,98.07,14.691,97.235z M46.834,79.248
		c0.417-1.814,0.423-3.795,0.673-5.568C47.348,75.541,47.56,77.43,46.834,79.248z M16.932,85.723
		c-0.354,0.277-0.674,0.582-0.962,0.911C16.244,86.281,16.568,85.979,16.932,85.723z M15.658,100.592
		c-0.039-0.075-0.08-0.149-0.118-0.227c0.404,0.026,0.819,0.015,1.233-0.021C16.399,100.422,16.028,100.503,15.658,100.592z"/>
	<path fill="#E6B54A" d="M41.956,25.204c0.569-0.397,1.178-0.763,1.819-1.102C43.132,24.425,42.523,24.793,41.956,25.204z"/>
	<path fill="#E6B54A" d="M44.665,23.655c-0.304,0.143-0.599,0.293-0.89,0.447c0.294-0.147,0.595-0.287,0.903-0.416
		C44.7,23.676,44.687,23.644,44.665,23.655z"/>
	<path fill="#E6B54A" d="M70.742,55.008c0.14-0.193-0.176-0.369-0.316-0.185c-3.949,5.192-7.028,11.742-13.3,13.883
		c2.416-0.767,4.527-2.064,6.444-4.006C66.396,61.839,68.398,58.246,70.742,55.008z"/>
	<path fill="#E6B54A" d="M54.813,69.264c0.818-0.121,1.587-0.311,2.313-0.558C56.385,68.941,55.613,69.125,54.813,69.264z"/>
</g>
</svg>
