<?xml version="1.0" encoding="UTF-8" standalone="no"?>
<!-- Generator: Adobe Illustrator 16.0.0, SVG Export Plug-In . SVG Version: 6.00 Build 0)  -->

<svg
   xmlns:dc="http://purl.org/dc/elements/1.1/"
   xmlns:cc="http://creativecommons.org/ns#"
   xmlns:rdf="http://www.w3.org/1999/02/22-rdf-syntax-ns#"
   xmlns:svg="http://www.w3.org/2000/svg"
   xmlns="http://www.w3.org/2000/svg"
   xmlns:sodipodi="http://sodipodi.sourceforge.net/DTD/sodipodi-0.dtd"
   xmlns:inkscape="http://www.inkscape.org/namespaces/inkscape"
   version="1.1"
   id="Camada_1"
   x="0px"
   y="0px"
   width="86.378181"
   height="87.801315"
   viewBox="0 0 86.378183 87.801317"
   enable-background="new 0 0 112.963 129.629"
   xml:space="preserve"
   sodipodi:docname="perguntas.svg"
   inkscape:version="0.92.3 (2405546, 2018-03-11)"><metadata
   id="metadata55"><rdf:RDF><cc:Work
       rdf:about=""><dc:format>image/svg+xml</dc:format><dc:type
         rdf:resource="http://purl.org/dc/dcmitype/StillImage" /></cc:Work></rdf:RDF></metadata><defs
   id="defs53" /><sodipodi:namedview
   pagecolor="#ffffff"
   bordercolor="#666666"
   borderopacity="1"
   objecttolerance="10"
   gridtolerance="10"
   guidetolerance="10"
   inkscape:pageopacity="0"
   inkscape:pageshadow="2"
   inkscape:window-width="1366"
   inkscape:window-height="712"
   id="namedview51"
   showgrid="false"
   inkscape:zoom="1.8205803"
   inkscape:cx="-26.629176"
   inkscape:cy="46.228557"
   inkscape:window-x="0"
   inkscape:window-y="0"
   inkscape:window-maximized="1"
   inkscape:current-layer="Camada_1" />
<g
   id="g48"
   transform="translate(-16.099074,-23.241744)">
	<path
   d="m 58.459,36.541 c -3.45,-0.693 -7.104,-0.576 -10.457,0.414 -3.591,1.061 -6.308,3.236 -8.548,5.797 -7.018,8.027 -7.31,18.129 -2.697,27.12 1.239,2.414 2.874,4.677 4.244,7.035 1.597,2.746 3.003,5.566 4.191,8.461 0.827,2.016 1.053,4.02 1.672,6.065 0.341,1.124 0.997,2.188 2.165,2.681 0.007,0.082 0.052,0.16 0.143,0.203 2.352,1.086 5.005,0.962 7.58,0.639 1.46,-0.184 2.884,-0.529 4.319,-0.813 1.359,-0.268 2.848,-0.245 4.1,-0.767 0.008,-0.005 0.012,-0.011 0.02,-0.013 1.045,1.182 2.291,2.258 1.067,3.547 -0.2,0.001 -0.384,0.117 -0.393,0.332 -10e-4,0.008 0,0.015 0,0.021 -1.784,1.403 -4.712,1.848 -7.021,2.077 -3.324,0.333 -12.578,0.355 -10.063,-4.528 0.113,-0.22 -0.21,-0.387 -0.376,-0.189 -1.208,1.441 -1.137,2.908 0.063,4.009 -1.577,1.897 -2.08,4.297 -0.541,6.204 -1.048,3.402 2.624,5.881 6.693,6.18 2.447,0.179 5.127,-0.547 7.161,-1.68 1.437,-0.8 4.01,-3.048 3.754,-4.816 0.119,-0.099 0.238,-0.197 0.352,-0.301 1.604,-1.453 2.791,-4.607 1.408,-6.503 1.692,-1.657 0.756,-4.215 -1.356,-5.331 0.015,-0.027 0.032,-0.053 0.042,-0.086 0.498,-1.891 0.523,-3.777 0.777,-5.696 0.289,-2.17 0.936,-4.306 1.682,-6.388 1.393,-3.891 3.378,-7.609 5.182,-11.367 3.027,-6.309 6.072,-13.266 2.57,-19.928 C 73.011,42.865 65.973,38.048 58.459,36.541 Z m 4.902,69.452 c -0.483,0.829 -1.256,1.525 -2.116,2.075 -1.655,1.06 -3.744,1.576 -5.785,1.668 -1.873,0.084 -3.906,-0.146 -5.409,-1.186 -1.147,-0.793 -1.508,-1.93 -1.544,-3.109 0.028,0.027 0.052,0.055 0.083,0.081 2.143,1.839 5.682,2.2 8.548,1.976 2.156,-0.171 4.382,-0.688 6.289,-1.634 -0.022,0.044 -0.041,0.087 -0.066,0.129 z m 2.982,-5.257 c -0.117,1.043 -0.807,1.992 -1.631,2.735 -1.912,1.72 -4.888,2.515 -7.574,2.753 -2.48,0.221 -5.264,0.044 -7.359,-1.219 -0.522,-0.313 -0.9,-0.688 -1.175,-1.101 0.015,-0.112 0.032,-0.225 0.05,-0.335 0.008,-0.056 -0.077,-0.099 -0.114,-0.042 -0.031,0.05 -0.055,0.097 -0.084,0.144 -0.815,-1.474 -0.393,-3.383 0.093,-4.965 0.3,0.26 0.663,0.498 1.089,0.709 2.687,1.33 6.215,1.329 9.206,1.074 2.387,-0.205 5.139,-0.656 7.204,-1.859 0.17,0.685 0.379,1.366 0.295,2.106 z M 54.101,90.014 c 0.008,-0.043 0.02,-0.084 0.028,-0.125 0.054,0.025 0.109,0.046 0.166,0.055 0.859,0.121 1.966,0.27 2.484,0.949 0.507,0.666 -2.189,1.141 -2.53,1.195 -0.103,0.016 -0.201,0.059 -0.29,0.115 0.013,-0.727 0.005,-1.458 0.142,-2.189 z m 1.156,-1.201 c 0.124,-0.729 0.456,-1.397 0.914,-2.039 0.372,0.854 0.783,1.715 1.293,2.498 0.069,0.105 0.142,0.209 0.215,0.313 -0.652,-0.441 -1.585,-0.663 -2.422,-0.772 z m 0.658,-2.6 c 0.004,-0.006 0.007,-0.01 0.012,-0.016 0.002,0.006 0.004,0.01 0.007,0.016 -0.007,0 -0.013,0 -0.019,0 z m 1.358,1.15 c -0.081,-0.222 -0.168,-0.442 -0.258,-0.663 1.269,0.87 1.532,2.296 1.771,3.776 -0.406,-1.055 -1.122,-2.043 -1.513,-3.113 z m -3.487,6.478 c 0.029,-0.056 0.053,-0.116 0.064,-0.188 0.011,-0.067 0.018,-0.136 0.026,-0.204 0.104,0.145 0.213,0.262 0.331,0.352 -0.141,0.013 -0.281,0.029 -0.421,0.04 z m 2.563,-0.334 c 0.01,-0.079 -10e-4,-0.161 -0.042,-0.227 -0.021,-0.034 -0.048,-0.063 -0.072,-0.093 1.223,-0.404 2.352,-1.104 2.265,-2.309 -0.003,-0.041 -0.013,-0.08 -0.019,-0.12 0.454,0.949 -0.243,1.804 -0.954,2.519 -0.399,0.085 -0.791,0.162 -1.178,0.23 z m 1.437,-0.282 c 0.529,-0.469 1.072,-1.037 1.186,-1.675 0.086,0.442 0.191,0.88 0.342,1.296 -0.5,0.133 -0.981,0.26 -1.425,0.357 -0.035,0.008 -0.069,0.014 -0.103,0.022 z m 13.335,-23.12 c -1.753,3.484 -3.544,6.961 -4.856,10.592 -1.275,3.531 -2.593,7.923 -1.203,11.537 -0.023,-0.008 -0.043,-0.021 -0.068,-0.027 -1.1,-0.278 -2.401,-0.127 -3.688,0.148 0.029,-1.765 -0.37,-4.021 -1.609,-5.42 -0.7,-1.203 -1.967,-1.979 -3.513,-2.38 -0.202,-0.849 0.182,-1.217 0.833,-1.982 0.665,-0.78 1.34,-1.845 0.329,-2.62 -0.378,-0.29 -0.964,-0.427 -1.43,-0.577 -0.962,-0.313 -0.573,-1.596 -0.568,-2.335 0.012,-1.396 0.133,-2.494 0.62,-3.827 0.761,-2.084 -0.501,-2.895 -2.634,-2.968 0.488,-1.223 2.137,-1.913 2.708,-3.105 0.552,-1.152 -0.584,-2.431 -1.374,-3.282 -0.516,-0.559 -0.238,-0.556 0.043,-1.335 0.301,-0.838 0.652,-1.655 0.896,-2.506 0.336,-1.178 0.467,-2.814 -0.869,-3.549 -0.382,-0.212 -0.829,0.132 -0.73,0.48 0.217,0.764 0.503,1.365 0.439,2.177 -0.066,0.819 -0.43,1.649 -0.72,2.426 -0.226,0.605 -1.045,2.07 -0.385,2.641 0.485,0.419 0.886,0.893 1.242,1.396 0.71,1 0.166,1.482 -0.605,2.229 -0.89,0.862 -1.773,1.719 -1.896,2.907 -0.025,0.253 0.276,0.495 0.563,0.483 1.286,-0.057 2.793,-0.127 2.451,1.303 -0.198,0.826 -0.592,1.599 -0.732,2.438 -0.188,1.122 -0.001,2.357 0.007,3.49 0.007,0.844 -0.005,1.27 0.989,1.607 0.753,0.256 2.014,0.368 1.351,1.557 -0.284,0.51 -0.785,0.948 -1.156,1.413 -0.377,0.47 -0.407,0.972 -0.292,1.475 -0.131,0.038 -0.253,0.094 -0.338,0.185 -2.127,2.229 -3.894,6.09 -2.75,8.978 0.04,0.099 0.109,0.187 0.194,0.261 -0.667,0.016 -1.344,0.009 -2.044,-0.027 -0.041,-0.038 -0.091,-0.068 -0.167,-0.083 -2.027,-0.392 -2.345,-2.317 -2.541,-3.821 -0.227,-1.746 -0.542,-3.216 -1.199,-4.904 -1.546,-3.982 -3.62,-7.804 -5.865,-11.525 -2.188,-3.634 -4.126,-7.135 -5,-11.192 -0.832,-3.865 -0.538,-7.875 0.791,-11.63 1.332,-3.762 3.999,-7.446 7.403,-10.086 2.983,-2.313 6.997,-3.259 10.95,-3.154 8.291,0.22 16.377,5.506 19.883,11.783 3.852,6.892 -0.234,14.422 -3.46,20.829 z"
   id="path2"
   inkscape:connector-curvature="0"
   style="fill:#e6b54a" />
	<path
   d="m 48.503,68.548 c -0.603,0.135 -1.178,0.108 -1.749,-0.113 -0.391,-0.153 -0.655,-0.479 -1.106,-0.476 -0.146,0.002 -0.287,0.109 -0.279,0.239 0.032,0.537 0.731,0.764 1.244,0.93 0.662,0.216 1.412,0.17 2.072,-0.016 0.416,-0.116 0.247,-0.658 -0.182,-0.564 z"
   id="path4"
   inkscape:connector-curvature="0"
   style="fill:#e6b54a" />
	<path
   d="M 48.736,65.056 C 48.391,64.758 48.134,64.392 47.89,64.03 47.619,63.625 47.424,63.188 47.254,62.745 47.093,62.324 47.048,61.957 46.67,61.641 c -0.233,-0.193 -0.568,-0.086 -0.675,0.153 -0.344,0.777 0.442,1.801 0.898,2.45 0.257,0.365 0.572,0.7 0.901,1.018 0.162,0.157 0.348,0.293 0.535,0.428 0.188,0.137 0.358,0.063 0.583,0.139 0.193,0.063 0.287,-0.158 0.181,-0.268 -0.161,-0.167 -0.156,-0.33 -0.357,-0.505 z"
   id="path6"
   inkscape:connector-curvature="0"
   style="fill:#e6b54a" />
	<path
   d="m 48.992,58.723 c -0.788,-1.648 -0.944,-3.279 -0.917,-5.044 0.002,-0.21 -0.365,-0.253 -0.427,-0.05 -0.534,1.766 0.279,3.575 1.287,5.114 0.018,0.026 0.071,0.007 0.057,-0.02 z"
   id="path8"
   inkscape:connector-curvature="0"
   style="fill:#e6b54a" />
	<path
   d="m 53.608,49.052 c -1.865,0.92 -2.001,3.068 -1.542,4.675 0.057,0.202 0.454,0.164 0.427,-0.049 -0.1,-0.769 -0.053,-1.494 0.21,-2.238 0.262,-0.744 0.882,-1.375 1.288,-2.061 0.122,-0.209 -0.13,-0.452 -0.383,-0.327 z"
   id="path10"
   inkscape:connector-curvature="0"
   style="fill:#e6b54a" />
	<path
   d="m 62.038,53.772 c 0.104,-0.136 -0.068,-0.32 -0.246,-0.274 -0.799,0.21 -1.505,0.911 -2.135,1.366 -0.813,0.587 -1.553,1.264 -2.248,1.952 -0.026,0.027 0.014,0.06 0.044,0.037 0.753,-0.54 1.567,-1.006 2.34,-1.521 0.702,-0.47 1.757,-0.915 2.245,-1.56 z"
   id="path12"
   inkscape:connector-curvature="0"
   style="fill:#e6b54a" />
	<path
   d="m 64.921,59.808 c -1.099,-0.502 -2.826,0.289 -3.857,0.661 -0.214,0.077 -0.142,0.359 0.1,0.308 0.576,-0.123 1.152,-0.238 1.739,-0.319 0.659,-0.091 1.43,0.008 2.019,-0.282 0.155,-0.077 0.165,-0.292 -10e-4,-0.368 z"
   id="path14"
   inkscape:connector-curvature="0"
   style="fill:#e6b54a" />
	<path
   d="m 62.586,65.275 c -0.548,-0.003 -1.036,-0.093 -1.548,-0.254 -0.521,-0.163 -1.067,-0.138 -1.383,-0.617 -0.011,-0.016 -0.041,-0.002 -0.03,0.014 0.252,0.411 0.496,0.791 0.878,1.125 0.498,0.434 1.414,0.505 2.083,0.53 0.6,0.023 0.602,-0.796 0,-0.798 z"
   id="path16"
   inkscape:connector-curvature="0"
   style="fill:#e6b54a" />
	<path
   d="m 59.029,68.647 c -0.24,-0.103 -0.525,0.168 -0.301,0.334 0.869,0.648 1.785,1.269 2.615,1.952 0.493,0.407 1.254,-0.254 0.746,-0.64 -0.93,-0.705 -1.954,-1.174 -3.06,-1.646 z"
   id="path18"
   inkscape:connector-curvature="0"
   style="fill:#e6b54a" />
	<path
   d="m 29.682,74.801 c -1.082,-0.605 -2.379,-0.193 -3.586,0.001 -1.816,0.292 -3.649,0.614 -5.487,0.788 -0.235,0.022 -0.306,0.303 -0.058,0.366 1.568,0.402 2.858,0.367 4.477,0.21 1.428,-0.139 3.473,0.058 4.654,-0.676 0.286,-0.177 0.31,-0.515 0,-0.689 z"
   id="path20"
   inkscape:connector-curvature="0"
   style="fill:#e6b54a" />
	<path
   d="m 26.607,66.64 c 0.383,-0.136 0.382,-0.531 0,-0.667 -1.438,-0.515 -3.396,-0.184 -4.952,-0.254 -1.842,-0.082 -3.683,-0.256 -5.441,-0.752 -0.103,-0.029 -0.159,0.099 -0.072,0.145 1.469,0.781 3.067,1.282 4.782,1.486 1.677,0.198 4.098,0.608 5.683,0.042 z"
   id="path22"
   inkscape:connector-curvature="0"
   style="fill:#e6b54a" />
	<path
   d="m 18.211,53.323 c 1.297,0.747 2.53,1.584 3.8,2.366 1.122,0.691 2.403,1.729 3.869,1.505 0.277,-0.042 0.394,-0.355 0.259,-0.547 -0.698,-0.991 -2.309,-1.405 -3.431,-1.982 -1.381,-0.71 -2.702,-1.422 -4.21,-1.926 -0.414,-0.139 -0.618,0.393 -0.287,0.584 z"
   id="path24"
   inkscape:connector-curvature="0"
   style="fill:#e6b54a" />
	<path
   d="m 25.401,42.107 c 0.76,0.864 1.889,2.446 3.309,2.42 0.297,-0.005 0.443,-0.264 0.321,-0.479 -0.325,-0.577 -1.013,-0.893 -1.544,-1.323 -0.627,-0.513 -1.174,-1.101 -1.726,-1.671 -1.05,-1.086 -2.029,-2.119 -3.57,-2.689 -0.207,-0.076 -0.47,0.146 -0.264,0.293 1.364,0.971 2.416,2.244 3.474,3.449 z"
   id="path26"
   inkscape:connector-curvature="0"
   style="fill:#e6b54a" />
	<path
   d="m 34.96,34.823 c 0.268,-1.016 -0.381,-1.925 -0.866,-2.832 -0.674,-1.264 -1.476,-2.446 -2.225,-3.675 -0.137,-0.225 -0.505,-0.063 -0.454,0.165 0.281,1.243 0.762,2.356 1.315,3.526 0.466,0.984 0.686,2.207 1.606,2.958 0.196,0.158 0.561,0.1 0.624,-0.142 z"
   id="path28"
   inkscape:connector-curvature="0"
   style="fill:#e6b54a" />
	<path
   d="m 43.94,30.663 c 0.195,0.072 0.403,0.077 0.564,-0.062 0.66,-0.569 0.225,-1.352 0.055,-2.047 -0.263,-1.082 -0.487,-2.188 -0.625,-3.287 -0.068,-0.543 -0.939,-0.552 -0.993,0 -0.106,1.062 -0.097,2.08 0.059,3.137 0.109,0.732 0.025,1.922 0.94,2.259 z"
   id="path30"
   inkscape:connector-curvature="0"
   style="fill:#e6b54a" />
	<path
   d="m 55.57,30.492 c 0.73,-0.979 0.548,-2.301 0.685,-3.426 0.16,-1.323 0.199,-2.426 -0.148,-3.729 -0.034,-0.129 -0.261,-0.125 -0.299,0 -0.41,1.338 -0.743,2.646 -1.022,4.009 -0.216,1.058 -0.585,2.177 0.087,3.146 0.16,0.23 0.535,0.218 0.697,0 z"
   id="path32"
   inkscape:connector-curvature="0"
   style="fill:#e6b54a" />
	<path
   d="m 65.147,33.776 c 1.24,-0.879 1.809,-2.974 2.316,-4.258 0.667,-1.688 1.188,-3.419 1.355,-5.198 0.03,-0.329 -0.603,-0.403 -0.672,-0.078 -0.358,1.689 -1.062,3.282 -1.866,4.85 -0.664,1.292 -2.06,2.949 -1.982,4.382 0.021,0.392 0.515,0.537 0.849,0.302 z"
   id="path34"
   inkscape:connector-curvature="0"
   style="fill:#e6b54a" />
	<path
   d="m 80.046,28.948 c -1.123,1.319 -2.244,2.65 -3.224,4.052 -0.846,1.209 -2.218,2.82 -2.183,4.264 0.009,0.366 0.49,0.504 0.795,0.282 1.246,-0.909 1.785,-2.729 2.525,-3.976 0.865,-1.458 1.634,-2.955 2.515,-4.407 0.152,-0.247 -0.242,-0.434 -0.428,-0.215 z"
   id="path36"
   inkscape:connector-curvature="0"
   style="fill:#e6b54a" />
	<path
   d="m 87.248,35.356 c -1.513,0.866 -2.532,2.355 -3.61,3.577 -0.74,0.838 -1.522,1.647 -2.291,2.468 -0.564,0.606 -0.963,0.878 -0.828,1.657 0.03,0.182 0.278,0.316 0.479,0.312 1.62,-0.022 2.799,-2.401 3.556,-3.423 1.03,-1.392 2.347,-2.919 2.721,-4.574 0,-0.012 -0.013,-0.025 -0.027,-0.017 z"
   id="path38"
   inkscape:connector-curvature="0"
   style="fill:#e6b54a" />
	<path
   d="m 88.188,47.872 c 1.025,-0.914 2.156,-1.75 3.213,-2.634 0.066,-0.057 0.042,-0.139 -0.026,-0.181 -0.058,-0.035 -0.126,-0.085 -0.2,-0.13 0.048,-0.021 0.094,-0.047 0.141,-0.075 0.02,-0.011 0.002,-0.036 -0.018,-0.025 -0.052,0.025 -0.102,0.052 -0.153,0.079 -0.084,-0.049 -0.174,-0.09 -0.263,-0.095 -0.067,-0.004 -0.076,0.071 -0.031,0.1 0.064,0.041 0.127,0.055 0.186,0.051 -1.163,0.591 -2.29,1.237 -3.345,1.986 -0.991,0.702 -2.444,1.698 -2.665,2.849 -0.056,0.288 0.262,0.555 0.593,0.391 1.034,-0.513 1.742,-1.581 2.568,-2.316 z"
   id="path40"
   inkscape:connector-curvature="0"
   style="fill:#e6b54a" />
	<path
   d="m 102.354,53.572 c -2.287,-0.071 -4.507,0.22 -6.7,0.784 -1.391,0.358 -4.733,1.51 -4.028,3.21 0.077,0.187 0.296,0.323 0.534,0.26 0.678,-0.177 1.067,-0.653 1.549,-1.074 0.821,-0.717 2.046,-1.104 3.127,-1.424 1.864,-0.553 3.833,-0.731 5.58,-1.559 0.112,-0.052 0.058,-0.192 -0.062,-0.197 z"
   id="path42"
   inkscape:connector-curvature="0"
   style="fill:#e6b54a" />
	<path
   d="m 100.905,65.598 c -2.222,-0.723 -4.821,-0.463 -7.131,-0.218 -1.354,0.144 -5.068,0.615 -5.143,2.188 -0.008,0.166 0.146,0.354 0.342,0.387 0.797,0.129 1.277,-0.328 1.995,-0.588 1.09,-0.395 2.312,-0.602 3.469,-0.789 2.147,-0.345 4.407,-0.155 6.468,-0.827 0.088,-0.029 0.088,-0.125 0,-0.153 z"
   id="path44"
   inkscape:connector-curvature="0"
   style="fill:#e6b54a" />
	<path
   d="m 86.61,75.492 c -0.373,-0.06 -0.604,0.355 -0.264,0.537 2.778,1.473 6.088,2.514 9.379,2.287 0.019,0 0.025,-0.026 0.004,-0.03 -3.265,-0.403 -5.932,-2.272 -9.119,-2.794 z"
   id="path46"
   inkscape:connector-curvature="0"
   style="fill:#e6b54a" />
</g>
</svg>