<?xml version="1.0" encoding="UTF-8" standalone="no"?>
<!-- Created with Inkscape (http://www.inkscape.org/) -->

<svg
   xmlns:dc="http://purl.org/dc/elements/1.1/"
   xmlns:cc="http://creativecommons.org/ns#"
   xmlns:rdf="http://www.w3.org/1999/02/22-rdf-syntax-ns#"
   xmlns:svg="http://www.w3.org/2000/svg"
   xmlns="http://www.w3.org/2000/svg"
   xmlns:sodipodi="http://sodipodi.sourceforge.net/DTD/sodipodi-0.dtd"
   xmlns:inkscape="http://www.inkscape.org/namespaces/inkscape"
   version="1.1"
   id="svg2"
   xml:space="preserve"
   width="149.15253"
   height="149.15253"
   viewBox="0 0 149.15252 149.15253"
   sodipodi:docname="Benzadeus.svg"
   inkscape:version="0.92.3 (2405546, 2018-03-11)"><metadata
     id="metadata8"><rdf:RDF><cc:Work
         rdf:about=""><dc:format>image/svg+xml</dc:format><dc:type
           rdf:resource="http://purl.org/dc/dcmitype/StillImage" /><dc:title></dc:title></cc:Work></rdf:RDF></metadata><defs
     id="defs6"><clipPath
       clipPathUnits="userSpaceOnUse"
       id="clipPath20"><path
         d="M 0,300 H 300 V 0 H 0 Z"
         id="path18"
         inkscape:connector-curvature="0" /></clipPath></defs><sodipodi:namedview
     pagecolor="#ffffff"
     bordercolor="#666666"
     borderopacity="1"
     objecttolerance="10"
     gridtolerance="10"
     guidetolerance="10"
     inkscape:pageopacity="0"
     inkscape:pageshadow="2"
     inkscape:window-width="1366"
     inkscape:window-height="712"
     id="namedview4"
     showgrid="false"
     inkscape:zoom="0.59"
     inkscape:cx="-90.74784"
     inkscape:cy="200.92977"
     inkscape:window-x="0"
     inkscape:window-y="0"
     inkscape:window-maximized="1"
     inkscape:current-layer="g10" /><g
     id="g10"
     inkscape:groupmode="layer"
     inkscape:label="Benzadeus"
     transform="matrix(1.3333333,0,0,-1.3333333,-12.781736,148.22277)"><g
       id="g19"
       transform="matrix(0.37288134,0,0,0.37288134,9.5863019,-0.69732434)"><path
         inkscape:connector-curvature="0"
         id="path12"
         style="fill:#00519a;fill-opacity:1;fill-rule:nonzero;stroke:none"
         d="M 0,0 H 300 V 300 H 0 Z" /><g
         id="g14"><g
           clip-path="url(#clipPath20)"
           id="g16"><g
             transform="translate(36.3044,60.0162)"
             id="g22"><path
               inkscape:connector-curvature="0"
               id="path24"
               style="fill:#ffffff;fill-opacity:1;fill-rule:evenodd;stroke:none"
               d="m 0,0 v -2.398 -11.314 c 1.707,-1.639 4.024,-2.648 6.578,-2.648 5.248,0 9.502,4.256 9.502,9.503 0,5.249 -4.254,9.501 -9.502,9.501 C 4.024,2.644 1.707,1.638 0,0 m 113.452,201.952 c -25.203,0 -47.57,-11.031 -62.887,-28.769 -7.587,-9.267 5.672,-14.821 10.949,-6.59 14,14.533 31.511,22.57 51.938,22.57 20.091,0 38.005,-8.243 51.808,-22.57 5.275,-8.231 18.704,-2.677 11.117,6.59 -15.758,18.243 -38.712,28.769 -62.925,28.769 M 37.489,83.651 c 0.034,-0.025 0.068,-0.046 0.103,-0.071 13.251,-28.676 42.296,-48.656 75.86,-48.656 42.852,0 78.48,32.658 83.026,74.297 0.988,11.934 -13.218,8.886 -12.894,-0.886 -5.653,-34.314 -33.984,-60.622 -70.132,-60.622 -28.927,0 -53.884,17.524 -64.815,42.497 -0.014,0 -0.025,-0.002 -0.039,-0.002 -2.45,5.656 -4.211,11.704 -5.271,18.127 0.327,9.772 -13.881,12.82 -12.892,0.884 0.966,-8.831 3.382,-17.496 7.054,-25.568 M 88.307,87.44 C 83.471,73.008 80.029,63.909 97.233,58.84 l 6.638,34.298 c 0.763,-0.123 1.554,-0.231 2.372,-0.323 l -4.356,-35.56 c 8.75,-1.908 15.255,-1.674 23.949,0.285 l -4.92,35.288 c 0.882,0.102 1.738,0.221 2.557,0.359 l 6.683,-34.347 c 17.34,5.11 13.95,14.127 9.152,28.616 -3.907,11.803 -7.31,23.701 -10.859,35.646 0.322,0.071 0.642,0.148 0.966,0.231 l 10.107,-20.256 c 5.318,-9.448 36.094,2.458 25.718,10.45 l -24.188,14.671 c 0.743,0.421 1.481,0.86 2.214,1.317 8.229,-4.53 19.793,-9.215 26.341,-13.669 9.303,-6.32 30.968,11.903 17.937,15.716 l -32.523,7.271 c 0.574,0.581 1.127,1.165 1.658,1.754 l 34.162,-6.019 c 12.565,-3.241 26.983,26.785 5.113,23.975 l -32.293,-6.057 c 0.013,0.064 0.028,0.126 0.04,0.188 -11.539,-1.502 -23.194,-3.175 -36.701,-3.466 -1.662,12.885 -2.707,20.163 10.679,28.212 -15.887,0.37 -36.057,2.733 -37.332,-17.516 -0.495,-4.953 -0.988,-5.756 -1.483,-10.71 -11.059,0.488 -21.368,1.147 -33.143,3.021 l 0.021,-0.105 -34.305,6.433 c -21.869,2.81 -7.454,-27.216 5.112,-23.975 l 35.617,6.275 c 0.491,-0.571 1.004,-1.142 1.539,-1.712 l -33.859,-7.569 c -13.033,-3.813 8.635,-22.036 17.936,-15.716 6.728,4.575 18.747,9.396 27.006,14.037 0.704,-0.456 1.421,-0.901 2.144,-1.326 L 62.15,113.527 c -10.376,-7.992 20.4,-19.898 25.715,-10.45 l 10.318,20.674 c 0.382,-0.1 0.762,-0.194 1.143,-0.278 C 95.674,111.41 92.289,99.323 88.307,87.44 M 0,17.382 V 6.608 c 1.985,0.972 4.218,1.518 6.578,1.518 8.274,0 14.982,-6.707 14.982,-14.983 0,-8.275 -6.708,-14.983 -14.982,-14.983 -3.858,0 -9.035,1.184 -12.498,5.55 -0.002,10e-4 0,16.172 0,17.698 v 15.974 c 0.876,1.981 5.412,2.055 5.92,0 M 148.445,0 v -2.398 -11.314 c -1.707,-1.639 -4.026,-2.648 -6.578,-2.648 -5.247,0 -9.501,4.256 -9.501,9.503 0,5.249 4.254,9.501 9.501,9.501 2.552,0 4.871,-1.006 6.578,-2.644 m 0,17.382 V 6.608 c -1.985,0.972 -4.217,1.518 -6.578,1.518 -8.275,0 -14.983,-6.707 -14.983,-14.983 0,-8.275 6.708,-14.983 14.983,-14.983 3.859,0 9.035,1.184 12.497,5.55 0.002,10e-4 0.001,16.172 0.001,17.698 v 15.974 c -0.875,1.981 -5.412,2.055 -5.92,0 m -28.802,-31.178 c -2.839,-4.256 -14.057,-3.626 -14.013,2.467 -0.019,5.781 10.225,6.621 13.859,2.768 z m -38.502,-7.69 h 36.271 c 2.666,0 6.021,2.393 7.718,5.219 v 12.854 c 0.199,10.376 -12.539,14.879 -20.517,9.765 -1.387,-2.656 0.857,-5.26 2.955,-4.298 4.745,2.286 11.946,0.6 11.986,-4.767 -7.067,3.12 -19.116,0.68 -19.357,-8.425 -0.04,-1.535 0.25,-3.15 0.899,-4.758 H 85.951 c 4.387,6.121 8.774,12.243 13.159,18.367 1.467,1.478 0.925,5.322 -2.397,5.322 H 80.207 c -1.983,-0.826 -2.058,-5.111 0,-5.59 h 11.761 c -4.999,-6.864 -6.744,-9.497 -12.839,-17.78 -1.69,-1.689 -1.637,-5.475 2.012,-5.909 m 125.214,4.205 c 1.217,1.625 2.497,4.831 2.497,6.843 V 6.153 c -0.48,2.056 -4.764,1.982 -5.591,0 0,-5.444 -0.02,-10.896 -0.02,-16.335 0,-8.093 -12.12,-8.506 -12.707,-0.47 l 0.006,16.805 c -0.478,2.056 -4.762,1.982 -5.589,0 v -16.707 c 0,-1.589 0.939,-4.321 1.759,-5.693 4.299,-7.192 14.628,-7.718 19.645,-1.034 m 24.897,-0.187 c -2.138,-2.573 -5.617,-4.378 -9.223,-4.378 -5.138,0 -9.451,2.689 -11.189,7.209 -1.352,3.449 4.337,4.933 5.369,2.486 2.111,-5.6 10.911,-5.268 10.958,-0.201 0.013,1.354 -0.884,2.637 -2.583,3.321 -2.624,0.912 -5.414,0.932 -8.485,2.508 -6.281,2.635 -5.194,11.704 0.764,14.199 4.531,1.907 10.664,1.054 13.918,-2.807 1.74,-1.909 -1.308,-5.395 -3.713,-3.516 -6.558,5.327 -11.764,-0.545 -7.732,-3.169 1.257,-0.792 5.561,-1.356 7.101,-1.831 6.715,-2.026 8.898,-8.808 4.815,-13.821 M 42.653,7.164 c -9.6,3.482 -19.819,-3.642 -19.819,-14.021 0,-8.232 6.675,-14.909 14.909,-14.909 5.326,0 10,2.792 12.636,6.994 0.961,1.97 -2.576,4.726 -4.208,3.212 -3.366,-5.07 -11.322,-5.886 -14.598,-1.851 -0.891,0.893 -1.566,2.255 0.058,3.096 l 12.306,5.277 c 6.266,2.782 5.382,9.659 -1.284,12.202 M 40.276,2.096 C 41.265,1.65 41.898,0.163 40.78,-0.35 L 30.563,-4.684 c -1.185,-0.565 -1.676,0.237 -1.523,0.812 0.669,4.489 6.124,7.635 11.236,5.968 m 135.626,5.068 c -9.6,3.482 -19.819,-3.642 -19.819,-14.021 0,-8.232 6.675,-14.909 14.909,-14.909 5.326,0 10,2.792 12.637,6.994 0.96,1.97 -2.577,4.726 -4.209,3.212 -3.367,-5.07 -11.323,-5.886 -14.598,-1.851 -0.891,0.893 -1.565,2.255 0.057,3.096 l 12.307,5.277 c 6.266,2.782 5.383,9.659 -1.284,12.202 m -2.377,-5.068 c 0.99,-0.446 1.622,-1.933 0.502,-2.446 l -10.215,-4.334 c -1.185,-0.565 -1.676,0.237 -1.523,0.812 0.669,4.489 6.123,7.635 11.236,5.968 M 73.703,3.312 c 1.218,-1.624 2.496,-4.83 2.496,-6.842 v -16.59 c -0.479,-2.057 -4.764,-1.982 -5.591,0 0,5.445 -0.019,10.896 -0.019,16.335 0,8.091 -12.119,8.506 -12.709,0.471 l 0.009,-16.806 c -0.478,-2.057 -4.764,-1.982 -5.59,0 v 16.707 c 0,1.588 0.938,4.32 1.759,5.694 4.297,7.192 14.628,7.718 19.645,1.031" /></g></g></g></g></g></svg>