<?xml version="1.0" encoding="UTF-8" standalone="no"?>
<!-- Created with Inkscape (http://www.inkscape.org/) -->

<svg
   xmlns:dc="http://purl.org/dc/elements/1.1/"
   xmlns:cc="http://creativecommons.org/ns#"
   xmlns:rdf="http://www.w3.org/1999/02/22-rdf-syntax-ns#"
   xmlns:svg="http://www.w3.org/2000/svg"
   xmlns="http://www.w3.org/2000/svg"
   xmlns:sodipodi="http://sodipodi.sourceforge.net/DTD/sodipodi-0.dtd"
   xmlns:inkscape="http://www.inkscape.org/namespaces/inkscape"
   version="1.1"
   id="svg2"
   xml:space="preserve"
   width="422.6886"
   height="91.104332"
   viewBox="0 0 422.6886 91.104332"
   sodipodi:docname="croc croc.svg"
   inkscape:version="0.92.3 (2405546, 2018-03-11)"><metadata
     id="metadata8"><rdf:RDF><cc:Work
         rdf:about=""><dc:format>image/svg+xml</dc:format><dc:type
           rdf:resource="http://purl.org/dc/dcmitype/StillImage" /><dc:title></dc:title></cc:Work></rdf:RDF></metadata><defs
     id="defs6"><clipPath
       clipPathUnits="userSpaceOnUse"
       id="clipPath18"><path
         d="M 0,592.978 H 2834.646 V 0 H 0 Z"
         id="path16"
         inkscape:connector-curvature="0" /></clipPath><clipPath
       clipPathUnits="userSpaceOnUse"
       id="clipPath74"><path
         d="m 1073.43,344.597 h 35.73 v -49.124 h -35.73 z"
         id="path72"
         inkscape:connector-curvature="0" /></clipPath><clipPath
       clipPathUnits="userSpaceOnUse"
       id="clipPath90"><path
         d="m 1106.93,301.055 h 36.84 v -27.353 h -36.84 z"
         id="path88"
         inkscape:connector-curvature="0" /></clipPath><clipPath
       clipPathUnits="userSpaceOnUse"
       id="clipPath106"><path
         d="m 1113.63,337.898 h 21.21 v -28.469 h -21.21 z"
         id="path104"
         inkscape:connector-curvature="0" /></clipPath></defs><sodipodi:namedview
     pagecolor="#ffffff"
     bordercolor="#666666"
     borderopacity="1"
     objecttolerance="10"
     gridtolerance="10"
     guidetolerance="10"
     inkscape:pageopacity="0"
     inkscape:pageshadow="2"
     inkscape:window-width="1366"
     inkscape:window-height="712"
     id="namedview4"
     showgrid="false"
     inkscape:zoom="1.0159985"
     inkscape:cx="317.1777"
     inkscape:cy="29.129608"
     inkscape:window-x="0"
     inkscape:window-y="0"
     inkscape:window-maximized="1"
     inkscape:current-layer="g10" /><g
     id="g10"
     inkscape:groupmode="layer"
     inkscape:label="croc croc"
     transform="matrix(1.3333333,0,0,-1.3333333,-573.81823,243.21861)"><g
       id="g12"
       transform="matrix(0.17205593,0,0,0.17205593,345.01317,96.869779)"><g
         id="g14"
         clip-path="url(#clipPath18)"><g
           id="g20"
           transform="translate(711.5086,252.917)"><path
             d="m 0,0 c 0,-1.527 -0.648,-2.935 -1.939,-4.226 -23.371,-24.428 -52.849,-36.642 -88.433,-36.642 -34.528,0 -64.006,12.214 -88.432,36.642 -24.43,24.425 -36.642,53.905 -36.642,88.433 0,34.528 12.212,64.003 36.642,88.432 24.426,24.426 53.904,36.641 88.432,36.641 35.584,0 65.062,-12.215 88.433,-36.641 1.291,-1.293 1.939,-2.702 1.939,-4.227 0,-4.229 -2.114,-6.344 -6.343,-6.344 -1.408,0 -2.88,0.643 -4.405,1.927 -25.602,21.851 -52.142,32.779 -79.624,32.779 -31.123,0 -57.692,-10.994 -79.713,-32.981 -22.019,-21.987 -33.03,-48.517 -33.03,-79.586 0,-31.076 11.011,-57.606 33.03,-79.591 22.021,-21.987 48.59,-32.978 79.713,-32.978 27.482,0 54.022,10.925 79.624,32.778 1.525,1.282 2.997,1.927 4.405,1.927 C -2.114,6.343 0,4.229 0,0"
             style="fill:#33b540;fill-opacity:1;fill-rule:nonzero;stroke:none"
             id="path22"
             inkscape:connector-curvature="0" /></g><g
           id="g24"
           transform="translate(891.1915,218.1628)"><path
             d="m 0,0 c 0,-4.195 -2.08,-6.29 -6.239,-6.29 -1.617,0 -3.062,0.643 -4.331,1.937 l -104.818,104.991 c -1.878,1.788 -2.816,3.517 -2.816,5.188 0,4.176 2.524,6.263 7.574,6.263 h 38.403 c 16.441,0 30.535,5.856 42.279,17.564 11.741,11.71 17.617,25.763 17.617,42.157 0,16.392 -5.876,30.445 -17.617,42.153 -11.744,11.71 -25.838,17.565 -42.279,17.565 H -132.12 V -0.124 c 0,-4.112 -2.056,-6.166 -6.166,-6.166 -4.114,0 -6.168,2.056 -6.168,6.171 v 238.337 c 0,3.876 2.054,5.816 6.168,5.816 h 66.059 c 19.965,0 36.995,-7.046 51.088,-21.138 C -7.047,208.803 0,191.773 0,171.81 0,151.842 -7.055,134.815 -21.161,120.722 -35.268,106.628 -52.315,99.583 -72.298,99.583 H -97.162 L -1.854,4.365 C -0.619,3.082 0,1.63 0,0"
             style="fill:#33b540;fill-opacity:1;fill-rule:nonzero;stroke:none"
             id="path26"
             inkscape:connector-curvature="0" /></g><g
           id="g28"
           transform="translate(1392.1927,252.917)"><path
             d="m 0,0 c 0,-1.527 -0.648,-2.935 -1.939,-4.226 -23.371,-24.428 -52.849,-36.642 -88.434,-36.642 -34.527,0 -64.005,12.214 -88.431,36.642 -24.43,24.425 -36.642,53.905 -36.642,88.433 0,34.528 12.212,64.003 36.642,88.432 24.426,24.426 53.904,36.641 88.431,36.641 35.585,0 65.063,-12.215 88.434,-36.641 1.291,-1.293 1.939,-2.702 1.939,-4.227 0,-4.229 -2.114,-6.344 -6.343,-6.344 -1.408,0 -2.88,0.643 -4.405,1.927 -25.602,21.851 -52.142,32.779 -79.625,32.779 -31.122,0 -57.691,-10.994 -79.712,-32.981 -22.019,-21.987 -33.03,-48.517 -33.03,-79.586 0,-31.076 11.011,-57.606 33.03,-79.591 22.021,-21.987 48.59,-32.978 79.712,-32.978 27.483,0 54.023,10.925 79.625,32.778 1.525,1.282 2.997,1.927 4.405,1.927 C -2.114,6.343 0,4.229 0,0"
             style="fill:#33b540;fill-opacity:1;fill-rule:nonzero;stroke:none"
             id="path30"
             inkscape:connector-curvature="0" /></g><g
           id="g32"
           transform="translate(1631.947,258.3785)"><path
             d="m 0,0 c 0,-2.818 -1.352,-5.756 -4.053,-8.809 -9.864,-11.51 -23.605,-20.786 -41.222,-27.833 -16.558,-6.46 -32.942,-9.688 -49.149,-9.688 -35.351,0 -65.532,12.516 -90.545,37.548 -25.015,25.03 -37.524,55.234 -37.524,90.609 0,35.254 12.536,65.401 37.612,90.432 25.071,25.031 55.226,37.55 90.457,37.55 16.207,0 32.591,-3.24 49.149,-9.716 17.617,-7.069 31.358,-16.318 41.222,-27.741 2.701,-3.182 4.053,-6.185 4.053,-9.01 0,-3.537 -1.325,-6.626 -3.971,-9.278 -2.645,-2.651 -5.729,-3.973 -9.254,-3.973 -2.704,0 -5.644,1.356 -8.816,4.073 -2.587,2.358 -6.584,5.783 -11.99,10.27 -17.281,13.22 -37.438,19.831 -60.478,19.831 -28.211,0 -52.337,-10.022 -72.378,-30.062 -20.043,-20.041 -30.062,-44.167 -30.062,-72.376 0,-28.328 10.019,-52.512 30.062,-72.553 20.041,-20.041 44.167,-30.06 72.378,-30.06 23.04,0 43.197,6.574 60.478,19.729 2.585,2.348 6.582,5.754 11.99,10.219 3.172,2.699 6.112,4.051 8.816,4.051 3.525,0 6.609,-1.321 9.254,-3.964 C -1.325,6.606 0,3.525 0,0"
             style="fill:#33b540;fill-opacity:1;fill-rule:nonzero;stroke:none"
             id="path34"
             inkscape:connector-curvature="0" /></g><g
           id="g36"
           transform="translate(1794.1908,391.2053)"><path
             d="m 0,0 c 0,14.138 -5.033,26.248 -15.089,36.324 -10.058,10.074 -22.147,15.114 -36.262,15.114 h -51.175 V -61.833 c 1.174,7.045 6.234,10.57 15.174,10.57 h 36.001 c 14.115,0 26.204,5.006 36.262,15.023 C -5.033,-26.223 0,-14.143 0,0 m 25.544,-166.197 c 0,-3.386 -1.313,-6.395 -3.934,-9.021 -2.622,-2.626 -5.62,-3.939 -8.999,-3.939 -3.264,0 -6.234,1.289 -8.911,3.871 L -96.891,-74.697 c -3.274,3.057 -5.15,5.817 -5.635,8.282 v -99.882 c 0,-8.575 -4.258,-12.86 -12.771,-12.86 -8.517,0 -12.772,4.288 -12.772,12.867 V 64.29 c 0,8.462 4.226,12.692 12.684,12.692 h 64.122 c 21.254,0 39.373,-7.526 54.345,-22.577 14.973,-15.05 22.462,-33.156 22.462,-54.317 0,-21.164 -7.479,-39.271 -22.431,-54.323 -14.954,-15.049 -33.046,-22.572 -54.274,-22.572 l -7.388,0.113 80.436,-80.575 c 2.436,-2.687 3.657,-5.662 3.657,-8.928"
             style="fill:#33b540;fill-opacity:1;fill-rule:nonzero;stroke:none"
             id="path38"
             inkscape:connector-curvature="0" /></g><g
           id="g40"
           transform="translate(2067.5933,340.2056)"><path
             d="m 0,0 c 0,28.209 -10.029,52.335 -30.087,72.375 -20.06,20.041 -44.206,30.063 -72.439,30.063 -28.235,0 -52.381,-10.022 -72.438,-30.063 -20.061,-20.04 -30.087,-44.166 -30.087,-72.375 0,-28.328 10.026,-52.512 30.087,-72.553 20.057,-20.041 44.203,-30.06 72.438,-30.06 28.233,0 52.379,10.019 72.439,30.06 C -10.029,-52.512 0,-28.328 0,0 m 25.544,0 c 0,-35.375 -12.538,-65.579 -37.609,-90.609 -25.076,-25.032 -55.229,-37.548 -90.461,-37.548 -35.231,0 -65.386,12.516 -90.457,37.548 -25.076,25.03 -37.612,55.234 -37.612,90.609 0,35.254 12.536,65.401 37.612,90.432 25.071,25.031 55.226,37.55 90.457,37.55 35.232,0 65.385,-12.519 90.461,-37.55 C 13.006,65.401 25.544,35.254 25.544,0"
             style="fill:#33b540;fill-opacity:1;fill-rule:nonzero;stroke:none"
             id="path42"
             inkscape:connector-curvature="0" /></g><g
           id="g44"
           transform="translate(2332.5356,258.3785)"><path
             d="m 0,0 c 0,-2.818 -1.352,-5.756 -4.053,-8.809 -9.864,-11.51 -23.605,-20.786 -41.222,-27.833 -16.558,-6.46 -32.942,-9.688 -49.149,-9.688 -35.351,0 -65.532,12.516 -90.545,37.548 -25.015,25.03 -37.524,55.234 -37.524,90.609 0,35.254 12.536,65.401 37.612,90.432 25.071,25.031 55.226,37.55 90.457,37.55 16.207,0 32.591,-3.24 49.149,-9.716 17.617,-7.069 31.358,-16.318 41.222,-27.741 2.701,-3.182 4.053,-6.185 4.053,-9.01 0,-3.537 -1.325,-6.626 -3.971,-9.278 -2.645,-2.651 -5.729,-3.973 -9.254,-3.973 -2.704,0 -5.644,1.356 -8.816,4.073 -2.587,2.358 -6.584,5.783 -11.99,10.27 -17.281,13.22 -37.438,19.831 -60.478,19.831 -28.211,0 -52.337,-10.022 -72.378,-30.062 -20.043,-20.041 -30.062,-44.167 -30.062,-72.376 0,-28.328 10.019,-52.512 30.062,-72.553 20.041,-20.041 44.167,-30.06 72.378,-30.06 23.04,0 43.197,6.574 60.478,19.729 2.585,2.348 6.582,5.754 11.99,10.219 3.172,2.699 6.112,4.051 8.816,4.051 3.525,0 6.609,-1.321 9.254,-3.964 C -1.325,6.606 0,3.525 0,0"
             style="fill:#33b540;fill-opacity:1;fill-rule:nonzero;stroke:none"
             id="path46"
             inkscape:connector-curvature="0" /></g><g
           id="g48"
           transform="translate(1102.9697,401.2086)"><path
             d="m 0,0 c -20.48,0 -37.083,16.603 -37.083,37.084 0,20.48 16.603,37.083 37.083,37.083 20.481,0 37.084,-16.603 37.084,-37.083 C 37.084,16.603 20.481,0 0,0 m -140.998,-1.663 c -20.48,0 -37.083,16.603 -37.083,37.083 0,20.481 16.603,37.084 37.083,37.084 20.481,0 37.084,-16.603 37.084,-37.084 0,-20.48 -16.603,-37.083 -37.084,-37.083 m 180.271,-169.56 c -0.906,-0.514 -1.732,-1.076 -2.474,-1.657 l -11.395,1.323 c -0.156,1.791 -2.093,3.419 -6.659,4.806 -3.655,1.142 -8.104,2.211 -13.754,1.997 30.376,22.915 50.019,59.303 50.019,100.285 0,27.688 -8.982,53.267 -24.164,74.026 6.453,7.369 10.399,16.985 10.399,27.527 0,23.086 -18.781,41.869 -41.867,41.869 -16.007,0 -29.929,-9.036 -36.973,-22.267 -10.503,2.85 -21.543,4.399 -32.949,4.399 -12.065,0 -23.718,-1.737 -34.761,-4.914 -7.226,12.597 -20.782,21.119 -36.317,21.119 -23.086,0 -41.867,-18.783 -41.867,-41.87 0,-10.534 3.939,-20.144 10.384,-27.511 -14.465,-20.459 -22.992,-45.415 -22.992,-72.378 0,-39.365 18.129,-74.484 46.479,-97.504 -9.36,-4.706 -11.09,-14.878 -21.314,-20.868 -0.695,-0.401 -1.27,-0.774 -1.768,-1.134 l -8.286,-4.226 c -1.238,0.467 -2.945,0.592 -5.021,0.292 -5.965,-0.85 -12.835,-4.916 -15.326,-9.053 -2.492,-4.146 0.498,-6.76 6.633,-5.854 6.133,0.911 12.949,4.953 15.244,9.033 0.096,0.171 0.187,0.338 0.26,0.499 l 9.148,3.535 c 1.256,-0.196 2.71,-0.308 4.265,-0.371 l -9.81,-12.648 c -5.964,-1.05 -12.448,-4.977 -14.663,-8.929 -2.246,-4.065 1.024,-6.59 7.328,-5.624 6.289,0.961 13.029,4.979 15.125,8.998 1.073,2.061 0.734,3.732 -0.659,4.751 l 13.517,13.824 c 0.895,0.091 1.784,0.19 2.663,0.304 l -3.451,-18.056 c -3.519,-1.732 -6.491,-4.172 -7.712,-6.613 -2.009,-3.993 1.499,-6.439 7.788,-5.48 6.297,0.964 12.86,4.926 14.682,8.861 1.608,3.444 -0.833,5.763 -5.588,5.673 l 6.224,17.316 c 1.659,0.279 3.271,0.597 4.824,0.966 l 6.427,-5.433 c -1.912,-1.392 -3.423,-2.985 -4.179,-4.596 -1.872,-3.945 1.564,-6.416 7.65,-5.52 6.057,0.891 12.315,4.749 14.015,8.64 1.691,3.887 -1.665,6.385 -7.562,5.55 -0.971,-0.135 -1.969,-0.364 -2.956,-0.656 l -2.756,7.132 c 0.85,0.876 1.508,1.91 2.033,3.054 15.927,-7.31 33.628,-11.417 52.299,-11.417 14.542,0 28.492,2.501 41.482,7.048 0.908,-3.819 5.339,-7.191 2.038,-12.167 -0.318,-0.473 -0.526,-0.876 -0.658,-1.236 l -4.459,-5.442 c -2.143,-0.51 -4.408,-1.357 -6.552,-2.51 -6.209,-3.312 -9.072,-7.894 -6.329,-10.205 2.809,-2.303 10.157,-1.468 16.295,1.825 6.087,3.289 8.702,7.804 5.945,10.111 -0.113,0.097 -0.23,0.19 -0.358,0.272 l 6.253,5.632 c 1.752,0.574 3.626,1.272 5.55,2.032 l 5.163,-8.652 c -5.56,-3.21 -7.81,-7.492 -4.946,-9.687 3.037,-2.232 10.325,-1.424 16.199,1.808 5.822,3.218 8.035,7.619 5.078,9.883 -1.498,1.164 -4.081,1.534 -7.018,1.188 l -2.25,10.971 c 0.925,0.473 1.831,0.944 2.705,1.415 l 19.045,-7.652 c -1.68,-2.217 -1.812,-4.405 0.033,-5.776 3.049,-2.24 10.13,-1.476 15.7,1.665 5.528,3.14 7.501,7.488 4.509,9.738 -2.563,1.984 -8.099,1.703 -13.2,-0.527 l -14.494,8.993 c 1.546,0.908 2.988,1.806 4.3,2.694 l 13.688,1.133 c -0.44,-1.419 -0.186,-2.716 0.93,-3.661 2.751,-2.317 9.484,-1.648 14.927,1.47 5.375,3.098 7.475,7.47 4.79,9.807 -2.635,2.339 -9.093,1.751 -14.549,-1.37"
             style="fill:#33b540;fill-opacity:1;fill-rule:nonzero;stroke:none"
             id="path50"
             inkscape:connector-curvature="0" /></g><g
           id="g52"
           transform="translate(913.243,461.3515)"><path
             d="m 0,0 c 0,0 0.002,1.354 0.537,3.647 0.269,1.142 0.63,2.538 1.224,4.072 0.593,1.533 1.288,3.285 2.317,5.056 0.917,1.853 2.283,3.612 3.664,5.562 1.594,1.744 3.17,3.769 5.25,5.375 1.008,0.837 1.995,1.763 3.126,2.505 1.133,0.738 2.294,1.478 3.485,2.19 1.162,0.775 2.446,1.319 3.736,1.87 1.291,0.541 2.578,1.126 3.89,1.624 2.713,0.655 5.394,1.597 8.11,1.888 1.354,0.158 2.701,0.287 4.03,0.39 1.328,0.104 2.635,0.278 3.917,0.129 2.561,-0.139 5.025,-0.312 7.328,-0.567 2.275,-0.484 4.403,-0.988 6.343,-1.488 0.966,-0.267 1.895,-0.485 2.76,-0.762 0.845,-0.352 1.647,-0.686 2.401,-1 1.505,-0.604 2.783,-1.225 3.831,-1.714 2.094,-0.993 3.234,-1.662 3.234,-1.662 0,0 -1.365,-0.136 -3.655,-0.195 C 64.384,26.898 63,26.843 61.452,26.89 60.678,26.901 59.856,26.913 58.989,26.925 58.125,26.869 57.217,26.811 56.269,26.749 54.387,26.647 52.374,26.572 50.271,26.543 48.175,26.3 45.994,26.018 43.755,25.834 41.509,25.665 39.304,24.961 37.007,24.657 35.844,24.539 34.775,24.062 33.652,23.782 L 30.301,22.84 C 29.216,22.45 28.161,21.984 27.089,21.567 26.031,21.123 24.909,20.813 23.94,20.215 22.943,19.677 21.931,19.176 20.919,18.689 19.917,18.185 19.046,17.498 18.09,16.958 16.158,15.89 14.568,14.469 12.861,13.307 11.352,11.943 9.735,10.766 8.477,9.44 7.119,8.194 5.939,6.963 4.884,5.843 3.881,4.699 2.95,3.693 2.241,2.821 1.547,1.939 0.936,1.262 0.585,0.763 0.203,0.265 0,0 0,0"
             style="fill:#33b540;fill-opacity:1;fill-rule:nonzero;stroke:none"
             id="path54"
             inkscape:connector-curvature="0" /></g><g
           id="g56"
           transform="translate(1076.9989,483.9334)"><path
             d="m 0,0 c 0,0 0.737,1.136 2.432,2.77 0.847,0.813 1.908,1.789 3.24,2.754 1.331,0.965 2.866,2.059 4.692,2.986 1.776,1.057 3.879,1.793 6.098,2.679 2.285,0.598 4.709,1.442 7.328,1.66 1.3,0.156 2.632,0.397 3.984,0.405 1.353,0.004 2.729,-0.005 4.117,-0.055 1.396,0.02 2.769,-0.22 4.151,-0.459 1.379,-0.247 2.777,-0.455 4.15,-0.75 2.633,-0.924 5.396,-1.59 7.833,-2.82 1.224,-0.604 2.424,-1.227 3.596,-1.863 1.171,-0.634 2.363,-1.197 3.358,-2.019 2.076,-1.508 4.05,-2.993 5.845,-4.457 1.647,-1.643 3.16,-3.222 4.517,-4.695 0.666,-0.75 1.327,-1.437 1.903,-2.14 0.519,-0.755 1.01,-1.471 1.472,-2.144 0.936,-1.324 1.671,-2.54 2.286,-3.52 1.218,-1.971 1.812,-3.152 1.812,-3.152 0,0 -1.22,0.627 -3.175,1.822 -0.972,0.602 -2.164,1.308 -3.438,2.189 -0.643,0.429 -1.327,0.886 -2.049,1.368 -0.755,0.422 -1.55,0.866 -2.379,1.33 -1.636,0.936 -3.366,1.967 -5.147,3.085 -1.892,0.935 -3.876,1.883 -5.857,2.944 -1.977,1.079 -4.211,1.686 -6.304,2.678 -1.04,0.533 -2.196,0.713 -3.292,1.088 l -3.325,1.03 C 36.725,2.976 35.586,3.158 34.46,3.39 33.33,3.592 32.219,3.941 31.082,3.965 29.951,4.056 28.83,4.185 27.715,4.326 26.6,4.447 25.496,4.344 24.4,4.409 22.198,4.562 20.092,4.233 18.027,4.185 16.018,3.859 14.022,3.75 12.246,3.32 10.427,3.012 8.769,2.62 7.275,2.252 5.811,1.837 4.483,1.497 3.414,1.151 2.352,0.787 1.471,0.551 0.906,0.323 0.315,0.112 0,0 0,0"
             style="fill:#33b540;fill-opacity:1;fill-rule:nonzero;stroke:none"
             id="path58"
             inkscape:connector-curvature="0" /></g><g
           id="g60"
           transform="translate(982.8765,385.862)"><path
             d="m 0,0 c 0,0 0.39,-0.183 1.121,-0.527 0.712,-0.359 1.813,-0.788 3.168,-1.387 1.379,-0.558 3.051,-1.222 4.98,-1.92 1.931,-0.699 4.12,-1.422 6.524,-2.136 1.188,-0.392 2.441,-0.746 3.762,-1.035 1.299,-0.338 2.642,-0.687 4.023,-1.046 2.819,-0.483 5.717,-1.242 8.797,-1.599 1.529,-0.217 3.083,-0.438 4.657,-0.662 1.589,-0.092 3.193,-0.194 4.804,-0.335 3.218,-0.379 6.516,-0.176 9.797,-0.27 3.284,0.003 6.557,0.412 9.798,0.523 3.222,0.43 6.392,0.853 9.46,1.263 3.024,0.674 5.968,1.293 8.782,1.855 1.423,0.227 2.736,0.695 4.036,1.062 1.304,0.366 2.565,0.72 3.775,1.06 2.414,0.713 4.705,1.206 6.609,1.982 1.93,0.711 3.65,1.271 5.066,1.748 2.837,0.945 4.513,1.424 4.513,1.424 0,0 -1.389,-0.995 -3.917,-2.63 -1.267,-0.813 -2.804,-1.82 -4.61,-2.906 -1.76,-1.191 -3.924,-2.159 -6.284,-3.248 -2.375,-1.038 -4.873,-2.436 -7.728,-3.324 -2.84,-0.925 -5.836,-1.973 -8.996,-2.845 -3.213,-0.628 -6.528,-1.409 -9.939,-1.955 -3.441,-0.288 -6.942,-0.724 -10.456,-0.767 -3.516,0.129 -7.046,-0.045 -10.479,0.504 -1.721,0.188 -3.423,0.412 -5.101,0.642 -1.657,0.354 -3.294,0.703 -4.905,1.047 -3.245,0.553 -6.224,1.764 -9.096,2.606 -2.799,1.111 -5.465,2.069 -7.78,3.309 -1.166,0.592 -2.302,1.107 -3.34,1.688 -1.021,0.609 -1.989,1.187 -2.899,1.731 -1.817,1.076 -3.3,2.189 -4.521,3.075 C 1.2,-1.247 0,0 0,0"
             style="fill:#1b5228;fill-opacity:1;fill-rule:nonzero;stroke:none"
             id="path62"
             inkscape:connector-curvature="0" /></g><g
           id="g64"
           transform="translate(926.2018,368.3361)"><path
             d="m 0,0 c 0,0 -0.124,-2.029 -0.196,-5.532 -0.084,-3.502 -0.08,-8.478 0.143,-14.382 0.119,-2.953 0.349,-6.137 0.606,-9.485 0.25,-3.351 0.753,-6.854 1.212,-10.462 0.55,-3.599 1.149,-7.302 1.954,-11.018 0.759,-3.725 1.728,-7.455 2.784,-11.155 1.071,-3.695 2.307,-7.337 3.649,-10.876 1.379,-3.522 2.81,-6.969 4.391,-10.219 1.557,-3.262 3.173,-6.377 4.831,-9.273 1.68,-2.883 3.359,-5.567 4.958,-8.04 0.778,-1.253 1.669,-2.341 2.414,-3.468 0.767,-1.107 1.456,-2.202 2.213,-3.136 1.501,-1.877 2.677,-3.671 3.804,-5.003 2.21,-2.709 3.431,-4.358 3.431,-4.358 0,0 -1.715,1.06 -4.643,3.093 -1.476,1.005 -3.129,2.387 -5.054,3.968 -1.905,1.598 -3.959,3.527 -6.102,5.733 -1.045,1.134 -2.134,2.314 -3.262,3.535 -1.1,1.25 -2.11,2.641 -3.222,4.023 -2.141,2.82 -4.322,5.885 -6.257,9.25 -1.985,3.336 -3.803,6.929 -5.414,10.679 -1.638,3.742 -2.989,7.669 -4.188,11.634 -1.091,3.995 -2.099,8.017 -2.714,12.039 -0.709,4.004 -1.079,7.99 -1.321,11.838 -0.201,3.853 -0.189,7.579 -0.011,11.097 0.116,3.518 0.482,6.828 0.916,9.86 0.822,6.07 2.103,11.016 3.163,14.41 C -0.867,-1.848 0,0 0,0"
             style="fill:#ffffff;fill-opacity:1;fill-rule:nonzero;stroke:none"
             id="path66"
             inkscape:connector-curvature="0" /></g><g
           id="g68"><g
             id="g70" /><g
             id="g82"><g
               clip-path="url(#clipPath74)"
               id="g80"
               style="opacity:0.19999701"><g
                 transform="translate(1109.1603,320.0349)"
                 id="g78"><path
                   d="m 0,0 c 0,-13.565 -7.998,-24.562 -17.863,-24.562 -9.866,0 -17.863,10.997 -17.863,24.562 0,13.565 7.997,24.562 17.863,24.562 C -7.998,24.562 0,13.565 0,0"
                   style="fill:#174120;fill-opacity:1;fill-rule:nonzero;stroke:none"
                   id="path76"
                   inkscape:connector-curvature="0" /></g></g></g></g><g
           id="g84"><g
             id="g86" /><g
             id="g98"><g
               clip-path="url(#clipPath90)"
               id="g96"
               style="opacity:0.19999701"><g
                 transform="translate(1143.7701,287.3788)"
                 id="g94"><path
                   d="m 0,0 c 0,-7.553 -8.248,-13.676 -18.421,-13.676 -10.174,0 -18.422,6.123 -18.422,13.676 0,7.553 8.248,13.677 18.422,13.677 C -8.248,13.677 0,7.553 0,0"
                   style="fill:#174120;fill-opacity:1;fill-rule:nonzero;stroke:none"
                   id="path92"
                   inkscape:connector-curvature="0" /></g></g></g></g><g
           id="g100"><g
             id="g102" /><g
             id="g114"><g
               clip-path="url(#clipPath106)"
               id="g112"
               style="opacity:0.19999701"><g
                 transform="translate(1134.8385,323.6634)"
                 id="g110"><path
                   d="m 0,0 c 0,-7.862 -4.749,-14.235 -10.606,-14.235 -5.858,0 -10.607,6.373 -10.607,14.235 0,7.862 4.749,14.235 10.607,14.235 C -4.749,14.235 0,7.862 0,0"
                   style="fill:#174120;fill-opacity:1;fill-rule:nonzero;stroke:none"
                   id="path108"
                   inkscape:connector-curvature="0" /></g></g></g></g><g
           id="g116"
           transform="translate(1078.4148,431.7875)"><path
             d="m 0,0 c 0,0 0.298,0.863 1.118,2.216 0.393,0.692 0.932,1.483 1.598,2.369 0.694,0.85 1.462,1.863 2.47,2.789 0.501,0.475 1.024,0.97 1.564,1.482 0.562,0.493 1.203,0.925 1.839,1.414 1.253,1.007 2.804,1.743 4.362,2.598 1.666,0.621 3.356,1.454 5.253,1.742 0.936,0.169 1.87,0.446 2.834,0.517 l 2.918,0.108 c 0.98,0.067 1.942,-0.071 2.899,-0.223 0.96,-0.128 1.908,-0.306 2.846,-0.466 1.81,-0.539 3.561,-1.197 5.194,-1.879 1.538,-0.873 2.989,-1.761 4.33,-2.614 1.271,-0.95 2.329,-2.023 3.333,-2.942 0.495,-0.469 0.978,-0.899 1.41,-1.338 C 44.367,5.298 44.71,4.813 45.047,4.379 45.725,3.514 46.26,2.714 46.705,2.071 47.588,0.778 48.018,0 48.018,0 c 0,0 -0.856,0.368 -2.222,1.08 C 45.115,1.44 44.284,1.858 43.395,2.389 42.52,2.947 41.455,3.438 40.308,3.948 39.157,4.45 37.972,5.073 36.704,5.63 35.385,6.075 34.03,6.556 32.667,7.1 31.265,7.433 29.817,7.778 28.346,8.128 27.604,8.195 26.859,8.247 26.118,8.349 25.377,8.459 24.633,8.558 23.885,8.476 L 21.644,8.456 C 20.901,8.408 20.165,8.261 19.427,8.176 17.934,8.082 16.531,7.549 15.096,7.288 13.739,6.766 12.32,6.456 11.077,5.852 9.789,5.349 8.577,4.805 7.462,4.251 5.25,3.13 3.37,2.079 2.074,1.28 0.754,0.465 0,0 0,0"
             style="fill:#1b5228;fill-opacity:1;fill-rule:nonzero;stroke:none"
             id="path118"
             inkscape:connector-curvature="0" /></g><g
           id="g120"
           transform="translate(981.3405,436.7488)"><path
             d="m 0,0 c 0,-16.24 -9.479,-29.405 -21.172,-29.405 -11.692,0 -21.171,13.165 -21.171,29.405 0,16.24 9.479,29.405 21.171,29.405 C -9.479,29.405 0,16.24 0,0"
             style="fill:#1b5228;fill-opacity:1;fill-rule:nonzero;stroke:none"
             id="path122"
             inkscape:connector-curvature="0" /></g><g
           id="g124"
           transform="translate(946.6389,447.9116)"><path
             d="M 0,0 C -0.634,-4.721 0.94,-8.829 3.515,-9.175 6.091,-9.521 8.692,-5.973 9.326,-1.252 9.96,3.469 8.386,7.577 5.811,7.923 3.235,8.268 0.634,4.721 0,0"
             style="fill:#ffffff;fill-opacity:1;fill-rule:nonzero;stroke:none"
             id="path126"
             inkscape:connector-curvature="0" /></g><g
           id="g128"
           transform="translate(948.506,422.786)"><path
             d="M 0,0 C 2.371,-0.224 4.492,1.691 4.737,4.277 4.982,6.864 3.258,9.143 0.887,9.368 -1.484,9.592 -3.605,7.677 -3.85,5.09 -4.095,2.503 -2.371,0.224 0,0"
             style="fill:#ffffff;fill-opacity:1;fill-rule:nonzero;stroke:none"
             id="path130"
             inkscape:connector-curvature="0" /></g><g
           id="g132"
           transform="translate(1219.9795,140.6243)"><path
             d="m 0,0 c 0.251,-0.509 0.251,-1.047 0,-1.62 -0.258,-0.57 -0.667,-1.047 -1.24,-1.427 -0.57,-0.38 -1.208,-0.668 -1.902,-0.858 -0.7,-0.19 -1.24,-0.095 -1.62,0.285 -1.779,1.396 -3.905,2.383 -6.38,2.953 -2.475,0.572 -5.428,0.477 -8.855,-0.285 -3.303,-0.763 -6.411,-2.127 -9.332,-4.095 -2.921,-1.971 -5.396,-4.064 -7.427,-6.285 -2.032,-2.222 -3.399,-4.253 -4.093,-6.093 -0.699,-1.841 -0.414,-2.952 0.855,-3.332 1.778,-0.638 3.873,-0.797 6.285,-0.477 2.412,0.316 4.792,0.886 7.142,1.714 2.348,0.824 4.443,1.745 6.285,2.76 1.839,1.016 3.142,1.969 3.902,2.858 1.525,1.776 2.921,2.665 4.19,2.665 1.269,0 2.029,-0.38 2.285,-1.143 0.254,-1.778 0.478,-3.522 0.668,-5.237 0.19,-1.713 0.285,-3.269 0.285,-4.665 0,-0.636 -0.509,-1.332 -1.523,-2.095 -1.018,-0.762 -2.031,-0.57 -3.047,0.573 -0.636,0.633 -1.079,1.456 -1.333,2.475 -0.255,1.015 -0.382,1.839 -0.382,2.474 -0.76,-0.76 -2.127,-1.617 -4.092,-2.569 -1.971,-0.953 -4.224,-1.781 -6.763,-2.475 -2.541,-0.7 -5.14,-1.272 -7.807,-1.715 -2.665,-0.446 -5.016,-0.541 -7.045,-0.285 -1.781,0.253 -3.303,0.791 -4.572,1.617 -1.27,0.826 -1.842,1.934 -1.713,3.333 0.124,2.285 0.982,4.791 2.57,7.522 1.586,2.728 3.649,5.396 6.19,8 2.538,2.599 5.491,4.886 8.855,6.854 3.361,1.969 6.952,3.333 10.76,4.095 4.443,0.887 8.124,0.953 11.044,0.19 C -4.889,4.95 -2.287,3.047 0,0"
             style="fill:#174120;fill-opacity:1;fill-rule:nonzero;stroke:none"
             id="path134"
             inkscape:connector-curvature="0" /></g><g
           id="g136"
           transform="translate(1397.2751,172.4261)"><path
             d="m 0,0 c 0.633,0 0.953,-0.446 0.953,-1.332 0,-0.89 -0.32,-1.333 -0.953,-1.333 -19.042,-1.272 -37.928,-2.794 -56.654,-4.57 -18.73,-1.781 -37.358,-3.62 -55.893,-5.525 -6.984,-0.635 -13.427,-1.237 -19.33,-1.807 -5.905,-0.573 -12.348,-1.177 -19.329,-1.81 -0.38,-1.269 -0.794,-2.541 -1.238,-3.808 -0.448,-1.271 -0.923,-2.699 -1.43,-4.284 -0.506,-1.591 -1.11,-3.399 -1.807,-5.428 -0.699,-2.034 -1.43,-4.509 -2.19,-7.427 -0.509,-2.034 -1.113,-4.414 -1.81,-7.142 -0.699,-2.731 -1.142,-5.364 -1.333,-7.903 -0.189,-2.54 0.061,-4.794 0.76,-6.762 0.697,-1.968 2.127,-3.269 4.285,-3.902 1.016,-0.256 2.222,-0.285 3.62,-0.095 1.396,0.19 2.824,0.538 4.285,1.047 1.457,0.504 2.918,1.108 4.38,1.807 1.457,0.697 2.697,1.365 3.712,2 5.077,3.172 10.285,6.792 15.618,10.855 5.332,4.063 10.216,8 14.662,11.807 1.269,0.634 1.934,0.507 2,-0.38 0.063,-0.889 -0.222,-1.651 -0.858,-2.285 -1.269,-1.271 -2.76,-2.794 -4.475,-4.569 -1.712,-1.781 -3.522,-3.591 -5.427,-5.428 -1.905,-1.844 -3.842,-3.62 -5.807,-5.332 -1.971,-1.715 -3.715,-3.018 -5.238,-3.905 -1.522,-1.272 -3.683,-2.826 -6.475,-4.665 -2.794,-1.842 -5.746,-3.462 -8.854,-4.857 -3.114,-1.399 -6.222,-2.285 -9.333,-2.665 -3.113,-0.383 -5.746,0.19 -7.902,1.712 -1.905,1.525 -3.208,3.525 -3.905,6 -0.699,2.475 -0.984,5.108 -0.857,7.902 0.126,2.792 0.477,5.586 1.047,8.38 0.573,2.792 1.238,5.332 2,7.617 0.763,2.792 1.43,5.204 2,7.238 0.573,2.029 1.142,3.836 1.715,5.427 0.57,1.586 1.108,3.047 1.617,4.38 0.507,1.332 0.953,2.694 1.333,4.095 -5.079,-0.383 -9.586,-0.699 -13.52,-0.953 -3.934,-0.255 -7.617,-0.414 -11.045,-0.477 -3.429,-0.066 -6.762,-0.032 -9.999,0.095 -3.238,0.127 -6.76,0.382 -10.57,0.762 -2.029,0.125 -2.979,0.573 -2.855,1.333 0.127,0.762 1.079,1.142 2.855,1.142 3.939,-0.126 7.683,-0.16 11.237,-0.095 3.557,0.064 7.143,0.19 10.76,0.383 3.617,0.19 7.393,0.475 11.33,0.855 3.934,0.382 8.253,0.762 12.949,1.142 0.636,2.159 1.206,4.127 1.715,5.905 0.507,1.776 1.077,3.362 1.715,4.76 0.124,0.763 0.57,1.459 1.333,2.095 0.762,0.636 1.522,1.079 2.285,1.335 0.762,0.251 1.427,0.285 2,0.095 0.57,-0.193 0.791,-0.733 0.665,-1.62 -0.256,-1.778 -0.795,-3.588 -1.618,-5.427 -0.828,-1.842 -1.683,-4.161 -2.57,-6.95 7.488,0.633 14.343,1.237 20.567,1.807 6.219,0.573 12.821,1.174 19.805,1.81 18.535,1.905 36.878,3.871 55.036,5.905 C -36.881,-1.016 -18.538,0 0,0"
             style="fill:#174120;fill-opacity:1;fill-rule:nonzero;stroke:none"
             id="path138"
             inkscape:connector-curvature="0" /></g><g
           id="g140"
           transform="translate(1301.2926,143.0993)"><path
             d="m 0,0 c -1.902,-1.018 -3.493,-2.285 -4.76,-3.807 1.776,-0.892 3.618,-1.304 5.522,-1.24 1.905,0.063 3.172,0.73 3.81,2 1.014,1.395 1.077,2.633 0.19,3.714 C 3.871,1.744 2.285,1.525 0,0 m 68.938,-7.045 c 0.634,0.76 1.048,0.599 1.238,-0.477 0.192,-1.079 -0.222,-1.937 -1.238,-2.57 -7.235,-4.699 -14.538,-8.665 -21.899,-11.902 -7.364,-3.238 -13.588,-5.747 -18.662,-7.523 -2.668,-0.891 -5.781,-1.746 -9.332,-2.572 -3.557,-0.826 -7.143,-1.303 -10.76,-1.428 -3.618,-0.129 -7.079,0.254 -10.38,1.143 -3.303,0.886 -6.092,2.667 -8.377,5.332 -2.288,2.665 -3.525,5.776 -3.715,9.332 -0.19,3.552 0.411,7.014 1.81,10.378 1.396,3.364 3.396,6.285 5.997,8.759 2.602,2.478 5.62,3.905 9.047,4.285 2.285,0.127 4.125,-0.063 5.523,-0.57 1.396,-0.509 2.443,-1.176 3.142,-2 0.697,-0.828 1.048,-1.778 1.048,-2.857 0,-1.079 -0.19,-2.063 -0.573,-2.95 C 11.171,-3.937 10.19,-5.079 8.855,-6.095 7.522,-7.111 6,-7.902 4.285,-8.475 2.572,-9.045 0.731,-9.269 -1.237,-9.14 c -1.971,0.124 -3.842,0.76 -5.618,1.903 -1.018,-1.903 -1.683,-3.874 -2,-5.903 -0.319,-2.031 -0.031,-3.936 0.858,-5.712 0.886,-2.034 2.19,-3.652 3.902,-4.857 1.715,-1.209 3.62,-2.127 5.715,-2.76 2.095,-0.639 4.285,-0.987 6.57,-1.048 2.285,-0.066 4.57,0.095 6.855,0.475 9.142,1.396 18.311,3.966 27.519,7.712 9.203,3.745 17.994,7.839 26.374,12.285"
             style="fill:#174120;fill-opacity:1;fill-rule:nonzero;stroke:none"
             id="path142"
             inkscape:connector-curvature="0" /></g><g
           id="g144"
           transform="translate(1419.9347,189.3756)"><path
             d="m 0,0 c -1.398,0.762 -3.269,0.792 -5.617,0.095 -2.351,-0.699 -4.794,-1.778 -7.333,-3.237 -2.54,-1.462 -5.015,-3.143 -7.427,-5.048 -2.412,-1.902 -4.38,-3.683 -5.902,-5.33 -5.969,-6.857 -10.253,-13.303 -12.855,-19.329 -2.604,-6.032 -4.032,-12.475 -4.285,-19.33 0.124,-4.572 1.206,-8.19 3.237,-10.854 2.03,-2.668 4.475,-4.699 7.333,-6.095 2.857,-1.399 5.87,-2.319 9.045,-2.763 3.171,-0.445 6.029,-0.665 8.569,-0.665 5.715,-0.129 11.267,0.315 16.665,1.333 5.393,1.013 10.57,2.409 15.52,4.19 4.952,1.775 9.617,3.87 13.997,6.284 4.38,2.41 8.345,4.95 11.902,7.618 0.38,0.38 0.887,0.665 1.525,0.857 0.633,0.19 1.203,0.285 1.712,0.285 0.507,0 0.826,-0.161 0.953,-0.477 0.124,-0.317 -0.066,-0.794 -0.57,-1.428 -1.781,-2.16 -4.351,-4.475 -7.715,-6.95 -3.364,-2.477 -6.95,-4.604 -10.76,-6.379 -4.825,-2.161 -9.205,-3.937 -13.139,-5.333 -3.937,-1.398 -7.618,-2.509 -11.045,-3.332 -3.428,-0.828 -6.699,-1.398 -9.807,-1.715 -3.114,-0.319 -6.19,-0.475 -9.238,-0.475 -5.588,0.124 -11.015,1.013 -16.282,2.665 -5.269,1.649 -9.364,4.57 -12.282,8.76 -1.652,2.411 -2.828,4.981 -3.525,7.712 -0.699,2.728 -1.047,5.396 -1.047,8 0,2.599 0.221,5.142 0.667,7.617 0.444,2.475 1.048,4.789 1.81,6.95 1.649,4.952 3.966,9.871 6.95,14.76 2.982,4.886 6.38,9.171 10.19,12.854 1.266,1.267 2.918,2.792 4.95,4.57 2.029,1.776 4.314,3.396 6.857,4.857 2.538,1.457 5.266,2.665 8.187,3.618 2.921,0.952 5.966,1.362 9.142,1.237 C 3.43,5.267 5.491,4.124 6.57,2.095 7.649,0.063 7.871,-2.222 7.237,-4.76 6.728,-6.541 5.62,-8.921 3.905,-11.902 c -1.715,-2.984 -3.937,-6.19 -6.665,-9.617 -2.733,-3.428 -5.873,-6.889 -9.427,-10.38 -3.557,-3.493 -7.364,-6.697 -11.427,-9.615 -2.159,-1.525 -3.998,-2.192 -5.523,-2 -1.522,0.19 -1.712,0.792 -0.57,1.808 5.077,4.316 9.678,8.823 13.807,13.522 4.124,4.694 7.523,9.044 10.188,13.044 2.667,4 4.504,7.394 5.522,10.188 C 0.826,-2.161 0.887,-0.509 0,0"
             style="fill:#174120;fill-opacity:1;fill-rule:nonzero;stroke:none"
             id="path146"
             inkscape:connector-curvature="0" /></g><g
           id="g148"
           transform="translate(1490.5879,178.3309)"><path
             d="M 0,0 C 1.267,0 2.346,-0.19 3.237,-0.572 4.124,-0.952 4.694,-1.842 4.95,-3.237 5.074,-4 4.475,-4.857 3.14,-5.81 1.807,-6.76 0.251,-6.984 -1.525,-6.475 c -1.142,0.254 -2,0.824 -2.57,1.713 -0.572,0.886 -0.857,1.81 -0.857,2.762 0,0.953 0.285,1.81 0.857,2.57 0.57,0.762 1.428,1.142 2.57,1.142 0.507,0 0.953,-0.316 1.333,-0.95 C -0.066,0.504 0,0.253 0,0 m 28.374,-42.849 c 0.634,1.143 1.172,1.715 1.618,1.715 0.443,0 0.792,-0.319 1.047,-0.952 0.254,-0.639 0.383,-1.399 0.383,-2.285 0,-0.892 -0.19,-1.591 -0.573,-2.095 -4.57,-6.858 -9.459,-11.618 -14.662,-14.285 -5.208,-2.665 -10.221,-3.807 -15.044,-3.427 -4.829,0.382 -9.209,2 -13.143,4.857 -3.936,2.855 -6.981,6.314 -9.139,10.377 -1.523,2.921 -2.095,5.077 -1.715,6.475 0.382,0.507 1.079,0.953 2.095,1.335 1.015,0.38 1.839,-0.066 2.477,-1.335 2.285,-4.446 5.298,-8.063 9.045,-10.855 3.744,-2.794 7.775,-4.38 12.092,-4.76 4.314,-0.38 8.728,0.57 13.237,2.858 4.504,2.285 8.599,6.409 12.282,12.377"
             style="fill:#174120;fill-opacity:1;fill-rule:nonzero;stroke:none"
             id="path150"
             inkscape:connector-curvature="0" /></g><g
           id="g152"
           transform="translate(1533.6244,143.0993)"><path
             d="m 0,0 c -1.902,-1.018 -3.493,-2.285 -4.76,-3.807 1.776,-0.892 3.618,-1.304 5.522,-1.24 1.905,0.063 3.172,0.73 3.81,2 1.014,1.395 1.077,2.633 0.19,3.714 C 3.871,1.744 2.285,1.525 0,0 m -5.332,22.472 c 0.886,0.38 2.316,0.982 4.285,1.81 1.968,0.823 4.029,1.742 6.189,2.76 2.41,1.016 5.014,2.158 7.808,3.427 2.285,-2.158 4.314,-4.126 6.095,-5.902 1.522,-1.525 2.981,-2.984 4.379,-4.38 1.396,-1.398 2.22,-2.285 2.475,-2.667 0.507,-0.76 0.159,-1.46 -1.047,-2.095 -1.208,-0.636 -2.38,-0.57 -3.523,0.192 -0.635,0.38 -1.461,1.077 -2.475,2.095 -1.018,1.013 -2.033,2.093 -3.047,3.237 -1.271,1.267 -2.475,2.665 -3.617,4.188 C 10.029,24.121 7.934,23.169 5.905,22.282 4.124,21.519 2.38,20.789 0.667,20.092 c -1.714,-0.699 -3.079,-1.177 -4.094,-1.43 -1.019,-0.256 -1.874,-0.285 -2.57,-0.095 -0.699,0.193 -1.143,0.507 -1.335,0.953 -0.19,0.443 -0.127,0.952 0.192,1.524 0.314,0.57 0.919,1.048 1.808,1.428 m 74.27,-29.517 c 0.634,0.76 1.048,0.599 1.238,-0.477 0.192,-1.079 -0.222,-1.937 -1.238,-2.57 -7.235,-4.699 -14.538,-8.665 -21.899,-11.902 -7.364,-3.238 -13.588,-5.747 -18.662,-7.523 -2.668,-0.891 -5.781,-1.746 -9.332,-2.572 -3.557,-0.826 -7.143,-1.303 -10.76,-1.428 -3.618,-0.129 -7.079,0.254 -10.38,1.143 -3.303,0.886 -6.092,2.667 -8.377,5.332 -2.288,2.665 -3.525,5.776 -3.715,9.332 -0.19,3.552 0.412,7.014 1.81,10.378 1.396,3.364 3.396,6.285 5.997,8.759 2.602,2.478 5.62,3.905 9.047,4.285 2.285,0.127 4.125,-0.063 5.523,-0.57 1.396,-0.509 2.443,-1.176 3.142,-2 0.697,-0.828 1.048,-1.778 1.048,-2.857 0,-1.079 -0.19,-2.063 -0.573,-2.95 C 11.172,-3.937 10.19,-5.079 8.855,-6.095 7.522,-7.111 6,-7.902 4.285,-8.475 2.572,-9.045 0.731,-9.269 -1.237,-9.14 c -1.971,0.124 -3.842,0.76 -5.618,1.903 -1.018,-1.903 -1.683,-3.874 -2,-5.903 -0.319,-2.031 -0.031,-3.936 0.858,-5.712 0.886,-2.034 2.19,-3.652 3.902,-4.857 1.715,-1.209 3.62,-2.127 5.715,-2.76 2.095,-0.639 4.285,-0.987 6.57,-1.048 2.285,-0.066 4.57,0.095 6.855,0.475 9.142,1.396 18.311,3.966 27.519,7.712 9.203,3.745 17.995,7.839 26.374,12.285"
             style="fill:#174120;fill-opacity:1;fill-rule:nonzero;stroke:none"
             id="path154"
             inkscape:connector-curvature="0" /></g><g
           id="g156"
           transform="translate(1763.8613,184.0432)"><path
             d="m 0,0 c -0.762,-3.047 -1.427,-5.807 -2,-8.285 -0.57,-2.475 -1.047,-4.95 -1.427,-7.425 -0.38,-2.477 -0.7,-4.952 -0.953,-7.427 -0.256,-2.477 -0.509,-5.237 -0.762,-8.285 -0.507,-6.095 -0.412,-12.316 0.287,-18.662 0.694,-6.35 1.934,-13.459 3.713,-21.329 0.124,-0.638 -0.032,-1.177 -0.476,-1.62 -0.448,-0.446 -0.986,-0.794 -1.619,-1.048 -0.636,-0.255 -1.27,-0.316 -1.905,-0.19 -0.636,0.125 -1.143,0.573 -1.523,1.333 -0.762,1.649 -1.461,4.029 -2.095,7.142 -0.636,3.111 -1.174,6.443 -1.617,9.997 -0.449,3.554 -0.763,7.111 -0.953,10.665 -0.192,3.554 -0.224,6.602 -0.095,9.142 -2.414,-5.714 -5.018,-10.569 -7.809,-14.569 -2.795,-4 -5.713,-7.428 -8.76,-10.283 -3.048,-2.857 -6.222,-5.237 -9.523,-7.142 -3.303,-1.905 -6.73,-3.617 -10.282,-5.142 -7.237,-2.921 -13.11,-4.317 -17.617,-4.19 -4.506,0.127 -7.902,0.826 -10.187,2.095 -2.161,1.142 -3.683,2.697 -4.57,4.667 -0.889,1.966 -1.208,4.156 -0.952,6.57 0.253,2.538 1.427,5.108 3.522,7.712 2.095,2.6 4.762,4.982 8,7.143 3.237,2.156 6.884,4.092 10.949,5.807 4.061,1.713 8.093,3.013 12.093,3.905 3.999,0.887 7.87,1.237 11.617,1.045 3.741,-0.19 6.95,-1.045 9.617,-2.57 1.013,-0.636 1.077,-1.367 0.19,-2.19 -0.889,-0.826 -1.971,-1.113 -3.237,-0.857 -1.525,0.382 -3.62,0.633 -6.285,0.762 -2.665,0.124 -5.652,0 -8.95,-0.38 -3.303,-0.382 -6.762,-1.142 -10.38,-2.285 -3.617,-1.145 -7.142,-2.857 -10.569,-5.142 -3.937,-2.541 -6.921,-5.272 -8.95,-8.19 -2.032,-2.921 -2.541,-5.588 -1.523,-7.997 0.505,-1.143 1.394,-2.19 2.665,-3.143 1.267,-0.952 3.109,-1.493 5.523,-1.62 2.411,-0.126 5.49,0.254 9.237,1.143 3.741,0.886 8.282,2.601 13.615,5.142 3.554,1.649 6.667,3.523 9.332,5.618 2.665,2.094 5.108,4.477 7.332,7.142 2.219,2.665 4.219,5.617 5.998,8.855 1.778,3.237 3.619,6.886 5.524,10.949 2.285,5.333 4.156,10.855 5.618,16.57 1.456,5.712 2.886,11.235 4.285,16.567 0.124,0.762 0.57,1.396 1.332,1.905 0.763,0.507 1.523,0.762 2.285,0.762 C -1.522,2.667 -0.889,2.443 -0.38,2 0.124,1.554 0.253,0.887 0,0"
             style="fill:#174120;fill-opacity:1;fill-rule:nonzero;stroke:none"
             id="path158"
             inkscape:connector-curvature="0" /></g><g
           id="g160"
           transform="translate(1795.2806,143.0993)"><path
             d="m 0,0 c -1.902,-1.018 -3.493,-2.285 -4.76,-3.807 1.776,-0.892 3.618,-1.304 5.522,-1.24 1.905,0.063 3.172,0.73 3.81,2 1.014,1.395 1.077,2.633 0.19,3.714 C 3.871,1.744 2.285,1.525 0,0 m 68.938,-7.045 c 0.634,0.76 1.048,0.599 1.238,-0.477 0.192,-1.079 -0.222,-1.937 -1.238,-2.57 -7.235,-4.699 -14.538,-8.665 -21.899,-11.902 -7.364,-3.238 -13.588,-5.747 -18.662,-7.523 -2.668,-0.891 -5.781,-1.746 -9.332,-2.572 -3.557,-0.826 -7.143,-1.303 -10.76,-1.428 -3.618,-0.129 -7.079,0.254 -10.38,1.143 -3.303,0.886 -6.092,2.667 -8.377,5.332 -2.288,2.665 -3.525,5.776 -3.715,9.332 -0.19,3.552 0.411,7.014 1.81,10.378 1.396,3.364 3.396,6.285 5.997,8.759 2.602,2.478 5.62,3.905 9.047,4.285 2.285,0.127 4.125,-0.063 5.523,-0.57 1.396,-0.509 2.443,-1.176 3.142,-2 0.697,-0.828 1.048,-1.778 1.048,-2.857 0,-1.079 -0.19,-2.063 -0.573,-2.95 C 11.171,-3.937 10.19,-5.079 8.855,-6.095 7.522,-7.111 6,-7.902 4.285,-8.475 2.572,-9.045 0.731,-9.269 -1.238,-9.14 c -1.97,0.124 -3.841,0.76 -5.617,1.903 -1.018,-1.903 -1.683,-3.874 -2,-5.903 -0.319,-2.031 -0.031,-3.936 0.858,-5.712 0.886,-2.034 2.19,-3.652 3.902,-4.857 1.715,-1.209 3.62,-2.127 5.715,-2.76 2.095,-0.639 4.285,-0.987 6.57,-1.048 2.285,-0.066 4.57,0.095 6.855,0.475 9.142,1.396 18.311,3.966 27.519,7.712 9.203,3.745 17.994,7.839 26.374,12.285"
             style="fill:#174120;fill-opacity:1;fill-rule:nonzero;stroke:none"
             id="path162"
             inkscape:connector-curvature="0" /></g><g
           id="g164"
           transform="translate(1964.1965,149.0041)"><path
             d="m 0,0 c 1.016,0 1.525,-0.382 1.525,-1.142 0,-0.639 -0.288,-1.048 -0.858,-1.24 -0.572,-0.19 -1.176,-0.446 -1.809,-0.76 -0.636,-0.32 -1.238,-0.763 -1.808,-1.335 -0.572,-0.57 -0.857,-1.494 -0.857,-2.76 0,-1.905 0.409,-4 1.237,-6.285 0.823,-2.285 1.934,-4.731 3.332,-7.332 1.396,-2.604 2.982,-5.399 4.76,-8.38 1.779,-2.984 3.554,-6.063 5.333,-9.235 0.762,-1.781 1.142,-3.237 1.142,-4.38 0,-2.414 -1.079,-4.029 -3.237,-4.857 -2.158,-0.824 -4.317,-1.238 -6.475,-1.238 -2.921,0 -6.092,0.541 -9.52,1.62 -3.43,1.079 -6.667,2.694 -9.712,4.855 -0.258,0.124 -0.383,0.383 -0.383,0.763 0,0.762 0.634,1.617 1.905,2.57 1.267,0.952 2.349,1.429 3.238,1.429 0.38,0 0.633,-0.065 0.762,-0.192 1.903,-1.016 4.061,-2.127 6.475,-3.332 2.409,-1.209 4.504,-1.808 6.285,-1.808 1.267,0 1.902,0.38 1.902,1.143 0,0.124 -0.031,0.253 -0.095,0.38 -0.065,0.124 -0.095,0.253 -0.095,0.38 -1.398,3.554 -2.825,6.667 -4.285,9.332 -1.461,2.667 -2.794,5.108 -3.999,7.332 -1.209,2.219 -2.19,4.38 -2.95,6.475 -0.763,2.095 -1.143,4.409 -1.143,6.95 0,3.681 0.887,6.443 2.665,8.285 C -4.889,-0.923 -2.665,0 0,0"
             style="fill:#174120;fill-opacity:1;fill-rule:nonzero;stroke:none"
             id="path166"
             inkscape:connector-curvature="0" /></g><g
           id="g168"
           transform="translate(2067.4116,137.0044)"><path
             d="m 0,0 c 1.013,0.382 1.681,0.287 2,-0.285 0.314,-0.57 0.443,-1.237 0.38,-2 C 2.314,-3.045 2.061,-3.778 1.617,-4.475 1.172,-5.174 0.633,-5.588 0,-5.712 c -5.333,-1.143 -10.602,-1.969 -15.807,-2.475 -5.206,-0.509 -10.188,-0.829 -14.95,-0.953 -4.76,-0.129 -9.174,-0.129 -13.234,0 -4.064,0.124 -7.555,0.254 -10.475,0.38 1.778,-1.778 3.649,-4.158 5.62,-7.14 1.965,-2.984 3.332,-5.999 4.092,-9.047 0.507,-2.921 -0.317,-4.696 -2.475,-5.332 -3.303,-0.38 -6.38,0 -9.235,1.142 -2.857,1.143 -5.237,2.858 -7.142,5.143 -1.905,2.285 -3.303,5.013 -4.19,8.189 -0.889,3.172 -0.952,6.536 -0.19,10.093 0.38,2.029 0.953,3.744 1.713,5.142 0.762,1.396 1.459,2.158 2.095,2.285 1.524,0 2.095,-1.272 1.714,-3.807 -0.38,-2.668 -0.445,-5.272 -0.19,-7.81 0.254,-2.541 0.824,-4.855 1.713,-6.95 0.887,-2.095 2.095,-3.876 3.62,-5.332 1.522,-1.462 3.362,-2.446 5.522,-2.953 0.253,2.029 -0.414,4.504 -2,7.427 -1.588,2.919 -3.841,5.839 -6.76,8.76 -0.509,0.254 -0.794,0.697 -0.857,1.333 -0.066,0.635 0.029,1.269 0.285,1.905 0.253,0.633 0.572,1.171 0.952,1.62 0.38,0.443 0.763,0.665 1.143,0.665 9.013,-0.89 18.535,-1.333 28.567,-1.333 10.026,0 20.184,1.586 30.469,4.76"
             style="fill:#174120;fill-opacity:1;fill-rule:nonzero;stroke:none"
             id="path170"
             inkscape:connector-curvature="0" /></g><g
           id="g172"
           transform="translate(2120.5378,119.8673)"><path
             d="m 0,0 c 0.507,-1.145 0.541,-1.971 0.097,-2.477 -0.448,-0.51 -1.113,-0.795 -1.999,-0.858 -0.89,-0.063 -1.781,0.063 -2.668,0.383 -0.889,0.314 -1.398,0.791 -1.522,1.427 -0.889,1.905 -1.589,3.839 -2.095,5.81 -0.51,1.966 -0.924,3.966 -1.238,5.997 -0.319,2.029 -0.604,4 -0.857,5.905 -0.256,1.903 -0.573,3.618 -0.953,5.14 -0.636,2.921 -2.54,3.301 -5.712,1.142 -2.285,-1.522 -4.762,-3.459 -7.428,-5.807 -2.667,-2.351 -5.427,-4.984 -8.284,-7.902 -2.855,-2.923 -5.747,-6.066 -8.665,-9.427 -2.921,-3.367 -5.712,-6.76 -8.38,-10.19 -1.398,-1.016 -2.506,-0.95 -3.332,0.192 -0.826,1.143 -1.113,2.219 -0.858,3.238 0.383,2.409 0.697,4.57 0.953,6.475 0.253,1.902 0.538,3.775 0.857,5.617 0.317,1.839 0.634,3.807 0.953,5.902 0.317,2.095 0.667,4.478 1.047,7.143 0,0.38 0.219,0.762 0.668,1.142 0.443,0.38 0.952,0.633 1.522,0.763 0.573,0.124 1.048,0.06 1.428,-0.19 0.382,-0.256 0.572,-0.829 0.572,-1.715 -0.256,-2.541 -0.477,-5.304 -0.667,-8.285 -0.19,-2.984 -0.414,-6.57 -0.665,-10.76 1.646,2.412 3.712,5.111 6.187,8.095 2.477,2.981 5.077,5.871 7.81,8.665 2.728,2.791 5.522,5.332 8.377,7.617 2.858,2.285 5.554,4.061 8.095,5.332 2.409,1.014 4.57,1.396 6.475,1.143 1.905,-0.256 3.237,-1.523 4,-3.81 0.504,-1.778 0.918,-3.683 1.237,-5.712 0.314,-2.032 0.633,-4.161 0.952,-6.38 C -3.778,11.393 -3.332,9.14 -2.76,6.855 -2.19,4.57 -1.269,2.285 0,0"
             style="fill:#174120;fill-opacity:1;fill-rule:nonzero;stroke:none"
             id="path174"
             inkscape:connector-curvature="0" /></g><g
           id="g176"
           transform="translate(2233.4675,113.3925)"><path
             d="m 0,0 c 0.507,-0.762 0.507,-1.401 0,-1.905 -0.509,-0.509 -1.303,-0.828 -2.38,-0.952 -1.079,-0.13 -2.255,0 -3.522,0.38 -1.272,0.382 -2.285,1.076 -3.048,2.095 -1.522,2.029 -3.303,4.379 -5.332,7.047 -2.032,2.665 -4.604,5.045 -7.712,7.14 -3.114,2.095 -6.889,3.585 -11.333,4.477 -4.443,0.887 -9.839,0.57 -16.187,-0.952 -2.794,-0.763 -5.807,-1.939 -9.045,-3.525 -3.237,-1.589 -6.54,-3.398 -9.902,-5.428 -3.366,-2.031 -6.635,-4.158 -9.807,-6.38 -3.177,-2.221 -6.095,-4.348 -8.76,-6.379 -1.4,-1.016 -2.509,-0.95 -3.332,0.192 -0.828,1.143 -1.114,2.219 -0.858,3.238 0.254,1.646 0.665,4.664 1.238,9.044 0.57,4.38 1.266,9.428 2.095,15.14 0.823,5.712 1.712,11.807 2.665,18.282 0.952,6.475 1.839,12.631 2.667,18.472 0.824,5.839 1.552,11.013 2.19,15.522 0.633,4.504 1.077,7.647 1.332,9.425 0.125,0.887 0.602,1.683 1.428,2.382 0.826,0.695 1.649,1.172 2.477,1.428 0.824,0.253 1.552,0.285 2.19,0.095 0.634,-0.19 0.887,-0.733 0.76,-1.62 -0.126,-1.269 -0.541,-3.998 -1.237,-8.187 -0.699,-4.19 -1.493,-9.143 -2.38,-14.855 -0.889,-5.712 -1.876,-11.839 -2.953,-18.377 -1.079,-6.541 -2.094,-12.731 -3.047,-18.567 -0.95,-5.842 -1.778,-11.016 -2.475,-15.522 -0.699,-4.507 -1.113,-7.523 -1.237,-9.045 2.029,1.905 4.599,3.966 7.712,6.19 3.111,2.219 6.409,4.314 9.902,6.285 3.491,1.965 7.077,3.712 10.76,5.235 3.681,1.524 7.11,2.538 10.285,3.047 6.599,1.269 12.472,1.142 17.614,-0.38 5.143,-1.523 9.617,-3.683 13.427,-6.475 3.808,-2.794 7.013,-5.778 9.618,-8.95 C -3.588,4.441 -1.522,1.902 0,0"
             style="fill:#174120;fill-opacity:1;fill-rule:nonzero;stroke:none"
             id="path178"
             inkscape:connector-curvature="0" /></g><g
           id="g180"
           transform="translate(2315.7332,137.0044)"><path
             d="m 0,0 c 1.013,0.382 1.681,0.287 2,-0.285 0.314,-0.57 0.443,-1.237 0.38,-2 C 2.314,-3.045 2.061,-3.778 1.617,-4.475 1.172,-5.174 0.633,-5.588 0,-5.712 c -5.332,-1.143 -10.601,-1.969 -15.807,-2.475 -5.206,-0.509 -10.187,-0.829 -14.95,-0.953 -4.76,-0.129 -9.174,-0.129 -13.234,0 -4.064,0.124 -7.554,0.254 -10.475,0.38 1.778,-1.778 3.649,-4.158 5.62,-7.14 1.966,-2.984 3.332,-5.999 4.092,-9.047 0.507,-2.921 -0.317,-4.696 -2.475,-5.332 -3.303,-0.38 -6.38,0 -9.235,1.142 -2.857,1.143 -5.237,2.858 -7.142,5.143 -1.905,2.285 -3.303,5.013 -4.19,8.189 -0.889,3.172 -0.952,6.536 -0.19,10.093 0.38,2.029 0.953,3.744 1.713,5.142 0.762,1.396 1.459,2.158 2.095,2.285 1.524,0 2.095,-1.272 1.715,-3.807 -0.381,-2.668 -0.446,-5.272 -0.191,-7.81 0.254,-2.541 0.824,-4.855 1.713,-6.95 0.887,-2.095 2.095,-3.876 3.62,-5.332 1.522,-1.462 3.362,-2.446 5.522,-2.953 0.254,2.029 -0.414,4.504 -2,7.427 -1.588,2.919 -3.841,5.839 -6.76,8.76 -0.509,0.254 -0.794,0.697 -0.857,1.333 -0.066,0.635 0.029,1.269 0.285,1.905 0.253,0.633 0.572,1.171 0.953,1.62 0.379,0.443 0.762,0.665 1.142,0.665 9.013,-0.89 18.535,-1.333 28.567,-1.333 10.026,0 20.184,1.586 30.469,4.76"
             style="fill:#174120;fill-opacity:1;fill-rule:nonzero;stroke:none"
             id="path182"
             inkscape:connector-curvature="0" /></g><g
           id="g184"
           transform="translate(2326.5854,149.0041)"><path
             d="m 0,0 c 1.016,0 1.525,-0.382 1.525,-1.142 0,-0.639 -0.287,-1.048 -0.858,-1.24 -0.572,-0.19 -1.176,-0.446 -1.81,-0.76 -0.635,-0.32 -1.237,-0.763 -1.807,-1.335 -0.572,-0.57 -0.857,-1.494 -0.857,-2.76 0,-1.905 0.409,-4 1.237,-6.285 0.823,-2.285 1.934,-4.731 3.332,-7.332 1.396,-2.604 2.982,-5.399 4.76,-8.38 1.779,-2.984 3.554,-6.063 5.333,-9.235 0.762,-1.781 1.142,-3.237 1.142,-4.38 0,-2.414 -1.079,-4.029 -3.237,-4.857 -2.158,-0.824 -4.317,-1.238 -6.475,-1.238 -2.921,0 -6.092,0.541 -9.52,1.62 -3.43,1.079 -6.667,2.694 -9.712,4.855 -0.258,0.124 -0.383,0.383 -0.383,0.763 0,0.762 0.634,1.617 1.905,2.57 1.267,0.952 2.349,1.429 3.238,1.429 0.38,0 0.633,-0.065 0.762,-0.192 1.903,-1.016 4.061,-2.127 6.475,-3.332 2.409,-1.209 4.504,-1.808 6.285,-1.808 1.267,0 1.903,0.38 1.903,1.143 0,0.124 -0.032,0.253 -0.096,0.38 -0.065,0.124 -0.095,0.253 -0.095,0.38 -1.398,3.554 -2.825,6.667 -4.285,9.332 -1.461,2.667 -2.793,5.108 -3.999,7.332 -1.209,2.219 -2.19,4.38 -2.95,6.475 -0.763,2.095 -1.143,4.409 -1.143,6.95 0,3.681 0.887,6.443 2.665,8.285 C -4.889,-0.923 -2.665,0 0,0"
             style="fill:#174120;fill-opacity:1;fill-rule:nonzero;stroke:none"
             id="path186"
             inkscape:connector-curvature="0" /></g></g></g></g></svg>