<?xml version="1.0" encoding="utf-8"?>
<!-- Generator: Adobe Illustrator 16.0.0, SVG Export Plug-In . SVG Version: 6.00 Build 0)  -->
<!DOCTYPE svg PUBLIC "-//W3C//DTD SVG 1.1//EN" "http://www.w3.org/Graphics/SVG/1.1/DTD/svg11.dtd">
<svg version="1.1" id="Camada_1" xmlns="http://www.w3.org/2000/svg" xmlns:xlink="http://www.w3.org/1999/xlink" x="0px" y="0px"
	 width="174.716px" height="147.293px" viewBox="0 0 174.716 147.293" enable-background="new 0 0 174.716 147.293"
	 xml:space="preserve">
<g>
	<g>
		<path fill="#C92373" d="M3.178,95.734v-6.567h6.461v6.567H3.178z M3.178,126.875v-26.798h6.461v26.798H3.178z"/>
		<path fill="#C92373" d="M32.624,126.875v-14.141c0-2.33-0.565-4.113-1.695-5.349c-1.024-1.129-2.366-1.695-4.025-1.695
			c-2.966,0-4.449,1.607-4.449,4.82v16.365h-6.461V108.55c0-6.072,3.072-9.109,9.215-9.109c3.072,0,5.508,1.095,7.309,3.283h0.106
			v-2.648h6.461v26.798H32.624z"/>
		<path fill="#DCA817" d="M68.796,107.067l-5.667,2.595c-0.424-1.306-1.157-2.348-2.198-3.125c-1.042-0.776-2.198-1.165-3.469-1.165
			c-2.189,0-3.919,0.83-5.19,2.489c-1.165,1.519-1.748,3.39-1.748,5.614c0,2.26,0.53,4.131,1.589,5.614
			c1.2,1.66,2.86,2.489,4.979,2.489c2.93,0,5.102-1.729,6.514-5.19l5.508,2.913c-2.507,5.474-6.55,8.209-12.128,8.209
			c-4.025,0-7.256-1.342-9.692-4.025c-2.366-2.577-3.548-5.913-3.548-10.009c0-4.096,1.227-7.458,3.681-10.089
			c2.454-2.63,5.799-3.945,10.036-3.945C62.935,99.441,66.712,101.983,68.796,107.067z"/>
		<path fill="#DCA817" d="M95.382,108.233v14.14c0,1.942,0.335,3.443,1.006,4.502h-6.832c-0.424-0.636-0.636-1.447-0.636-2.436
			c-2.542,2.047-5.455,3.071-8.739,3.071c-2.613,0-4.785-0.769-6.514-2.304c-1.73-1.536-2.595-3.575-2.595-6.117
			c0-4.519,2.718-7.309,8.156-8.368l2.701-0.529c1.801-0.353,4.131-0.882,6.991-1.589v-0.794c0-2.259-1.695-3.39-5.084-3.39
			c-1.872,0-3.169,0.3-3.893,0.9c-0.724,0.601-1.085,1.642-1.085,3.125l-6.461-0.265c0-2.93,1.165-5.172,3.496-6.726
			c2.047-1.341,4.695-2.012,7.944-2.012c3.496,0,6.144,0.512,7.944,1.536C94.182,102.354,95.382,104.773,95.382,108.233z
			 M88.921,117.289v-3.813c-0.707,0.353-1.73,0.671-3.072,0.953l-3.548,0.741c-1.483,0.318-2.525,0.688-3.125,1.112
			c-0.883,0.565-1.324,1.43-1.324,2.595c0,0.989,0.397,1.792,1.191,2.409c0.794,0.619,1.792,0.928,2.993,0.928
			c1.729,0,3.248-0.389,4.555-1.166C88.144,120.131,88.921,118.878,88.921,117.289z"/>
		<path fill="#DCA817" d="M117.996,126.875v-14.141c0-2.33-0.564-4.113-1.694-5.349c-1.024-1.129-2.366-1.695-4.025-1.695
			c-2.966,0-4.448,1.607-4.448,4.82v16.365h-6.461V108.55c0-6.072,3.071-9.109,9.215-9.109c3.072,0,5.508,1.095,7.309,3.283h0.105
			v-2.648h6.461v26.798H117.996z"/>
		<path fill="#DCA817" d="M131.819,100.077v-9.533h6.461v9.533h5.772v4.661h-5.772v13.558c0,1.166,0.177,1.979,0.53,2.437
			c0.424,0.565,1.218,0.848,2.383,0.848l2.859-0.317v5.295c-2.048,0.424-3.76,0.637-5.137,0.637c-4.732,0-7.097-2.154-7.097-6.462
			v-15.994H127.9v-4.661H131.819z"/>
		<path fill="#DCA817" d="M159.517,99.441c4.236,0,7.607,1.342,10.115,4.025c2.4,2.578,3.602,5.914,3.602,10.01
			c0,4.096-1.201,7.432-3.602,10.009c-2.508,2.684-5.879,4.025-10.115,4.025c-4.238,0-7.609-1.342-10.117-4.025
			c-2.4-2.577-3.6-5.913-3.6-10.009c0-4.096,1.225-7.458,3.68-10.089C151.933,100.757,155.279,99.441,159.517,99.441z
			 M159.517,105.373c-2.191,0-3.92,0.83-5.191,2.489c-1.164,1.519-1.748,3.39-1.748,5.614c0,2.224,0.584,4.096,1.748,5.614
			c1.271,1.66,3,2.489,5.191,2.489c2.188,0,3.918-0.829,5.189-2.489c1.164-1.518,1.748-3.39,1.748-5.614
			c0-2.225-0.584-4.096-1.748-5.614C163.435,106.203,161.705,105.373,159.517,105.373z"/>
	</g>
	<g>
		<path fill="#FFFFFF" d="M39.474,144.707v-7.838h1.274v6.697h2.848v1.141H39.474z"/>
		<path fill="#FFFFFF" d="M53.709,140.805c0,0.557-0.104,1.083-0.313,1.579c-0.209,0.496-0.513,0.938-0.913,1.327
			c-0.403,0.39-0.858,0.688-1.365,0.895s-1.039,0.311-1.595,0.311c-0.564,0-1.102-0.104-1.614-0.313
			c-0.512-0.208-0.964-0.506-1.357-0.892c-0.4-0.389-0.703-0.83-0.91-1.322s-0.311-1.02-0.311-1.584
			c0-0.561,0.104-1.089,0.311-1.585c0.207-0.495,0.51-0.94,0.91-1.333c0.399-0.389,0.853-0.686,1.36-0.889
			c0.506-0.203,1.044-0.305,1.611-0.305c0.563,0,1.098,0.102,1.603,0.305s0.958,0.5,1.357,0.889c0.4,0.396,0.704,0.844,0.913,1.342
			C53.605,139.726,53.709,140.252,53.709,140.805z M52.382,140.805c0-0.396-0.072-0.773-0.217-1.13s-0.353-0.675-0.624-0.952
			c-0.264-0.275-0.57-0.486-0.918-0.635c-0.348-0.148-0.715-0.223-1.1-0.223c-0.386,0-0.752,0.074-1.1,0.22
			c-0.348,0.146-0.658,0.358-0.929,0.638c-0.271,0.274-0.478,0.59-0.621,0.947c-0.143,0.356-0.214,0.734-0.214,1.135
			c0,0.396,0.071,0.771,0.214,1.124c0.143,0.354,0.35,0.669,0.621,0.947c0.271,0.278,0.58,0.491,0.926,0.638
			s0.714,0.219,1.103,0.219c0.382,0,0.745-0.072,1.089-0.219c0.344-0.146,0.654-0.359,0.929-0.638
			c0.271-0.278,0.479-0.595,0.624-0.95S52.382,141.197,52.382,140.805z"/>
		<path fill="#FFFFFF" d="M56.543,143.283c0.132,0.156,0.259,0.271,0.38,0.342c0.121,0.072,0.25,0.107,0.385,0.107
			c0.25,0,0.426-0.082,0.527-0.246s0.152-0.469,0.152-0.915v-5.702h1.264v6.114c0,0.663-0.146,1.151-0.439,1.464
			c-0.293,0.313-0.75,0.469-1.371,0.469c-0.342,0-0.652-0.066-0.929-0.198s-0.538-0.337-0.784-0.616L56.543,143.283z"/>
		<path fill="#FFFFFF" d="M67.541,144.707l-0.889-2.018h-3.105l-0.91,2.018h-1.338l3.795-8.147l3.79,8.147H67.541z M64.018,141.629
			h2.184l-0.803-1.788c-0.046-0.114-0.095-0.245-0.145-0.394s-0.1-0.313-0.15-0.495c-0.043,0.171-0.088,0.331-0.136,0.479
			c-0.048,0.148-0.098,0.284-0.147,0.409L64.018,141.629z"/>
		<path fill="#FFFFFF" d="M82.093,138.775c-0.36-0.307-0.741-0.537-1.143-0.69c-0.401-0.153-0.823-0.229-1.266-0.229
			c-0.856,0-1.553,0.274-2.09,0.824c-0.537,0.549-0.806,1.262-0.806,2.136c0,0.846,0.261,1.544,0.784,2.093
			c0.523,0.55,1.182,0.824,1.978,0.824c0.464,0,0.906-0.082,1.325-0.246s0.822-0.412,1.207-0.744v1.44
			c-0.343,0.246-0.715,0.43-1.119,0.552c-0.403,0.121-0.841,0.182-1.312,0.182c-0.6,0-1.154-0.099-1.663-0.295
			c-0.508-0.195-0.956-0.484-1.341-0.867c-0.382-0.375-0.675-0.816-0.88-1.324c-0.206-0.51-0.308-1.051-0.308-1.625
			s0.103-1.115,0.308-1.619c0.205-0.506,0.502-0.949,0.891-1.33c0.389-0.387,0.835-0.678,1.338-0.876
			c0.503-0.198,1.047-0.297,1.633-0.297c0.46,0,0.899,0.067,1.317,0.2c0.417,0.135,0.822,0.337,1.215,0.607L82.093,138.775z"/>
		<path fill="#FFFFFF" d="M93.144,140.805c0,0.557-0.104,1.083-0.313,1.579c-0.209,0.496-0.513,0.938-0.913,1.327
			c-0.403,0.39-0.858,0.688-1.365,0.895s-1.039,0.311-1.595,0.311c-0.564,0-1.102-0.104-1.614-0.313
			c-0.512-0.208-0.964-0.506-1.357-0.892c-0.4-0.389-0.703-0.83-0.91-1.322s-0.311-1.02-0.311-1.584
			c0-0.561,0.104-1.089,0.311-1.585c0.207-0.495,0.51-0.94,0.91-1.333c0.399-0.389,0.853-0.686,1.36-0.889
			c0.506-0.203,1.044-0.305,1.611-0.305c0.563,0,1.098,0.102,1.603,0.305s0.958,0.5,1.357,0.889c0.4,0.396,0.704,0.844,0.913,1.342
			C93.04,139.726,93.144,140.252,93.144,140.805z M91.816,140.805c0-0.396-0.072-0.773-0.217-1.13s-0.353-0.675-0.624-0.952
			c-0.264-0.275-0.57-0.486-0.918-0.635c-0.348-0.148-0.715-0.223-1.1-0.223c-0.386,0-0.752,0.074-1.1,0.22
			c-0.348,0.146-0.658,0.358-0.929,0.638c-0.271,0.274-0.478,0.59-0.621,0.947c-0.143,0.356-0.214,0.734-0.214,1.135
			c0,0.396,0.071,0.771,0.214,1.124c0.143,0.354,0.35,0.669,0.621,0.947c0.271,0.278,0.58,0.491,0.926,0.638
			s0.714,0.219,1.103,0.219c0.382,0,0.745-0.072,1.089-0.219c0.344-0.146,0.654-0.359,0.929-0.638
			c0.271-0.278,0.479-0.595,0.624-0.95S91.816,141.197,91.816,140.805z"/>
		<path fill="#FFFFFF" d="M96.042,144.707v-7.838h1.274v6.697h2.848v1.141H96.042z"/>
		<path fill="#FFFFFF" d="M107.81,144.707l-0.889-2.018h-3.105l-0.91,2.018h-1.338l3.795-8.147l3.791,8.147H107.81z
			 M104.288,141.629h2.185l-0.804-1.788c-0.046-0.114-0.095-0.245-0.145-0.394s-0.101-0.313-0.149-0.495
			c-0.043,0.171-0.089,0.331-0.137,0.479c-0.049,0.148-0.098,0.284-0.147,0.409L104.288,141.629z"/>
		<path fill="#FFFFFF" d="M111.329,144.707v-7.838h1.976c0.563,0,0.98,0.031,1.25,0.092s0.498,0.16,0.688,0.3
			c0.242,0.179,0.432,0.412,0.564,0.701c0.135,0.289,0.201,0.608,0.201,0.958c0,0.418-0.096,0.767-0.289,1.047
			s-0.473,0.476-0.84,0.586c0.456,0.072,0.816,0.279,1.078,0.624s0.394,0.778,0.394,1.304c0,0.317-0.056,0.619-0.166,0.904
			s-0.268,0.528-0.472,0.729c-0.214,0.217-0.479,0.371-0.797,0.46c-0.318,0.089-0.852,0.134-1.602,0.134H111.329z M112.576,140.178
			h0.487c0.606,0,1.036-0.082,1.288-0.248c0.251-0.166,0.377-0.445,0.377-0.838c0-0.429-0.116-0.729-0.348-0.902
			c-0.232-0.174-0.672-0.26-1.317-0.26h-0.487V140.178z M112.576,143.642h0.439c0.445,0,0.779-0.018,1.001-0.054
			c0.222-0.035,0.396-0.098,0.524-0.188c0.157-0.104,0.278-0.242,0.364-0.417c0.085-0.175,0.128-0.368,0.128-0.578
			c0-0.25-0.051-0.468-0.154-0.653s-0.252-0.33-0.445-0.434c-0.121-0.061-0.26-0.105-0.414-0.134
			c-0.156-0.028-0.361-0.043-0.619-0.043h-0.385h-0.439V143.642z"/>
		<path fill="#FFFFFF" d="M127.117,140.805c0,0.557-0.104,1.083-0.313,1.579c-0.209,0.496-0.514,0.938-0.914,1.327
			c-0.402,0.39-0.857,0.688-1.364,0.895s-1.038,0.311-1.595,0.311c-0.564,0-1.103-0.104-1.615-0.313
			c-0.512-0.208-0.964-0.506-1.356-0.892c-0.399-0.389-0.703-0.83-0.91-1.322s-0.311-1.02-0.311-1.584
			c0-0.561,0.104-1.089,0.311-1.585c0.207-0.495,0.511-0.94,0.91-1.333c0.399-0.389,0.853-0.686,1.36-0.889
			c0.506-0.203,1.043-0.305,1.611-0.305c0.563,0,1.098,0.102,1.603,0.305s0.958,0.5,1.356,0.889c0.4,0.396,0.705,0.844,0.914,1.342
			C127.012,139.726,127.117,140.252,127.117,140.805z M125.789,140.805c0-0.396-0.072-0.773-0.217-1.13s-0.352-0.675-0.623-0.952
			c-0.264-0.275-0.57-0.486-0.918-0.635s-0.715-0.223-1.1-0.223c-0.387,0-0.753,0.074-1.101,0.22
			c-0.349,0.146-0.657,0.358-0.929,0.638c-0.271,0.274-0.479,0.59-0.621,0.947c-0.143,0.356-0.215,0.734-0.215,1.135
			c0,0.396,0.072,0.771,0.215,1.124s0.35,0.669,0.621,0.947s0.58,0.491,0.926,0.638s0.714,0.219,1.104,0.219
			c0.381,0,0.744-0.072,1.089-0.219s0.653-0.359,0.929-0.638c0.271-0.278,0.479-0.595,0.623-0.95S125.789,141.197,125.789,140.805z"
			/>
		<path fill="#FFFFFF" d="M131.208,141.201v3.506h-1.193v-7.838h1.777c0.521,0,0.925,0.035,1.212,0.103s0.532,0.181,0.735,0.337
			c0.243,0.189,0.431,0.434,0.563,0.733c0.133,0.3,0.198,0.628,0.198,0.985c0,0.628-0.151,1.119-0.455,1.475
			s-0.751,0.568-1.343,0.64l2.697,3.565h-1.439l-2.607-3.506H131.208z M131.289,140.211h0.23c0.674,0,1.122-0.079,1.344-0.236
			c0.221-0.156,0.332-0.436,0.332-0.835c0-0.432-0.119-0.736-0.356-0.913c-0.237-0.176-0.677-0.265-1.319-0.265h-0.23V140.211z"/>
		<path fill="#FFFFFF" d="M142.767,144.707l-0.889-2.018h-3.104l-0.91,2.018h-1.339l3.796-8.147l3.79,8.147H142.767z
			 M139.246,141.629h2.184l-0.803-1.788c-0.047-0.114-0.096-0.245-0.145-0.394c-0.051-0.148-0.101-0.313-0.15-0.495
			c-0.043,0.171-0.088,0.331-0.137,0.479c-0.048,0.148-0.098,0.284-0.146,0.409L139.246,141.629z"/>
		<path fill="#FFFFFF" d="M148.218,137.951v6.756h-1.273v-6.756h-2.083v-1.082h5.429v1.082H148.218z"/>
		<path fill="#FFFFFF" d="M152.722,144.707v-7.838h1.275v7.838H152.722z"/>
		<path fill="#FFFFFF" d="M159.753,145.012l-3.496-8.143h1.322l1.756,4.176c0.104,0.243,0.189,0.467,0.258,0.672
			c0.066,0.205,0.121,0.4,0.16,0.586c0.045-0.195,0.105-0.398,0.176-0.609c0.072-0.211,0.156-0.427,0.252-0.648l1.75-4.176h1.318
			L159.753,145.012z"/>
		<path fill="#FFFFFF" d="M170.46,144.707l-0.889-2.018h-3.105l-0.908,2.018h-1.34l3.797-8.147l3.789,8.147H170.46z
			 M166.939,141.629h2.184l-0.803-1.788c-0.047-0.114-0.096-0.245-0.145-0.394c-0.051-0.148-0.1-0.313-0.15-0.495
			c-0.043,0.171-0.088,0.331-0.137,0.479s-0.098,0.284-0.146,0.409L166.939,141.629z"/>
	</g>
	<g>
		<g enable-background="new    ">
			<g>
				<polyline fill="#D8AA1C" points="103.853,24.403 89.814,32.259 103.423,40.417 117.46,32.56 103.853,24.403 				"/>
			</g>
		</g>
		<g>
			<g>
				<defs>
					<polygon id="SVGID_1_" points="79.606,47.093 61.861,36.775 43.947,47.106 61.66,57.41 					"/>
				</defs>
				<use xlink:href="#SVGID_1_"  overflow="visible" fill="#F7F3A8"/>
				<clipPath id="SVGID_2_">
					<use xlink:href="#SVGID_1_"  overflow="visible"/>
				</clipPath>
			</g>
			<g>
				<defs>
					<polygon id="SVGID_3_" points="84.917,43.775 84.962,23.546 67.335,33.534 67.393,54.004 					"/>
				</defs>
				<use xlink:href="#SVGID_3_"  overflow="visible" fill="#FDFAD4"/>
				<clipPath id="SVGID_4_">
					<use xlink:href="#SVGID_3_"  overflow="visible"/>
				</clipPath>
			</g>
			<g>
				<defs>
					<polygon id="SVGID_5_" points="67.289,60.66 67.347,39.923 84.923,50.207 84.941,70.84 					"/>
				</defs>
				<use xlink:href="#SVGID_5_"  overflow="visible" fill="#F9ED47"/>
				<clipPath id="SVGID_6_">
					<use xlink:href="#SVGID_5_"  overflow="visible"/>
				</clipPath>
			</g>
		</g>
		<g>
			<defs>
				<polygon id="SVGID_7_" points="84.887,30.094 85.07,13.865 99.027,21.924 98.843,38.152 				"/>
			</defs>
			<use xlink:href="#SVGID_7_"  overflow="visible" fill="#F5DC54"/>
			<clipPath id="SVGID_8_">
				<use xlink:href="#SVGID_7_"  overflow="visible"/>
			</clipPath>
		</g>
		<g>
			<defs>
				<polygon id="SVGID_9_" points="43.708,31.219 57.578,23.157 71.542,31.22 57.672,39.28 				"/>
			</defs>
			<use xlink:href="#SVGID_9_"  overflow="visible" fill="#D8AA1C"/>
			<clipPath id="SVGID_10_">
				<use xlink:href="#SVGID_9_"  overflow="visible"/>
			</clipPath>
		</g>
		<g>
			<defs>
				<polygon id="SVGID_11_" points="39.311,28.597 39.355,12.559 53.311,20.618 53.267,36.655 				"/>
			</defs>
			<use xlink:href="#SVGID_11_"  overflow="visible" fill="#A30C39"/>
			<clipPath id="SVGID_12_">
				<use xlink:href="#SVGID_11_"  overflow="visible"/>
			</clipPath>
		</g>
		<g>
			<defs>
				<polygon id="SVGID_13_" points="43.708,63.113 57.578,55.052 71.542,63.115 57.672,71.176 				"/>
			</defs>
			<use xlink:href="#SVGID_13_"  overflow="visible" fill="#D8AA1C"/>
			<clipPath id="SVGID_14_">
				<use xlink:href="#SVGID_13_"  overflow="visible"/>
			</clipPath>
		</g>
		<g>
			<defs>
				<polygon id="SVGID_15_" points="39.311,60.492 39.355,44.455 53.311,52.513 53.267,68.551 				"/>
			</defs>
			<use xlink:href="#SVGID_15_"  overflow="visible" fill="#F5DC54"/>
			<clipPath id="SVGID_16_">
				<use xlink:href="#SVGID_15_"  overflow="visible"/>
			</clipPath>
		</g>
		<g>
			<defs>
				<polygon id="SVGID_17_" points="53.348,73.556 53.303,57.519 39.347,65.577 39.392,81.615 				"/>
			</defs>
			<use xlink:href="#SVGID_17_"  overflow="visible" fill="#A30C39"/>
			<clipPath id="SVGID_18_">
				<use xlink:href="#SVGID_17_"  overflow="visible"/>
			</clipPath>
		</g>
		<g>
			<defs>
				<polygon id="SVGID_19_" points="90.589,61.415 104.46,53.355 118.423,61.418 104.554,69.478 				"/>
			</defs>
			<linearGradient id="SVGID_20_" gradientUnits="userSpaceOnUse" x1="90.5894" y1="61.417" x2="118.4233" y2="61.417">
				<stop  offset="0" style="stop-color:#F8F8D2"/>
				<stop  offset="0.1264" style="stop-color:#F6F2C3"/>
				<stop  offset="0.3761" style="stop-color:#EDDC99"/>
				<stop  offset="0.7215" style="stop-color:#DEB85E"/>
				<stop  offset="1" style="stop-color:#D19807"/>
			</linearGradient>
			<use xlink:href="#SVGID_19_"  overflow="visible" fill="url(#SVGID_20_)"/>
			<clipPath id="SVGID_21_">
				<use xlink:href="#SVGID_19_"  overflow="visible"/>
			</clipPath>
		</g>
		<g>
			<defs>
				<polygon id="SVGID_22_" points="84.887,59.436 84.932,43.398 98.89,51.457 98.843,67.496 				"/>
			</defs>
			<use xlink:href="#SVGID_22_"  overflow="visible" fill="#F5DC54"/>
			<clipPath id="SVGID_23_">
				<use xlink:href="#SVGID_22_"  overflow="visible"/>
			</clipPath>
		</g>
		<g>
			<defs>
				<polygon id="SVGID_24_" points="98.925,72.501 98.88,56.463 84.923,64.521 84.968,80.56 				"/>
			</defs>
			<linearGradient id="SVGID_25_" gradientUnits="userSpaceOnUse" x1="55.6011" y1="56.4668" x2="102.0084" y2="71.8545">
				<stop  offset="0" style="stop-color:#F8F8D2"/>
				<stop  offset="0.1264" style="stop-color:#F6F2C3"/>
				<stop  offset="0.3761" style="stop-color:#EDDC99"/>
				<stop  offset="0.7215" style="stop-color:#DEB85E"/>
				<stop  offset="1" style="stop-color:#D19807"/>
			</linearGradient>
			<use xlink:href="#SVGID_24_"  overflow="visible" fill="url(#SVGID_25_)"/>
			<clipPath id="SVGID_26_">
				<use xlink:href="#SVGID_24_"  overflow="visible"/>
			</clipPath>
		</g>
		<g>
			<defs>
				<polygon id="SVGID_27_" points="65.535,18.659 79.404,10.598 93.369,18.661 79.498,26.721 				"/>
			</defs>
			<use xlink:href="#SVGID_27_"  overflow="visible" fill="#A30C39"/>
			<clipPath id="SVGID_28_">
				<use xlink:href="#SVGID_27_"  overflow="visible"/>
			</clipPath>
		</g>
		<g>
			<g>
				<defs>
					<polygon id="SVGID_29_" points="61.137,16.039 61.182,0 75.138,8.059 75.093,24.096 					"/>
				</defs>
				<use xlink:href="#SVGID_29_"  overflow="visible" fill="#C03978"/>
				<clipPath id="SVGID_30_">
					<use xlink:href="#SVGID_29_"  overflow="visible"/>
				</clipPath>
			</g>
		</g>
		<g>
			<defs>
				<polygon id="SVGID_31_" points="75.174,29.102 75.129,13.064 61.172,21.123 61.217,37.161 				"/>
			</defs>
			<use xlink:href="#SVGID_31_"  overflow="visible" fill="#D690A9"/>
			<clipPath id="SVGID_32_">
				<use xlink:href="#SVGID_31_"  overflow="visible"/>
			</clipPath>
		</g>
		<g>
			<defs>
				<polygon id="SVGID_33_" points="65.535,75.705 79.404,67.644 93.369,75.707 79.498,83.767 				"/>
			</defs>
			<use xlink:href="#SVGID_33_"  overflow="visible" fill="#A30C39"/>
			<clipPath id="SVGID_34_">
				<use xlink:href="#SVGID_33_"  overflow="visible"/>
			</clipPath>
		</g>
		<g>
			<defs>
				<polygon id="SVGID_35_" points="61.137,73.083 61.137,57.105 75.138,65.104 75.093,81.141 				"/>
			</defs>
			<use xlink:href="#SVGID_35_"  overflow="visible" fill="#D690A9"/>
			<clipPath id="SVGID_36_">
				<use xlink:href="#SVGID_35_"  overflow="visible"/>
			</clipPath>
		</g>
		<g>
			<g>
				<defs>
					<polygon id="SVGID_37_" points="75.174,86.147 75.129,70.11 61.172,78.168 61.217,94.207 					"/>
				</defs>
				<use xlink:href="#SVGID_37_"  overflow="visible" fill="#C03978"/>
				<clipPath id="SVGID_38_">
					<use xlink:href="#SVGID_37_"  overflow="visible"/>
				</clipPath>
			</g>
		</g>
		<g>
			<defs>
				<polygon id="SVGID_39_" points="114.365,47.718 128.236,39.658 142.199,47.721 128.33,55.781 				"/>
			</defs>
			<linearGradient id="SVGID_40_" gradientUnits="userSpaceOnUse" x1="114.3647" y1="47.7197" x2="142.1987" y2="47.7197">
				<stop  offset="0" style="stop-color:#F8F8D2"/>
				<stop  offset="0.1264" style="stop-color:#F6F2C3"/>
				<stop  offset="0.3761" style="stop-color:#EDDC99"/>
				<stop  offset="0.7215" style="stop-color:#DEB85E"/>
				<stop  offset="1" style="stop-color:#D19807"/>
			</linearGradient>
			<use xlink:href="#SVGID_39_"  overflow="visible" fill="url(#SVGID_40_)"/>
			<clipPath id="SVGID_41_">
				<use xlink:href="#SVGID_39_"  overflow="visible"/>
			</clipPath>
		</g>
		<g>
			<defs>
				<polygon id="SVGID_42_" points="109.527,43.831 109.57,27.794 123.527,35.852 123.482,51.89 				"/>
			</defs>
			<linearGradient id="SVGID_43_" gradientUnits="userSpaceOnUse" x1="109.7993" y1="22.5674" x2="115.8241" y2="38.0357">
				<stop  offset="0" style="stop-color:#F8F8D2"/>
				<stop  offset="0.1264" style="stop-color:#F6F2C3"/>
				<stop  offset="0.3761" style="stop-color:#EDDC99"/>
				<stop  offset="0.7215" style="stop-color:#DEB85E"/>
				<stop  offset="1" style="stop-color:#D19807"/>
			</linearGradient>
			<use xlink:href="#SVGID_42_"  overflow="visible" fill="url(#SVGID_43_)"/>
			<clipPath id="SVGID_44_">
				<use xlink:href="#SVGID_42_"  overflow="visible"/>
			</clipPath>
		</g>
		<g>
			<defs>
				<polygon id="SVGID_45_" points="123.527,58.533 123.482,42.495 109.527,50.554 109.57,66.591 				"/>
			</defs>
			<linearGradient id="SVGID_46_" gradientUnits="userSpaceOnUse" x1="109.5269" y1="54.543" x2="123.5269" y2="54.543">
				<stop  offset="0" style="stop-color:#F8F8D2"/>
				<stop  offset="0.1264" style="stop-color:#F6F2C3"/>
				<stop  offset="0.3761" style="stop-color:#EDDC99"/>
				<stop  offset="0.7215" style="stop-color:#DEB85E"/>
				<stop  offset="1" style="stop-color:#D19807"/>
			</linearGradient>
			<use xlink:href="#SVGID_45_"  overflow="visible" fill="url(#SVGID_46_)"/>
			<clipPath id="SVGID_47_">
				<use xlink:href="#SVGID_45_"  overflow="visible"/>
			</clipPath>
		</g>
		<g>
			<defs>
				<polygon id="SVGID_48_" points="98.925,43.157 98.968,27.12 84.923,35.177 84.911,51.216 				"/>
			</defs>
			<linearGradient id="SVGID_49_" gradientUnits="userSpaceOnUse" x1="64.3687" y1="30.0259" x2="110.776" y2="45.4135">
				<stop  offset="0" style="stop-color:#F8F8D2"/>
				<stop  offset="0.1264" style="stop-color:#F6F2C3"/>
				<stop  offset="0.3761" style="stop-color:#EDDC99"/>
				<stop  offset="0.7215" style="stop-color:#DEB85E"/>
				<stop  offset="1" style="stop-color:#D19807"/>
			</linearGradient>
			<use xlink:href="#SVGID_48_"  overflow="visible" fill="url(#SVGID_49_)"/>
			<clipPath id="SVGID_50_">
				<use xlink:href="#SVGID_48_"  overflow="visible"/>
			</clipPath>
		</g>
		<g>
			<defs>
				<polygon id="SVGID_51_" points="53.348,41.661 53.303,25.623 39.347,33.682 39.341,49.72 				"/>
			</defs>
			<linearGradient id="SVGID_52_" gradientUnits="userSpaceOnUse" x1="39.3408" y1="37.6719" x2="53.3477" y2="37.6719">
				<stop  offset="0" style="stop-color:#F8F8D2"/>
				<stop  offset="0.1264" style="stop-color:#F6F2C3"/>
				<stop  offset="0.3761" style="stop-color:#EDDC99"/>
				<stop  offset="0.7215" style="stop-color:#DEB85E"/>
				<stop  offset="1" style="stop-color:#D19807"/>
			</linearGradient>
			<use xlink:href="#SVGID_51_"  overflow="visible" fill="url(#SVGID_52_)"/>
			<clipPath id="SVGID_53_">
				<use xlink:href="#SVGID_51_"  overflow="visible"/>
			</clipPath>
		</g>
	</g>
</g>
</svg>
